<svg width="46" height="46" viewBox="0 0 46 46" fill="none" xmlns="http://www.w3.org/2000/svg">
<circle opacity="0.9" cx="23" cy="23" r="22.75" fill="#F5F5F5" stroke="#ACACAC" stroke-width="0.5"/>
<path d="M17 17L23 11L29 17" stroke="#81858A"/>
<path d="M12.7405 25.378H14.7865V32H16.0405V25.378H18.0755V24.355H12.7405V25.378ZM26.7375 28.161C26.7375 25.873 25.0105 24.256 22.8325 24.256C20.6765 24.256 18.9275 25.873 18.9275 28.161C18.9275 30.46 20.6765 32.077 22.8325 32.077C25.0105 32.077 26.7375 30.46 26.7375 28.161ZM20.2145 28.161C20.2145 26.434 21.3145 25.356 22.8325 25.356C24.3505 25.356 25.4505 26.434 25.4505 28.161C25.4505 29.888 24.3505 30.988 22.8325 30.988C21.3145 30.988 20.2145 29.888 20.2145 28.161ZM29.2255 27.875V25.378H30.6115C31.5905 25.378 32.0305 25.84 32.0305 26.632C32.0305 27.402 31.5905 27.875 30.6115 27.875H29.2255ZM33.3175 26.632C33.3175 25.389 32.4265 24.355 30.6115 24.355H27.9715V32H29.2255V28.898H30.6115C32.6025 28.898 33.3175 27.721 33.3175 26.632Z" fill="#81858A"/>
</svg>
