<svg width="67" height="79" viewBox="0 0 67 79" fill="none" xmlns="http://www.w3.org/2000/svg">
<path opacity="0.51" d="M21.1196 20.4065C21.1196 20.4065 41.1045 43.5649 29.0128 78.3835C29.0128 78.3835 68.3109 65.9136 66.4635 33.3623C66.4635 33.3623 45.471 40.4879 21.1196 20.4065Z" fill="url(#paint0_linear)"/>
<path d="M37.0652 10.0429L30.1796 16.521C24.1338 10.8527 20.2711 7.93755 18.2559 6.64193C18.7597 6.96584 19.2635 7.28974 19.5994 7.61364L31.859 6.47998C32.3628 6.47998 32.8667 6.47998 33.2025 6.80388L36.8972 8.90926C37.401 9.07121 37.401 9.71902 37.0652 10.0429Z" fill="url(#paint1_linear)"/>
<path d="M30.3531 16.5187L23.6355 22.9966L0.123779 0C1.13142 0.161948 8.85669 1.13363 17.0858 5.99207C17.2537 6.15402 17.4217 6.15402 17.7575 6.31596C17.9255 6.31596 18.0934 6.47791 18.0934 6.63986C18.0934 6.63986 18.2614 6.63986 18.2614 6.80181L18.4293 6.96375C20.6125 8.25934 24.4752 11.0124 30.3531 16.5187Z" fill="url(#paint2_linear)"/>
<path d="M0.125955 0L23.6376 22.997L16.752 29.637C11.8818 24.7784 9.02678 21.3775 7.51532 19.2721C7.51532 19.2721 7.51532 19.2721 7.51532 19.1102C7.51532 19.1102 7.51532 18.9482 7.34738 18.9482C6.1718 17.1668 5.83592 16.357 5.83592 16.357C3.82064 12.9561 0.965656 6.96388 0.125955 0C-0.041985 0 -0.041985 0 0.125955 0Z" fill="url(#paint3_linear)"/>
<path d="M7.34429 19.1099C8.85576 21.2152 11.5428 24.6161 16.5811 29.4746L9.86341 35.7906C9.52752 36.1145 8.85576 36.1145 8.68782 35.6287L6.50458 32.2277C6.1687 31.7419 6.1687 31.256 6.1687 30.7702L7.34429 19.1099Z" fill="url(#paint4_linear)"/>
<defs>
<linearGradient id="paint0_linear" x1="15.7079" y1="19.6018" x2="45.3946" y2="55.7765" gradientUnits="userSpaceOnUse">
<stop stop-color="#5FF19D"/>
<stop offset="0.062485" stop-color="#59EEA3"/>
<stop offset="0.1488" stop-color="#47E4B5"/>
<stop offset="0.2485" stop-color="#2AD5D2"/>
<stop offset="0.3078" stop-color="#16CAE7"/>
<stop offset="0.3788" stop-color="#1CC7E5" stop-opacity="0.8973"/>
<stop offset="0.4771" stop-color="#2EBFE0" stop-opacity="0.7554"/>
<stop offset="0.5912" stop-color="#4CB2D7" stop-opacity="0.5905"/>
<stop offset="0.7173" stop-color="#74A0CB" stop-opacity="0.4084"/>
<stop offset="0.8532" stop-color="#A988BB" stop-opacity="0.2121"/>
<stop offset="0.9954" stop-color="#E86CA9" stop-opacity="0.01"/>
<stop offset="1" stop-color="#EA6BA8" stop-opacity="0"/>
</linearGradient>
<linearGradient id="paint1_linear" x1="37.8886" y1="0.63153" x2="25.762" y2="11.182" gradientUnits="userSpaceOnUse">
<stop offset="0.0403439" stop-color="#B9B4D4"/>
<stop offset="0.8575" stop-color="#8F8EBF"/>
</linearGradient>
<linearGradient id="paint2_linear" x1="31.6817" y1="24.8047" x2="3.99453" y2="-5.05163" gradientUnits="userSpaceOnUse">
<stop offset="0.0403439" stop-color="#4A4975"/>
<stop offset="0.2111" stop-color="#5B5A8F"/>
<stop offset="0.8575" stop-color="#8F8EBF"/>
</linearGradient>
<linearGradient id="paint3_linear" x1="2.767" y1="4.79223" x2="17.7978" y2="25.549" gradientUnits="userSpaceOnUse">
<stop offset="0.0403439" stop-color="#B9B4D4"/>
<stop offset="0.8575" stop-color="#8F8EBF"/>
</linearGradient>
<linearGradient id="paint4_linear" x1="12.47" y1="22.3405" x2="8.16004" y2="41.2817" gradientUnits="userSpaceOnUse">
<stop offset="0.0403439" stop-color="#4A4975"/>
<stop offset="0.2111" stop-color="#5B5A8F"/>
<stop offset="0.8575" stop-color="#8F8EBF"/>
</linearGradient>
</defs>
</svg>
