<svg width="130" height="45" viewBox="0 0 130 45" fill="none" xmlns="http://www.w3.org/2000/svg">
<rect width="130" height="45" rx="3" fill="white"/>
<path fill-rule="evenodd" clip-rule="evenodd" d="M22.3503 13.3075C22.1254 13.5491 21.9962 13.921 21.9962 14.4043V31.594C21.9962 32.0773 22.1254 32.4492 22.3587 32.6824L22.4196 32.7339L32.0514 23.1021V22.8857L22.4112 13.256L22.3503 13.3075Z" fill="url(#paint0_linear)"/>
<path fill-rule="evenodd" clip-rule="evenodd" d="M35.257 26.3247L32.0443 23.1109V22.8861L35.2581 19.6724L35.3274 19.7154L39.1284 21.8754C40.2168 22.489 40.2168 23.4997 39.1284 24.1216L35.3274 26.2816C35.3263 26.2816 35.257 26.3247 35.257 26.3247Z" fill="url(#paint1_linear)"/>
<path fill-rule="evenodd" clip-rule="evenodd" d="M35.3264 26.2816L32.0444 22.9985L22.3517 32.6913C22.7057 33.0716 23.3014 33.1146 23.9675 32.7427L35.3264 26.2816Z" fill="url(#paint2_linear)"/>
<path fill-rule="evenodd" clip-rule="evenodd" d="M35.3264 19.7184L23.9675 13.2657C23.3025 12.8854 22.7057 12.9368 22.3517 13.3172L32.0434 23.0004L35.3264 19.7184Z" fill="url(#paint3_linear)"/>
<path opacity="0.2" fill-rule="evenodd" clip-rule="evenodd" d="M35.2585 26.2117L23.9773 32.6213C23.3469 32.9838 22.7848 32.9585 22.4224 32.6297L22.3615 32.6906L22.4224 32.7421C22.7848 33.0699 23.3469 33.0962 23.9773 32.7337L35.3362 26.281L35.2585 26.2117Z" fill="black"/>
<path opacity="0.12" fill-rule="evenodd" clip-rule="evenodd" d="M39.1233 24.0092L35.2445 26.2123L35.3138 26.2816L39.1149 24.1216C39.6591 23.8106 39.927 23.4051 39.927 22.9985C39.8923 23.3704 39.616 23.7245 39.1233 24.0092Z" fill="black"/>
<path opacity="0.25" fill-rule="evenodd" clip-rule="evenodd" d="M23.9661 13.3764L39.126 21.9891C39.6188 22.2654 39.8951 22.6279 39.9381 22.9998C39.9381 22.5942 39.6702 22.1877 39.126 21.8767L23.9661 13.264C22.8777 12.642 21.9962 13.16 21.9962 14.4039V14.5163C21.9962 13.2724 22.8777 12.7628 23.9661 13.3764Z" fill="white"/>
<path fill-rule="evenodd" clip-rule="evenodd" d="M43.6381 22.4527C43.6381 19.6991 45.9525 17.4572 48.7061 17.4572C50.2284 17.4572 51.3116 18.0549 52.1289 18.8334L51.1666 19.7958C50.5825 19.2474 49.7903 18.8219 48.7051 18.8219C46.6942 18.8219 45.1226 20.4408 45.1226 22.4516C45.1226 24.4625 46.6942 26.0835 48.704 26.0835C50.0078 26.0835 50.7495 25.5603 51.2254 25.0834C51.6152 24.6936 51.8705 24.1336 51.9692 23.3657H48.7061V22.0041H53.2993C53.3476 22.2478 53.3728 22.5399 53.3728 22.8561C53.3728 23.8783 53.0923 25.1464 52.1899 26.0489C51.3116 26.9629 50.1917 27.4503 48.7051 27.4503C45.9504 27.4503 43.636 25.2105 43.636 22.4548L43.6381 22.4527ZM57.0856 21.0155C55.307 21.0155 53.855 22.3686 53.855 24.2313C53.855 26.0846 55.3059 27.4472 57.0856 27.4472C58.8653 27.4472 60.3141 26.0825 60.3141 24.2303C60.3141 22.3676 58.8642 21.0144 57.0856 21.0155ZM57.0856 26.1823C56.1117 26.1823 55.2702 25.3786 55.2702 24.2324C55.2702 23.0746 56.1107 22.2825 57.0856 22.2825C58.0595 22.2825 58.9 23.0736 58.9 24.2324C58.9 25.3775 58.0605 26.1823 57.0856 26.1823ZM64.1298 21.0155C62.3511 21.0155 60.9013 22.3686 60.9013 24.2313C60.9013 26.0846 62.3511 27.4472 64.1298 27.4472C65.9084 27.4472 67.3582 26.0825 67.3582 24.2303C67.3582 22.3676 65.9095 21.0144 64.1298 21.0155ZM64.1298 26.1823C63.1559 26.1823 62.3144 25.3786 62.3144 24.2324C62.3144 23.0746 63.1548 22.2825 64.1298 22.2825C65.1037 22.2825 65.9452 23.0736 65.9452 24.2324C65.9452 25.3775 65.1037 26.1823 64.1298 26.1823ZM72.7751 21.2109V21.7341H72.7267C72.4105 21.3548 71.8012 21.0144 71.0343 21.0144C69.4258 21.0144 67.9497 22.4285 67.9497 24.245C67.9497 26.0468 69.4248 27.4493 71.0343 27.4493C71.8012 27.4493 72.4105 27.1089 72.7267 26.7191H72.7751V27.1814C72.7751 28.4116 72.1174 29.0703 71.0574 29.0703C70.1917 29.0703 69.6559 28.4484 69.4363 27.9263L68.205 28.4379C68.558 29.2899 69.4972 30.3384 71.0563 30.3384C72.712 30.3384 74.1135 29.3624 74.1135 26.987V21.2099L72.7751 21.2109ZM71.1551 26.1823C70.1812 26.1823 69.3628 25.3649 69.3628 24.245C69.3628 23.1125 70.1801 22.2836 71.1551 22.2836C72.1174 22.2836 72.8728 23.1114 72.8728 24.245C72.8738 25.3649 72.1185 26.1823 71.1551 26.1823ZM75.0895 17.7986H76.5036V27.2539H75.0895V17.7986ZM80.3792 26.1823C79.6606 26.1823 79.1479 25.8524 78.8212 25.2084L83.1223 23.4276L82.9742 23.062C82.7073 22.3445 81.89 21.0155 80.2206 21.0155C78.5638 21.0155 77.1865 22.3193 77.1865 24.2324C77.1865 26.0341 78.5512 27.4482 80.3792 27.4482C81.8542 27.4482 82.7073 26.5479 83.0603 26.0226L81.9635 25.2924C81.5969 25.8293 81.0968 26.1833 80.3792 26.1823ZM80.2689 22.2583C80.8289 22.2583 81.3037 22.5388 81.4624 22.9402L78.5859 24.1347C78.5501 22.8918 79.5493 22.2583 80.2689 22.2583Z" fill="#555555"/>
<path fill-rule="evenodd" clip-rule="evenodd" d="M89.3266 17.7985H85.9458V27.2537H87.3567V23.6723H89.3276C90.892 23.6723 92.43 22.5398 92.43 20.7349C92.43 18.9331 90.893 17.7995 89.3297 17.7995L89.3266 17.7985ZM89.3634 22.3559H87.3567V19.1138H89.3634C90.4181 19.1138 91.0191 19.9889 91.0191 20.7349C91.0191 21.4682 90.4181 22.3559 89.3634 22.3559ZM94.6184 27.2537V17.7985H93.2075V27.2537H94.6184ZM100.957 27.2369V23.6124C100.957 21.9336 99.7022 20.9975 98.0832 20.9975C97.0631 20.9975 96.0052 21.4482 95.5671 22.4452L96.8194 22.9674C97.0873 22.4452 97.5853 22.274 98.1095 22.274C98.8386 22.274 99.5803 22.7121 99.5919 23.4916V23.5893C99.3366 23.4433 98.7903 23.2237 98.12 23.2237C96.77 23.2237 95.3958 23.9654 95.3958 25.3522C95.3958 26.6181 96.5032 27.4323 97.7439 27.4323C98.6936 27.4323 99.2158 27.0069 99.5435 26.5089H99.5919V27.239H100.956L100.957 27.2369ZM97.9151 26.18C97.4529 26.18 96.8078 25.9489 96.8078 25.3784C96.8078 24.6483 97.6115 24.3667 98.3049 24.3667C98.9258 24.3667 99.2168 24.5002 99.595 24.683C99.4868 25.5318 98.7693 26.1695 97.9151 26.18ZM105.919 21.2045L104.301 25.3028H104.252L102.573 21.2045H101.053L103.57 26.9344L102.134 30.1208H103.606L107.486 21.2045H105.919Z" fill="#555555"/>
<defs>
<linearGradient id="paint0_linear" x1="31.1865" y1="14.2195" x2="15.758" y2="18.3304" gradientUnits="userSpaceOnUse">
<stop stop-color="#00A0FF"/>
<stop offset="0.007" stop-color="#00A1FF"/>
<stop offset="0.26" stop-color="#00BEFF"/>
<stop offset="0.512" stop-color="#00D2FF"/>
<stop offset="0.76" stop-color="#00DFFF"/>
<stop offset="1" stop-color="#00E3FF"/>
</linearGradient>
<linearGradient id="paint1_linear" x1="40.5447" y1="22.999" x2="21.733" y2="22.999" gradientUnits="userSpaceOnUse">
<stop stop-color="#FFE000"/>
<stop offset="0.409" stop-color="#FFBD00"/>
<stop offset="0.775" stop-color="#FFA500"/>
<stop offset="1" stop-color="#FF9C00"/>
</linearGradient>
<linearGradient id="paint2_linear" x1="33.5418" y1="24.7846" x2="21.1557" y2="45.631" gradientUnits="userSpaceOnUse">
<stop stop-color="#FF3A44"/>
<stop offset="1" stop-color="#C31162"/>
</linearGradient>
<linearGradient id="paint3_linear" x1="19.9118" y1="7.59063" x2="25.4376" y2="16.901" gradientUnits="userSpaceOnUse">
<stop stop-color="#32A071"/>
<stop offset="0.069" stop-color="#2DA771"/>
<stop offset="0.476" stop-color="#15CF74"/>
<stop offset="0.801" stop-color="#06E775"/>
<stop offset="1" stop-color="#00F076"/>
</linearGradient>
</defs>
</svg>
