<svg width="117" height="41" viewBox="0 0 117 41" fill="none" xmlns="http://www.w3.org/2000/svg">
<rect width="116.794" height="40.4286" rx="3" fill="white"/>
<path d="M35.8212 20.3488C35.8034 18.3653 37.4453 17.4004 37.5204 17.3554C36.5905 15.9997 35.1492 15.8144 34.6427 15.7997C33.4322 15.6723 32.258 16.524 31.6413 16.524C31.0124 16.524 30.0628 15.812 29.0394 15.8329C27.7224 15.8532 26.4903 16.6157 25.8146 17.7998C24.4201 20.214 25.4601 23.7619 26.7962 25.7134C27.4645 26.6691 28.2455 27.7362 29.2677 27.6987C30.2677 27.6575 30.6413 27.0611 31.8481 27.0611C33.0438 27.0611 33.3946 27.6987 34.4371 27.6747C35.5104 27.6575 36.1861 26.7146 36.8311 25.7503C37.6034 24.6549 37.9136 23.576 37.9259 23.5206C37.9007 23.512 35.8415 22.7261 35.8212 20.3488Z" fill="#1C1D20"/>
<path d="M33.8528 14.5164C34.3907 13.8438 34.7587 12.9287 34.6566 12C33.8781 12.0345 32.9045 12.5385 32.3438 13.1964C31.8478 13.7761 31.4047 14.7263 31.5192 15.6199C32.3937 15.6851 33.2916 15.1786 33.8528 14.5164Z" fill="#1C1D20"/>
<path d="M50.2972 25.3092H48.8996L48.134 22.9035H45.473L44.7437 25.3092H43.3831L46.0195 17.1193H47.6479L50.2972 25.3092ZM47.9033 21.8943L47.2109 19.7557C47.1377 19.5372 47.0005 19.0227 46.798 18.2129H46.7734C46.6927 18.5612 46.5629 19.0757 46.3844 19.7557L45.7044 21.8943H47.9033Z" fill="#1C1D20"/>
<path d="M57.0786 22.2843C57.0786 23.2886 56.8072 24.0825 56.2644 24.6653C55.7783 25.1841 55.1745 25.4432 54.4539 25.4432C53.676 25.4432 53.1172 25.1638 52.7769 24.605H52.7523V27.7159H51.4402V21.3482C51.4402 20.7168 51.4236 20.0688 51.3916 19.4041H52.5455L52.6187 20.3402H52.6434C53.0809 19.6349 53.7449 19.2829 54.6361 19.2829C55.3327 19.2829 55.9143 19.558 56.3795 20.1088C56.846 20.6602 57.0786 21.3851 57.0786 22.2843ZM55.742 22.3323C55.742 21.7575 55.6127 21.2836 55.353 20.9107C55.0693 20.5217 54.6884 20.3273 54.2108 20.3273C53.8871 20.3273 53.5929 20.4356 53.3302 20.6491C53.0668 20.8645 52.8944 21.1458 52.8138 21.4941C52.7732 21.6565 52.7529 21.7895 52.7529 21.8941V22.8788C52.7529 23.3083 52.8846 23.6708 53.148 23.9668C53.4114 24.2628 53.7536 24.4105 54.1745 24.4105C54.6687 24.4105 55.0533 24.2197 55.3284 23.8394C55.6041 23.4585 55.742 22.9563 55.742 22.3323Z" fill="#1C1D20"/>
<path d="M63.8703 22.2846C63.8703 23.2889 63.5989 24.0828 63.0554 24.6656C62.5699 25.1844 61.9662 25.4435 61.2455 25.4435C60.4676 25.4435 59.9088 25.1641 59.5691 24.6053H59.5445V27.7162H58.2325V21.3485C58.2325 20.7171 58.2158 20.0691 58.1838 19.4044H59.3377L59.411 20.3405H59.4356C59.8725 19.6352 60.5366 19.2832 61.4283 19.2832C62.1243 19.2832 62.7059 19.5583 63.1724 20.1091C63.637 20.6605 63.8703 21.3855 63.8703 22.2846ZM62.5336 22.3326C62.5336 21.7578 62.4037 21.2839 62.144 20.911C61.8603 20.522 61.4806 20.3276 61.0024 20.3276C60.6781 20.3276 60.3846 20.4359 60.1212 20.6494C59.8578 20.8648 59.6861 21.1461 59.6054 21.4944C59.5654 21.6569 59.5445 21.7898 59.5445 21.8944V22.8791C59.5445 23.3086 59.6762 23.6711 59.9384 23.9671C60.2018 24.2625 60.544 24.4108 60.9661 24.4108C61.4603 24.4108 61.8449 24.22 62.12 23.8397C62.3957 23.4588 62.5336 22.9566 62.5336 22.3326Z" fill="#1C1D20"/>
<path d="M71.4646 23.0132C71.4646 23.7098 71.2228 24.2766 70.7372 24.7142C70.2037 25.1924 69.4609 25.4312 68.5064 25.4312C67.6251 25.4312 66.9186 25.2613 66.3838 24.921L66.6878 23.8274C67.2638 24.1757 67.8959 24.3505 68.5845 24.3505C69.0787 24.3505 69.4633 24.2385 69.7396 24.0157C70.0147 23.7929 70.152 23.4938 70.152 23.1209C70.152 22.7886 70.0387 22.5086 69.8116 22.2815C69.5858 22.0544 69.2085 21.8433 68.6817 21.6482C67.2478 21.1134 66.5315 20.33 66.5315 19.2998C66.5315 18.6265 66.7826 18.0745 67.2854 17.645C67.7863 17.2148 68.4547 17 69.2904 17C70.0357 17 70.6548 17.1299 71.1489 17.3889L70.8209 18.4585C70.3594 18.2074 69.8375 18.0819 69.2535 18.0819C68.7919 18.0819 68.4313 18.1957 68.1728 18.4222C67.9543 18.6247 67.8448 18.8715 67.8448 19.1638C67.8448 19.4875 67.9697 19.7552 68.2208 19.9657C68.4393 20.1601 68.8362 20.3706 69.4122 20.5977C70.1169 20.8814 70.6345 21.2131 70.9674 21.5934C71.2991 21.9725 71.4646 22.447 71.4646 23.0132Z" fill="#1C1D20"/>
<path d="M75.8037 20.3878H74.3575V23.255C74.3575 23.9842 74.6123 24.3486 75.1231 24.3486C75.3576 24.3486 75.552 24.3282 75.7059 24.2876L75.7422 25.284C75.4837 25.3806 75.1434 25.4292 74.7219 25.4292C74.2037 25.4292 73.7987 25.2711 73.5064 24.9554C73.2153 24.639 73.0689 24.1085 73.0689 23.3633V20.3865H72.2073V19.4019H73.0689V18.3206L74.3575 17.9316V19.4019H75.8037V20.3878Z" fill="#1C1D20"/>
<path d="M82.328 22.3077C82.328 23.2154 82.0683 23.9607 81.5501 24.5434C81.0067 25.1435 80.2854 25.4426 79.3863 25.4426C78.5198 25.4426 77.8299 25.1552 77.3154 24.5804C76.8009 24.0056 76.5437 23.28 76.5437 22.4055C76.5437 21.4904 76.8083 20.7408 77.3394 20.158C77.8693 19.5746 78.5844 19.2829 79.4835 19.2829C80.35 19.2829 81.0473 19.5703 81.5735 20.1457C82.0769 20.7039 82.328 21.4245 82.328 22.3077ZM80.9667 22.3501C80.9667 21.8055 80.8504 21.3384 80.6147 20.9488C80.3396 20.4774 79.9463 20.2423 79.4368 20.2423C78.9093 20.2423 78.5087 20.478 78.2336 20.9488C77.9979 21.339 77.8816 21.8135 77.8816 22.3747C77.8816 22.9194 77.9979 23.3865 78.2336 23.7754C78.5173 24.2468 78.9137 24.4819 79.4251 24.4819C79.926 24.4819 80.3193 24.2419 80.603 23.7631C80.8448 23.3662 80.9667 22.8941 80.9667 22.3501Z" fill="#1C1D20"/>
<path d="M86.5934 20.5583C86.4635 20.5343 86.325 20.522 86.1798 20.522C85.7183 20.522 85.3613 20.6962 85.1102 21.0451C84.8918 21.3528 84.7822 21.7418 84.7822 22.2113V25.3099H83.4708L83.4831 21.2642C83.4831 20.5836 83.4665 19.9639 83.4338 19.4051H84.5767L84.6247 20.535H84.661C84.7994 20.1466 85.0179 19.834 85.317 19.5995C85.6093 19.3884 85.925 19.2832 86.2654 19.2832C86.3866 19.2832 86.4961 19.2918 86.5934 19.3072V20.5583Z" fill="#1C1D20"/>
<path d="M92.4594 22.0772C92.4594 22.3122 92.444 22.5104 92.4114 22.6723H88.4752C88.4906 23.2557 88.6808 23.7018 89.0463 24.0096C89.3781 24.2846 89.807 24.4225 90.3338 24.4225C90.9166 24.4225 91.4483 24.3296 91.9265 24.1431L92.132 25.0539C91.5732 25.2976 90.9135 25.4188 90.1522 25.4188C89.2365 25.4188 88.5177 25.1493 87.9946 24.6108C87.4727 24.0723 87.2112 23.3492 87.2112 22.4421C87.2112 21.5516 87.4543 20.81 87.9411 20.2186C88.4506 19.5872 89.1393 19.2715 90.0058 19.2715C90.8569 19.2715 91.5012 19.5872 91.9388 20.2186C92.2853 20.7202 92.4594 21.3405 92.4594 22.0772ZM91.2083 21.7368C91.2169 21.3479 91.1314 21.0119 90.9535 20.7282C90.7264 20.3632 90.3775 20.1811 89.9079 20.1811C89.479 20.1811 89.13 20.3589 88.8636 20.7159C88.6451 20.9996 88.5152 21.3399 88.4752 21.7362H91.2083V21.7368Z" fill="#1C1D20"/>
</svg>
