<svg width="44" height="9" viewBox="0 0 44 9" fill="none" xmlns="http://www.w3.org/2000/svg">
<path d="M3.28282 0.144348L0 8.19334H2.03048L2.68705 6.53977H5.54432L6.20088 8.19334H8.29216L5.00934 0.144348H3.28282ZM4.01234 3.11104C4.04881 3.00162 4.08529 2.90435 4.12176 2.80708C4.13392 2.8314 4.13392 2.84356 4.14608 2.86787C4.21903 3.07457 4.27982 3.26911 4.34062 3.43933C4.40141 3.62171 4.4622 3.76761 4.49868 3.87704L4.88775 4.87404H3.34361L3.72053 3.90135C3.8178 3.65818 3.91507 3.39069 4.01234 3.11104Z" fill="#C4C4C4"/>
<path d="M8.87579 1.94541H11.1981V8.19492H13.2164V1.94541H15.5995V0.145935H8.87579V1.94541Z" fill="#C4C4C4"/>
<path d="M24.1835 1.17938C23.8066 0.802467 23.3567 0.510661 22.8339 0.303965C22.3232 0.109427 21.7518 0 21.156 0C20.5481 0 19.9766 0.109427 19.466 0.303965C18.9553 0.510661 18.4933 0.802467 18.1164 1.16722C17.7394 1.53198 17.4355 1.98185 17.2288 2.48035C17.0221 2.97885 16.9127 3.53815 16.9127 4.13392C16.9127 4.72969 17.0221 5.28899 17.2288 5.79965C17.4355 6.29815 17.7394 6.74802 18.1164 7.11278C18.4933 7.47753 18.9431 7.76934 19.466 7.97604C19.9766 8.18273 20.5481 8.28 21.156 8.28C21.7518 8.28 22.3232 8.17057 22.8339 7.97604C23.3446 7.76934 23.8066 7.47753 24.1835 7.10062C24.5604 6.7237 24.8644 6.28599 25.0711 5.77533C25.2778 5.27683 25.3872 4.71753 25.3872 4.12176C25.3872 3.53815 25.2778 2.99101 25.0711 2.48035C24.8522 2.00617 24.5604 1.5563 24.1835 1.17938ZM23.3324 4.14608C23.3324 4.58379 23.2351 4.98502 23.0527 5.32546C22.8704 5.6659 22.6029 5.93339 22.2868 6.12793C21.9585 6.32247 21.5816 6.41974 21.156 6.41974C20.7305 6.41974 20.3414 6.32247 20.0131 6.12793C19.6848 5.93339 19.4295 5.6659 19.2471 5.32546C19.0647 4.98502 18.9675 4.58379 18.9675 4.13392C18.9675 3.69621 19.0647 3.29498 19.2471 2.95454C19.4295 2.6141 19.697 2.34661 20.0131 2.15207C20.3414 1.95753 20.7183 1.86026 21.156 1.86026C21.5816 1.86026 21.9585 1.95753 22.2868 2.15207C22.615 2.34661 22.8704 2.62626 23.0649 2.95454C23.2351 3.30714 23.3324 3.69621 23.3324 4.14608Z" fill="#C4C4C4"/>
<path d="M29.7277 0.145935H27.7216V8.19492H33.3753V6.38329H29.7277V0.145935Z" fill="#C4C4C4"/>
<path d="M43.1509 2.50467C42.9442 2.00617 42.6402 1.5563 42.2633 1.17938C41.8864 0.802467 41.4365 0.510661 40.9137 0.303965C40.4031 0.0972687 39.8316 0 39.2358 0C38.6279 0 38.0565 0.109427 37.5458 0.303965C37.0351 0.510661 36.5731 0.802467 36.1962 1.16722C35.8193 1.53198 35.5153 1.98185 35.3086 2.48035C35.1019 2.97885 34.9925 3.53815 34.9925 4.13392C34.9925 4.72969 35.1019 5.28899 35.3086 5.79965C35.5153 6.29815 35.8193 6.74802 36.1962 7.11278C36.5731 7.47753 37.023 7.76934 37.5458 7.97604C38.0565 8.18273 38.6279 8.28 39.2358 8.28C39.8316 8.28 40.4031 8.17057 40.9137 7.97604C41.4244 7.76934 41.8864 7.47753 42.2633 7.10062C42.6402 6.7237 42.9442 6.28599 43.1509 5.77533C43.3576 5.27683 43.467 4.71753 43.467 4.12176C43.467 3.56247 43.3576 3.00317 43.1509 2.50467ZM41.4244 4.14608C41.4244 4.58379 41.3271 4.98502 41.1447 5.32546C40.9624 5.6659 40.6949 5.93339 40.3788 6.12793C40.0505 6.32247 39.6736 6.41974 39.248 6.41974C38.8224 6.41974 38.4334 6.32247 38.1051 6.12793C37.7768 5.93339 37.5215 5.6659 37.3391 5.32546C37.1567 4.98502 37.0595 4.58379 37.0595 4.13392C37.0595 3.69621 37.1567 3.29498 37.3391 2.95454C37.5215 2.6141 37.789 2.34661 38.1051 2.15207C38.4334 1.95753 38.8103 1.86026 39.248 1.86026C39.6736 1.86026 40.0505 1.95753 40.3788 2.15207C40.707 2.34661 40.9624 2.62626 41.1569 2.95454C41.3271 3.30714 41.4244 3.69621 41.4244 4.14608Z" fill="#C4C4C4"/>
</svg>
