<svg width="130" height="45" viewBox="0 0 130 45" fill="none" xmlns="http://www.w3.org/2000/svg">
<rect width="130" height="45" rx="3" fill="white"/>
<path d="M50.9597 27.0176H52.2764V23.9494H54.0662C56.0903 23.9494 57.0918 22.7264 57.0918 21.1156C57.0918 19.5091 56.0989 18.2903 54.0705 18.2903H50.9597V27.0176ZM52.2764 22.8329V19.4196H53.9298C55.2338 19.4196 55.7665 20.127 55.7665 21.1156C55.7665 22.1042 55.2338 22.8329 53.9469 22.8329H52.2764ZM65.884 21.1284C65.5857 19.2619 64.1241 18.171 62.2789 18.171C60.0204 18.171 58.3542 19.8627 58.3542 22.6539C58.3542 25.4451 60.0119 27.1369 62.2789 27.1369C64.1965 27.1369 65.5985 25.9352 65.884 24.2093L64.5545 24.2051C64.3286 25.3216 63.3911 25.9352 62.2874 25.9352C60.7917 25.9352 59.6624 24.7889 59.6624 22.6539C59.6624 20.536 60.7874 19.3727 62.2917 19.3727C63.4039 19.3727 64.3371 19.9991 64.5545 21.1284H65.884ZM72.3442 27.0176H73.6738L75.5104 20.4806H75.5786L77.4153 27.0176H78.7406L81.1653 18.2903H79.7761L78.08 25.0531H77.9991L76.2306 18.2903H74.8585L73.09 25.0488H73.009L71.3087 18.2903H69.9238L72.3442 27.0176ZM83.5239 27.1625C84.6063 27.1625 85.2157 26.6127 85.4586 26.1227H85.5097V27.0176H86.7541V22.671C86.7541 20.7662 85.2541 20.3869 84.2143 20.3869C83.0296 20.3869 81.9387 20.8642 81.5126 22.0574L82.71 22.3301C82.8975 21.8656 83.3748 21.4181 84.2313 21.4181C85.0538 21.4181 85.4756 21.8485 85.4756 22.59V22.6199C85.4756 23.0843 84.9984 23.0758 83.8222 23.2122C82.5822 23.3571 81.3123 23.6809 81.3123 25.1681C81.3123 26.4551 82.2796 27.1625 83.5239 27.1625ZM83.8009 26.1397C83.0808 26.1397 82.5609 25.8159 82.5609 25.1852C82.5609 24.5034 83.166 24.2605 83.9032 24.1625C84.3166 24.1071 85.2967 23.9963 85.4799 23.813V24.6568C85.4799 25.4324 84.862 26.1397 83.8009 26.1397ZM89.7253 18.2903H88.4511V27.0176H89.7253V18.2903ZM92.7136 18.2903H91.4394V27.0176H92.7136V18.2903ZM97.2487 27.1497C98.6763 27.1497 99.6862 26.4466 99.976 25.3812L98.77 25.1639C98.5399 25.7818 97.9859 26.0971 97.2615 26.0971C96.1706 26.0971 95.4376 25.3897 95.4036 24.1284H100.057V23.6767C100.057 21.3116 98.6422 20.3869 97.1592 20.3869C95.3354 20.3869 94.1337 21.7761 94.1337 23.7875C94.1337 25.8201 95.3183 27.1497 97.2487 27.1497ZM95.4078 23.1738C95.459 22.2449 96.1322 21.4395 97.1678 21.4395C98.1564 21.4395 98.8041 22.1724 98.8084 23.1738H95.4078ZM104.526 20.4721H103.184V18.9039H101.91V20.4721H100.951V21.4949H101.91V25.3599C101.905 26.5488 102.813 27.1241 103.819 27.1028C104.224 27.0985 104.496 27.0218 104.645 26.9664L104.415 25.9139C104.33 25.9309 104.172 25.9693 103.968 25.9693C103.554 25.9693 103.184 25.8329 103.184 25.0957V21.4949H104.526V20.4721Z" fill="black"/>
<path d="M23 16.7352L30.356 15.8474L30.3592 22.1351L23.0067 22.1722L23 16.7352ZM30.3525 22.8596L30.3582 29.1527L23.0057 28.2569L23.0053 22.8173L30.3525 22.8596ZM31.2442 15.7313L40.9977 14.4698V22.0551L31.2442 22.1237V15.7313ZM41 22.9187L40.9977 30.4698L31.2442 29.25L31.2306 22.9046L41 22.9187Z" fill="#00ADEF"/>
</svg>
