<svg width="36" height="11" viewBox="0 0 36 11" fill="none" xmlns="http://www.w3.org/2000/svg">
<path d="M7.60159 0.0670166H6.40721V4.465H1.84179V0.703273C1.84179 0.346076 1.55157 0.0670166 1.19438 0.0670166H0V10.6713H1.19438C1.55157 10.6713 1.84179 10.4146 1.84179 10.0574V6.27331H6.40721V10.6601H7.60159C7.95879 10.6601 8.24901 10.4034 8.24901 10.0462V0.703273C8.24901 0.346076 7.95879 0.0670166 7.60159 0.0670166Z" fill="#C5C5C5"/>
<path d="M31.9691 4.46502H35.3067V2.61206H31.9803C30.7748 2.61206 29.8371 2.96926 29.2009 3.67249C28.5534 4.37572 28.2297 5.35801 28.2297 6.6082C28.2297 7.38956 28.3748 8.11512 28.6762 8.7737C28.9999 9.46577 29.4688 9.96808 30.0492 10.2806C30.5738 10.5485 31.3329 10.6825 32.3598 10.6825H35.3179V8.74021H32.6724C31.7905 8.74021 31.1543 8.58394 30.7859 8.28256C30.3952 7.95885 30.2055 7.38956 30.2055 6.56355C30.1832 5.13476 30.7524 4.46502 31.9691 4.46502Z" fill="#C5C5C5"/>
<path d="M15.5827 2.60084H13.4061C12.2005 2.60084 11.2629 2.9692 10.6266 3.66126C9.97923 4.3645 9.65552 5.34679 9.65552 6.59697C9.65552 7.37834 9.80063 8.1039 10.102 8.76248C10.4257 9.45455 10.8834 9.95685 11.475 10.2694C11.9996 10.5373 12.7587 10.6712 13.7856 10.6712H15.5939H16.7213C17.0785 10.6712 17.3687 10.381 17.3687 10.0238V0H15.5827V2.60084ZM15.5827 8.74015H14.087C13.2052 8.74015 12.5689 8.58388 12.2005 8.2825C11.8099 7.95879 11.6201 7.3895 11.6201 6.56349C11.6089 5.1347 12.1782 4.46496 13.3949 4.46496H15.5827V8.74015Z" fill="#C5C5C5"/>
<path d="M25.9973 2.60083H22.6932C21.4877 2.60083 20.55 2.96919 19.9138 3.67242C19.2663 4.37565 18.9426 5.35794 18.9426 6.60813C18.9426 7.3895 19.0877 8.11505 19.3891 8.77363C19.7128 9.4657 20.1705 9.96801 20.7621 10.2806C21.2867 10.5485 22.0458 10.6824 23.0727 10.6824H23.5527V8.74015H23.1955C22.3137 8.74015 21.8672 8.58387 21.4988 8.28249C21.1081 7.95878 20.9184 7.3895 20.9184 6.56348C20.9184 5.13469 21.4877 4.46495 22.7044 4.46495H24.881V10.6489H26.667V3.23709C26.6447 2.87989 26.3545 2.60083 25.9973 2.60083Z" fill="#C5C5C5"/>
</svg>
