<svg width="130" height="45" viewBox="0 0 130 45" fill="none" xmlns="http://www.w3.org/2000/svg">
<rect width="130" height="45" rx="3" fill="white" fill-opacity="0.1"/>
<path d="M50.9595 27.0176H52.2763V23.9494H54.0661C56.0902 23.9494 57.0916 22.7264 57.0916 21.1156C57.0916 19.5091 56.0987 18.2903 54.0703 18.2903H50.9595V27.0176ZM52.2763 22.8329V19.4196H53.9297C55.2337 19.4196 55.7664 20.127 55.7664 21.1156C55.7664 22.1042 55.2337 22.8329 53.9468 22.8329H52.2763ZM65.8839 21.1284C65.5856 19.2619 64.124 18.171 62.2788 18.171C60.0203 18.171 58.3541 19.8627 58.3541 22.6539C58.3541 25.4451 60.0117 27.1369 62.2788 27.1369C64.1964 27.1369 65.5984 25.9352 65.8839 24.2093L64.5544 24.2051C64.3285 25.3216 63.391 25.9352 62.2873 25.9352C60.7916 25.9352 59.6623 24.7889 59.6623 22.6539C59.6623 20.536 60.7873 19.3727 62.2916 19.3727C63.4038 19.3727 64.337 19.9991 64.5544 21.1284H65.8839ZM72.3441 27.0176H73.6737L75.5103 20.4806H75.5785L77.4152 27.0176H78.7404L81.1652 18.2903H79.7759L78.0799 25.0531H77.999L76.2305 18.2903H74.8583L73.0899 25.0488H73.0089L71.3086 18.2903H69.9237L72.3441 27.0176ZM83.5238 27.1625C84.6062 27.1625 85.2156 26.6127 85.4585 26.1227H85.5096V27.0176H86.7539V22.671C86.7539 20.7662 85.2539 20.3869 84.2142 20.3869C83.0295 20.3869 81.9386 20.8642 81.5125 22.0574L82.7099 22.3301C82.8974 21.8656 83.3747 21.4181 84.2312 21.4181C85.0536 21.4181 85.4755 21.8485 85.4755 22.59V22.6199C85.4755 23.0843 84.9982 23.0758 83.8221 23.2122C82.5821 23.3571 81.3122 23.6809 81.3122 25.1681C81.3122 26.4551 82.2795 27.1625 83.5238 27.1625ZM83.8008 26.1397C83.0806 26.1397 82.5607 25.8159 82.5607 25.1852C82.5607 24.5034 83.1659 24.2605 83.9031 24.1625C84.3164 24.1071 85.2965 23.9963 85.4798 23.813V24.6568C85.4798 25.4324 84.8619 26.1397 83.8008 26.1397ZM89.7252 18.2903H88.451V27.0176H89.7252V18.2903ZM92.7134 18.2903H91.4393V27.0176H92.7134V18.2903ZM97.2486 27.1497C98.6762 27.1497 99.6861 26.4466 99.9759 25.3812L98.7699 25.1639C98.5398 25.7818 97.9858 26.0971 97.2614 26.0971C96.1705 26.0971 95.4375 25.3897 95.4034 24.1284H100.057V23.6767C100.057 21.3116 98.6421 20.3869 97.1591 20.3869C95.3352 20.3869 94.1335 21.7761 94.1335 23.7875C94.1335 25.8201 95.3182 27.1497 97.2486 27.1497ZM95.4077 23.1738C95.4588 22.2449 96.1321 21.4395 97.1676 21.4395C98.1563 21.4395 98.804 22.1724 98.8083 23.1738H95.4077ZM104.526 20.4721H103.184V18.9039H101.909V20.4721H100.951V21.4949H101.909V25.3599C101.905 26.5488 102.813 27.1241 103.819 27.1028C104.223 27.0985 104.496 27.0218 104.645 26.9664L104.415 25.9139C104.33 25.9309 104.172 25.9693 103.968 25.9693C103.554 25.9693 103.184 25.8329 103.184 25.0957V21.4949H104.526V20.4721Z" fill="white"/>
<path d="M23 16.7352L30.356 15.8474L30.3592 22.1351L23.0067 22.1722L23 16.7352ZM30.3525 22.8596L30.3582 29.1527L23.0057 28.2569L23.0053 22.8173L30.3525 22.8596ZM31.2442 15.7313L40.9977 14.4698V22.0551L31.2442 22.1237V15.7313ZM41 22.9187L40.9977 30.4698L31.2442 29.25L31.2306 22.9046L41 22.9187Z" fill="white"/>
</svg>
