<svg width="117" height="41" viewBox="0 0 117 41" fill="none" xmlns="http://www.w3.org/2000/svg">
<rect width="116.794" height="40.4286" rx="3" fill="white" fill-opacity="0.1"/>
<path d="M46.6193 24H47.7166V21.4432H49.2081C50.8949 21.4432 51.7294 20.424 51.7294 19.0817C51.7294 17.7429 50.902 16.7273 49.2116 16.7273H46.6193V24ZM47.7166 20.5128V17.6683H49.0945C50.1811 17.6683 50.625 18.2578 50.625 19.0817C50.625 19.9055 50.1811 20.5128 49.1087 20.5128H47.7166ZM59.0563 19.0923C58.8077 17.5369 57.5897 16.6278 56.052 16.6278C54.1699 16.6278 52.7814 18.0376 52.7814 20.3636C52.7814 22.6896 54.1628 24.0994 56.052 24.0994C57.65 24.0994 58.8184 23.098 59.0563 21.6598L57.9483 21.6562C57.7601 22.5866 56.9789 23.098 56.0591 23.098C54.8127 23.098 53.8716 22.1428 53.8716 20.3636C53.8716 18.5987 54.8091 17.6293 56.0627 17.6293C56.9895 17.6293 57.7672 18.1513 57.9483 19.0923H59.0563ZM64.4398 24H65.5478L67.0783 18.5526H67.1351L68.6657 24H69.7701L71.7907 16.7273H70.633L69.2196 22.3629H69.1522L67.6784 16.7273H66.535L65.0613 22.3594H64.9938L63.5769 16.7273H62.4228L64.4398 24ZM73.7562 24.1207C74.6582 24.1207 75.166 23.6626 75.3684 23.2543H75.411V24H76.448V20.3778C76.448 18.7905 75.198 18.4744 74.3315 18.4744C73.3443 18.4744 72.4352 18.8722 72.0801 19.8665L73.0779 20.0938C73.2342 19.7067 73.6319 19.3338 74.3457 19.3338C75.0311 19.3338 75.3826 19.6925 75.3826 20.3104V20.3352C75.3826 20.7223 74.9849 20.7152 74.0048 20.8288C72.9714 20.9496 71.9132 21.2195 71.9132 22.4588C71.9132 23.5312 72.7193 24.1207 73.7562 24.1207ZM73.987 23.2685C73.3869 23.2685 72.9537 22.9986 72.9537 22.473C72.9537 21.9048 73.4579 21.7024 74.0723 21.6207C74.4167 21.5746 75.2335 21.4822 75.3862 21.3295V22.0327C75.3862 22.679 74.8713 23.2685 73.987 23.2685ZM78.924 16.7273H77.8622V24H78.924V16.7273ZM81.4142 16.7273H80.3525V24H81.4142V16.7273ZM85.1935 24.1101C86.3832 24.1101 87.2248 23.5241 87.4663 22.6364L86.4613 22.4553C86.2695 22.9702 85.8079 23.233 85.2042 23.233C84.2951 23.233 83.6843 22.6435 83.6559 21.5923H87.5337V21.2159C87.5337 19.245 86.3548 18.4744 85.119 18.4744C83.5991 18.4744 82.5977 19.6321 82.5977 21.3082C82.5977 23.0021 83.5849 24.1101 85.1935 24.1101ZM83.6594 20.7969C83.7021 20.0227 84.2631 19.3516 85.1261 19.3516C85.9499 19.3516 86.4897 19.9624 86.4933 20.7969H83.6594ZM91.258 18.5455H90.1394V17.2386H89.0776V18.5455H88.2786V19.3977H89.0776V22.6186C89.074 23.6094 89.8304 24.0888 90.6685 24.071C91.0059 24.0675 91.2331 24.0036 91.3574 23.9574L91.1657 23.0803C91.0946 23.0945 90.9632 23.1264 90.7928 23.1264C90.4483 23.1264 90.1394 23.0128 90.1394 22.3984V19.3977H91.258V18.5455Z" fill="white"/>
<path d="M21.5625 15.0352L28.1712 14.2376L28.1741 19.8866L21.5685 19.9199L21.5625 15.0352ZM28.1681 20.5374L28.1732 26.1913L21.5676 25.3865L21.5673 20.4995L28.1681 20.5374ZM28.9692 14.1333L37.7319 13V19.8147L28.9692 19.8764V14.1333ZM37.7339 20.5906L37.7319 27.3746L28.9692 26.2787L28.9569 20.5779L37.7339 20.5906Z" fill="white"/>
</svg>
