<svg width="118" height="41" viewBox="0 0 118 41" fill="none" xmlns="http://www.w3.org/2000/svg">
<rect x="0.511719" width="116.794" height="40.4286" rx="3" fill="white"/>
<path fill-rule="evenodd" clip-rule="evenodd" d="M20.5915 11.9558C20.3895 12.1729 20.2734 12.507 20.2734 12.9412V28.3846C20.2734 28.8188 20.3895 29.1529 20.5991 29.3625L20.6538 29.4087L29.3071 20.7554V20.561L20.6463 11.9095L20.5915 11.9558Z" fill="url(#paint0_linear)"/>
<path fill-rule="evenodd" clip-rule="evenodd" d="M32.1871 23.6504L29.3008 20.7631V20.5611L32.1881 17.6738L32.2503 17.7125L35.6652 19.6531C36.6431 20.2043 36.6431 21.1123 35.6652 21.6711L32.2503 23.6117C32.2494 23.6117 32.1871 23.6504 32.1871 23.6504Z" fill="url(#paint1_linear)"/>
<path fill-rule="evenodd" clip-rule="evenodd" d="M32.2495 23.6116L29.3008 20.662L20.5928 29.3701C20.9109 29.7118 21.446 29.7505 22.0444 29.4164L32.2495 23.6116Z" fill="url(#paint2_linear)"/>
<path fill-rule="evenodd" clip-rule="evenodd" d="M32.2495 17.7147L22.0444 11.9175C21.447 11.5758 20.9109 11.622 20.5928 11.9637L29.2999 20.6633L32.2495 17.7147Z" fill="url(#paint3_linear)"/>
<path opacity="0.2" fill-rule="evenodd" clip-rule="evenodd" d="M32.1884 23.5488L22.0532 29.3073C21.4869 29.633 20.9819 29.6103 20.6563 29.3149L20.6016 29.3696L20.6563 29.4159C20.9819 29.7104 21.4869 29.7339 22.0532 29.4083L32.2582 23.6111L32.1884 23.5488Z" fill="black"/>
<path opacity="0.12" fill-rule="evenodd" clip-rule="evenodd" d="M35.6605 21.5701L32.1758 23.5494L32.2381 23.6117L35.653 21.6711C36.1419 21.3917 36.3826 21.0274 36.3826 20.6621C36.3514 20.9962 36.1032 21.3143 35.6605 21.5701Z" fill="black"/>
<path opacity="0.25" fill-rule="evenodd" clip-rule="evenodd" d="M22.0432 12.0175L35.6631 19.7553C36.1058 20.0035 36.354 20.3291 36.3927 20.6633C36.3927 20.2989 36.152 19.9337 35.6631 19.6543L22.0432 11.9165C21.0653 11.3578 20.2734 11.8231 20.2734 12.9406V13.0416C20.2734 11.9241 21.0653 11.4663 22.0432 12.0175Z" fill="white"/>
<path fill-rule="evenodd" clip-rule="evenodd" d="M39.7167 20.1717C39.7167 17.6978 41.7961 15.6836 44.2699 15.6836C45.6376 15.6836 46.6107 16.2207 47.345 16.9201L46.4804 17.7846C45.9557 17.2919 45.244 16.9097 44.269 16.9097C42.4624 16.9097 41.0504 18.3642 41.0504 20.1707C41.0504 21.9773 42.4624 23.4336 44.268 23.4336C45.4394 23.4336 46.1057 22.9636 46.5333 22.5351C46.8835 22.1849 47.1128 21.6818 47.2015 20.9919H44.2699V19.7686H48.3965C48.4399 19.9876 48.4625 20.25 48.4625 20.5341C48.4625 21.4525 48.2105 22.5917 47.3998 23.4025C46.6107 24.2236 45.6045 24.6616 44.269 24.6616C41.7942 24.6616 39.7148 22.6493 39.7148 20.1735L39.7167 20.1717ZM51.7981 18.8805C50.2002 18.8805 48.8958 20.0961 48.8958 21.7696C48.8958 23.4346 50.1992 24.6588 51.7981 24.6588C53.397 24.6588 54.6986 23.4327 54.6986 21.7687C54.6986 20.0952 53.3961 18.8795 51.7981 18.8805ZM51.7981 23.5224C50.9232 23.5224 50.1672 22.8003 50.1672 21.7706C50.1672 20.7304 50.9222 20.0187 51.7981 20.0187C52.6731 20.0187 53.4282 20.7295 53.4282 21.7706C53.4282 22.7994 52.6741 23.5224 51.7981 23.5224ZM58.1267 18.8805C56.5288 18.8805 55.2263 20.0961 55.2263 21.7696C55.2263 23.4346 56.5288 24.6588 58.1267 24.6588C59.7247 24.6588 61.0272 23.4327 61.0272 21.7687C61.0272 20.0952 59.7256 18.8795 58.1267 18.8805ZM58.1267 23.5224C57.2518 23.5224 56.4957 22.8003 56.4957 21.7706C56.4957 20.7304 57.2508 20.0187 58.1267 20.0187C59.0017 20.0187 59.7577 20.7295 59.7577 21.7706C59.7577 22.7994 59.0017 23.5224 58.1267 23.5224ZM65.8938 19.056V19.5261H65.8503C65.5662 19.1853 65.0188 18.8795 64.3298 18.8795C62.8847 18.8795 61.5586 20.1499 61.5586 21.7819C61.5586 23.4006 62.8838 24.6607 64.3298 24.6607C65.0188 24.6607 65.5662 24.3548 65.8503 24.0047H65.8938V24.42C65.8938 25.5252 65.3029 26.117 64.3506 26.117C63.5728 26.117 63.0914 25.5583 62.8942 25.0892L61.788 25.5488C62.1051 26.3143 62.9489 27.2563 64.3496 27.2563C65.8371 27.2563 67.0962 26.3794 67.0962 24.2454V19.0551L65.8938 19.056ZM64.4383 23.5224C63.5634 23.5224 62.8281 22.788 62.8281 21.7819C62.8281 20.7644 63.5624 20.0197 64.4383 20.0197C65.3029 20.0197 65.9815 20.7635 65.9815 21.7819C65.9825 22.788 65.3039 23.5224 64.4383 23.5224ZM67.9731 15.9903H69.2435V24.4851H67.9731V15.9903ZM72.7254 23.5224C72.0798 23.5224 71.6192 23.226 71.3257 22.6474L75.1898 21.0476L75.0568 20.7191C74.817 20.0744 74.0827 18.8805 72.5829 18.8805C71.0944 18.8805 69.857 20.0518 69.857 21.7706C69.857 23.3893 71.0831 24.6597 72.7254 24.6597C74.0506 24.6597 74.817 23.8508 75.1342 23.3789L74.1488 22.7229C73.8194 23.2052 73.3701 23.5233 72.7254 23.5224ZM72.6263 19.997C73.1294 19.997 73.556 20.249 73.6985 20.6096L71.1143 21.6828C71.0822 20.5662 71.9798 19.997 72.6263 19.997Z" fill="#555555"/>
<path fill-rule="evenodd" clip-rule="evenodd" d="M80.7639 15.9902H77.7266V24.485H78.9942V21.2674H80.7648C82.1703 21.2674 83.5521 20.2499 83.5521 18.6283C83.5521 17.0096 82.1712 15.9912 80.7667 15.9912L80.7639 15.9902ZM80.7969 20.0847H78.9942V17.1719H80.7969C81.7446 17.1719 82.2845 17.9582 82.2845 18.6283C82.2845 19.2871 81.7446 20.0847 80.7969 20.0847ZM85.5181 24.485V15.9902H84.2505V24.485H85.5181ZM91.2124 24.4699V21.2136C91.2124 19.7053 90.0855 18.8643 88.631 18.8643C87.7145 18.8643 86.764 19.2692 86.3704 20.1649L87.4955 20.634C87.7362 20.1649 88.1836 20.0111 88.6546 20.0111C89.3096 20.0111 89.976 20.4047 89.9864 21.105V21.1928C89.757 21.0616 89.2662 20.8643 88.664 20.8643C87.4512 20.8643 86.2166 21.5307 86.2166 22.7766C86.2166 23.9139 87.2114 24.6454 88.3261 24.6454C89.1794 24.6454 89.6485 24.2632 89.943 23.8158H89.9864V24.4718H91.2115L91.2124 24.4699ZM88.48 23.5204C88.0647 23.5204 87.4851 23.3127 87.4851 22.8002C87.4851 22.1442 88.2072 21.8913 88.8301 21.8913C89.388 21.8913 89.6494 22.0111 89.9892 22.1754C89.892 22.938 89.2473 23.5109 88.48 23.5204ZM95.6703 19.0502L94.2168 22.7322H94.1733L92.665 19.0502H91.2993L93.5608 24.198L92.2705 27.0608H93.5929L97.0785 19.0502H95.6703Z" fill="#555555"/>
<defs>
<linearGradient id="paint0_linear" x1="28.5301" y1="12.7752" x2="14.669" y2="16.4685" gradientUnits="userSpaceOnUse">
<stop stop-color="#00A0FF"/>
<stop offset="0.007" stop-color="#00A1FF"/>
<stop offset="0.26" stop-color="#00BEFF"/>
<stop offset="0.512" stop-color="#00D2FF"/>
<stop offset="0.76" stop-color="#00DFFF"/>
<stop offset="1" stop-color="#00E3FF"/>
</linearGradient>
<linearGradient id="paint1_linear" x1="36.9377" y1="20.6625" x2="20.037" y2="20.6625" gradientUnits="userSpaceOnUse">
<stop stop-color="#FFE000"/>
<stop offset="0.409" stop-color="#FFBD00"/>
<stop offset="0.775" stop-color="#FFA500"/>
<stop offset="1" stop-color="#FF9C00"/>
</linearGradient>
<linearGradient id="paint2_linear" x1="30.6461" y1="22.2666" x2="19.5183" y2="40.9954" gradientUnits="userSpaceOnUse">
<stop stop-color="#FF3A44"/>
<stop offset="1" stop-color="#C31162"/>
</linearGradient>
<linearGradient id="paint3_linear" x1="18.4007" y1="6.81893" x2="23.3652" y2="15.1835" gradientUnits="userSpaceOnUse">
<stop stop-color="#32A071"/>
<stop offset="0.069" stop-color="#2DA771"/>
<stop offset="0.476" stop-color="#15CF74"/>
<stop offset="0.801" stop-color="#06E775"/>
<stop offset="1" stop-color="#00F076"/>
</linearGradient>
</defs>
</svg>
