<svg width="130" height="45" viewBox="0 0 130 45" fill="none" xmlns="http://www.w3.org/2000/svg">
<rect width="130" height="45" rx="3" fill="white" fill-opacity="0.1"/>
<path d="M39.8716 22.2923C39.8517 20.0846 41.6793 19.0105 41.7629 18.9605C40.7278 17.4514 39.1236 17.2453 38.5598 17.2288C37.2124 17.087 35.9054 18.0351 35.2191 18.0351C34.519 18.0351 33.462 17.2425 32.3229 17.2658C30.857 17.2884 29.4856 18.1371 28.7335 19.4551C27.1813 22.1423 28.3389 26.0913 29.826 28.2635C30.57 29.3273 31.4392 30.5151 32.577 30.4733C33.6901 30.4274 34.1059 29.7636 35.4492 29.7636C36.7802 29.7636 37.1706 30.4733 38.331 30.4466C39.5257 30.4274 40.2778 29.378 40.9957 28.3046C41.8553 27.0853 42.2006 25.8845 42.2143 25.8228C42.1862 25.8132 39.8942 24.9385 39.8716 22.2923Z" fill="white"/>
<path d="M37.6805 15.801C38.2792 15.0523 38.6889 14.0337 38.5751 13C37.7086 13.0384 36.625 13.5994 36.0009 14.3316C35.4488 14.9769 34.9556 16.0346 35.083 17.0292C36.0564 17.1018 37.0558 16.538 37.6805 15.801Z" fill="white"/>
<path d="M55.9843 27.2488H54.4287L53.5765 24.5711H50.6146L49.8029 27.2488H48.2883L51.2229 18.1328H53.0354L55.9843 27.2488ZM53.3197 23.4477L52.549 21.0674C52.4675 20.8242 52.3148 20.2515 52.0894 19.3501H52.062C51.9723 19.7378 51.8277 20.3104 51.6291 21.0674L50.8722 23.4477H53.3197Z" fill="white"/>
<path d="M63.5325 23.8813C63.5325 24.9992 63.2304 25.8828 62.6262 26.5315C62.0851 27.109 61.4131 27.3974 60.611 27.3974C59.7451 27.3974 59.1231 27.0864 58.7443 26.4644H58.7169V29.9271H57.2565V22.8394C57.2565 22.1366 57.238 21.4153 57.2024 20.6755H58.4868L58.5683 21.7174H58.5957C59.0827 20.9323 59.8218 20.5405 60.8137 20.5405C61.5891 20.5405 62.2365 20.8467 62.7543 21.4598C63.2736 22.0736 63.5325 22.8805 63.5325 23.8813ZM62.0447 23.9347C62.0447 23.2949 61.9008 22.7675 61.6117 22.3524C61.296 21.9194 60.8719 21.703 60.3404 21.703C59.9801 21.703 59.6526 21.8235 59.3601 22.0612C59.067 22.301 58.8752 22.614 58.7854 23.0017C58.7402 23.1826 58.7176 23.3305 58.7176 23.447V24.543C58.7176 25.0211 58.8642 25.4246 59.1574 25.7541C59.4506 26.0836 59.8314 26.248 60.3 26.248C60.85 26.248 61.2781 26.0356 61.5843 25.6123C61.8912 25.1883 62.0447 24.6293 62.0447 23.9347Z" fill="white"/>
<path d="M71.0921 23.8823C71.0921 25.0002 70.79 25.8838 70.1852 26.5325C69.6447 27.11 68.9727 27.3984 68.1706 27.3984C67.3047 27.3984 66.6828 27.0874 66.3046 26.4654H66.2772V29.9281H64.8168V22.8404C64.8168 22.1376 64.7983 21.4163 64.7627 20.6764H66.0471L66.1286 21.7183H66.156C66.6423 20.9333 67.3815 20.5415 68.374 20.5415C69.1488 20.5415 69.7961 20.8477 70.3153 21.4608C70.8325 22.0745 71.0921 22.8815 71.0921 23.8823ZM69.6043 23.9357C69.6043 23.2959 69.4597 22.7684 69.1707 22.3533C68.8549 21.9204 68.4322 21.704 67.9 21.704C67.539 21.704 67.2123 21.8245 66.9191 22.0622C66.6259 22.302 66.4348 22.615 66.345 23.0027C66.3005 23.1836 66.2772 23.3315 66.2772 23.448V24.544C66.2772 25.0221 66.4238 25.4256 66.7156 25.755C67.0088 26.0838 67.3897 26.2489 67.8596 26.2489C68.4096 26.2489 68.8378 26.0366 69.144 25.6132C69.4508 25.1892 69.6043 24.6303 69.6043 23.9357Z" fill="white"/>
<path d="M79.5453 24.6931C79.5453 25.4686 79.2761 26.0994 78.7356 26.5865C78.1417 27.1187 77.3149 27.3845 76.2525 27.3845C75.2715 27.3845 74.4852 27.1954 73.8899 26.8166L74.2283 25.5994C74.8694 25.9871 75.5729 26.1816 76.3395 26.1816C76.8895 26.1816 77.3176 26.057 77.6252 25.809C77.9314 25.561 78.0842 25.2281 78.0842 24.813C78.0842 24.4431 77.9581 24.1314 77.7053 23.8787C77.454 23.6259 77.034 23.391 76.4477 23.1738C74.8516 22.5785 74.0543 21.7065 74.0543 20.5598C74.0543 19.8105 74.3338 19.196 74.8934 18.7179C75.451 18.2391 76.1949 18 77.1252 18C77.9547 18 78.6438 18.1445 79.1939 18.4329L78.8287 19.6235C78.315 19.344 77.7341 19.2042 77.0841 19.2042C76.5703 19.2042 76.1689 19.331 75.8812 19.583C75.638 19.8084 75.5161 20.0831 75.5161 20.4085C75.5161 20.7688 75.6551 21.0667 75.9346 21.301C76.1778 21.5175 76.6196 21.7517 77.2608 22.0045C78.0451 22.3203 78.6212 22.6895 78.9918 23.1128C79.361 23.5348 79.5453 24.0629 79.5453 24.6931Z" fill="white"/>
<path d="M84.375 21.7709H82.7652V24.9624C82.7652 25.7741 83.0488 26.1796 83.6174 26.1796C83.8783 26.1796 84.0948 26.157 84.2661 26.1118L84.3065 27.2208C84.0188 27.3284 83.64 27.3825 83.1707 27.3825C82.594 27.3825 82.1432 27.2064 81.8179 26.855C81.4939 26.5029 81.3308 25.9125 81.3308 25.0829V21.7696H80.3718V20.6736H81.3308V19.47L82.7652 19.0371V20.6736H84.375V21.7709Z" fill="white"/>
<path d="M91.6366 23.9073C91.6366 24.9177 91.3475 25.7472 90.7707 26.3959C90.1659 27.0638 89.363 27.3967 88.3623 27.3967C87.3978 27.3967 86.6299 27.0768 86.0572 26.437C85.4846 25.7972 85.1982 24.9896 85.1982 24.0162C85.1982 22.9976 85.4928 22.1633 86.0839 21.5146C86.6737 20.8652 87.4697 20.5405 88.4705 20.5405C89.435 20.5405 90.2111 20.8604 90.7967 21.5009C91.3571 22.1222 91.6366 22.9243 91.6366 23.9073ZM90.1213 23.9546C90.1213 23.3483 89.9919 22.8284 89.7295 22.3948C89.4233 21.8701 88.9856 21.6084 88.4184 21.6084C87.8314 21.6084 87.3855 21.8708 87.0793 22.3948C86.8169 22.8291 86.6874 23.3572 86.6874 23.982C86.6874 24.5882 86.8169 25.1081 87.0793 25.541C87.395 26.0657 87.8362 26.3274 88.4054 26.3274C88.963 26.3274 89.4007 26.0603 89.7165 25.5273C89.9857 25.0855 90.1213 24.5601 90.1213 23.9546Z" fill="white"/>
<path d="M96.3845 21.9608C96.2399 21.9341 96.0858 21.9204 95.9241 21.9204C95.4104 21.9204 95.0131 22.1143 94.7336 22.5027C94.4904 22.8452 94.3685 23.2781 94.3685 23.8007V27.2497H92.9088L92.9225 22.7465C92.9225 21.9889 92.904 21.2991 92.8677 20.6771H94.1397L94.1932 21.9348H94.2336C94.3877 21.5026 94.6309 21.1546 94.9638 20.8936C95.2892 20.6586 95.6406 20.5415 96.0194 20.5415C96.1543 20.5415 96.2762 20.5511 96.3845 20.5682V21.9608Z" fill="white"/>
<path d="M102.914 23.6512C102.914 23.9129 102.897 24.1335 102.861 24.3136H98.4793C98.4964 24.963 98.708 25.4596 99.1149 25.8021C99.4842 26.1083 99.9616 26.2618 100.548 26.2618C101.197 26.2618 101.788 26.1583 102.321 25.9508L102.55 26.9646C101.928 27.2358 101.193 27.3708 100.346 27.3708C99.3266 27.3708 98.5265 27.0708 97.9443 26.4714C97.3634 25.872 97.0723 25.0671 97.0723 24.0574C97.0723 23.0662 97.3428 22.2408 97.8847 21.5825C98.4519 20.8797 99.2184 20.5283 100.183 20.5283C101.13 20.5283 101.847 20.8797 102.334 21.5825C102.72 22.1408 102.914 22.8313 102.914 23.6512ZM101.521 23.2724C101.531 22.8395 101.436 22.4655 101.238 22.1497C100.985 21.7435 100.597 21.5408 100.074 21.5408C99.5965 21.5408 99.2081 21.7387 98.9115 22.136C98.6683 22.4518 98.5238 22.8306 98.4793 23.2717H101.521V23.2724Z" fill="white"/>
</svg>
