<svg width="130" height="45" viewBox="0 0 130 45" fill="none" xmlns="http://www.w3.org/2000/svg">
<rect width="130" height="45" rx="3" fill="white" fill-opacity="0.1"/>
<path fill-rule="evenodd" clip-rule="evenodd" d="M22.3501 13.3073C22.1253 13.549 21.9961 13.9209 21.9961 14.4042V31.5939C21.9961 32.0771 22.1253 32.449 22.3585 32.6823L22.4195 32.7337L32.0513 23.102V22.8855L22.4111 13.2559L22.3501 13.3073Z" fill="url(#paint0_linear)"/>
<path fill-rule="evenodd" clip-rule="evenodd" d="M35.2569 26.3247L32.0442 23.1109V22.8861L35.2579 19.6724L35.3273 19.7154L39.1283 21.8754C40.2167 22.489 40.2167 23.4997 39.1283 24.1216L35.3273 26.2816C35.3262 26.2816 35.2569 26.3247 35.2569 26.3247Z" fill="url(#paint1_linear)"/>
<path fill-rule="evenodd" clip-rule="evenodd" d="M35.3263 26.2816L32.0443 22.9985L22.3516 32.6913C22.7056 33.0716 23.3013 33.1146 23.9674 32.7427L35.3263 26.2816Z" fill="url(#paint2_linear)"/>
<path fill-rule="evenodd" clip-rule="evenodd" d="M35.3263 19.7174L23.9674 13.2647C23.3023 12.8844 22.7056 12.9359 22.3516 13.3162L32.0432 22.9994L35.3263 19.7174Z" fill="url(#paint3_linear)"/>
<path opacity="0.2" fill-rule="evenodd" clip-rule="evenodd" d="M35.2583 26.2114L23.9771 32.6211C23.3468 32.9835 22.7847 32.9583 22.4223 32.6295L22.3613 32.6904L22.4223 32.7419C22.7847 33.0697 23.3468 33.0959 23.9771 32.7335L35.3361 26.2808L35.2583 26.2114Z" fill="black"/>
<path opacity="0.12" fill-rule="evenodd" clip-rule="evenodd" d="M39.1232 24.0092L35.2444 26.2123L35.3137 26.2816L39.1147 24.1216C39.659 23.8106 39.9269 23.4051 39.9269 22.9985C39.8922 23.3704 39.6159 23.7245 39.1232 24.0092Z" fill="black"/>
<path opacity="0.25" fill-rule="evenodd" clip-rule="evenodd" d="M23.9662 13.3765L39.1262 21.9892C39.6189 22.2655 39.8952 22.628 39.9383 22.9999C39.9383 22.5944 39.6704 22.1878 39.1262 21.8768L23.9662 13.2641C22.8778 12.6422 21.9963 13.1601 21.9963 14.404V14.5164C21.9963 13.2725 22.8778 12.763 23.9662 13.3765Z" fill="white"/>
<path fill-rule="evenodd" clip-rule="evenodd" d="M43.6378 22.4526C43.6378 19.699 45.9523 17.457 48.7059 17.457C50.2282 17.457 51.3113 18.0548 52.1287 18.8333L51.1664 19.7956C50.5822 19.2472 49.7901 18.8217 48.7048 18.8217C46.694 18.8217 45.1223 20.4407 45.1223 22.4515C45.1223 24.4623 46.694 26.0834 48.7038 26.0834C50.0076 26.0834 50.7493 25.5602 51.2252 25.0832C51.615 24.6935 51.8702 24.1335 51.969 23.3655H48.7059V22.004H53.299C53.3474 22.2477 53.3726 22.5398 53.3726 22.856C53.3726 23.8782 53.0921 25.1463 52.1896 26.0487C51.3113 26.9627 50.1914 27.4502 48.7048 27.4502C45.9502 27.4502 43.6357 25.2104 43.6357 22.4547L43.6378 22.4526ZM57.0854 21.0154C55.3067 21.0154 53.8548 22.3685 53.8548 24.2312C53.8548 26.0845 55.3057 27.4471 57.0854 27.4471C58.8651 27.4471 60.3138 26.0824 60.3138 24.2302C60.3138 22.3675 58.864 21.0143 57.0854 21.0154ZM57.0854 26.1822C56.1115 26.1822 55.2699 25.3785 55.2699 24.2323C55.2699 23.0745 56.1104 22.2824 57.0854 22.2824C58.0593 22.2824 58.8997 23.0735 58.8997 24.2323C58.8997 25.3774 58.0603 26.1822 57.0854 26.1822ZM64.1295 21.0154C62.3509 21.0154 60.9011 22.3685 60.9011 24.2312C60.9011 26.0845 62.3509 27.4471 64.1295 27.4471C65.9082 27.4471 67.358 26.0824 67.358 24.2302C67.358 22.3675 65.9092 21.0143 64.1295 21.0154ZM64.1295 26.1822C63.1556 26.1822 62.3141 25.3785 62.3141 24.2323C62.3141 23.0745 63.1546 22.2824 64.1295 22.2824C65.1034 22.2824 65.945 23.0735 65.945 24.2323C65.945 25.3774 65.1034 26.1822 64.1295 26.1822ZM72.7748 21.2108V21.734H72.7265C72.4103 21.3547 71.8009 21.0143 71.034 21.0143C69.4256 21.0143 67.9495 22.4284 67.9495 24.2449C67.9495 26.0466 69.4245 27.4492 71.034 27.4492C71.8009 27.4492 72.4103 27.1088 72.7265 26.719H72.7748V27.1813C72.7748 28.4115 72.1172 29.0702 71.0571 29.0702C70.1914 29.0702 69.6556 28.4483 69.4361 27.9261L68.2048 28.4378C68.5578 29.2898 69.497 30.3383 71.0561 30.3383C72.7118 30.3383 74.1133 29.3623 74.1133 26.9869V21.2097L72.7748 21.2108ZM71.1548 26.1822C70.1809 26.1822 69.3625 25.3648 69.3625 24.2449C69.3625 23.1123 70.1799 22.2834 71.1548 22.2834C72.1172 22.2834 72.8725 23.1113 72.8725 24.2449C72.8736 25.3648 72.1182 26.1822 71.1548 26.1822ZM75.0893 17.7985H76.5034V27.2538H75.0893V17.7985ZM80.379 26.1822C79.6604 26.1822 79.1477 25.8523 78.821 25.2083L83.1221 23.4275L82.9739 23.0619C82.7071 22.3444 81.8897 21.0154 80.2203 21.0154C78.5636 21.0154 77.1862 22.3191 77.1862 24.2323C77.1862 26.034 78.551 27.4481 80.379 27.4481C81.854 27.4481 82.7071 26.5478 83.0601 26.0225L81.9633 25.2923C81.5966 25.8292 81.0965 26.1832 80.379 26.1822ZM80.2687 22.2582C80.8286 22.2582 81.3035 22.5387 81.4621 22.94L78.5856 24.1346C78.5499 22.8917 79.549 22.2582 80.2687 22.2582Z" fill="white"/>
<path fill-rule="evenodd" clip-rule="evenodd" d="M89.3263 17.7983H85.9456V27.2536H87.3565V23.6722H89.3274C90.8917 23.6722 92.4298 22.5396 92.4298 20.7347C92.4298 18.933 90.8928 17.7994 89.3295 17.7994L89.3263 17.7983ZM89.3631 22.3558H87.3565V19.1137H89.3631C90.4179 19.1137 91.0188 19.9888 91.0188 20.7347C91.0188 21.468 90.4179 22.3558 89.3631 22.3558ZM94.6182 27.2536V17.7983H93.2072V27.2536H94.6182ZM100.956 27.2368V23.6123C100.956 21.9335 99.7019 20.9974 98.083 20.9974C97.0629 20.9974 96.0049 21.4481 95.5668 22.4451L96.8191 22.9672C97.087 22.4451 97.585 22.2738 98.1093 22.2738C98.8384 22.2738 99.5801 22.7119 99.5916 23.4915V23.5892C99.3363 23.4431 98.79 23.2236 98.1198 23.2236C96.7698 23.2236 95.3956 23.9653 95.3956 25.3521C95.3956 26.618 96.5029 27.4322 97.7436 27.4322C98.6934 27.4322 99.2155 27.0067 99.5433 26.5088H99.5916V27.2389H100.955L100.956 27.2368ZM97.9149 26.1799C97.4526 26.1799 96.8076 25.9488 96.8076 25.3783C96.8076 24.6482 97.6113 24.3666 98.3047 24.3666C98.9256 24.3666 99.2166 24.5 99.5948 24.6828C99.4866 25.5317 98.769 26.1694 97.9149 26.1799ZM105.918 21.2043L104.3 25.3027H104.252L102.573 21.2043H101.053L103.57 26.9342L102.134 30.1207H103.606L107.486 21.2043H105.918Z" fill="white"/>
<defs>
<linearGradient id="paint0_linear" x1="31.1864" y1="14.2194" x2="15.7579" y2="18.3303" gradientUnits="userSpaceOnUse">
<stop stop-color="#00A0FF"/>
<stop offset="0.007" stop-color="#00A1FF"/>
<stop offset="0.26" stop-color="#00BEFF"/>
<stop offset="0.512" stop-color="#00D2FF"/>
<stop offset="0.76" stop-color="#00DFFF"/>
<stop offset="1" stop-color="#00E3FF"/>
</linearGradient>
<linearGradient id="paint1_linear" x1="40.5446" y1="22.999" x2="21.7329" y2="22.999" gradientUnits="userSpaceOnUse">
<stop stop-color="#FFE000"/>
<stop offset="0.409" stop-color="#FFBD00"/>
<stop offset="0.775" stop-color="#FFA500"/>
<stop offset="1" stop-color="#FF9C00"/>
</linearGradient>
<linearGradient id="paint2_linear" x1="33.5416" y1="24.7846" x2="21.1556" y2="45.631" gradientUnits="userSpaceOnUse">
<stop stop-color="#FF3A44"/>
<stop offset="1" stop-color="#C31162"/>
</linearGradient>
<linearGradient id="paint3_linear" x1="19.9117" y1="7.58965" x2="25.4374" y2="16.9" gradientUnits="userSpaceOnUse">
<stop stop-color="#32A071"/>
<stop offset="0.069" stop-color="#2DA771"/>
<stop offset="0.476" stop-color="#15CF74"/>
<stop offset="0.801" stop-color="#06E775"/>
<stop offset="1" stop-color="#00F076"/>
</linearGradient>
</defs>
</svg>
