<svg width="130" height="45" viewBox="0 0 130 45" fill="none" xmlns="http://www.w3.org/2000/svg">
<rect width="130" height="45" rx="3" fill="white"/>
<path d="M39.8717 22.2934C39.8518 20.0857 41.6794 19.0116 41.763 18.9616C40.7279 17.4525 39.1237 17.2463 38.5599 17.2299C37.2125 17.0881 35.9055 18.0362 35.2192 18.0362C34.5191 18.0362 33.4621 17.2436 32.323 17.2669C30.8571 17.2895 29.4857 18.1382 28.7336 19.4562C27.1814 22.1434 28.339 26.0924 29.8262 28.2646C30.5701 29.3284 31.4393 30.5162 32.5771 30.4744C33.6903 30.4285 34.106 29.7647 35.4493 29.7647C36.7803 29.7647 37.1707 30.4744 38.3311 30.4477C39.5258 30.4285 40.2779 29.3791 40.9958 28.3057C41.8555 27.0864 42.2007 25.8856 42.2144 25.8239C42.1863 25.8143 39.8943 24.9396 39.8717 22.2934Z" fill="#1C1D20"/>
<path d="M37.6807 15.8011C38.2794 15.0524 38.689 14.0338 38.5753 13.0001C37.7087 13.0385 36.6251 13.5995 36.001 14.3318C35.4489 14.977 34.9557 16.0347 35.0831 17.0293C36.0565 17.1019 37.0559 16.5382 37.6807 15.8011Z" fill="#1C1D20"/>
<path d="M55.9846 27.2488H54.4289L53.5768 24.5711H50.6148L49.8031 27.2488H48.2886L51.2231 18.1328H53.0356L55.9846 27.2488ZM53.3199 23.4477L52.5493 21.0674C52.4678 20.8242 52.315 20.2515 52.0896 19.3501H52.0622C51.9725 19.7378 51.828 20.3104 51.6293 21.0674L50.8724 23.4477H53.3199Z" fill="#1C1D20"/>
<path d="M63.5327 23.8812C63.5327 24.9991 63.2306 25.8827 62.6265 26.5314C62.0853 27.1089 61.4133 27.3973 60.6112 27.3973C59.7454 27.3973 59.1234 27.0863 58.7446 26.4643H58.7172V29.927H57.2568V22.8393C57.2568 22.1365 57.2383 21.4152 57.2026 20.6754H58.487L58.5685 21.7172H58.5959C59.083 20.9322 59.8221 20.5404 60.814 20.5404C61.5894 20.5404 62.2367 20.8466 62.7546 21.4597C63.2738 22.0734 63.5327 22.8804 63.5327 23.8812ZM62.0449 23.9346C62.0449 23.2948 61.9011 22.7673 61.612 22.3522C61.2962 21.9193 60.8722 21.7029 60.3406 21.7029C59.9803 21.7029 59.6529 21.8234 59.3604 22.0611C59.0672 22.3009 58.8754 22.6139 58.7857 23.0016C58.7405 23.1825 58.7179 23.3304 58.7179 23.4469V24.5429C58.7179 25.021 58.8644 25.4245 59.1576 25.7539C59.4508 26.0834 59.8317 26.2478 60.3002 26.2478C60.8503 26.2478 61.2784 26.0355 61.5846 25.6121C61.8915 25.1881 62.0449 24.6292 62.0449 23.9346Z" fill="#1C1D20"/>
<path d="M71.0923 23.8823C71.0923 25.0002 70.7903 25.8838 70.1854 26.5325C69.6449 27.11 68.973 27.3984 68.1708 27.3984C67.305 27.3984 66.683 27.0874 66.3049 26.4654H66.2775V29.9281H64.8171V22.8404C64.8171 22.1376 64.7986 21.4163 64.7629 20.6764H66.0473L66.1288 21.7183H66.1562C66.6426 20.9333 67.3817 20.5415 68.3743 20.5415C69.149 20.5415 69.7963 20.8477 70.3156 21.4608C70.8327 22.0745 71.0923 22.8815 71.0923 23.8823ZM69.6045 23.9357C69.6045 23.2959 69.46 22.7684 69.1709 22.3533C68.8551 21.9204 68.4325 21.704 67.9002 21.704C67.5392 21.704 67.2125 21.8245 66.9193 22.0622C66.6261 22.302 66.435 22.615 66.3453 23.0027C66.3008 23.1836 66.2775 23.3315 66.2775 23.448V24.544C66.2775 25.0221 66.4241 25.4256 66.7159 25.755C67.0091 26.0838 67.3899 26.2489 67.8598 26.2489C68.4099 26.2489 68.838 26.0366 69.1442 25.6132C69.4511 25.1892 69.6045 24.6303 69.6045 23.9357Z" fill="#1C1D20"/>
<path d="M79.5454 24.6933C79.5454 25.4687 79.2762 26.0996 78.7357 26.5866C78.1418 27.1188 77.315 27.3846 76.2526 27.3846C75.2717 27.3846 74.4853 27.1956 73.89 26.8168L74.2284 25.5995C74.8696 25.9872 75.5731 26.1818 76.3396 26.1818C76.8896 26.1818 77.3178 26.0571 77.6253 25.8091C77.9315 25.5612 78.0843 25.2282 78.0843 24.8131C78.0843 24.4432 77.9582 24.1316 77.7055 23.8788C77.4541 23.626 77.0342 23.3911 76.4478 23.1739C74.8518 22.5787 74.0544 21.7067 74.0544 20.56C74.0544 19.8106 74.3339 19.1961 74.8935 18.718C75.4511 18.2392 76.195 18.0001 77.1253 18.0001C77.9548 18.0001 78.6439 18.1447 79.194 18.433L78.8289 19.6236C78.3151 19.3441 77.7342 19.2044 77.0842 19.2044C76.5704 19.2044 76.169 19.3311 75.8813 19.5832C75.6381 19.8085 75.5162 20.0832 75.5162 20.4086C75.5162 20.7689 75.6553 21.0669 75.9347 21.3011C76.1779 21.5176 76.6197 21.7519 77.2609 22.0046C78.0452 22.3204 78.6213 22.6896 78.9919 23.113C79.3611 23.5349 79.5454 24.0631 79.5454 24.6933Z" fill="#1C1D20"/>
<path d="M84.3752 21.7709H82.7655V24.9624C82.7655 25.7741 83.0491 26.1796 83.6176 26.1796C83.8786 26.1796 84.095 26.157 84.2663 26.1118L84.3067 27.2208C84.019 27.3284 83.6402 27.3825 83.171 27.3825C82.5942 27.3825 82.1435 27.2064 81.8181 26.855C81.4941 26.5029 81.3311 25.9125 81.3311 25.0829V21.7696H80.3721V20.6736H81.3311V19.47L82.7655 19.0371V20.6736H84.3752V21.7709Z" fill="#1C1D20"/>
<path d="M91.6369 23.9072C91.6369 24.9176 91.3479 25.7471 90.7711 26.3958C90.1662 27.0637 89.3634 27.3966 88.3626 27.3966C87.3981 27.3966 86.6303 27.0767 86.0576 26.4369C85.4849 25.7971 85.1986 24.9895 85.1986 24.0161C85.1986 22.9975 85.4932 22.1632 86.0843 21.5145C86.6741 20.8651 87.4701 20.5404 88.4709 20.5404C89.4353 20.5404 90.2114 20.8603 90.7971 21.5008C91.3574 22.1221 91.6369 22.9242 91.6369 23.9072ZM90.1217 23.9544C90.1217 23.3482 89.9922 22.8283 89.7299 22.3947C89.4237 21.87 88.986 21.6083 88.4188 21.6083C87.8317 21.6083 87.3858 21.8707 87.0796 22.3947C86.8173 22.829 86.6878 23.3571 86.6878 23.9818C86.6878 24.5881 86.8173 25.108 87.0796 25.5409C87.3954 26.0656 87.8365 26.3273 88.4058 26.3273C88.9634 26.3273 89.4011 26.0601 89.7169 25.5272C89.9861 25.0854 90.1217 24.56 90.1217 23.9544Z" fill="#1C1D20"/>
<path d="M96.3848 21.9608C96.2403 21.9341 96.0862 21.9204 95.9245 21.9204C95.4108 21.9204 95.0135 22.1143 94.734 22.5027C94.4908 22.8452 94.3689 23.2781 94.3689 23.8007V27.2497H92.9091L92.9228 22.7465C92.9228 21.9889 92.9043 21.2991 92.868 20.6771H94.1401L94.1935 21.9348H94.2339C94.3881 21.5026 94.6312 21.1546 94.9641 20.8936C95.2895 20.6586 95.6409 20.5415 96.0197 20.5415C96.1547 20.5415 96.2766 20.5511 96.3848 20.5682V21.9608Z" fill="#1C1D20"/>
<path d="M102.914 23.6515C102.914 23.9132 102.897 24.1337 102.861 24.3139H98.4795C98.4966 24.9633 98.7083 25.4599 99.1152 25.8024C99.4844 26.1086 99.9618 26.262 100.548 26.262C101.197 26.262 101.789 26.1586 102.321 25.951L102.55 26.9648C101.928 27.2361 101.193 27.371 100.346 27.371C99.3268 27.371 98.5268 27.071 97.9445 26.4716C97.3636 25.8723 97.0725 25.0674 97.0725 24.0577C97.0725 23.0665 97.3431 22.2411 97.8849 21.5828C98.4521 20.88 99.2186 20.5286 100.183 20.5286C101.13 20.5286 101.848 20.88 102.335 21.5828C102.72 22.1411 102.914 22.8315 102.914 23.6515ZM101.522 23.2727C101.531 22.8398 101.436 22.4657 101.238 22.15C100.985 21.7438 100.597 21.541 100.074 21.541C99.5967 21.541 99.2083 21.739 98.9117 22.1363C98.6686 22.452 98.524 22.8309 98.4795 23.272H101.522V23.2727Z" fill="#1C1D20"/>
</svg>
