<svg width="138" height="110" viewBox="0 0 138 110" fill="none" xmlns="http://www.w3.org/2000/svg">
<g filter="url(#filter0_f)">
<circle cx="78" cy="61" r="9" fill="#5FF19D"/>
</g>
<path d="M83.0926 81.9785C83.0979 82.0408 83.0979 82.1033 83.0926 82.1656C83.0973 82.2246 83.0973 82.2838 83.0926 82.3428C83.0258 82.6111 82.8821 82.8541 82.6791 83.0418C82.5554 83.1556 82.4089 83.2416 82.2493 83.2943C82.0897 83.3469 81.9207 83.3649 81.7536 83.347H53.5176C53.3414 83.3473 53.167 83.3115 53.0052 83.2419C52.8433 83.1722 52.6975 83.0701 52.5766 82.9418C52.4558 82.8136 52.3625 82.662 52.3025 82.4963C52.2425 82.3306 52.2171 82.1544 52.2279 81.9785H51.2434V84.2823C51.2329 84.6337 51.2927 84.9837 51.4193 85.3116C51.546 85.6396 51.7369 85.9389 51.9809 86.1921C52.2249 86.4452 52.517 86.6471 52.84 86.7857C53.1631 86.9244 53.5106 86.9971 53.8622 86.9996H81.4287C81.7811 86.9984 82.1297 86.9267 82.4539 86.7886C82.7781 86.6505 83.0714 86.4489 83.3164 86.1956C83.5614 85.9423 83.7532 85.6425 83.8805 85.3139C84.0078 84.9853 84.0679 84.6345 84.0574 84.2823V81.9785H83.0926ZM83.0926 84.2823C83.1004 84.5045 83.064 84.7261 82.9852 84.9341C82.9065 85.1421 82.7871 85.3323 82.634 85.4936C82.481 85.655 82.2973 85.7841 82.0937 85.8737C81.8901 85.9632 81.6708 86.0113 81.4484 86.015H53.8819C53.6599 86.0113 53.441 85.9632 53.238 85.8735C53.0349 85.7839 52.8519 85.6545 52.6996 85.4931C52.5473 85.3316 52.4288 85.1413 52.3512 84.9334C52.2736 84.7254 52.2383 84.5041 52.2476 84.2823V83.9377C52.6255 84.201 53.0767 84.3388 53.5373 84.3315H81.6847C82.1924 84.3764 82.6993 84.2366 83.1122 83.9377L83.0926 84.2823Z" fill="white"/>
<path d="M51.6163 56.4888L51.2422 56.5873V55.9375H52.2267V56.3018H52.1479L51.6163 56.4888Z" fill="white"/>
<path d="M84.0768 30.7732V28.499C84.0848 28.1408 84.0204 27.7847 83.8873 27.452C83.7542 27.1194 83.5552 26.817 83.3023 26.5632C83.0494 26.3094 82.7478 26.1094 82.4157 25.9751C82.0835 25.8408 81.7276 25.775 81.3694 25.7817H53.8619C53.5107 25.7855 53.1638 25.8591 52.8414 25.9982C52.5189 26.1374 52.2273 26.3392 51.9836 26.5921C51.7399 26.845 51.549 27.1438 51.4218 27.4712C51.2947 27.7985 51.2339 28.1479 51.2431 28.499V30.8126V39.3582H52.2276V30.8914C52.2154 30.7147 52.2398 30.5374 52.2991 30.3706C52.3585 30.2037 52.4515 30.0509 52.5725 29.9216C52.6935 29.7923 52.8399 29.6892 53.0024 29.619C53.165 29.5487 53.3402 29.5126 53.5173 29.513H81.7435C81.9052 29.4977 82.0684 29.5179 82.2214 29.5723C82.3745 29.6268 82.5138 29.7141 82.6296 29.8281C82.8323 30.012 82.9762 30.2518 83.0431 30.5173C83.0478 30.5927 83.0478 30.6683 83.0431 30.7437C83.0479 30.7928 83.0479 30.8423 83.0431 30.8914V82.0864C83.0538 82.2635 83.0282 82.441 82.9677 82.6079C82.9072 82.7748 82.8132 82.9275 82.6914 83.0566C82.5697 83.1858 82.4227 83.2886 82.2597 83.3588C82.0967 83.429 81.921 83.465 81.7435 83.4647H53.5173C53.1639 83.4518 52.8299 83.2997 52.5883 83.0415C52.3466 82.7832 52.217 82.4399 52.2276 82.0864V58.7139C51.9057 58.8431 51.5771 58.9549 51.2431 59.0486V82.0568C51.2367 82.44 51.3229 82.8191 51.4943 83.1619C51.6657 83.5047 51.9172 83.801 52.2276 84.0259C52.6029 84.2979 53.0538 84.4459 53.5173 84.4492H81.7927C82.2573 84.453 82.7116 84.3119 83.0923 84.0456C83.4051 83.8231 83.6585 83.5272 83.8302 83.1839C84.0019 82.8405 84.0865 82.4603 84.0768 82.0765V30.7732ZM52.2276 28.499C52.2197 28.2776 52.2559 28.0568 52.334 27.8494C52.4121 27.6421 52.5306 27.4523 52.6827 27.2911C52.8347 27.1299 53.0172 27.0005 53.2197 26.9104C53.4221 26.8203 53.6404 26.7713 53.8619 26.7662H81.3694C81.5976 26.7622 81.8242 26.8043 82.0357 26.8901C82.2473 26.9759 82.4392 27.1035 82.6002 27.2654C82.7611 27.4272 82.8877 27.6199 82.9722 27.8319C83.0568 28.0439 83.0976 28.2708 83.0923 28.499V28.8534C82.7116 28.587 82.2573 28.446 81.7927 28.4498H53.5173C53.0533 28.4497 52.6014 28.5981 52.2276 28.8731V28.499Z" fill="white"/>
<path d="M79.4992 48.1605H64.5149C64.46 48.1581 64.4063 48.1445 64.3569 48.1207C64.3075 48.0968 64.2635 48.0631 64.2275 48.0216C64.1916 47.9802 64.1645 47.9318 64.1479 47.8795C64.1313 47.8272 64.1255 47.7721 64.1309 47.7175V39.4475C64.1251 39.3896 64.132 39.3311 64.1509 39.2761C64.1699 39.2211 64.2005 39.1708 64.2407 39.1287C64.2809 39.0866 64.3298 39.0537 64.3839 39.0323C64.438 39.0108 64.4961 39.0014 64.5542 39.0045H79.5386C79.6423 39.0192 79.7362 39.0737 79.8005 39.1563C79.8648 39.239 79.8945 39.3434 79.8832 39.4475V47.7175C80.0112 47.8947 79.7552 48.1605 79.4992 48.1605Z" fill="#5FF19D"/>
<path d="M96.6986 30.0939H90.9884C90.8578 30.0939 90.7326 30.042 90.6403 29.9497C90.548 29.8574 90.4961 29.7322 90.4961 29.6016C90.4961 29.4711 90.548 29.3459 90.6403 29.2536C90.7326 29.1612 90.8578 29.1094 90.9884 29.1094H96.6986C96.8291 29.1094 96.9543 29.1612 97.0466 29.2536C97.139 29.3459 97.1908 29.4711 97.1908 29.6016C97.1908 29.7322 97.139 29.8574 97.0466 29.9497C96.9543 30.042 96.8291 30.0939 96.6986 30.0939Z" fill="#5FF19D"/>
<path d="M101.979 24H89.8007C89.1627 24.0129 88.5558 24.2782 88.1129 24.7377C87.67 25.1971 87.4273 25.8134 87.4378 26.4515V33.1265C87.4273 33.7646 87.67 34.3808 88.1129 34.8403C88.5558 35.2998 89.1627 35.565 89.8007 35.5779H101.979C102.629 35.5523 103.242 35.2708 103.684 34.795C104.127 34.3191 104.363 33.6875 104.342 33.0379V26.4515C104.353 25.8134 104.11 25.1971 103.667 24.7377C103.224 24.2782 102.617 24.0129 101.979 24ZM89.8007 24.9845H101.979C102.269 24.9947 102.547 25.095 102.777 25.2715C103.006 25.4481 103.175 25.692 103.259 25.969C103.21 25.9597 103.16 25.9597 103.111 25.969H88.5208C88.6086 25.6942 88.7782 25.4527 89.0069 25.2768C89.2356 25.1008 89.5125 24.9989 89.8007 24.9845ZM101.979 34.5934H89.8007C89.4246 34.578 89.0696 34.4158 88.8119 34.1415C88.5542 33.8672 88.4143 33.5028 88.4223 33.1265V26.8748H88.4814H103.111C103.2 26.8742 103.285 26.8467 103.358 26.796V33.0182C103.371 33.2122 103.346 33.407 103.284 33.5913C103.222 33.7756 103.124 33.9458 102.996 34.0922C102.868 34.2385 102.712 34.3582 102.537 34.4442C102.363 34.5302 102.173 34.5809 101.979 34.5934Z" fill="white"/>
<path d="M100.361 32.0041H90.9884C90.8578 32.0041 90.7326 31.9522 90.6403 31.8599C90.548 31.7676 90.4961 31.6423 90.4961 31.5118C90.4986 31.382 90.5513 31.2583 90.6431 31.1665C90.7348 31.0747 90.8586 31.0221 90.9884 31.0195H100.361C100.492 31.0195 100.617 31.0714 100.709 31.1637C100.801 31.256 100.853 31.3812 100.853 31.5118C100.853 31.6423 100.801 31.7676 100.709 31.8599C100.617 31.9522 100.492 32.0041 100.361 32.0041Z" fill="#04BEFE"/>
<path d="M103.562 50.6614C101.79 50.6614 100.825 49.6769 100.707 47.5995C100.691 47.4747 100.632 47.3592 100.541 47.273C100.449 47.1867 100.33 47.1351 100.205 47.127C100.077 47.132 99.9555 47.1857 99.8658 47.2772C99.7761 47.3688 99.7248 47.4911 99.7224 47.6192C99.762 48.0126 99.7169 48.4099 99.5901 48.7843C99.4633 49.1588 99.2576 49.5017 98.9871 49.79C98.7165 50.0783 98.3873 50.3052 98.0216 50.4555C97.656 50.6058 97.2623 50.676 96.8673 50.6614C96.7391 50.6638 96.6168 50.7151 96.5253 50.8048C96.4338 50.8945 96.38 51.0158 96.375 51.1438C96.3748 51.272 96.4236 51.3954 96.5115 51.4888C96.5993 51.5821 96.7196 51.6384 96.8476 51.6459C97.2459 51.6556 97.6382 51.7459 98.0007 51.9112C98.3633 52.0764 98.6886 52.3134 98.9572 52.6077C99.2258 52.9021 99.432 53.2477 99.5635 53.6238C99.695 53.9999 99.749 54.3988 99.7224 54.7964C99.7224 54.9269 99.7742 55.0521 99.8665 55.1444C99.9589 55.2368 100.084 55.2886 100.215 55.2886C100.345 55.2886 100.47 55.2368 100.563 55.1444C100.655 55.0521 100.707 54.9269 100.707 54.7964C100.672 53.9962 100.956 53.215 101.497 52.6243C102.038 52.0335 102.791 51.6817 103.592 51.6459C103.655 51.6434 103.717 51.6284 103.775 51.6017C103.832 51.5751 103.884 51.5374 103.927 51.4908C103.97 51.4442 104.003 51.3895 104.025 51.33C104.047 51.2704 104.057 51.2072 104.054 51.1438C104.052 51.015 103.999 50.8923 103.907 50.8021C103.815 50.7119 103.691 50.6614 103.562 50.6614ZM100.215 52.6304C99.8694 52.0516 99.3723 51.5783 98.7772 51.2619C99.406 50.9259 99.9151 50.403 100.234 49.7655C100.539 50.4036 101.039 50.928 101.662 51.2619C101.058 51.5924 100.557 52.083 100.215 52.6796V52.6304Z" fill="#5FF19D"/>
<path d="M94.7377 72.0449C94.4989 72.05 94.2635 72.1023 94.045 72.1987C93.8265 72.2951 93.6293 72.4338 93.4646 72.6067C93.2999 72.7796 93.171 72.9834 93.0853 73.2064C92.9997 73.4293 92.959 73.6669 92.9655 73.9057C92.9576 74.3845 93.1396 74.8469 93.4717 75.1919C93.8037 75.5369 94.2589 75.7364 94.7377 75.7467C95.2164 75.7364 95.6716 75.5369 96.0037 75.1919C96.3357 74.8469 96.5177 74.3845 96.5098 73.9057C96.5163 73.6669 96.4756 73.4293 96.39 73.2064C96.3043 72.9834 96.1754 72.7796 96.0107 72.6067C95.846 72.4338 95.6488 72.2951 95.4303 72.1987C95.2118 72.1023 94.9764 72.05 94.7377 72.0449ZM94.7377 74.7523C94.52 74.7421 94.3152 74.6464 94.1677 74.486C94.0202 74.3257 93.942 74.1135 93.95 73.8958C93.9447 73.7872 93.9609 73.6786 93.9977 73.5762C94.0344 73.4738 94.091 73.3797 94.1641 73.2992C94.2373 73.2188 94.3256 73.1535 94.424 73.1072C94.5224 73.0609 94.629 73.0345 94.7377 73.0294C94.8463 73.0345 94.9529 73.0609 95.0513 73.1072C95.1497 73.1535 95.238 73.2188 95.3112 73.2992C95.3843 73.3797 95.4409 73.4738 95.4776 73.5762C95.5144 73.6786 95.5306 73.7872 95.5253 73.8958C95.5333 74.1135 95.4551 74.3257 95.3076 74.486C95.1601 74.6464 94.9553 74.7421 94.7377 74.7523Z" fill="#A3A3A3"/>
<path d="M42.7958 66.709C42.3171 66.7193 41.8619 66.9188 41.5298 67.2638C41.1977 67.6088 41.0158 68.0712 41.0237 68.55C41.0158 69.0288 41.1977 69.4913 41.5298 69.8363C41.8619 70.1813 42.3171 70.3807 42.7958 70.3911C43.2746 70.3807 43.7297 70.1813 44.0618 69.8363C44.3939 69.4913 44.5759 69.0288 44.568 68.55C44.5759 68.0712 44.3939 67.6088 44.0618 67.2638C43.7297 66.9188 43.2746 66.7193 42.7958 66.709ZM42.7958 69.4066C42.5782 69.3963 42.3734 69.3006 42.2259 69.1403C42.0784 68.9799 42.0002 68.7678 42.0082 68.55C42.0002 68.3323 42.0784 68.1202 42.2259 67.9598C42.3734 67.7994 42.5782 67.7037 42.7958 67.6935C43.0135 67.7037 43.2183 67.7994 43.3657 67.9598C43.5132 68.1202 43.5915 68.3323 43.5834 68.55C43.5915 68.7678 43.5132 68.9799 43.3657 69.1403C43.2183 69.3006 43.0135 69.3963 42.7958 69.4066Z" fill="#04BEFE"/>
<path d="M80.0126 53.5451H68.0704C67.9398 53.5451 67.8146 53.4932 67.7223 53.4009C67.63 53.3086 67.5781 53.1834 67.5781 53.0528C67.5781 52.9223 67.63 52.797 67.7223 52.7047C67.8146 52.6124 67.9398 52.5605 68.0704 52.5605H79.9929C80.1235 52.5605 80.2487 52.6124 80.341 52.7047C80.4333 52.797 80.4852 52.9223 80.4852 53.0528C80.4853 53.18 80.4361 53.3023 80.348 53.3941C80.2599 53.4859 80.1397 53.54 80.0126 53.5451Z" fill="#A3A3A3"/>
<path d="M74.9029 78.0197H68.0704C67.9398 78.0197 67.8146 77.9678 67.7223 77.8755C67.63 77.7832 67.5781 77.658 67.5781 77.5274C67.5781 77.3969 67.63 77.2717 67.7223 77.1793C67.8146 77.087 67.9398 77.0352 68.0704 77.0352H74.8833C75.0138 77.0352 75.139 77.087 75.2313 77.1793C75.3237 77.2717 75.3755 77.3969 75.3755 77.5274C75.3756 77.6546 75.3265 77.7769 75.2384 77.8687C75.1503 77.9605 75.0301 78.0146 74.9029 78.0197Z" fill="#A3A3A3"/>
<path d="M80.0126 58.4396H68.0704C67.9398 58.4396 67.8146 58.3877 67.7223 58.2954C67.63 58.2031 67.5781 58.0779 67.5781 57.9473C67.5781 57.8168 67.63 57.6916 67.7223 57.5993C67.8146 57.5069 67.9398 57.4551 68.0704 57.4551H79.9929C80.1227 57.4576 80.2464 57.5103 80.3382 57.602C80.43 57.6938 80.4827 57.8176 80.4852 57.9473C80.4853 58.0746 80.4361 58.1969 80.348 58.2886C80.2599 58.3804 80.1397 58.4345 80.0126 58.4396Z" fill="white"/>
<path d="M80.0126 63.3302H68.0704C67.9398 63.3302 67.8146 63.2784 67.7223 63.186C67.63 63.0937 67.5781 62.9685 67.5781 62.838C67.5781 62.7074 67.63 62.5822 67.7223 62.4899C67.8146 62.3976 67.9398 62.3457 68.0704 62.3457H79.9929C80.1227 62.3482 80.2464 62.4009 80.3382 62.4927C80.43 62.5844 80.4827 62.7082 80.4852 62.838C80.4853 62.9652 80.4361 63.0875 80.348 63.1793C80.2599 63.271 80.1397 63.3251 80.0126 63.3302Z" fill="#A3A3A3"/>
<path d="M55.5743 52.8861C55.4437 52.8861 55.3185 52.8342 55.2262 52.7419C55.1339 52.6496 55.082 52.5244 55.082 52.3938C55.0818 52.2604 55.1327 52.132 55.2243 52.0349C55.3158 51.9379 55.4411 51.8796 55.5743 51.872C55.6367 51.868 55.6992 51.8767 55.7582 51.8976C55.8171 51.9184 55.8712 51.951 55.9172 51.9933C55.9632 52.0356 56.0002 52.0868 56.0258 52.1438C56.0515 52.2008 56.0653 52.2624 56.0666 52.3249V52.3938C56.0666 52.5244 56.0147 52.6496 55.9224 52.7419C55.8301 52.8342 55.7048 52.8861 55.5743 52.8861Z" fill="white"/>
<path d="M40.1366 52.3343C40.1272 52.4526 40.0785 52.5644 39.9982 52.6518C39.9179 52.7393 39.8107 52.7973 39.6936 52.8167H39.6443C39.582 52.8207 39.5194 52.812 39.4605 52.7912C39.4015 52.7704 39.3474 52.7378 39.3014 52.6955C39.2554 52.6531 39.2185 52.6019 39.1928 52.5449C39.1671 52.4879 39.1533 52.4263 39.1521 52.3638V52.2949C39.1472 52.2623 39.1472 52.2291 39.1521 52.1965C39.1767 52.0871 39.238 51.9894 39.3257 51.9196C39.4135 51.8498 39.5224 51.812 39.6345 51.8125H39.7034C39.7665 51.8174 39.8279 51.8349 39.884 51.864C39.9402 51.8931 39.99 51.9331 40.0303 51.9818C40.0707 52.0305 40.101 52.0867 40.1192 52.1473C40.1375 52.2078 40.1434 52.2714 40.1366 52.3343Z" fill="white"/>
<path d="M53.5577 49.0772C54.3567 47.8208 54.7803 46.3623 54.7785 44.8733C54.7831 43.7922 54.5582 42.7224 54.1187 41.7346C53.6791 40.7469 53.0349 39.8637 52.2286 39.1434C51.9223 38.8694 51.5929 38.6223 51.2441 38.405C50.139 37.7174 48.8636 37.3525 47.562 37.3516C45.6087 37.3955 43.7525 38.2118 42.3999 39.6216C41.0473 41.0314 40.3085 42.9199 40.3455 44.8733C40.343 46.3758 40.7774 47.8467 41.5958 49.1067C40.9595 49.384 40.4031 49.8171 39.9782 50.3659C39.5532 50.9148 39.2732 51.5618 39.1641 52.2473V52.3163V55.8507C39.1641 58.0363 41.7829 59.838 45.4256 60.3499H45.5634C46.2455 60.4419 46.9329 60.488 47.6211 60.4878C48.8393 60.5195 50.0566 60.3971 51.2441 60.1235C51.5786 60.0473 51.9075 59.9486 52.2286 59.8281C54.5521 59.011 56.0683 57.5736 56.0683 55.8901V52.2966C55.9605 51.5899 55.673 50.9227 55.2334 50.359C54.7938 49.7953 54.2168 49.3539 53.5577 49.0772ZM41.33 44.8733C41.293 43.181 41.928 41.5429 43.096 40.3177C44.264 39.0925 45.8698 38.3799 47.562 38.3361C49.2542 38.3799 50.86 39.0925 52.028 40.3177C53.1961 41.5429 53.831 43.181 53.794 44.8733C53.8012 46.3367 53.3273 47.7618 52.4452 48.9295C51.8773 49.7014 51.1359 50.3291 50.2809 50.7617C49.4258 51.1944 48.4809 51.42 47.5226 51.4203C45.8356 51.3663 44.2383 50.6479 43.0785 49.4217C41.9186 48.1955 41.2902 46.5607 41.33 44.8733ZM40.1387 55.8704V54.6102L40.4144 54.876L40.6015 55.0434L40.9264 55.2797C41.0457 55.3696 41.1707 55.4518 41.3005 55.5258L41.6057 55.7128V58.0166C41.2024 57.8085 40.8572 57.5034 40.6011 57.1288C40.3451 56.7541 40.1862 56.3217 40.1387 55.8704ZM42.5902 58.5581V56.1854L43.0726 56.3528C43.427 56.4709 43.7913 56.5694 44.1556 56.658L45.0515 56.845V59.3162C44.203 59.1656 43.3764 58.911 42.5902 58.5581ZM47.6112 59.5426C47.0882 59.5434 46.5655 59.5138 46.0458 59.454V56.973C46.5656 57.032 47.0882 57.0616 47.6112 57.0616C48.1575 57.0632 48.7034 57.0303 49.2455 56.9632V59.4442C48.7035 59.5122 48.1576 59.5451 47.6112 59.5426ZM52.2286 58.7255C51.9067 58.8547 51.5781 58.9664 51.2441 59.0602C50.9199 59.1519 50.5913 59.2275 50.2596 59.2867V56.8254C50.3876 56.8254 50.5254 56.8254 50.6534 56.7367L51.0767 56.6481H51.2737L51.6478 56.5497L52.1696 56.3922H52.2483L52.6126 56.2642L52.8489 56.1657V58.5581L52.2286 58.7255ZM55.0837 55.8704C55.038 56.2742 54.8996 56.662 54.6793 57.0036C54.459 57.3452 54.1628 57.6312 53.8137 57.8394V55.5849C54.2799 55.3161 54.7072 54.9848 55.0837 54.6003V55.8704ZM55.0837 52.3655V52.4639C55.0933 52.5589 55.0933 52.6545 55.0837 52.7494C55.0627 52.8685 55.0263 52.9843 54.9754 53.094C54.958 53.1584 54.9278 53.2186 54.8868 53.2712C54.822 53.3959 54.7462 53.5145 54.6604 53.6257L54.5127 53.8127C53.7856 54.5631 52.8766 55.1126 51.8742 55.4076C50.5105 55.8524 49.085 56.0783 47.6506 56.0771C46.6571 56.0791 45.6664 55.9701 44.6971 55.7522C44.2706 55.6581 43.8499 55.5398 43.4369 55.3978L42.9545 55.2304L42.5016 55.0434C42.4303 55.0198 42.3611 54.9902 42.2948 54.9548C41.7497 54.6862 41.259 54.319 40.8476 53.8718C40.569 53.5609 40.3727 53.1852 40.2766 52.779C40.2671 52.717 40.2671 52.6539 40.2766 52.5919C40.2717 52.5461 40.2717 52.4999 40.2766 52.4541V52.3852C40.2766 51.4794 41.0642 50.6032 42.3441 49.9436C42.9999 50.7271 43.819 51.3577 44.7442 51.7914C45.6693 52.2251 46.6781 52.4512 47.6998 52.4541C48.7266 52.4524 49.7404 52.2248 50.6693 51.7876C51.5983 51.3503 52.4197 50.714 53.0753 49.9239C53.6139 50.1159 54.0942 50.4431 54.47 50.8741C54.8459 51.3051 55.1046 51.8254 55.2216 52.3852L55.0837 52.3655Z" fill="white"/>
<path d="M49.3642 45.1482C49.2385 44.9184 49.0553 44.725 48.8326 44.587C48.5966 44.4248 48.321 44.3295 48.0351 44.3114L47.5035 44.1735C47.2612 44.1374 47.0314 44.0428 46.834 43.8979C46.7042 43.7399 46.6345 43.5411 46.6371 43.3367C46.6268 43.2359 46.6391 43.1341 46.6731 43.0387C46.7072 42.9433 46.7622 42.8568 46.834 42.7854C46.9877 42.6143 47.1801 42.4827 47.3952 42.4014C47.6559 42.3379 47.9249 42.3146 48.1926 42.3325C48.4585 42.3325 48.7243 42.4703 49.059 42.4703C49.3938 42.4703 49.5316 42.0568 49.3248 41.7812C49.1181 41.5055 48.8621 41.5646 48.5963 41.4957H48.1926V40.7376C48.1687 40.6502 48.1166 40.5732 48.0446 40.5183C47.9726 40.4633 47.8845 40.4336 47.7939 40.4336C47.7033 40.4336 47.6153 40.4633 47.5432 40.5183C47.4712 40.5732 47.4192 40.6502 47.3952 40.7376C47.3952 40.8065 47.4641 41.5646 47.3952 41.5646C47.3263 41.5646 47.0605 41.6433 46.9325 41.6433C46.5835 41.7495 46.2791 41.9674 46.0661 42.2636C45.8743 42.6067 45.7727 42.9928 45.7707 43.3859C45.7525 43.6782 45.821 43.9693 45.9676 44.2228C46.1106 44.4395 46.2905 44.6295 46.4993 44.7839C46.7536 44.9063 47.0212 44.9988 47.2967 45.0596L47.8284 45.1974C48.0501 45.2324 48.2579 45.3278 48.4289 45.4731C48.5672 45.6268 48.6412 45.8277 48.6357 46.0343C48.635 46.1586 48.6042 46.2808 48.5459 46.3906C48.4876 46.5003 48.4036 46.5943 48.3009 46.6644C48.0369 46.8122 47.7369 46.8838 47.4346 46.8711C47.1018 46.8683 46.7708 46.8219 46.4501 46.7333C46.2531 46.6644 45.8495 46.3789 45.7215 46.5856C45.3868 47.009 45.8495 47.4914 46.1842 47.5701C46.3775 47.6347 46.5814 47.6615 46.7848 47.6489H47.2475V48.2002C47.2475 48.4759 47.2475 48.8992 47.5133 48.8992C47.7792 48.8992 47.9859 48.4759 48.045 48.1313V47.5012C48.0824 47.5057 48.1203 47.5018 48.156 47.4899C48.1918 47.4779 48.2245 47.4583 48.2517 47.4323C48.4915 47.3604 48.7154 47.2435 48.9113 47.0877C49.1063 46.9525 49.2488 46.7544 49.315 46.5265C49.4331 46.2924 49.481 46.0292 49.4528 45.7685C49.5611 45.6405 49.5021 45.4239 49.3642 45.1482Z" fill="#04BEFE"/>
<path d="M39.7337 38.9461C39.6525 38.9453 39.5727 38.9253 39.5008 38.8876C39.4289 38.85 39.367 38.7958 39.3202 38.7295L37.7056 36.3371C37.6683 36.2836 37.642 36.2232 37.6283 36.1595C37.6145 36.0957 37.6136 36.0299 37.6255 35.9657C37.6374 35.9016 37.6619 35.8405 37.6976 35.7859C37.7334 35.7314 37.7796 35.6845 37.8336 35.6479C37.9436 35.5762 38.0775 35.5504 38.2063 35.5762C38.3351 35.6019 38.4488 35.6772 38.5227 35.7858L40.1374 38.1781C40.1744 38.2309 40.2005 38.2905 40.2141 38.3534C40.2278 38.4164 40.2286 38.4815 40.2167 38.5448C40.2048 38.6081 40.1803 38.6684 40.1447 38.7221C40.1091 38.7758 40.0631 38.8218 40.0094 38.8575C39.9282 38.9134 39.8323 38.9442 39.7337 38.9461Z" fill="#5FF19D"/>
<path d="M38.1084 41.8888H35.5782C35.4476 41.8888 35.3224 41.837 35.2301 41.7446C35.1378 41.6523 35.0859 41.5271 35.0859 41.3966C35.0859 41.266 35.1378 41.1408 35.2301 41.0485C35.3224 40.9562 35.4476 40.9043 35.5782 40.9043H38.1281C38.2587 40.9043 38.3839 40.9562 38.4762 41.0485C38.5685 41.1408 38.6204 41.266 38.6204 41.3966C38.6204 41.4629 38.6071 41.5286 38.5811 41.5896C38.5551 41.6506 38.5171 41.7058 38.4693 41.7518C38.4215 41.7978 38.3649 41.8336 38.3028 41.8572C38.2408 41.8807 38.1747 41.8915 38.1084 41.8888Z" fill="#5FF19D"/>
<path d="M47.8945 80.2151C46.9789 80.3431 46.0731 80.4514 45.187 80.5499C45.0573 80.5647 44.9384 80.6296 44.8557 80.7307C44.773 80.8318 44.7329 80.9612 44.744 81.0913C44.7589 81.2204 44.8241 81.3383 44.9255 81.4195C45.027 81.5006 45.1563 81.5384 45.2855 81.5245C46.1814 81.4359 47.097 81.3178 48.0323 81.1996C48.1623 81.1801 48.2794 81.1104 48.3586 81.0055C48.4377 80.9006 48.4726 80.7688 48.4556 80.6385C48.4361 80.5085 48.3664 80.3914 48.2615 80.3122C48.1566 80.2331 48.0248 80.1982 47.8945 80.2151Z" fill="#5FF19D"/>
<path d="M54.9352 79.0556C54.2362 79.1934 53.5372 79.3312 52.848 79.4494L51.5091 79.6758C51.379 79.6976 51.2626 79.7697 51.1853 79.8766C51.1079 79.9834 51.0757 80.1164 51.0956 80.2469C51.1196 80.3752 51.1927 80.4891 51.2993 80.5644C51.4059 80.6398 51.5376 80.6707 51.6666 80.6505L53.0253 80.4241L52.9366 79.9318L53.0253 80.4142C53.7243 80.2862 54.4233 80.1582 55.1223 80.0106C55.2508 79.9844 55.3639 79.9089 55.4375 79.8004C55.5111 79.6918 55.5393 79.5588 55.5161 79.4297C55.4856 79.3048 55.4083 79.1965 55.3002 79.1269C55.1922 79.0572 55.0615 79.0317 54.9352 79.0556Z" fill="#5FF19D"/>
<path d="M25.1849 76.1898C25.0296 75.7239 24.9628 75.233 24.988 74.7425C24.9907 74.6771 24.9802 74.6117 24.9573 74.5504C24.9343 74.489 24.8994 74.4328 24.8544 74.3852C24.8095 74.3375 24.7555 74.2992 24.6956 74.2727C24.6357 74.2461 24.5711 74.2318 24.5056 74.2306C24.3767 74.2279 24.2519 74.2759 24.158 74.3643C24.0641 74.4526 24.0086 74.5743 24.0035 74.7031C23.9817 75.3094 24.0616 75.9151 24.2398 76.495C24.3857 76.9295 24.5876 77.3432 24.8404 77.7256C24.8769 77.7796 24.9238 77.8258 24.9784 77.8616C25.0329 77.8973 25.094 77.9218 25.1582 77.9337C25.2223 77.9456 25.2881 77.9447 25.3519 77.9309C25.4156 77.9172 25.476 77.8909 25.5295 77.8536C25.5832 77.818 25.6292 77.772 25.6648 77.7183C25.7004 77.6646 25.7249 77.6043 25.7369 77.541C25.7488 77.4776 25.7479 77.4126 25.7343 77.3496C25.7207 77.2866 25.6945 77.227 25.6575 77.1743C25.455 76.8697 25.296 76.5383 25.1849 76.1898Z" fill="#5FF19D"/>
<path d="M32.4676 63.2832L32.0837 63.5884L30.794 64.6418C30.7031 64.7355 30.6523 64.8609 30.6523 64.9913C30.6523 65.1218 30.7031 65.2472 30.794 65.3409C30.8389 65.3867 30.8925 65.4231 30.9517 65.448C31.0108 65.4728 31.0744 65.4856 31.1385 65.4856C31.2027 65.4856 31.2663 65.4728 31.3254 65.448C31.3846 65.4231 31.4382 65.3867 31.4831 65.3409L32.7433 64.3563L33.1273 64.0511L32.4676 63.2832Z" fill="#5FF19D"/>
<path d="M30.1846 79.9304C29.4248 79.7131 28.6865 79.4264 27.9792 79.0738C27.863 79.0155 27.7283 79.0055 27.6047 79.0461C27.4811 79.0866 27.3786 79.1745 27.3196 79.2904C27.289 79.3471 27.2701 79.4094 27.2639 79.4735C27.2578 79.5377 27.2645 79.6024 27.2838 79.6639C27.3031 79.7254 27.3345 79.7824 27.3761 79.8315C27.4178 79.8807 27.4689 79.921 27.5264 79.9501C28.2895 80.3332 29.0872 80.6431 29.9089 80.8755C30.0342 80.9094 30.1677 80.8935 30.2815 80.8311C30.3953 80.7687 30.4806 80.6646 30.5193 80.5408C30.5559 80.4154 30.5411 80.2807 30.4784 80.1662C30.4156 80.0518 30.3099 79.9669 30.1846 79.9304Z" fill="#5FF19D"/>
<path d="M35.7385 80.7971C34.8918 80.738 34.0845 80.6593 33.3264 80.551C33.1972 80.5342 33.0666 80.5693 32.9633 80.6487C32.8599 80.7281 32.7923 80.8451 32.7751 80.9743C32.7654 81.0378 32.7684 81.1025 32.784 81.1647C32.7996 81.227 32.8275 81.2855 32.866 81.3369C32.9045 81.3882 32.9529 81.4313 33.0083 81.4638C33.0637 81.4962 33.125 81.5172 33.1886 81.5256C33.9762 81.6339 34.8131 81.7225 35.6794 81.7816C35.8088 81.7847 35.9345 81.7387 36.0313 81.6528C36.1281 81.567 36.1888 81.4477 36.2012 81.3189C36.2052 81.2542 36.1964 81.1894 36.1753 81.1281C36.1542 81.0669 36.1212 81.0104 36.0782 80.9619C36.0352 80.9134 35.9831 80.8739 35.9248 80.8456C35.8665 80.8174 35.8032 80.8009 35.7385 80.7971Z" fill="#5FF19D"/>
<path d="M64.3009 77.3219C64.2663 77.197 64.1839 77.0907 64.0714 77.0262C63.959 76.9617 63.8256 76.9442 63.7003 76.9774L62.4992 77.3023L60.4514 77.8241C60.325 77.8544 60.2157 77.9336 60.1475 78.0443C60.0792 78.155 60.0575 78.2882 60.0872 78.4148C60.1198 78.5419 60.2009 78.6513 60.3131 78.7194C60.4254 78.7875 60.5599 78.8089 60.6877 78.779L62.7552 78.2572L63.9563 77.9323C64.0193 77.9153 64.0782 77.8859 64.1297 77.8459C64.1812 77.8059 64.2242 77.756 64.2563 77.6992C64.2883 77.6424 64.3088 77.5798 64.3164 77.5151C64.3241 77.4503 64.3188 77.3847 64.3009 77.3219Z" fill="#5FF19D"/>
<path d="M28.2926 67.6827C28.2468 67.6366 28.1924 67.6 28.1324 67.575C28.0724 67.55 28.008 67.5371 27.9431 67.5371C27.8781 67.5371 27.8137 67.55 27.7537 67.575C27.6938 67.6 27.6393 67.6366 27.5936 67.6827C26.8352 68.5102 26.1469 69.3993 25.5359 70.3409C25.5002 70.3954 25.4759 70.4566 25.4645 70.5208C25.4531 70.5849 25.4548 70.6508 25.4695 70.7142C25.4842 70.7777 25.5117 70.8376 25.5501 70.8902C25.5886 70.9428 25.6374 70.987 25.6934 71.0202C25.8031 71.0906 25.9363 71.1145 26.0636 71.0868C26.191 71.0591 26.3021 70.9821 26.3727 70.8726C26.9527 69.9724 27.6117 69.1257 28.3418 68.3423C28.417 68.2459 28.4536 68.125 28.4445 68.003C28.4354 67.8811 28.3812 67.7669 28.2926 67.6827Z" fill="#5FF19D"/>
<path d="M41.5678 80.7978H40.2092V81.2802V80.7978H38.9884C38.8578 80.7978 38.7326 80.8497 38.6403 80.942C38.548 81.0343 38.4961 81.1595 38.4961 81.2901C38.4961 81.4206 38.548 81.5458 38.6403 81.6382C38.7326 81.7305 38.8578 81.7823 38.9884 81.7823H40.2387H41.617C41.7485 81.7747 41.8717 81.7157 41.9601 81.6181C42.0485 81.5205 42.095 81.3921 42.0896 81.2605C42.0858 81.1959 42.0693 81.1325 42.041 81.0743C42.0128 81.016 41.9732 80.9638 41.9248 80.9208C41.8763 80.8778 41.8198 80.8448 41.7585 80.8237C41.6973 80.8026 41.6325 80.7938 41.5678 80.7978Z" fill="#5FF19D"/>
<path d="M109.881 41.9179C109.925 41.7952 109.919 41.6599 109.864 41.5418C109.808 41.4236 109.708 41.3323 109.585 41.2878C108.517 40.9052 107.417 40.6186 106.297 40.4313C106.233 40.42 106.167 40.4215 106.104 40.4357C106.041 40.4499 105.981 40.4766 105.928 40.5141C105.874 40.5517 105.829 40.5993 105.795 40.6544C105.76 40.7095 105.737 40.7708 105.726 40.835C105.715 40.8984 105.716 40.9635 105.731 41.0263C105.745 41.0891 105.772 41.1484 105.81 41.2007C105.847 41.253 105.895 41.2973 105.95 41.3308C106.005 41.3644 106.066 41.3866 106.13 41.3961C107.191 41.5662 108.236 41.8298 109.251 42.1838C109.37 42.2272 109.501 42.224 109.618 42.1747C109.735 42.1254 109.829 42.0336 109.881 41.9179Z" fill="#5FF19D"/>
<path d="M109.42 54.3632C108.869 54.9244 108.258 55.4954 107.599 56.0763C107.508 56.1699 107.457 56.2953 107.457 56.4258C107.457 56.5562 107.508 56.6816 107.599 56.7753C107.691 56.8655 107.814 56.916 107.943 56.916C108.072 56.916 108.196 56.8655 108.288 56.7753C108.967 56.1845 109.587 55.5938 110.158 55.013C110.205 54.9688 110.243 54.9154 110.269 54.8561C110.294 54.7969 110.308 54.733 110.308 54.6684C110.308 54.6038 110.294 54.5399 110.269 54.4806C110.243 54.4214 110.205 54.368 110.158 54.3238C110.109 54.2738 110.05 54.2348 109.985 54.2094C109.92 54.184 109.85 54.1728 109.78 54.1765C109.71 54.1802 109.642 54.1988 109.58 54.231C109.518 54.2632 109.463 54.3083 109.42 54.3632Z" fill="#5FF19D"/>
<path d="M105.678 58.2825C105.598 58.1795 105.481 58.1124 105.352 58.0958C105.223 58.0792 105.092 58.1145 104.989 58.1939L104.004 58.9421L102.892 59.7199C102.788 59.7952 102.716 59.9076 102.692 60.034C102.668 60.1604 102.694 60.2911 102.764 60.3992C102.8 60.4532 102.847 60.4994 102.902 60.5351C102.956 60.5709 103.017 60.5954 103.082 60.6073C103.146 60.6192 103.212 60.6183 103.275 60.6045C103.339 60.5907 103.399 60.5645 103.453 60.5272C103.837 60.2614 104.211 60.0054 104.575 59.7396L105.56 58.9716C105.665 58.8946 105.737 58.7796 105.759 58.651C105.781 58.5223 105.752 58.3902 105.678 58.2825Z" fill="#5FF19D"/>
<path d="M113.505 49.5778C113.447 49.5492 113.384 49.5324 113.319 49.5283C113.255 49.5242 113.19 49.533 113.128 49.554C113.067 49.5751 113.011 49.608 112.962 49.6509C112.914 49.6938 112.874 49.7459 112.846 49.8042C112.478 50.5302 112.046 51.2221 111.556 51.8717C111.518 51.924 111.49 51.9834 111.475 52.0463C111.46 52.1093 111.457 52.1747 111.467 52.2388C111.477 52.3028 111.5 52.3642 111.533 52.4195C111.567 52.4748 111.612 52.5228 111.664 52.5608C111.715 52.5994 111.773 52.6274 111.835 52.6433C111.897 52.6592 111.961 52.6627 112.024 52.6535C112.088 52.6444 112.148 52.6228 112.203 52.59C112.258 52.5571 112.306 52.5138 112.344 52.4624C112.868 51.7748 113.332 51.0436 113.732 50.2768C113.767 50.2169 113.789 50.1503 113.796 50.0813C113.804 50.0123 113.796 49.9425 113.775 49.8765C113.754 49.8105 113.719 49.7498 113.672 49.6983C113.626 49.6468 113.569 49.6057 113.505 49.5778Z" fill="#5FF19D"/>
<path d="M101.838 40.0488C101.296 40.0488 100.735 40.0488 100.164 40.0488H99.6719V41.0333H100.164C100.725 41.0333 101.277 41.0333 101.808 41.0333C101.938 41.0334 102.063 40.9833 102.157 40.8933C102.25 40.8034 102.305 40.6807 102.31 40.5509C102.313 40.4868 102.303 40.4227 102.28 40.3625C102.258 40.3024 102.224 40.2473 102.18 40.2005C102.136 40.1538 102.083 40.1162 102.024 40.0902C101.965 40.0641 101.902 40.0501 101.838 40.0488Z" fill="#5FF19D"/>
<path d="M114.34 45.3527L113.887 45.5004L114.34 45.3527C114.148 44.7687 113.851 44.2248 113.464 43.748C113.378 43.6495 113.258 43.5875 113.128 43.5747C112.998 43.5619 112.868 43.5992 112.765 43.6791C112.665 43.7617 112.601 43.8804 112.588 44.0095C112.575 44.1385 112.614 44.2674 112.696 44.3682C113.011 44.7498 113.251 45.1873 113.404 45.6579C113.512 46.0164 113.575 46.3867 113.592 46.7606C113.591 46.8257 113.605 46.89 113.63 46.9499C113.656 47.0097 113.693 47.0638 113.74 47.1089C113.787 47.1539 113.842 47.1891 113.903 47.2121C113.964 47.2352 114.029 47.2457 114.094 47.243C114.158 47.2405 114.222 47.2252 114.281 47.1981C114.339 47.171 114.392 47.1326 114.436 47.085C114.48 47.0375 114.514 46.9817 114.536 46.921C114.559 46.8603 114.569 46.7957 114.566 46.7311C114.555 46.2634 114.479 45.7995 114.34 45.3527Z" fill="#5FF19D"/>
<path d="M99.8594 61.7067C99.1111 62.1694 98.3333 62.6912 97.5359 63.1146C97.4804 63.147 97.4319 63.1902 97.3933 63.2417C97.3548 63.2931 97.3269 63.3517 97.3113 63.4141C97.2957 63.4765 97.2927 63.5413 97.3025 63.6048C97.3124 63.6684 97.3348 63.7293 97.3685 63.7841C97.4001 63.8404 97.4427 63.8898 97.4938 63.9293C97.5448 63.9689 97.6033 63.9978 97.6658 64.0143C97.7282 64.0308 97.7933 64.0347 97.8573 64.0255C97.9212 64.0164 97.9827 63.9946 98.038 63.9613C98.8453 63.4887 99.6231 62.9767 100.381 62.5337C100.49 62.4629 100.568 62.3526 100.597 62.2259C100.626 62.0991 100.606 61.966 100.539 61.8544C100.468 61.7449 100.357 61.6678 100.23 61.6401C100.102 61.6125 99.9691 61.6364 99.8594 61.7067Z" fill="#5FF19D"/>
<path d="M74.9603 73.4529L73.5229 73.9648L72.3513 74.3488C72.2266 74.3915 72.1237 74.4814 72.0647 74.5993C72.0058 74.7172 71.9956 74.8535 72.0362 74.9789C72.0789 75.1013 72.1674 75.2025 72.283 75.2612C72.3986 75.32 72.5324 75.3317 72.6565 75.294L73.8379 74.9001L75.2852 74.3882C75.4079 74.3438 75.5079 74.2524 75.5633 74.1343C75.6186 74.0161 75.6249 73.8808 75.5805 73.7581C75.538 73.6359 75.449 73.5354 75.333 73.4783C75.2169 73.4212 75.083 73.4121 74.9603 73.4529Z" fill="#5FF19D"/>
<path d="M81.6586 70.893C80.7233 71.2769 79.7781 71.651 78.8231 72.0252C78.7621 72.0481 78.7062 72.0829 78.6588 72.1276C78.6113 72.1722 78.5732 72.2259 78.5466 72.2854C78.5201 72.345 78.5056 72.4092 78.504 72.4744C78.5025 72.5395 78.5139 72.6044 78.5376 72.6651C78.5615 72.7253 78.597 72.7801 78.6421 72.8265C78.6872 72.873 78.741 72.91 78.8004 72.9356C78.8599 72.9612 78.9238 72.9749 78.9885 72.9758C79.0532 72.9766 79.1175 72.9647 79.1776 72.9408C80.1621 72.5666 81.0974 72.1925 82.0327 71.8086C82.1531 71.7565 82.2483 71.6593 82.298 71.5379C82.3477 71.4164 82.3479 71.2803 82.2985 71.1588C82.2464 71.0407 82.1509 70.9473 82.0317 70.8978C81.9126 70.8483 81.779 70.8466 81.6586 70.893Z" fill="#5FF19D"/>
<path d="M88.1848 67.9973L85.3986 69.2673C85.2799 69.321 85.1874 69.4196 85.1413 69.5414C85.0952 69.6631 85.0992 69.7983 85.1524 69.9171C85.2062 70.0357 85.3047 70.1282 85.4265 70.1744C85.5483 70.2205 85.6834 70.2165 85.8022 70.1632C86.7867 69.7497 87.6827 69.3165 88.5983 68.8932C88.6574 68.8657 88.7104 68.8268 88.7544 68.7787C88.7983 68.7305 88.8323 68.6741 88.8543 68.6128C88.8763 68.5514 88.8858 68.4863 88.8824 68.4212C88.8791 68.3561 88.8628 68.2923 88.8345 68.2336C88.8081 68.1748 88.7701 68.1219 88.7229 68.0781C88.6756 68.0342 88.6201 68.0003 88.5595 67.9783C88.499 67.9562 88.4346 67.9466 88.3702 67.9498C88.3059 67.9531 88.2428 67.9692 88.1848 67.9973Z" fill="#5FF19D"/>
<path d="M94.3853 64.8955L93.194 65.5354L93.4303 65.9588L93.1842 65.5157L91.8354 66.2148C91.7194 66.2738 91.6316 66.3763 91.591 66.4999C91.5504 66.6235 91.5604 66.7581 91.6188 66.8744C91.647 66.9327 91.6866 66.9848 91.7354 67.0274C91.7842 67.0701 91.841 67.1025 91.9026 67.1227C91.9642 67.143 92.0292 67.1506 92.0937 67.1451C92.1583 67.1396 92.2211 67.1212 92.2784 67.091L93.6469 66.3821L94.8578 65.7422C94.971 65.6779 95.0549 65.5721 95.0916 65.4472C95.1283 65.3223 95.1151 65.1881 95.0547 65.0727C94.989 64.961 94.8818 64.8797 94.7564 64.8465C94.6311 64.8133 94.4977 64.8309 94.3853 64.8955Z" fill="#5FF19D"/>
<path d="M69.2407 75.3628C68.4531 75.6089 67.6556 75.8452 66.8779 76.0717C66.8158 76.0898 66.7579 76.1199 66.7075 76.1604C66.6571 76.2009 66.6152 76.2509 66.5841 76.3075C66.553 76.3642 66.5334 76.4265 66.5264 76.4907C66.5193 76.555 66.525 76.62 66.5431 76.6821C66.56 76.7448 66.5895 76.8036 66.6297 76.8547C66.6699 76.9058 66.72 76.9483 66.777 76.9796C66.834 77.0108 66.8967 77.0302 66.9614 77.0366C67.0262 77.043 67.0915 77.0363 67.1535 77.0168C67.9411 76.7904 68.7386 76.5442 69.5361 76.2981C69.6603 76.2574 69.7638 76.1698 69.8245 76.054C69.8851 75.9381 69.8982 75.8032 69.861 75.6779C69.842 75.6157 69.8108 75.558 69.769 75.5083C69.7272 75.4585 69.6758 75.4177 69.6179 75.3882C69.56 75.3588 69.4967 75.3414 69.4319 75.337C69.3671 75.3327 69.3021 75.3414 69.2407 75.3628Z" fill="#5FF19D"/>
<defs>
<filter id="filter0_f" x="29" y="12" width="98" height="98" filterUnits="userSpaceOnUse" color-interpolation-filters="sRGB">
<feFlood flood-opacity="0" result="BackgroundImageFix"/>
<feBlend mode="normal" in="SourceGraphic" in2="BackgroundImageFix" result="shape"/>
<feGaussianBlur stdDeviation="20" result="effect1_foregroundBlur"/>
</filter>
</defs>
</svg>
