<svg width="138" height="110" viewBox="0 0 138 110" fill="none" xmlns="http://www.w3.org/2000/svg">
<g filter="url(#filter0_f)">
<circle cx="75" cy="59" r="9" fill="#5FF19D"/>
</g>
<path d="M60.7584 45.1558L68.6484 49.6958C69.3587 50.1086 70.1669 50.3228 70.9884 50.3158C71.8066 50.3214 72.6113 50.1073 73.3184 49.6958L81.2184 45.1558C81.9427 44.7318 82.5434 44.1257 82.961 43.3977C83.3785 42.6697 83.5983 41.8451 83.5984 41.0058V31.9358C83.5884 31.1127 83.3681 30.3058 82.9586 29.5917C82.5491 28.8777 81.9638 28.2801 81.2584 27.8558L73.3984 23.2858C72.6885 22.8759 71.8832 22.6602 71.0634 22.6602C70.2437 22.6602 69.4384 22.8759 68.7284 23.2858L60.7284 27.8258C60.0242 28.2506 59.4405 28.8485 59.0326 29.5627C58.6248 30.2768 58.4065 31.0835 58.3984 31.9058V41.0858C58.4084 41.9099 58.6309 42.7175 59.0443 43.4305C59.4577 44.1435 60.0482 44.7378 60.7584 45.1558ZM59.4284 31.9358C59.4333 31.2889 59.6041 30.654 59.9245 30.092C60.2449 29.5299 60.7042 29.0595 61.2584 28.7258L69.2584 24.1858C69.8136 23.8616 70.4456 23.6924 71.0884 23.6958C71.7315 23.6909 72.3639 23.8602 72.9184 24.1858L80.8084 28.7258C81.3559 29.0637 81.8078 29.536 82.1211 30.0979C82.4344 30.6598 82.5987 31.2925 82.5984 31.9358V41.0058C82.5955 41.6696 82.4197 42.3212 82.0883 42.8964C81.7569 43.4716 81.2813 43.9504 80.7084 44.2858L72.8184 48.8258C72.2605 49.1479 71.6277 49.3175 70.9834 49.3175C70.3392 49.3175 69.7063 49.1479 69.1484 48.8258L61.2684 44.2858C60.713 43.9526 60.2522 43.4826 59.9301 42.9206C59.608 42.3586 59.4353 41.7235 59.4284 41.0758V31.9358Z" fill="white"/>
<path d="M91.9216 57.5067L84.2516 53.3367C84.1932 53.3054 84.1292 53.286 84.0633 53.2797C83.9974 53.2733 83.9309 53.2801 83.8677 53.2996C83.8044 53.3191 83.7457 53.351 83.6948 53.3935C83.644 53.4359 83.6021 53.488 83.5716 53.5467C83.5401 53.6037 83.5203 53.6664 83.5134 53.7311C83.5064 53.7959 83.5124 53.8613 83.531 53.9237C83.5496 53.9861 83.5805 54.0441 83.6218 54.0944C83.6631 54.1447 83.714 54.1863 83.7716 54.2167L89.6016 57.3567L70.8316 65.9467H70.7616L51.4916 57.5267L57.0616 54.5267C57.1191 54.4963 57.17 54.4547 57.2113 54.4044C57.2526 54.3541 57.2835 54.2961 57.3021 54.2337C57.3207 54.1713 57.3267 54.1059 57.3198 54.0411C57.3128 53.9764 57.293 53.9137 57.2616 53.8567C57.232 53.7983 57.1911 53.7464 57.1412 53.7041C57.0912 53.6618 57.0333 53.6299 56.9709 53.6104C56.9084 53.5908 56.8427 53.5839 56.7775 53.5902C56.7124 53.5964 56.6492 53.6156 56.5916 53.6467L49.3716 57.5167C49.2915 57.5594 49.2242 57.6227 49.1768 57.7C49.1293 57.7774 49.1034 57.866 49.1016 57.9567V80.7767C49.1023 80.8677 49.1278 80.9567 49.1754 81.0343C49.223 81.1118 49.2908 81.1749 49.3716 81.2167L70.4316 92.5967C70.5049 92.6374 70.5877 92.6581 70.6716 92.6567C70.7522 92.6572 70.8315 92.6365 70.9016 92.5967L91.9716 81.2167C92.0498 81.1728 92.115 81.1089 92.1607 81.0317C92.2063 80.9544 92.2308 80.8665 92.2316 80.7767V57.9467C92.2261 57.8518 92.1941 57.7603 92.1393 57.6825C92.0846 57.6048 92.0091 57.5439 91.9216 57.5067ZM50.0516 58.2467L50.3216 58.1067L70.0716 66.7367V91.2867L50.0716 80.4667L50.0516 58.2467ZM91.1816 80.4767L71.0716 91.3467V66.9067L90.3316 58.1067C90.4201 58.0582 90.493 57.9853 90.5416 57.8967L91.1816 58.2467V80.4767Z" fill="white"/>
<path d="M111.321 54.2863H109.221V53.4863C109.221 52.6907 108.905 51.9276 108.342 51.365C107.78 50.8024 107.017 50.4863 106.221 50.4863C105.425 50.4863 104.662 50.8024 104.1 51.365C103.537 51.9276 103.221 52.6907 103.221 53.4863V54.2863H101.121C100.988 54.2863 100.861 54.339 100.768 54.4328C100.674 54.5265 100.621 54.6537 100.621 54.7863V64.8463C100.621 64.9789 100.674 65.1061 100.768 65.1999C100.861 65.2937 100.988 65.3463 101.121 65.3463H111.261C111.394 65.3463 111.521 65.2937 111.615 65.1999C111.708 65.1061 111.761 64.9789 111.761 64.8463V54.7763C111.76 54.6552 111.714 54.5388 111.633 54.4487C111.552 54.3585 111.441 54.3009 111.321 54.2863ZM104.321 53.4963C104.321 52.9659 104.532 52.4572 104.907 52.0821C105.282 51.707 105.791 51.4963 106.321 51.4963C106.852 51.4963 107.36 51.707 107.735 52.0821C108.11 52.4572 108.321 52.9659 108.321 53.4963V54.2863H104.381L104.321 53.4963ZM110.861 64.3563H101.721V55.2863H110.861V64.3563Z" fill="white"/>
<path d="M58.1282 55.5464C58.0494 55.5469 57.9717 55.528 57.9019 55.4914C57.8322 55.4548 57.7725 55.4015 57.7282 55.3364L55.9682 52.9064C55.8922 52.7982 55.8612 52.6648 55.8817 52.5342C55.9023 52.4036 55.9727 52.2861 56.0782 52.2064C56.1319 52.168 56.1927 52.1407 56.2571 52.1259C56.3214 52.1112 56.3881 52.1094 56.4532 52.1205C56.5183 52.1317 56.5805 52.1556 56.6363 52.1909C56.692 52.2263 56.7403 52.2723 56.7782 52.3264L58.5382 54.7564C58.6136 54.863 58.6443 54.9949 58.6237 55.1238C58.6031 55.2527 58.533 55.3685 58.4282 55.4464C58.342 55.512 58.2365 55.5471 58.1282 55.5464ZM54.5982 50.6864C54.5195 50.6861 54.4421 50.6668 54.3725 50.6302C54.3029 50.5937 54.2431 50.5409 54.1982 50.4764L52.4382 48.0464C52.3622 47.9382 52.3312 47.8048 52.3517 47.6742C52.3723 47.5436 52.4427 47.4261 52.5482 47.3464C52.6019 47.308 52.6627 47.2807 52.7271 47.2659C52.7915 47.2512 52.8581 47.2494 52.9232 47.2605C52.9883 47.2717 53.0505 47.2956 53.1063 47.3309C53.162 47.3663 53.2103 47.4123 53.2482 47.4664L55.0082 49.8964C55.0836 50.003 55.1142 50.1349 55.0937 50.2638C55.0731 50.3927 55.003 50.5085 54.8982 50.5864C54.812 50.652 54.7065 50.6871 54.5982 50.6864ZM51.0782 45.8264C50.9995 45.8261 50.9221 45.8068 50.8525 45.7702C50.7829 45.7337 50.7231 45.6809 50.6782 45.6164L48.9182 43.1864C48.8428 43.0798 48.8121 42.9479 48.8327 42.819C48.8532 42.6901 48.9234 42.5743 49.0282 42.4964C49.0808 42.4562 49.141 42.4271 49.2052 42.4108C49.2694 42.3945 49.3363 42.3914 49.4017 42.4017C49.4671 42.412 49.5298 42.4354 49.5859 42.4706C49.642 42.5058 49.6904 42.552 49.7282 42.6064L51.4882 45.0364C51.5636 45.143 51.5943 45.2749 51.5737 45.4038C51.5531 45.5327 51.483 45.6485 51.3782 45.7264C51.2954 45.7912 51.1933 45.8264 51.0882 45.8264H51.0782ZM47.5982 40.9664C47.5179 40.9677 47.4385 40.9492 47.367 40.9126C47.2955 40.876 47.2341 40.8223 47.1882 40.7564L45.4082 38.2864C45.3328 38.1798 45.3021 38.0479 45.3226 37.919C45.3432 37.7901 45.4134 37.6743 45.5182 37.5964C45.5708 37.5562 45.631 37.5271 45.6952 37.5108C45.7594 37.4945 45.8263 37.4914 45.8917 37.5017C45.9571 37.512 46.0198 37.5354 46.0759 37.5706C46.132 37.6058 46.1804 37.652 46.2182 37.7064L47.9782 40.1364C48.0541 40.2446 48.0851 40.378 48.0646 40.5086C48.0441 40.6392 47.9737 40.7567 47.8682 40.8364C47.7929 40.9053 47.699 40.9505 47.5982 40.9664ZM44.0782 36.1064C43.9978 36.1077 43.9184 36.0892 43.847 36.0526C43.7755 36.016 43.7141 35.9623 43.6682 35.8964L41.9082 33.4664C41.8328 33.3598 41.8021 33.2279 41.8226 33.099C41.8432 32.9701 41.9134 32.8543 42.0182 32.7764C42.0708 32.7362 42.131 32.7071 42.1952 32.6908C42.2594 32.6745 42.3263 32.6714 42.3917 32.6817C42.4571 32.692 42.5198 32.7154 42.5759 32.7506C42.632 32.7858 42.6804 32.832 42.7182 32.8864L44.4782 35.3164C44.5541 35.4246 44.5851 35.558 44.5646 35.6886C44.5441 35.8192 44.4737 35.9367 44.3682 36.0164C44.277 36.0785 44.1684 36.11 44.0582 36.1064H44.0782Z" fill="#5FF19D"/>
<path d="M40.6004 31.7759C40.5229 31.7751 40.4466 31.7567 40.3773 31.7221C40.308 31.6874 40.2475 31.6374 40.2004 31.5759L38.6004 29.2859C38.5615 29.2327 38.5335 29.1724 38.518 29.1085C38.5025 29.0445 38.4997 28.9781 38.51 28.913C38.5202 28.848 38.5432 28.7856 38.5775 28.7295C38.6119 28.6733 38.6571 28.6245 38.7104 28.5859C38.7616 28.5454 38.8205 28.5158 38.8835 28.4989C38.9465 28.4819 39.0123 28.478 39.0769 28.4874C39.1415 28.4967 39.2035 28.5192 39.2591 28.5533C39.3147 28.5874 39.3628 28.6325 39.4004 28.6859L41.0604 30.9459C41.0998 30.9984 41.1284 31.0582 41.1447 31.1218C41.161 31.1854 41.1646 31.2516 41.1554 31.3166C41.1461 31.3816 41.1241 31.4441 41.0906 31.5006C41.0572 31.5571 41.0129 31.6065 40.9604 31.6459C40.9122 31.6906 40.8554 31.7251 40.7936 31.7475C40.7317 31.7698 40.666 31.7795 40.6004 31.7759Z" fill="#5FF19D"/>
<path d="M81.3798 57.7958C81.2724 57.7915 81.1684 57.7568 81.0798 57.6958C80.9752 57.6129 80.9065 57.493 80.8879 57.3608C80.8693 57.2286 80.9022 57.0944 80.9798 56.9858L81.1498 56.7758C81.231 56.6719 81.3492 56.6035 81.4797 56.5848C81.6102 56.5662 81.7429 56.5988 81.8498 56.6758C81.9544 56.7569 82.0225 56.876 82.0394 57.0072C82.0563 57.1384 82.0205 57.271 81.9398 57.3758L81.7798 57.5958C81.7327 57.6574 81.6722 57.7073 81.6029 57.742C81.5336 57.7767 81.4573 57.7951 81.3798 57.7958ZM83.3798 55.1858C83.2713 55.1881 83.1653 55.1528 83.0798 55.0858C83.0273 55.0464 82.983 54.9971 82.9496 54.9406C82.9161 54.8841 82.8941 54.8215 82.8849 54.7565C82.8756 54.6915 82.8792 54.6253 82.8955 54.5617C82.9118 54.4981 82.9404 54.4384 82.9798 54.3858L84.7898 51.9958C84.871 51.8919 84.9892 51.8235 85.1197 51.8048C85.2502 51.7862 85.3829 51.8188 85.4898 51.8958C85.5424 51.9352 85.5866 51.9846 85.6201 52.0411C85.6535 52.0976 85.6755 52.1601 85.6848 52.2251C85.6941 52.2901 85.6905 52.3563 85.6742 52.4199C85.6579 52.4835 85.6292 52.5433 85.5898 52.5958L83.7798 54.9858C83.7307 55.0501 83.667 55.1017 83.594 55.1365C83.5209 55.1713 83.4407 55.1882 83.3598 55.1858H83.3798ZM86.9998 50.4058C86.8915 50.4066 86.786 50.3714 86.6998 50.3058C86.5953 50.2248 86.5271 50.1056 86.5102 49.9744C86.4934 49.8432 86.5292 49.7107 86.6098 49.6058L88.4198 47.2158C88.501 47.1119 88.6192 47.0435 88.7497 47.0248C88.8802 47.0062 89.0128 47.0388 89.1198 47.1158C89.2237 47.197 89.2922 47.3152 89.3108 47.4457C89.3295 47.5762 89.2969 47.7088 89.2198 47.8158L87.3998 50.2058C87.3519 50.2713 87.2884 50.3239 87.2151 50.3588C87.1418 50.3938 87.0609 50.4099 86.9798 50.4058H86.9998ZM90.5998 45.6258C90.4915 45.6266 90.386 45.5914 90.2998 45.5258C90.1959 45.4447 90.1275 45.3265 90.1088 45.196C90.0902 45.0655 90.1228 44.9328 90.1998 44.8258L92.0198 42.4358C92.101 42.3319 92.2192 42.2635 92.3497 42.2448C92.4802 42.2262 92.6129 42.2588 92.7198 42.3358C92.8244 42.4169 92.8926 42.536 92.9094 42.6672C92.9263 42.7984 92.8905 42.931 92.8098 43.0358L90.9998 45.4258C90.9527 45.4874 90.8922 45.5374 90.8229 45.572C90.7536 45.6067 90.6773 45.6251 90.5998 45.6258ZM94.2298 40.8458C94.1213 40.8481 94.0153 40.8128 93.9298 40.7458C93.8773 40.7064 93.833 40.6571 93.7996 40.6006C93.7661 40.5441 93.7441 40.4815 93.7349 40.4165C93.7256 40.3515 93.7292 40.2853 93.7455 40.2217C93.7618 40.1581 93.7904 40.0984 93.8298 40.0458L95.6398 37.6558C95.721 37.5519 95.8392 37.4835 95.9697 37.4648C96.1002 37.4462 96.2328 37.4788 96.3398 37.5558C96.3924 37.5952 96.4366 37.6446 96.4701 37.7011C96.5035 37.7576 96.5255 37.8201 96.5348 37.8851C96.5441 37.9501 96.5405 38.0163 96.5242 38.0799C96.5079 38.1435 96.4792 38.2033 96.4398 38.2558L94.5998 40.6458C94.557 40.7024 94.5029 40.7493 94.4409 40.7838C94.3789 40.8182 94.3104 40.8393 94.2398 40.8458H94.2298ZM97.8498 36.0658C97.7415 36.0666 97.636 36.0314 97.5498 35.9658C97.4453 35.8848 97.3771 35.7656 97.3602 35.6344C97.3434 35.5032 97.3792 35.3707 97.4598 35.2658L99.2698 32.8758C99.351 32.7719 99.4692 32.7035 99.5997 32.6848C99.7302 32.6662 99.8629 32.6988 99.9698 32.7758C100.074 32.857 100.142 32.9752 100.161 33.1057C100.179 33.2362 100.147 33.3688 100.07 33.4758L98.2498 35.8658C98.2048 35.9271 98.1461 35.9771 98.0784 36.0119C98.0107 36.0466 97.9359 36.0651 97.8598 36.0658H97.8498Z" fill="#5FF19D"/>
<path d="M101.34 31.2255C101.232 31.2263 101.126 31.1911 101.04 31.1255C100.987 31.0862 100.943 31.0368 100.91 30.9803C100.876 30.9238 100.854 30.8613 100.845 30.7963C100.836 30.7313 100.839 30.6651 100.855 30.6015C100.872 30.5379 100.9 30.4781 100.94 30.4255L102.83 27.8855C102.869 27.833 102.919 27.7888 102.975 27.7553C103.032 27.7219 103.094 27.6999 103.159 27.6906C103.224 27.6813 103.29 27.6849 103.354 27.7012C103.418 27.7175 103.477 27.7462 103.53 27.7855C103.635 27.8652 103.706 27.9827 103.726 28.1133C103.747 28.2439 103.716 28.3774 103.64 28.4855L101.74 31.0255C101.694 31.0888 101.634 31.1401 101.565 31.175C101.495 31.2098 101.418 31.2272 101.34 31.2255Z" fill="#5FF19D"/>
<path d="M70.7506 31.4062C69.3291 31.4062 67.9657 31.971 66.9605 32.9762C65.9553 33.9814 65.3906 35.3448 65.3906 36.7663C65.3933 38.1862 65.9592 39.5468 66.9641 40.5499C67.969 41.5529 69.3308 42.1163 70.7506 42.1163C72.1687 42.1136 73.528 41.5491 74.5307 40.5464C75.5335 39.5436 76.098 38.1844 76.1006 36.7663C76.1006 35.3465 75.5373 33.9846 74.5343 32.9797C73.5312 31.9748 72.1705 31.409 70.7506 31.4062ZM72.6306 37.6462C72.6468 37.8675 72.6018 38.089 72.5006 38.2863C72.4236 38.502 72.28 38.6875 72.0906 38.8162C71.9184 38.9386 71.7299 39.0363 71.5306 39.1063V39.4963C71.5306 39.7363 71.3806 40.2562 70.9306 40.2562H70.8206C70.4006 40.2562 70.3906 39.7063 70.3906 39.4663V39.2863H70.2706C70.078 39.2959 69.8852 39.2722 69.7006 39.2163C69.5644 39.1815 69.4387 39.1142 69.3342 39.0201C69.2297 38.9261 69.1496 38.8081 69.1006 38.6763C69.0617 38.5743 69.0514 38.4634 69.0708 38.3559C69.0901 38.2484 69.1385 38.1483 69.2106 38.0662C69.4006 37.7862 69.7706 37.9562 69.9606 38.0662H70.0806C70.4832 38.1769 70.9081 38.1769 71.3106 38.0662C71.3604 38.0387 71.4017 37.9981 71.4299 37.9487C71.4581 37.8993 71.4722 37.8432 71.4706 37.7863C71.4738 37.7407 71.4674 37.6948 71.4519 37.6518C71.4364 37.6088 71.4121 37.5695 71.3806 37.5363C71.2767 37.4542 71.1521 37.4022 71.0206 37.3862L70.5806 37.2762C70.3441 37.2207 70.1132 37.1437 69.8906 37.0462C69.6811 36.9099 69.501 36.7331 69.3606 36.5262C69.2148 36.2895 69.145 36.0138 69.1606 35.7362C69.1655 35.4147 69.2478 35.0992 69.4006 34.8162C69.6082 34.5283 69.9026 34.3145 70.2406 34.2062H70.3206H70.4206C70.4206 34.1362 70.4206 34.0262 70.4206 33.8962V33.7062C70.46 33.5883 70.535 33.4856 70.6353 33.4122C70.7356 33.3387 70.8563 33.2981 70.9806 33.2962C71.1057 33.2951 71.2278 33.3344 71.3287 33.4082C71.4296 33.4821 71.504 33.5867 71.5406 33.7062V33.7863V34.1263H71.6106H71.8106C72.0214 34.1508 72.2199 34.2379 72.3806 34.3763C72.4592 34.469 72.5102 34.5818 72.5279 34.702C72.5455 34.8221 72.5292 34.9449 72.4806 35.0562C72.435 35.1462 72.3647 35.2213 72.2779 35.2726C72.1911 35.324 72.0914 35.3495 71.9906 35.3462C71.8589 35.3402 71.7281 35.3202 71.6006 35.2863C71.5175 35.2789 71.4338 35.2789 71.3506 35.2863C71.1614 35.2617 70.9698 35.2617 70.7806 35.2863C70.6533 35.3306 70.5372 35.4023 70.4406 35.4963C70.4086 35.5288 70.3846 35.5682 70.3707 35.6117C70.3568 35.6551 70.3534 35.7013 70.3606 35.7463C70.3633 35.8387 70.3909 35.9284 70.4406 36.0062C70.5713 36.0794 70.7132 36.1301 70.8606 36.1562L71.3006 36.2663C71.5164 36.2788 71.7259 36.3439 71.9106 36.4562H72.0006C72.2156 36.5778 72.3949 36.7537 72.5206 36.9663C72.581 37.0677 72.6193 37.1806 72.633 37.2977C72.6468 37.4149 72.6358 37.5336 72.6006 37.6462H72.6306Z" fill="#04BEFE"/>
<path d="M65.9301 84.847C65.7975 84.847 65.6704 84.7943 65.5766 84.7005C65.4828 84.6068 65.4301 84.4796 65.4301 84.347V70.907L54.1101 65.687C53.9896 65.6324 53.8957 65.5323 53.8488 65.4086C53.802 65.2849 53.806 65.1477 53.8601 65.027C53.9167 64.9083 54.0169 64.816 54.1399 64.7694C54.2629 64.7228 54.3991 64.7255 54.5201 64.777L66.1401 70.137C66.2254 70.1778 66.2977 70.2414 66.3489 70.3209C66.4002 70.4003 66.4283 70.4925 66.4301 70.587V84.347C66.4301 84.4796 66.3775 84.6068 66.2837 84.7005C66.1899 84.7943 66.0628 84.847 65.9301 84.847Z" fill="#A3A3A3"/>
<path d="M75.3008 84.8462C75.1682 84.8462 75.041 84.7935 74.9472 84.6997C74.8535 84.6059 74.8008 84.4788 74.8008 84.3462V70.5862C74.8024 70.4903 74.8315 70.3969 74.8847 70.3171C74.9379 70.2373 75.0129 70.1745 75.1008 70.1362L86.7808 64.7762C86.9015 64.7221 87.0387 64.718 87.1624 64.7648C87.2861 64.8117 87.3862 64.9057 87.4408 65.0262C87.4693 65.0851 87.4857 65.1492 87.489 65.2145C87.4923 65.2799 87.4825 65.3453 87.4601 65.4068C87.4377 65.4683 87.4033 65.5248 87.3587 65.5727C87.3142 65.6207 87.2605 65.6593 87.2008 65.6862L75.8008 70.9062V84.3462C75.8008 84.4788 75.7481 84.6059 75.6543 84.6997C75.5606 84.7935 75.4334 84.8462 75.3008 84.8462Z" fill="#A3A3A3"/>
<path d="M91.5095 31.6353C91.3769 31.6353 91.2497 31.5826 91.1559 31.4888C91.0622 31.3951 91.0095 31.2679 91.0095 31.1353C91.0202 30.3271 90.7108 29.5475 90.1487 28.9667C89.5866 28.3859 88.8176 28.0511 88.0095 28.0353C87.8786 28.0275 87.756 27.9687 87.6681 27.8714C87.5802 27.7742 87.534 27.6463 87.5395 27.5153C87.5447 27.3862 87.5996 27.2641 87.6928 27.1746C87.786 27.0851 87.9103 27.0352 88.0395 27.0353C88.4419 27.0686 88.8467 27.0139 89.2258 26.8749C89.6049 26.7359 89.9492 26.516 90.2347 26.2305C90.5203 25.945 90.7402 25.6007 90.8791 25.2216C91.0181 24.8425 91.0728 24.4377 91.0395 24.0353C91.0394 23.9061 91.0893 23.7818 91.1788 23.6886C91.2683 23.5954 91.3904 23.5405 91.5195 23.5353C91.6498 23.5323 91.7763 23.5794 91.873 23.6668C91.9697 23.7542 92.0293 23.8753 92.0395 24.0053C92.1495 26.0053 93.1495 27.0053 95.0395 27.0053C95.1034 27.004 95.1669 27.0154 95.2263 27.0389C95.2857 27.0624 95.3398 27.0976 95.3854 27.1423C95.431 27.187 95.4673 27.2404 95.492 27.2993C95.5168 27.3582 95.5295 27.4214 95.5295 27.4853C95.535 27.6163 95.4888 27.7442 95.4009 27.8414C95.313 27.9387 95.1904 27.9975 95.0595 28.0053C94.2514 28.0211 93.4824 28.3559 92.9203 28.9367C92.3582 29.5175 92.0488 30.2971 92.0595 31.1053C92.0642 31.1779 92.0531 31.2506 92.0268 31.3184C92.0006 31.3862 91.9599 31.4475 91.9075 31.4979C91.8551 31.5484 91.7924 31.5868 91.7237 31.6106C91.6549 31.6343 91.5818 31.6427 91.5095 31.6353ZM90.0295 27.6353C90.6519 27.9664 91.1657 28.4698 91.5095 29.0853C91.8562 28.4695 92.3691 27.9636 92.9895 27.6253C92.3541 27.3015 91.8389 26.7829 91.5195 26.1453C91.1881 26.7761 90.6669 27.2868 90.0295 27.6053V27.6353Z" fill="#04BEFE"/>
<path d="M100.658 45.9152C100.417 45.9152 100.178 45.8675 99.9555 45.7749C99.7328 45.6823 99.5307 45.5466 99.3606 45.3756C99.1905 45.2046 99.0559 45.0017 98.9646 44.7785C98.8732 44.5554 98.8268 44.3163 98.8282 44.0752C98.8411 43.5976 99.0393 43.1438 99.3808 42.8098C99.7224 42.4757 100.18 42.2876 100.658 42.2852C101.144 42.2878 101.61 42.4828 101.953 42.8276C102.296 43.1724 102.488 43.6389 102.488 44.1252C102.478 44.6035 102.28 45.0588 101.938 45.3934C101.596 45.728 101.137 45.9153 100.658 45.9152ZM100.658 43.2352C100.437 43.2378 100.226 43.3274 100.071 43.4847C99.9153 43.6419 99.8281 43.8541 99.8282 44.0752C99.8281 44.2962 99.9153 44.5084 100.071 44.6656C100.226 44.8229 100.437 44.9125 100.658 44.9152C100.768 44.9152 100.877 44.8934 100.978 44.851C101.079 44.8087 101.171 44.7467 101.249 44.6685C101.326 44.5904 101.387 44.4977 101.428 44.3959C101.469 44.294 101.489 44.185 101.488 44.0752C101.476 43.8629 101.383 43.6633 101.229 43.5167C101.075 43.37 100.871 43.2873 100.658 43.2852V43.2352Z" fill="#919191"/>
<path d="M38.8886 71.7366C38.4023 71.734 37.9369 71.539 37.594 71.1942C37.2511 70.8494 37.0586 70.3829 37.0586 69.8966C37.0573 69.6555 37.1037 69.4164 37.195 69.1933C37.2864 68.9701 37.421 68.7672 37.5911 68.5962C37.7611 68.4252 37.9633 68.2895 38.186 68.1969C38.4087 68.1043 38.6474 68.0566 38.8886 68.0566C39.1289 68.058 39.3666 68.1066 39.5882 68.1998C39.8097 68.2929 40.0107 68.4288 40.1797 68.5997C40.3487 68.7706 40.4824 68.973 40.5731 69.1956C40.6639 69.4181 40.7099 69.6563 40.7086 69.8966C40.7086 70.3812 40.5175 70.8462 40.1768 71.1907C39.836 71.5352 39.3731 71.7314 38.8886 71.7366ZM38.8886 69.0566C38.6676 69.0593 38.4565 69.1489 38.3011 69.3062C38.1457 69.4634 38.0586 69.6756 38.0586 69.8966C38.0586 70.1177 38.1457 70.3299 38.3011 70.4871C38.4565 70.6443 38.6676 70.734 38.8886 70.7366C38.9976 70.7353 39.1053 70.7126 39.2055 70.6697C39.3057 70.6267 39.3965 70.5645 39.4726 70.4865C39.5488 70.4085 39.6088 70.3162 39.6493 70.215C39.6898 70.1138 39.7099 70.0056 39.7086 69.8966C39.7099 69.7876 39.6898 69.6794 39.6493 69.5782C39.6088 69.477 39.5488 69.3848 39.4726 69.3068C39.3965 69.2288 39.3057 69.1666 39.2055 69.1236C39.1053 69.0807 38.9976 69.0579 38.8886 69.0566Z" fill="#5FF19D"/>
<path d="M32.95 60.7566C31.1108 60.7436 29.3506 60.0071 28.0501 58.7066C26.7495 57.406 26.0131 55.6459 26 53.8066C26 51.9588 26.7306 50.1858 28.0325 48.8745C29.3345 47.5632 31.1022 46.8198 32.95 46.8066C34.8065 46.8066 36.587 47.5441 37.8997 48.8569C39.2125 50.1696 39.95 51.9501 39.95 53.8066C39.9368 55.6545 39.1935 57.4221 37.8822 58.7241C36.5708 60.0261 34.7979 60.7567 32.95 60.7566ZM32.95 47.8466C31.3674 47.8598 29.8541 48.4978 28.7397 49.6216C27.6252 50.7454 26.9999 52.264 27 53.8466C27.0131 55.4206 27.6441 56.9265 28.7572 58.0395C29.8702 59.1525 31.376 59.7836 32.95 59.7966C34.5327 59.7967 36.0513 59.1714 37.1751 58.057C38.2989 56.9426 38.9368 55.4293 38.95 53.8466C38.95 52.2553 38.3179 50.7292 37.1926 49.604C36.0674 48.4788 34.5413 47.8466 32.95 47.8466Z" fill="#A3A3A3"/>
<path d="M32.1094 56.2858C31.9333 56.2839 31.7608 56.2356 31.6094 56.1458C31.4582 56.0585 31.3326 55.9332 31.2449 55.7824C31.1571 55.6315 31.1104 55.4603 31.1094 55.2858V52.3358C31.1104 52.1613 31.1571 51.9901 31.2449 51.8392C31.3326 51.6883 31.4582 51.563 31.6094 51.4758C31.7614 51.388 31.9338 51.3418 32.1094 51.3418C32.2849 51.3418 32.4574 51.388 32.6094 51.4758L35.1394 52.9358C35.292 53.0239 35.4186 53.1507 35.5064 53.3035C35.5942 53.4563 35.6401 53.6296 35.6394 53.8058C35.6383 53.9803 35.5916 54.1515 35.5039 54.3024C35.4162 54.4532 35.2905 54.5785 35.1394 54.6658L32.5994 56.1258C32.4528 56.221 32.2839 56.2762 32.1094 56.2858ZM32.1094 52.3558V55.2858L34.6394 53.8258L34.8894 54.2558L34.6394 53.8158L32.1094 52.3558Z" fill="#04BEFE"/>
<path d="M50.2381 29.1247C49.6653 29.1247 49.1159 28.8971 48.7108 28.492C48.3057 28.087 48.0781 27.5376 48.0781 26.9647C48.0781 26.3918 48.3057 25.8424 48.7108 25.4373C49.1159 25.0323 49.6653 24.8047 50.2381 24.8047C50.811 24.8047 51.3604 25.0323 51.7655 25.4373C52.1706 25.8424 52.3981 26.3918 52.3981 26.9647C52.3981 27.5376 52.1706 28.087 51.7655 28.492C51.3604 28.8971 50.811 29.1247 50.2381 29.1247ZM50.2381 25.8047C49.9305 25.8047 49.6354 25.9269 49.4179 26.1444C49.2004 26.362 49.0781 26.657 49.0781 26.9647C49.0781 27.2723 49.2004 27.5674 49.4179 27.7849C49.6354 28.0025 49.9305 28.1247 50.2381 28.1247C50.5458 28.1247 50.8408 28.0025 51.0584 27.7849C51.2759 27.5674 51.3981 27.2723 51.3981 26.9647C51.3981 26.657 51.2759 26.362 51.0584 26.1444C50.8408 25.9269 50.5458 25.8047 50.2381 25.8047Z" fill="#5FF19D"/>
<path d="M51.8985 27.4653C51.7659 27.4653 51.6388 27.4126 51.545 27.3188C51.4512 27.225 51.3985 27.0979 51.3985 26.9653V20.1453C51.3961 20.0309 51.4338 19.9193 51.505 19.8298C51.5763 19.7403 51.6766 19.6786 51.7885 19.6553L54.6485 19.0153C54.7123 18.999 54.7786 18.9957 54.8437 19.0056C54.9087 19.0155 54.9711 19.0384 55.0271 19.0729C55.0831 19.1075 55.1315 19.1529 55.1696 19.2066C55.2076 19.2602 55.2345 19.321 55.2485 19.3853C55.2633 19.4496 55.2651 19.5163 55.254 19.5814C55.2428 19.6464 55.2189 19.7087 55.1836 19.7644C55.1482 19.8202 55.1022 19.8685 55.0482 19.9064C54.9941 19.9443 54.933 19.9711 54.8685 19.9853L52.3985 20.5453V26.9653C52.3985 27.0979 52.3459 27.225 52.2521 27.3188C52.1583 27.4126 52.0312 27.4653 51.8985 27.4653Z" fill="#5FF19D"/>
<path d="M51.8963 22.7649C51.7802 22.7626 51.6683 22.7207 51.5792 22.6462C51.4901 22.5716 51.4291 22.4689 51.4063 22.3549C51.383 22.225 51.4119 22.0912 51.4868 21.9825C51.5618 21.8739 51.6766 21.7992 51.8063 21.7749L54.6563 21.2249C54.7208 21.2104 54.7875 21.209 54.8525 21.2209C54.9175 21.2328 54.9794 21.2577 55.0345 21.2941C55.0896 21.3306 55.1368 21.3778 55.1732 21.4329C55.2096 21.488 55.2345 21.5499 55.2463 21.6149C55.2699 21.746 55.2413 21.8812 55.1665 21.9914C55.0918 22.1017 54.9769 22.1783 54.8463 22.2049L51.9963 22.7549L51.8963 22.7649Z" fill="#5FF19D"/>
<defs>
<filter id="filter0_f" x="26" y="10" width="98" height="98" filterUnits="userSpaceOnUse" color-interpolation-filters="sRGB">
<feFlood flood-opacity="0" result="BackgroundImageFix"/>
<feBlend mode="normal" in="SourceGraphic" in2="BackgroundImageFix" result="shape"/>
<feGaussianBlur stdDeviation="20" result="effect1_foregroundBlur"/>
</filter>
</defs>
</svg>
