<svg width="138" height="110" viewBox="0 0 138 110" fill="none" xmlns="http://www.w3.org/2000/svg">
<g filter="url(#filter0_f)">
<circle cx="77" cy="54" r="5" fill="#5FF19D"/>
</g>
<path d="M84.7406 69.0292C84.0389 66.9192 82.8144 65.0212 81.1812 63.5122C79.548 62.0032 77.5593 60.9322 75.4006 60.3992C73.5863 59.9262 71.6877 59.8749 69.8506 60.2492C69.817 60.2563 69.7852 60.27 69.757 60.2895C69.7287 60.3089 69.7046 60.3338 69.6861 60.3626C69.6675 60.3914 69.6548 60.4236 69.6487 60.4574C69.6426 60.4911 69.6432 60.5257 69.6506 60.5592C69.6564 60.5934 69.6692 60.626 69.6883 60.655C69.7074 60.684 69.7323 60.7087 69.7615 60.7275C69.7907 60.7463 69.8234 60.7588 69.8577 60.7643C69.892 60.7698 69.927 60.768 69.9606 60.7592C71.7266 60.3937 73.5527 60.4347 75.3006 60.8792C77.3612 61.39 79.2593 62.4132 80.8187 63.8537C82.3782 65.2943 83.5483 67.1055 84.2206 69.1192C84.7171 70.74 84.9764 72.4241 84.9906 74.1192C84.9931 74.1891 85.0227 74.2552 85.0731 74.3037C85.1234 74.3522 85.1907 74.3793 85.2606 74.3792C85.3304 74.3766 85.3966 74.347 85.445 74.2967C85.4935 74.2463 85.5206 74.1791 85.5206 74.1092C85.5027 72.3875 85.2401 70.677 84.7406 69.0292Z" fill="#E3E5E7"/>
<path d="M60.3983 73.2498C60.2197 70.6321 60.9239 68.0301 62.3983 65.8598C63.8602 63.7225 65.9602 62.1019 68.3983 61.2298C68.4319 61.2218 68.4634 61.207 68.491 61.1862C68.5185 61.1654 68.5414 61.1392 68.5583 61.1092C68.5752 61.0791 68.5857 61.0459 68.5892 61.0116C68.5926 60.9773 68.5889 60.9426 68.5783 60.9098C68.5702 60.8761 68.5554 60.8444 68.5348 60.8165C68.5142 60.7886 68.4882 60.7651 68.4584 60.7474C68.4286 60.7297 68.3955 60.7181 68.3611 60.7134C68.3268 60.7086 68.2918 60.7108 68.2583 60.7198C65.6797 61.62 63.4553 63.3189 61.9083 65.5698C60.4002 67.8345 59.6862 70.5357 59.8783 73.2498C59.9383 73.7398 60.0483 74.2498 60.1483 74.7298C60.4298 75.7683 60.5146 76.8502 60.3983 77.9198C60.3912 77.9547 60.3913 77.9907 60.3986 78.0256C60.4059 78.0605 60.4204 78.0935 60.441 78.1226C60.4616 78.1517 60.488 78.1762 60.5185 78.1946C60.549 78.2131 60.583 78.225 60.6183 78.2298C60.687 78.2386 60.7564 78.2207 60.8123 78.1797C60.8681 78.1388 60.9061 78.0779 60.9183 78.0098C61.034 76.9092 60.9424 75.7967 60.6483 74.7298C60.5683 74.2498 60.4683 73.7298 60.3983 73.2498Z" fill="#E3E5E7"/>
<path d="M72.0086 62.3301C73.5972 62.231 75.1872 62.5019 76.6534 63.1214C78.1196 63.7408 79.4222 64.692 80.4586 65.9001C80.5091 65.9501 80.5774 65.9782 80.6486 65.9782C80.7197 65.9782 80.788 65.9501 80.8386 65.9001C80.8857 65.85 80.9119 65.7838 80.9119 65.7151C80.9119 65.6463 80.8857 65.5801 80.8386 65.5301C79.7459 64.2622 78.375 63.2641 76.8329 62.6136C75.2908 61.9631 73.6192 61.6778 71.9486 61.7801C69.8433 61.9128 67.8214 62.6518 66.1268 63.9081C64.4323 65.1644 63.1374 66.8842 62.3986 68.8601C62.3753 68.9252 62.3779 68.9967 62.4058 69.06C62.4337 69.1232 62.4848 69.1734 62.5486 69.2001C62.6149 69.2228 62.6875 69.2188 62.751 69.1889C62.8144 69.159 62.8638 69.1057 62.8886 69.0401C63.5991 67.1608 64.8383 65.5274 66.4566 64.3367C68.0748 63.1461 70.003 62.4492 72.0086 62.3301Z" fill="#E3E5E7"/>
<path d="M83.4718 73.47C83.5064 73.4689 83.5405 73.4605 83.5717 73.4455C83.603 73.4305 83.6308 73.4092 83.6534 73.3828C83.676 73.3565 83.6928 73.3258 83.7029 73.2926C83.7129 73.2594 83.7159 73.2244 83.7118 73.19C83.6302 70.8911 82.94 68.655 81.7118 66.71C81.6936 66.6807 81.6696 66.6555 81.6413 66.636C81.6129 66.6164 81.5808 66.603 81.547 66.5964C81.5132 66.5898 81.4785 66.5903 81.4449 66.5978C81.4112 66.6053 81.3796 66.6197 81.3518 66.64C81.3217 66.6573 81.2956 66.6807 81.2751 66.7086C81.2545 66.7366 81.24 66.7685 81.2325 66.8024C81.225 66.8362 81.2246 66.8713 81.2314 66.9053C81.2381 66.9393 81.2519 66.9716 81.2718 67C82.4728 68.8655 83.1625 71.014 83.2718 73.23C83.2729 73.2868 83.2933 73.3415 83.3297 73.3851C83.366 73.4287 83.4161 73.4587 83.4718 73.47Z" fill="#E3E5E7"/>
<path d="M83.5384 74.3107C83.4685 74.3159 83.4034 74.3479 83.3567 74.4002C83.3101 74.4524 83.2856 74.5207 83.2884 74.5907C83.4038 76.1431 83.3804 77.7026 83.2184 79.2507C83.2127 79.2849 83.2139 79.3199 83.2219 79.3536C83.23 79.3873 83.2447 79.4191 83.2652 79.4471C83.2857 79.475 83.3116 79.4986 83.3413 79.5164C83.371 79.5342 83.404 79.5459 83.4384 79.5507C83.4733 79.5564 83.509 79.5548 83.5433 79.5461C83.5776 79.5375 83.6098 79.5219 83.6379 79.5004C83.666 79.4789 83.6894 79.4518 83.7067 79.4209C83.7239 79.39 83.7347 79.3559 83.7384 79.3207C83.9074 77.7464 83.9342 76.1599 83.8184 74.5807C83.8184 74.5444 83.8111 74.5085 83.7969 74.475C83.7827 74.4416 83.7619 74.4114 83.7358 74.3862C83.7096 74.361 83.6787 74.3413 83.6448 74.3283C83.6108 74.3154 83.5746 74.3094 83.5384 74.3107Z" fill="#E3E5E7"/>
<path d="M62.2019 72.6605C62.205 71.8723 62.299 71.0872 62.4819 70.3205C62.4909 70.287 62.493 70.252 62.4883 70.2177C62.4836 70.1833 62.472 70.1503 62.4543 70.1205C62.4366 70.0906 62.4131 70.0647 62.3852 70.0441C62.3573 70.0235 62.3256 70.0086 62.2919 70.0005C62.2577 69.9916 62.2221 69.9898 62.1872 69.9952C62.1523 70.0006 62.1188 70.013 62.0889 70.0317C62.059 70.0504 62.0331 70.075 62.013 70.1041C61.9929 70.1331 61.9789 70.1659 61.9719 70.2005C61.7719 71.0052 61.6711 71.8313 61.6719 72.6605C61.6906 73.5088 61.7945 74.353 61.9819 75.1805C62.1244 75.8401 62.2246 76.5081 62.2819 77.1805C62.324 78.0998 62.1671 79.0174 61.8219 79.8705C61.8074 79.9032 61.7998 79.9385 61.7996 79.9742C61.7994 80.0099 61.8066 80.0453 61.8206 80.0782C61.8347 80.111 61.8554 80.1406 61.8814 80.1651C61.9075 80.1896 61.9382 80.2084 61.9719 80.2205C62.0046 80.2331 62.0396 80.239 62.0747 80.2377C62.1098 80.2364 62.1443 80.2281 62.1761 80.2131C62.2078 80.1982 62.2363 80.1769 62.2596 80.1507C62.2829 80.1245 62.3007 80.0938 62.3119 80.0605C62.6836 79.1371 62.854 78.145 62.8119 77.1505C62.755 76.4781 62.6548 75.81 62.5119 75.1505C62.3252 74.333 62.2213 73.4988 62.2019 72.6605Z" fill="#E3E5E7"/>
<path d="M64.5202 77.0109C64.468 76.3237 64.3812 75.6395 64.2602 74.9609C64.0091 73.758 63.9417 72.524 64.0602 71.3009C64.2889 69.8529 64.8917 68.4897 65.809 67.3461C66.7263 66.2026 67.9263 65.3184 69.2902 64.7809C69.3545 64.7524 69.4052 64.6998 69.4314 64.6344C69.4575 64.569 69.4571 64.496 69.4302 64.4309C69.4182 64.3985 69.3996 64.3689 69.3757 64.3441C69.3517 64.3192 69.3228 64.2996 69.2909 64.2864C69.2589 64.2733 69.2246 64.2669 69.19 64.2676C69.1555 64.2684 69.1215 64.2763 69.0902 64.2909C67.6392 64.8689 66.3635 65.8145 65.3887 67.0348C64.4138 68.2551 63.7733 69.7081 63.5302 71.2509C63.4115 72.5006 63.4789 73.761 63.7302 74.9909C63.8402 75.6809 63.9502 76.3709 63.9902 77.0609C64.1315 78.5616 63.7805 80.0675 62.9902 81.3509C62.9513 81.4096 62.9369 81.481 62.95 81.5501C62.9631 81.6192 63.0026 81.6805 63.0602 81.7209C63.1207 81.7563 63.1922 81.7677 63.2607 81.7529C63.3292 81.7381 63.3897 81.6981 63.4302 81.6409C64.2938 80.2599 64.677 78.6322 64.5202 77.0109Z" fill="#E3E5E7"/>
<path d="M81.6193 73.0303C81.6892 73.0227 81.7534 72.9882 81.7982 72.934C81.843 72.8799 81.8649 72.8104 81.8593 72.7403C81.6661 70.1714 80.5551 67.7577 78.7293 65.9403C77.6392 64.9581 76.3283 64.2534 74.9077 63.8861C73.4871 63.5188 71.9989 63.4996 70.5693 63.8303C70.5358 63.8374 70.504 63.8511 70.4757 63.8706C70.4475 63.89 70.4234 63.9149 70.4048 63.9437C70.3862 63.9725 70.3735 64.0047 70.3674 64.0384C70.3613 64.0722 70.362 64.1068 70.3693 64.1403C70.3765 64.1751 70.3904 64.2082 70.4104 64.2377C70.4303 64.2671 70.4559 64.2923 70.4857 64.3118C70.5154 64.3313 70.5487 64.3448 70.5836 64.3514C70.6186 64.358 70.6545 64.3576 70.6893 64.3503C72.0359 64.0406 73.4373 64.0608 74.7744 64.409C76.1116 64.7572 77.3448 65.4232 78.3693 66.3503C80.1161 68.0711 81.1816 70.3655 81.3693 72.8103C81.3804 72.8696 81.411 72.9236 81.4563 72.9634C81.5017 73.0033 81.559 73.0268 81.6193 73.0303Z" fill="#E3E5E7"/>
<path d="M81.8014 73.9998C81.7334 74.0097 81.6717 74.0453 81.6289 74.0992C81.5862 74.1531 81.5656 74.2213 81.5714 74.2898C81.7996 76.7968 81.719 79.3224 81.3314 81.8098C81.3258 81.8447 81.3274 81.8805 81.336 81.9148C81.3447 81.9491 81.3603 81.9813 81.3818 82.0094C81.4033 82.0375 81.4304 82.0608 81.4613 82.0781C81.4921 82.0954 81.5262 82.1062 81.5614 82.1098C81.5956 82.1155 81.6306 82.1143 81.6643 82.1062C81.698 82.0982 81.7298 82.0835 81.7578 82.063C81.7857 82.0425 81.8093 82.0166 81.8271 81.9869C81.8449 81.9571 81.8566 81.9241 81.8614 81.8898C82.2501 79.3621 82.3274 76.7963 82.0914 74.2498C82.0903 74.2138 82.0817 74.1785 82.0662 74.146C82.0507 74.1135 82.0286 74.0846 82.0013 74.0611C81.9741 74.0376 81.9422 74.02 81.9078 74.0095C81.8734 73.9989 81.8372 73.9956 81.8014 73.9998Z" fill="#E3E5E7"/>
<path d="M72.5683 65.9397C74.2016 65.9348 75.7831 66.5127 77.0283 67.5697C77.0784 67.6168 77.1445 67.643 77.2133 67.643C77.282 67.643 77.3482 67.6168 77.3983 67.5697C77.4484 67.5191 77.4765 67.4509 77.4765 67.3797C77.4765 67.3085 77.4484 67.2403 77.3983 67.1897C76.0559 66.0566 74.355 65.4364 72.5983 65.4397C71.6396 65.4318 70.6888 65.6128 69.8001 65.9723C68.9114 66.3319 68.1022 66.863 67.4188 67.5353C66.7353 68.2076 66.191 69.008 65.8169 69.8906C65.4427 70.7733 65.2461 71.721 65.2383 72.6797C65.2389 73.0988 65.2757 73.517 65.3483 73.9297C65.3605 73.9998 65.4 74.0623 65.458 74.1035C65.5161 74.1447 65.588 74.1613 65.6583 74.1497C65.7266 74.1352 65.7866 74.0948 65.8258 74.037C65.8649 73.9792 65.8802 73.9085 65.8683 73.8397C65.7994 73.4569 65.766 73.0686 65.7683 72.6797C65.7722 71.7906 65.9512 70.9111 66.2951 70.0912C66.6389 69.2713 67.1409 68.5272 67.7724 67.9014C68.4038 67.2755 69.1523 66.7801 69.9752 66.4435C70.7981 66.107 71.6792 65.9358 72.5683 65.9397Z" fill="#E3E5E7"/>
<path d="M78.341 68.1602C78.2904 68.1101 78.2221 68.082 78.151 68.082C78.0798 68.082 78.0115 68.1101 77.961 68.1602C77.9109 68.2108 77.8828 68.279 77.8828 68.3502C77.8828 68.4214 77.9109 68.4896 77.961 68.5402C79.041 69.6702 79.381 71.5402 79.611 72.9902C79.8169 74.421 79.9205 75.8647 79.921 77.3102C79.921 77.3452 79.928 77.3798 79.9417 77.4121C79.9554 77.4443 79.9754 77.4734 80.0006 77.4977C80.0258 77.522 80.0557 77.5409 80.0884 77.5534C80.1211 77.5658 80.156 77.5715 80.191 77.5702C80.2599 77.5702 80.3261 77.5428 80.3748 77.494C80.4236 77.4453 80.451 77.3792 80.451 77.3102C80.451 75.8377 80.3441 74.3672 80.131 72.9102C79.881 71.2502 79.511 69.3802 78.341 68.1602Z" fill="#E3E5E7"/>
<path d="M80.1394 78.5301C80.1052 78.5274 80.0708 78.5314 80.0382 78.542C80.0056 78.5526 79.9755 78.5696 79.9494 78.5919C79.9234 78.6142 79.9021 78.6414 79.8866 78.672C79.8711 78.7026 79.8619 78.7359 79.8593 78.7701C79.7604 80.3739 79.5431 81.9683 79.2094 83.5401C79.1943 83.609 79.2068 83.6811 79.2442 83.7409C79.2815 83.8007 79.3408 83.8435 79.4093 83.8601C79.478 83.8727 79.5489 83.8591 79.6081 83.8221C79.6673 83.7851 79.7105 83.7274 79.7294 83.6601C80.0665 82.0646 80.2904 80.4472 80.3993 78.8201C80.4036 78.7835 80.4 78.7465 80.3889 78.7114C80.3777 78.6763 80.3593 78.644 80.3347 78.6166C80.3101 78.5891 80.28 78.5673 80.2463 78.5524C80.2126 78.5375 80.1762 78.5299 80.1394 78.5301Z" fill="#E3E5E7"/>
<path d="M66.0596 75.0906C66.0537 75.0562 66.0408 75.0233 66.0218 74.9939C66.0029 74.9646 65.9782 74.9393 65.9493 74.9197C65.9203 74.9001 65.8877 74.8866 65.8534 74.8799C65.8191 74.8731 65.7838 74.8734 65.7496 74.8806C65.7152 74.8866 65.6823 74.8994 65.6529 74.9184C65.6236 74.9374 65.5983 74.9621 65.5787 74.991C65.5591 75.0199 65.5456 75.0525 65.5388 75.0868C65.5321 75.1211 65.5324 75.1564 65.5396 75.1906C65.8327 76.4284 65.874 77.7125 65.661 78.9666C65.4479 80.2206 64.985 81.419 64.2996 82.4906C64.2618 82.5505 64.2489 82.6228 64.2639 82.692C64.2789 82.7612 64.3204 82.8218 64.3796 82.8606C64.4395 82.8985 64.5118 82.9113 64.581 82.8963C64.6502 82.8814 64.7107 82.8398 64.7496 82.7806C65.4721 81.652 65.9603 80.3897 66.1854 79.0686C66.4104 77.7476 66.3677 76.3948 66.0596 75.0906Z" fill="#E3E5E7"/>
<path d="M72.5715 67.1309C71.261 67.1277 69.9916 67.5875 68.9871 68.4291C67.9826 69.2707 67.3077 70.4401 67.0815 71.7309C67.0161 72.8486 67.0866 73.9701 67.2915 75.0709C67.4665 76.0307 67.5469 77.0054 67.5315 77.9809C67.4905 79.9956 66.8346 81.9496 65.6515 83.5809C65.6044 83.631 65.5781 83.6971 65.5781 83.7659C65.5781 83.8346 65.6044 83.9008 65.6515 83.9509C65.6757 83.9754 65.7045 83.9948 65.7362 84.0081C65.768 84.0214 65.802 84.0282 65.8365 84.0282C65.8709 84.0282 65.905 84.0214 65.9367 84.0081C65.9685 83.9948 65.9973 83.9754 66.0215 83.9509C67.2765 82.2354 67.9746 80.1759 68.0215 78.0509C68.0314 77.0789 67.9511 76.108 67.7815 75.1509C67.5719 74.0608 67.5014 72.9486 67.5715 71.8409C67.7781 70.6706 68.3948 69.6121 69.3111 68.8553C70.2273 68.0985 71.3832 67.6928 72.5715 67.7109C73.662 67.7137 74.7246 68.0561 75.6117 68.6905C76.4988 69.3249 77.1663 70.2198 77.5215 71.2509C78.1149 73.5337 78.3145 75.901 78.1115 78.2509C78.0323 80.4189 77.6416 82.5642 76.9515 84.6209C76.9282 84.686 76.9308 84.7575 76.9587 84.8208C76.9866 84.884 77.0377 84.9342 77.1015 84.9609C77.1678 84.9872 77.2418 84.9862 77.3074 84.9581C77.373 84.93 77.4248 84.8771 77.4515 84.8109C78.1601 82.6925 78.5609 80.4832 78.6415 78.2509C78.8377 75.8629 78.6281 73.4589 78.0215 71.1409C77.6522 69.983 76.9262 68.9715 75.9473 68.2513C74.9684 67.531 73.7868 67.1388 72.5715 67.1309Z" fill="#E3E5E7"/>
<path d="M68.1206 82.8601C67.9606 83.1135 67.8106 83.3735 67.6706 83.6401C67.5306 83.9001 67.3806 84.1601 67.2206 84.4101C67.1818 84.4688 67.1674 84.5403 67.1805 84.6094C67.1936 84.6785 67.2331 84.7397 67.2906 84.7801C67.3198 84.8002 67.3529 84.8141 67.3876 84.821C67.4224 84.8279 67.4583 84.8275 67.4929 84.82C67.5276 84.8126 67.5603 84.798 67.5892 84.7774C67.618 84.7568 67.6423 84.7305 67.6606 84.7001C67.8206 84.4535 67.9706 84.1935 68.1106 83.9201C68.2606 83.6601 68.4006 83.4001 68.5706 83.1501C68.6085 83.0903 68.6213 83.018 68.6063 82.9488C68.5914 82.8796 68.5498 82.819 68.4906 82.7801C68.4614 82.7601 68.4284 82.7461 68.3936 82.7393C68.3588 82.7324 68.323 82.7328 68.2884 82.7402C68.2537 82.7477 68.221 82.7622 68.1921 82.7829C68.1633 82.8035 68.1389 82.8298 68.1206 82.8601Z" fill="#E3E5E7"/>
<path d="M69.1298 81.8294C69.6498 80.6038 69.9315 79.2904 69.9598 77.9594C69.9714 76.8418 69.8472 75.727 69.5898 74.6394C69.4151 73.9456 69.3179 73.2346 69.2998 72.5194C69.2884 71.9896 69.4174 71.4662 69.6739 71.0025C69.9303 70.5388 70.305 70.1513 70.7598 69.8794C70.8174 69.839 70.8569 69.7777 70.87 69.7086C70.8831 69.6395 70.8687 69.568 70.8298 69.5094C70.7894 69.4518 70.7282 69.4123 70.6591 69.3992C70.59 69.3862 70.5185 69.4006 70.4598 69.4394C69.931 69.7575 69.4959 70.2102 69.199 70.7512C68.9021 71.2923 68.7541 71.9024 68.7698 72.5194C68.7865 73.2716 68.8871 74.0195 69.0698 74.7494C69.3093 75.7987 69.4201 76.8733 69.3998 77.9494C69.3811 79.2128 69.1126 80.4601 68.6098 81.6194C68.5967 81.6509 68.5899 81.6847 68.5898 81.7188C68.5898 81.753 68.5964 81.7868 68.6094 81.8184C68.6224 81.8499 68.6415 81.8787 68.6656 81.9028C68.6897 81.927 68.7183 81.9462 68.7498 81.9594C68.7829 81.9778 68.8195 81.9891 68.8572 81.9925C68.895 81.9959 68.933 81.9913 68.9688 81.9791C69.0047 81.9668 69.0375 81.9472 69.0653 81.9214C69.093 81.8956 69.115 81.8642 69.1298 81.8294Z" fill="#E3E5E7"/>
<path d="M76.8798 75.2509V75.1509C76.7198 73.2909 76.5098 71.0009 74.9498 69.7409C74.5132 69.3899 74.0044 69.1397 73.4599 69.0083C72.9153 68.8769 72.3484 68.8676 71.7998 68.9809C71.7662 68.988 71.7344 69.0017 71.7062 69.0212C71.678 69.0406 71.6539 69.0655 71.6353 69.0943C71.6167 69.1231 71.604 69.1553 71.5979 69.1891C71.5918 69.2228 71.5924 69.2574 71.5998 69.2909C71.6057 69.3254 71.6186 69.3583 71.6376 69.3876C71.6565 69.417 71.6812 69.4422 71.7101 69.4618C71.7391 69.4814 71.7717 69.495 71.806 69.5017C71.8403 69.5084 71.8756 69.5082 71.9098 69.5009C72.3815 69.4043 72.8687 69.4125 73.337 69.5248C73.8053 69.6371 74.2432 69.8509 74.6198 70.1509C76.0098 71.2709 76.1998 73.3809 76.3398 75.0609V75.2909C76.5181 77.6078 76.3394 79.9383 75.8098 82.2009C75.8025 82.2357 75.8021 82.2716 75.8087 82.3066C75.8153 82.3415 75.8288 82.3748 75.8483 82.4046C75.8678 82.4343 75.893 82.4599 75.9224 82.4799C75.9519 82.4998 75.9849 82.5138 76.0198 82.5209C76.0625 82.5439 76.1107 82.5545 76.1591 82.5515C76.2075 82.5485 76.2541 82.532 76.2936 82.504C76.3332 82.4759 76.364 82.4373 76.3828 82.3926C76.4016 82.3479 76.4074 82.2988 76.3998 82.2509C76.9124 79.9552 77.0742 77.5951 76.8798 75.2509Z" fill="#E3E5E7"/>
<path d="M75.7889 83.2493C75.7199 83.231 75.6465 83.2406 75.5847 83.2762C75.5229 83.3118 75.4776 83.3705 75.4589 83.4393C75.308 84.046 75.0652 84.6261 74.7389 85.1593C74.7212 85.1894 74.7098 85.2227 74.7053 85.2573C74.7008 85.2918 74.7033 85.3269 74.7126 85.3605C74.7219 85.3941 74.7379 85.4255 74.7596 85.4528C74.7813 85.48 74.8083 85.5027 74.8389 85.5193C74.8679 85.5388 74.9007 85.552 74.9352 85.558C74.9696 85.5641 75.005 85.5628 75.0389 85.5543C75.0728 85.5458 75.1046 85.5303 75.1321 85.5088C75.1597 85.4873 75.1824 85.4602 75.1989 85.4293C75.5473 84.8502 75.81 84.2237 75.9789 83.5693C75.9943 83.5018 75.9832 83.4309 75.9478 83.3714C75.9125 83.3118 75.8556 83.2681 75.7889 83.2493Z" fill="#E3E5E7"/>
<path d="M74.6814 79.7597C74.6472 79.7556 74.6125 79.7582 74.5794 79.7675C74.5463 79.7769 74.5153 79.7927 74.4883 79.8141C74.4613 79.8355 74.4389 79.862 74.4222 79.8922C74.4056 79.9223 74.3951 79.9555 74.3914 79.9897C74.1957 81.8935 73.6319 83.7411 72.7314 85.4297C72.6984 85.4911 72.6904 85.5627 72.7091 85.6298C72.7277 85.6969 72.7715 85.7542 72.8314 85.7897C72.8927 85.8227 72.9644 85.8307 73.0315 85.8121C73.0986 85.7934 73.1559 85.7496 73.1914 85.6897C74.1271 83.9399 74.7114 82.0239 74.9114 80.0497C74.917 80.0153 74.9154 79.9801 74.9067 79.9464C74.8979 79.9127 74.8822 79.8811 74.8606 79.8538C74.8389 79.8265 74.8118 79.804 74.7809 79.7878C74.7501 79.7716 74.7162 79.7621 74.6814 79.7597Z" fill="#E3E5E7"/>
<path d="M71.0791 73.2507C71.0209 73.0184 71.0153 72.776 71.0626 72.5412C71.11 72.3064 71.2091 72.0851 71.3528 71.8935C71.4965 71.7019 71.6812 71.5448 71.8933 71.4336C72.1055 71.3224 72.3397 71.2599 72.5791 71.2507C72.9458 71.2546 73.2996 71.3867 73.579 71.6242C73.8585 71.8616 74.046 72.1894 74.1091 72.5507C74.4986 74.5558 74.6463 76.6004 74.5491 78.6407C74.5435 78.7108 74.5654 78.7803 74.6102 78.8344C74.655 78.8886 74.7192 78.9231 74.7891 78.9307C74.8246 78.9334 74.8602 78.9291 74.894 78.918C74.9278 78.9069 74.9591 78.8892 74.9861 78.866C75.013 78.8428 75.0351 78.8144 75.0511 78.7826C75.067 78.7508 75.0766 78.7162 75.0791 78.6807C75.1842 76.5934 75.0331 74.5012 74.6291 72.4507C74.5428 71.9776 74.2974 71.5481 73.9337 71.2335C73.57 70.9189 73.1097 70.738 72.6291 70.7207C72.307 70.7309 71.9913 70.8138 71.7057 70.963C71.4201 71.1123 71.1719 71.3242 70.9796 71.5828C70.7873 71.8414 70.6559 72.1401 70.5952 72.4566C70.5345 72.7732 70.5461 73.0993 70.6291 73.4107C71.2025 75.5742 71.298 77.8366 70.9091 80.0407C70.5999 81.8398 69.959 83.5658 69.0191 85.1307C68.9852 85.1908 68.9757 85.2617 68.9924 85.3286C69.0092 85.3956 69.0509 85.4536 69.1091 85.4907C69.1381 85.5102 69.1709 85.5234 69.2054 85.5294C69.2398 85.5354 69.2752 85.5342 69.3091 85.5257C69.343 85.5172 69.3748 85.5017 69.4023 85.4802C69.4299 85.4586 69.4526 85.4316 69.4691 85.4007C70.4616 83.7892 71.1402 82.0045 71.4691 80.1407C71.8467 77.8433 71.7136 75.4908 71.0791 73.2507Z" fill="#E3E5E7"/>
<path d="M71.3993 83.9708L70.6993 85.3308C70.6824 85.3621 70.6721 85.3965 70.669 85.432C70.6659 85.4674 70.6701 85.5031 70.6813 85.5368C70.6926 85.5706 70.7106 85.6017 70.7343 85.6281C70.7581 85.6546 70.787 85.676 70.8193 85.6908C70.8492 85.7079 70.8824 85.7187 70.9166 85.7223C70.9508 85.726 70.9855 85.7226 71.0184 85.7123C71.0512 85.702 71.0816 85.6849 71.1076 85.6623C71.1336 85.6397 71.1546 85.612 71.1693 85.5808L71.8693 84.2108C71.9015 84.1483 71.908 84.0757 71.8874 84.0085C71.8669 83.9413 71.8209 83.8847 71.7593 83.8508C71.6952 83.822 71.6226 83.8183 71.5559 83.8405C71.4892 83.8628 71.4333 83.9093 71.3993 83.9708Z" fill="#E3E5E7"/>
<path d="M72.7808 72.6398C72.7641 72.5713 72.7213 72.512 72.6615 72.4746C72.6017 72.4373 72.5297 72.4248 72.4608 72.4398C72.3923 72.4565 72.333 72.4993 72.2956 72.5591C72.2582 72.6189 72.2457 72.6909 72.2608 72.7598C73.1697 76.0486 73.0581 79.5359 71.9408 82.7598C71.9177 82.8276 71.9214 82.9016 71.9511 82.9667C71.9809 83.0318 72.0344 83.083 72.1008 83.1098C72.1671 83.1325 72.2397 83.1285 72.3032 83.0987C72.3666 83.0688 72.416 83.0154 72.4408 82.9498C73.5937 79.6265 73.7122 76.0318 72.7808 72.6398Z" fill="#E3E5E7"/>
<path d="M87.5391 77.0391C88.5999 77.0391 89.6173 76.6176 90.3675 75.8675C91.1176 75.1173 91.5391 74.0999 91.5391 73.0391C91.5391 71.9782 91.1176 70.9608 90.3675 70.2106C89.6173 69.4605 88.5999 69.0391 87.5391 69.0391C86.4782 69.0391 85.4608 69.4605 84.7106 70.2106C83.9605 70.9608 83.5391 71.9782 83.5391 73.0391C83.5391 74.0999 83.9605 75.1173 84.7106 75.8675C85.4608 76.6176 86.4782 77.0391 87.5391 77.0391Z" fill="#04BEFE"/>
<path d="M87.5391 77.9395C93.1991 77.9395 97.8091 82.2394 97.8091 87.5194C97.8091 87.6794 97.7291 87.7595 97.5491 87.7595H77.5491C77.3791 87.7595 77.2891 87.6794 77.2891 87.5194C77.2691 82.2494 81.8791 77.9395 87.5391 77.9395Z" fill="#04BEFE"/>
<path d="M80.0405 38.7295H31.3205C30.8315 38.7216 30.365 38.5225 30.021 38.1748C29.6771 37.8271 29.483 37.3585 29.4805 36.8695V31.5495C29.483 31.0604 29.6771 30.5918 30.021 30.2441C30.365 29.8964 30.8315 29.6973 31.3205 29.6895H80.0405C80.5277 29.6999 80.9917 29.9001 81.3335 30.2475C81.6753 30.5949 81.868 31.0621 81.8705 31.5495V36.8695C81.868 37.3568 81.6753 37.824 81.3335 38.1714C80.9917 38.5188 80.5277 38.719 80.0405 38.7295ZM31.3205 30.7295C31.0967 30.7372 30.8845 30.8309 30.728 30.991C30.5716 31.1512 30.4829 31.3656 30.4805 31.5895V36.9095C30.4829 37.1334 30.5716 37.3477 30.728 37.5079C30.8845 37.6681 31.0967 37.7617 31.3205 37.7695H80.0405C80.2625 37.7592 80.4722 37.6645 80.6265 37.5045C80.7809 37.3446 80.8681 37.1317 80.8705 36.9095V31.5495C80.8681 31.3272 80.7809 31.1143 80.6265 30.9544C80.4722 30.7944 80.2625 30.6997 80.0405 30.6895L31.3205 30.7295Z" fill="#A3A3A3"/>
<path d="M54.3416 34.6602H34.6016C34.469 34.6602 34.3418 34.6075 34.248 34.5137C34.1542 34.4199 34.1016 34.2928 34.1016 34.1602C34.1016 34.0275 34.1542 33.9004 34.248 33.8066C34.3418 33.7128 34.469 33.6602 34.6016 33.6602H54.3416C54.4742 33.6602 54.6014 33.7128 54.6951 33.8066C54.7889 33.9004 54.8416 34.0275 54.8416 34.1602C54.8416 34.2928 54.7889 34.4199 54.6951 34.5137C54.6014 34.6075 54.4742 34.6602 54.3416 34.6602Z" fill="#5FF19D"/>
<path d="M59.1502 43.5508H44.6602C44.5275 43.5508 44.4004 43.4981 44.3066 43.4043C44.2128 43.3106 44.1602 43.1834 44.1602 43.0508C44.1602 42.9182 44.2128 42.791 44.3066 42.6972C44.4004 42.6035 44.5275 42.5508 44.6602 42.5508H59.1502C59.2828 42.5508 59.4099 42.6035 59.5037 42.6972C59.5975 42.791 59.6502 42.9182 59.6502 43.0508C59.6502 43.1834 59.5975 43.3106 59.5037 43.4043C59.4099 43.4981 59.2828 43.5508 59.1502 43.5508Z" fill="#A3A3A3"/>
<path d="M66.9808 34.7598H58.5508C58.4182 34.7598 58.291 34.7071 58.1972 34.6133C58.1035 34.5196 58.0508 34.3924 58.0508 34.2598C58.0533 34.128 58.1068 34.0023 58.2001 33.909C58.2933 33.8158 58.419 33.7623 58.5508 33.7598H66.9808C67.1134 33.7598 67.2406 33.8124 67.3343 33.9062C67.4281 34 67.4808 34.1272 67.4808 34.2598C67.4808 34.3254 67.4678 34.3904 67.4427 34.4511C67.4176 34.5118 67.3808 34.5669 67.3343 34.6133C67.2879 34.6597 67.2328 34.6966 67.1721 34.7217C67.1115 34.7468 67.0464 34.7598 66.9808 34.7598Z" fill="#04BEFE"/>
<path d="M56.4009 31.9609C56.9209 31.9453 57.4143 31.7277 57.7765 31.3544C58.1387 30.981 58.3412 30.4811 58.3409 29.9609C58.3412 29.4407 58.1387 28.9409 57.7765 28.5675C57.4143 28.1941 56.9209 27.9765 56.4009 27.9609C55.881 27.9765 55.3876 28.1941 55.0254 28.5675C54.6632 28.9409 54.4607 29.4407 54.4609 29.9609C54.4607 30.4811 54.6632 30.981 55.0254 31.3544C55.3876 31.7277 55.881 31.9453 56.4009 31.9609Z" fill="#5FF19D"/>
<path d="M37.9606 52.4707H32.5206C32.1664 52.4762 31.8147 52.4099 31.4868 52.2757C31.1589 52.1414 30.8616 51.9421 30.613 51.6897C30.3643 51.4373 30.1695 51.1371 30.0402 50.8073C29.9108 50.4774 29.8498 50.1248 29.8606 49.7707V44.3507C29.8497 43.997 29.9108 43.6448 30.0402 43.3155C30.1697 42.9862 30.3647 42.6866 30.6135 42.435C30.8623 42.1834 31.1597 41.985 31.4875 41.8519C31.8154 41.7188 32.1668 41.6537 32.5206 41.6607H37.9606C38.3144 41.6537 38.6659 41.7188 38.9937 41.8519C39.3216 41.985 39.6189 42.1834 39.8677 42.435C40.1165 42.6866 40.3116 42.9862 40.441 43.3155C40.5704 43.6448 40.6315 43.997 40.6206 44.3507V49.7707C40.6233 50.1226 40.5565 50.4716 40.4243 50.7978C40.292 51.1239 40.0968 51.4209 39.8498 51.6716C39.6028 51.9223 39.3089 52.1219 38.9847 52.259C38.6605 52.3961 38.3126 52.468 37.9606 52.4707ZM32.5206 42.6607C32.2985 42.655 32.0776 42.695 31.8716 42.7783C31.6657 42.8616 31.479 42.9864 31.3234 43.1449C31.1677 43.3034 31.0462 43.4923 30.9666 43.6997C30.887 43.9071 30.8509 44.1287 30.8606 44.3507V49.7707C30.8495 49.9934 30.8846 50.2161 30.9635 50.4247C31.0425 50.6333 31.1637 50.8234 31.3195 50.983C31.4754 51.1426 31.6625 51.2683 31.8692 51.3522C32.0759 51.4361 32.2976 51.4764 32.5206 51.4707H37.9606C38.4045 51.4602 38.8267 51.2765 39.1369 50.9588C39.4471 50.6411 39.6207 50.2147 39.6206 49.7707V44.3507C39.6303 44.1287 39.5942 43.9071 39.5146 43.6997C39.435 43.4923 39.3136 43.3034 39.1579 43.1449C39.0022 42.9864 38.8156 42.8616 38.6096 42.7783C38.4036 42.695 38.1827 42.655 37.9606 42.6607H32.5206Z" fill="#A3A3A3"/>
<path d="M35.0914 49.02C35.0244 49.0209 34.9578 49.0081 34.8959 48.9823C34.8339 48.9565 34.778 48.9183 34.7314 48.87L32.8814 46.99C32.8349 46.9443 32.7979 46.8899 32.7726 46.8298C32.7474 46.7697 32.7344 46.7052 32.7344 46.64C32.7344 46.5748 32.7474 46.5102 32.7726 46.4501C32.7979 46.39 32.8349 46.3356 32.8814 46.29C32.9271 46.2434 32.9815 46.2064 33.0416 46.1812C33.1017 46.1559 33.1663 46.1429 33.2314 46.1429C33.2966 46.1429 33.3612 46.1559 33.4213 46.1812C33.4814 46.2064 33.5358 46.2434 33.5814 46.29L35.0714 47.8L37.4014 45.36C37.4471 45.3134 37.5015 45.2764 37.5616 45.2512C37.6217 45.2259 37.6863 45.2129 37.7514 45.2129C37.8166 45.2129 37.8812 45.2259 37.9413 45.2512C38.0014 45.2764 38.0558 45.3134 38.1014 45.36C38.1483 45.4064 38.1855 45.4617 38.2109 45.5227C38.2363 45.5836 38.2493 45.649 38.2493 45.715C38.2493 45.781 38.2363 45.8463 38.2109 45.9072C38.1855 45.9682 38.1483 46.0235 38.1014 46.07L35.4314 48.89C35.3361 48.9857 35.2066 49.0396 35.0714 49.04L35.0914 49.02Z" fill="#04BEFE"/>
<path d="M57.4005 29.6507C57.3177 29.6516 57.236 29.632 57.1627 29.5936C57.0894 29.5552 57.0268 29.4992 56.9805 29.4307C56.9081 29.3204 56.8822 29.1861 56.9084 29.0568C56.9346 28.9276 57.0109 28.814 57.1205 28.7407C57.2837 28.6296 57.4541 28.5294 57.6305 28.4407C57.7742 28.3812 57.9115 28.3075 58.0405 28.2207C58.0948 28.1828 58.1561 28.1561 58.2209 28.1421C58.2856 28.1281 58.3525 28.1272 58.4176 28.1393C58.4828 28.1514 58.5448 28.1763 58.6003 28.2126C58.6557 28.2489 58.7033 28.2958 58.7405 28.3507C58.8128 28.4609 58.8387 28.5952 58.8125 28.7245C58.7863 28.8537 58.7101 28.9673 58.6005 29.0407C58.4372 29.1517 58.2668 29.2519 58.0905 29.3407C57.9465 29.4036 57.8092 29.4806 57.6805 29.5707C57.5951 29.6199 57.4989 29.6474 57.4005 29.6507Z" fill="#5FF19D"/>
<path d="M43.2018 81.88C42.7151 81.88 42.2351 81.83 41.7618 81.73C41.2134 81.6515 40.6718 81.5311 40.1418 81.37C40.0788 81.3516 40.02 81.321 39.9688 81.2799C39.9176 81.2388 39.875 81.188 39.8434 81.1304C39.7796 81.0141 39.7647 80.8773 39.8018 80.75C39.8412 80.6242 39.9277 80.5185 40.0433 80.4551C40.1589 80.3917 40.2946 80.3756 40.4218 80.41C40.9109 80.5517 41.4086 80.6619 41.9118 80.74C42.3518 80.8 42.8118 80.85 43.2718 80.88C43.3375 80.885 43.4016 80.903 43.4604 80.933C43.5191 80.9629 43.5714 81.0041 43.6142 81.0543C43.6569 81.1045 43.6893 81.1626 43.7095 81.2254C43.7297 81.2882 43.7373 81.3543 43.7318 81.42C43.7216 81.5509 43.6602 81.6725 43.5611 81.7586C43.4619 81.8447 43.3329 81.8883 43.2018 81.88ZM47.2018 81.8C47.0768 81.803 46.9554 81.758 46.8624 81.6744C46.7694 81.5907 46.712 81.4746 46.7018 81.35C46.6949 81.2843 46.7011 81.2178 46.72 81.1545C46.739 81.0912 46.7703 81.0323 46.8121 80.9811C46.8539 80.93 46.9055 80.8877 46.9638 80.8566C47.0221 80.8255 47.086 80.8062 47.1518 80.8C48.1297 80.7065 49.1013 80.5562 50.0618 80.35C50.1262 80.3369 50.1925 80.3365 50.2569 80.349C50.3214 80.3615 50.3828 80.3866 50.4376 80.4228C50.4924 80.459 50.5395 80.5056 50.5763 80.5601C50.613 80.6145 50.6387 80.6756 50.6518 80.74C50.6664 80.8044 50.6677 80.8712 50.6558 80.9361C50.644 81.0011 50.619 81.0631 50.5826 81.1182C50.5462 81.1733 50.499 81.2205 50.4439 81.2569C50.3887 81.2933 50.3268 81.3181 50.2618 81.33C49.2705 81.5376 48.2692 81.6945 47.2618 81.8H47.2018ZM54.0218 80.25C53.9165 80.2498 53.8138 80.2171 53.7279 80.1562C53.6419 80.0953 53.5769 80.0093 53.5418 79.91C53.5035 79.784 53.5154 79.648 53.575 79.5306C53.6347 79.4132 53.7374 79.3234 53.8618 79.28C54.8018 78.96 55.7318 78.59 56.6118 78.2C56.7325 78.1459 56.8697 78.1418 56.9934 78.1887C57.1171 78.2355 57.2172 78.3295 57.2718 78.45C57.3259 78.5707 57.33 78.7079 57.2831 78.8316C57.2363 78.9553 57.1423 79.0554 57.0218 79.11C56.1118 79.52 55.1518 79.89 54.1818 80.22C54.1307 80.2396 54.0765 80.2498 54.0218 80.25ZM36.7318 79.51C36.6142 79.5097 36.5006 79.4671 36.4118 79.39C35.5968 78.7105 34.9182 77.8825 34.4118 76.95C34.3505 76.8328 34.3371 76.6964 34.3744 76.5696C34.4117 76.4427 34.4968 76.3353 34.6118 76.27C34.6702 76.2387 34.7341 76.2193 34.8 76.2129C34.8659 76.2066 34.9324 76.2133 34.9957 76.2329C35.059 76.2524 35.1177 76.2843 35.1685 76.3267C35.2194 76.3692 35.2613 76.4213 35.2918 76.48C35.7403 77.3052 36.3448 78.0354 37.0718 78.63C37.1225 78.6715 37.1643 78.7227 37.1949 78.7807C37.2254 78.8386 37.2441 78.9021 37.2497 78.9673C37.2552 79.0326 37.2477 79.0983 37.2275 79.1606C37.2072 79.2229 37.1747 79.2805 37.1318 79.33C37.088 79.3964 37.0287 79.4511 36.959 79.4894C36.8893 79.5278 36.8113 79.5485 36.7318 79.55V79.51ZM33.9318 73.37C33.8653 73.3687 33.7997 73.3542 33.7388 73.3272C33.678 73.3003 33.6232 73.2614 33.5775 73.213C33.5319 73.1646 33.4964 73.1075 33.4731 73.0452C33.4498 72.9828 33.4391 72.9165 33.4418 72.85C33.4584 72.3259 33.5186 71.8041 33.6218 71.29C33.724 70.7682 33.8712 70.2563 34.0618 69.76C34.1089 69.6372 34.2025 69.5379 34.3223 69.4836C34.4421 69.4293 34.5784 69.4245 34.7018 69.47C34.7634 69.4922 34.82 69.5265 34.8681 69.571C34.9162 69.6154 34.955 69.6691 34.982 69.7287C35.009 69.7884 35.0238 69.8529 35.0255 69.9184C35.0272 69.9839 35.0157 70.049 34.9918 70.11C34.825 70.5554 34.6946 71.0135 34.6018 71.48C34.5096 71.9414 34.4561 72.4097 34.4418 72.88C34.4445 72.9486 34.4333 73.0171 34.4089 73.0813C34.3845 73.1455 34.3473 73.2041 34.2997 73.2536C34.2521 73.3031 34.1949 73.3425 34.1317 73.3694C34.0685 73.3962 34.0005 73.4101 33.9318 73.41V73.37ZM36.5318 67.01C36.4145 67.008 36.3015 66.9656 36.2118 66.89C36.1111 66.8029 36.0485 66.6799 36.0373 66.5472C36.026 66.4146 36.0672 66.2828 36.1518 66.18C36.6489 65.5862 37.1941 65.0343 37.7818 64.53L38.3718 64.04C38.4219 63.9977 38.4801 63.9659 38.5427 63.9464C38.6054 63.927 38.6713 63.9204 38.7366 63.9269C38.8019 63.9334 38.8652 63.953 38.9228 63.9844C38.9804 64.0159 39.031 64.0586 39.0718 64.11C39.1141 64.1601 39.1459 64.2183 39.1654 64.2809C39.1848 64.3436 39.1915 64.4095 39.1849 64.4748C39.1784 64.5401 39.1588 64.6034 39.1274 64.661C39.0959 64.7186 39.0532 64.7692 39.0018 64.81L38.4318 65.29C37.884 65.7577 37.3786 66.2731 36.9218 66.83C36.8759 66.892 36.8174 66.9436 36.7502 66.9815C36.683 67.0194 36.6086 67.0427 36.5318 67.05V67.01ZM41.9818 62.66C41.8946 62.6595 41.809 62.6361 41.7335 62.5923C41.6581 62.5484 41.5954 62.4856 41.5518 62.41C41.518 62.3538 41.4958 62.2914 41.4865 62.2264C41.4773 62.1615 41.4812 62.0953 41.4979 62.0319C41.5147 61.9685 41.5441 61.9091 41.5843 61.8572C41.6244 61.8054 41.6746 61.7621 41.7318 61.73C42.6186 61.225 43.5334 60.7709 44.4718 60.37C44.5315 60.3437 44.5958 60.3296 44.661 60.3284C44.7262 60.3273 44.7909 60.3392 44.8514 60.3634C44.912 60.3876 44.9671 60.4237 45.0135 60.4695C45.0599 60.5152 45.0967 60.5698 45.1218 60.63C45.1483 60.6904 45.1626 60.7554 45.1638 60.8213C45.1651 60.8872 45.1533 60.9527 45.1291 61.0141C45.105 61.0754 45.0689 61.1314 45.023 61.1787C44.9771 61.2261 44.9224 61.2639 44.8618 61.29C43.9609 61.6763 43.0829 62.1137 42.2318 62.6C42.1577 62.6528 42.0719 62.6871 41.9818 62.7V62.66ZM48.4018 60.03C48.2945 60.0323 48.1894 59.9993 48.1027 59.936C48.016 59.8728 47.9524 59.7829 47.9218 59.68C47.9018 59.6176 47.8946 59.5519 47.9004 59.4867C47.9063 59.4215 47.9252 59.3581 47.9559 59.3003C47.9867 59.2425 48.0287 59.1915 48.0795 59.1502C48.1304 59.1089 48.1889 59.0783 48.2518 59.06C49.1718 58.77 50.1318 58.49 51.1418 58.2C51.2048 58.1816 51.2709 58.1758 51.3362 58.183C51.4014 58.1901 51.4647 58.21 51.5222 58.2416C51.5798 58.2732 51.6306 58.3158 51.6717 58.367C51.7128 58.4182 51.7434 58.477 51.7618 58.54C51.7958 58.6686 51.7783 58.8054 51.7129 58.9212C51.6475 59.037 51.5395 59.1227 51.4118 59.16C50.4118 59.44 49.4118 59.73 48.5518 60.01C48.5036 60.0264 48.4526 60.0332 48.4018 60.03ZM55.1318 58.03C55.0232 58.0317 54.9172 57.9972 54.8303 57.9321C54.7434 57.8669 54.6806 57.7747 54.6518 57.67C54.632 57.607 54.6252 57.5406 54.6317 57.4749C54.6382 57.4092 54.6579 57.3454 54.6896 57.2875C54.7214 57.2296 54.7645 57.1787 54.8165 57.1379C54.8684 57.0971 54.928 57.0672 54.9918 57.05C55.9918 56.78 56.9018 56.5 57.8618 56.2C57.9255 56.1801 57.9925 56.1731 58.0589 56.1795C58.1253 56.1859 58.1898 56.2055 58.2485 56.2372C58.3072 56.2689 58.359 56.312 58.4007 56.364C58.4425 56.416 58.4735 56.4758 58.4918 56.54C58.5289 56.6673 58.514 56.8041 58.4502 56.9204C58.3865 57.0367 58.2791 57.1229 58.1518 57.16C57.1518 57.45 56.2218 57.74 55.2718 58.01L55.1318 58.03ZM61.8218 55.96C61.7175 55.9607 61.6156 55.9282 61.5311 55.867C61.4466 55.8059 61.3837 55.7193 61.3518 55.62C61.3103 55.4953 61.3196 55.3593 61.3776 55.2414C61.4356 55.1235 61.5377 55.0332 61.6618 54.99C62.6018 54.66 63.5418 54.32 64.4618 53.99C64.5235 53.9659 64.5893 53.9543 64.6555 53.9559C64.7217 53.9574 64.787 53.9721 64.8474 53.9991C64.9079 54.0261 64.9624 54.0648 65.0078 54.113C65.0532 54.1613 65.0885 54.218 65.1118 54.28C65.1574 54.4034 65.1525 54.5397 65.0982 54.6595C65.0439 54.7793 64.9446 54.8729 64.8218 54.92C63.8918 55.29 62.9418 55.63 61.9818 55.92C61.9477 55.9571 61.907 55.9876 61.8618 56.01L61.8218 55.96ZM68.4018 53.37C68.3081 53.3702 68.2162 53.344 68.1367 53.2945C68.0571 53.245 67.993 53.1742 67.9518 53.09C67.923 53.0317 67.9061 52.9682 67.9021 52.9032C67.8981 52.8383 67.907 52.7732 67.9284 52.7118C67.9499 52.6503 67.9833 52.5938 68.0268 52.5454C68.0703 52.497 68.123 52.4578 68.1818 52.43C69.1118 51.97 69.9818 51.49 70.7718 51.01C70.8282 50.9755 70.8908 50.9526 70.9561 50.9425C71.0214 50.9323 71.0881 50.9353 71.1523 50.9511C71.2164 50.9669 71.2768 50.9953 71.33 51.0346C71.3831 51.0738 71.4279 51.1233 71.4618 51.18C71.496 51.2356 71.5188 51.2975 71.5288 51.362C71.5388 51.4266 71.5358 51.4924 71.52 51.5558C71.5041 51.6191 71.4758 51.6787 71.4366 51.7309C71.3974 51.7832 71.3482 51.8271 71.2918 51.86C70.4718 52.36 69.5718 52.86 68.6218 53.32C68.5541 53.3555 68.4782 53.3727 68.4018 53.37ZM74.2718 49.59C74.1998 49.592 74.1282 49.5778 74.0624 49.5483C73.9966 49.5189 73.9383 49.475 73.8918 49.42C73.8483 49.3711 73.8151 49.314 73.794 49.2521C73.773 49.1902 73.7645 49.1247 73.7692 49.0595C73.7739 48.9942 73.7915 48.9306 73.8212 48.8723C73.8508 48.814 73.8918 48.7622 73.9418 48.72C74.6695 48.0808 75.3388 47.378 75.9418 46.62C76.0243 46.517 76.1442 46.4508 76.2753 46.4358C76.4065 46.4208 76.5382 46.4582 76.6418 46.54C76.7464 46.621 76.8145 46.7402 76.8314 46.8714C76.8483 47.0026 76.8125 47.1351 76.7318 47.24C76.0906 48.0461 75.3777 48.7925 74.6018 49.47C74.5495 49.514 74.489 49.5473 74.4238 49.5678C74.3586 49.5884 74.2899 49.596 74.2218 49.59H74.2718ZM78.2718 43.97C78.2156 43.9803 78.158 43.9803 78.1018 43.97C77.9772 43.9249 77.8756 43.8321 77.8193 43.7121C77.7631 43.5921 77.7568 43.4547 77.8018 43.33C78.121 42.4194 78.3226 41.4717 78.4018 40.51C78.4193 40.3781 78.4877 40.2583 78.5923 40.1761C78.6969 40.0939 78.8295 40.0558 78.9618 40.07C79.0929 40.0851 79.2127 40.1514 79.2951 40.2544C79.3775 40.3574 79.4159 40.4888 79.4018 40.62C79.2834 41.6443 79.0451 42.6512 78.6918 43.62C78.6614 43.7172 78.602 43.8029 78.5216 43.8654C78.4412 43.928 78.3435 43.9645 78.2418 43.97H78.2718ZM78.8318 37.09C78.7137 37.0892 78.5997 37.0465 78.51 36.9696C78.4203 36.8928 78.3607 36.7866 78.3418 36.67C78.2618 36.19 78.1618 35.67 78.0518 35.22C77.9418 34.77 77.7918 34.3 77.6318 33.86C77.6079 33.799 77.5964 33.7339 77.5981 33.6684C77.5998 33.6029 77.6146 33.5384 77.6416 33.4787C77.6687 33.4191 77.7074 33.3654 77.7555 33.321C77.8036 33.2766 77.8602 33.2422 77.9218 33.22C77.9828 33.1961 78.0479 33.1846 78.1134 33.1863C78.1789 33.188 78.2434 33.2028 78.3031 33.2298C78.3627 33.2568 78.4164 33.2956 78.4608 33.3437C78.5053 33.3918 78.5396 33.4484 78.5618 33.51C78.7465 33.9896 78.9001 34.4807 79.0218 34.98C79.1418 35.5 79.2418 36.01 79.3218 36.51C79.3332 36.5744 79.3316 36.6405 79.317 36.7043C79.3025 36.7681 79.2753 36.8284 79.2371 36.8815C79.1989 36.9347 79.1504 36.9796 79.0945 37.0137C79.0387 37.0478 78.9765 37.0703 78.9118 37.08L78.8318 37.09ZM76.0418 30.79C75.9717 30.7892 75.9025 30.7737 75.8387 30.7444C75.775 30.7151 75.7181 30.6727 75.6718 30.62C75.031 29.9134 74.2937 29.3007 73.4818 28.8C73.4251 28.7661 73.3757 28.7213 73.3364 28.6681C73.2971 28.615 73.2687 28.5546 73.2529 28.4905C73.2371 28.4263 73.2342 28.3596 73.2443 28.2943C73.2544 28.229 73.2773 28.1664 73.3118 28.11C73.3465 28.0541 73.3919 28.0056 73.4454 27.9673C73.499 27.929 73.5595 27.9016 73.6236 27.8868C73.6877 27.8719 73.7541 27.8698 73.819 27.8807C73.8839 27.8915 73.946 27.9151 74.0018 27.95C74.8974 28.497 75.7091 29.1706 76.4118 29.95C76.4587 29.9965 76.4959 30.0518 76.5213 30.1127C76.5466 30.1736 76.5597 30.239 76.5597 30.305C76.5597 30.371 76.5466 30.4364 76.5213 30.4973C76.4959 30.5582 76.4587 30.6135 76.4118 30.66C76.3582 30.7089 76.2948 30.7457 76.2258 30.7682C76.1569 30.7906 76.0839 30.798 76.0118 30.79H76.0418ZM60.2418 28.19C60.1405 28.1893 60.0418 28.1586 59.9581 28.1016C59.8744 28.0446 59.8095 27.964 59.7718 27.87C59.7253 27.7465 59.7285 27.6097 59.7807 27.4885C59.8329 27.3673 59.9301 27.2711 60.0518 27.22C61.0266 26.8494 62.0299 26.5584 63.0518 26.35C63.1163 26.3354 63.183 26.3341 63.248 26.346C63.3129 26.3579 63.3749 26.3828 63.43 26.4192C63.4851 26.4556 63.5323 26.5028 63.5687 26.558C63.6051 26.6131 63.6299 26.675 63.6418 26.74C63.6657 26.8697 63.6384 27.0036 63.5657 27.1136C63.493 27.2236 63.3805 27.3012 63.2518 27.33C62.2985 27.5213 61.3647 27.7991 60.4618 28.16C60.3818 28.1885 60.2963 28.1988 60.2118 28.19H60.2418ZM70.0518 27.37H69.9418C68.9994 27.154 68.0382 27.0301 67.0718 27C66.94 26.9948 66.8154 26.9388 66.724 26.8437C66.6327 26.7486 66.5817 26.6219 66.5818 26.49C66.5895 26.3574 66.6476 26.2327 66.7443 26.1415C66.841 26.0504 66.9689 25.9998 67.1018 26C68.136 26.0295 69.1646 26.1635 70.1718 26.4C70.2989 26.4331 70.4082 26.514 70.4772 26.6258C70.5461 26.7376 70.5692 26.8716 70.5418 27C70.5118 27.1126 70.4435 27.2112 70.3485 27.2788C70.2536 27.3463 70.138 27.3786 70.0218 27.37H70.0518Z" fill="#5FF19D"/>
<path d="M58.5581 78.3902C58.4537 78.3909 58.3519 78.3583 58.2673 78.2972C58.1828 78.236 58.12 78.1495 58.0881 78.0502C58.0466 77.9255 58.0559 77.7895 58.1139 77.6716C58.1719 77.5537 58.274 77.4634 58.3981 77.4202C58.6851 77.2989 58.9569 77.1445 59.2081 76.9602C59.2616 76.9225 59.3222 76.896 59.3861 76.8822C59.4501 76.8683 59.5162 76.8674 59.5805 76.8796C59.6448 76.8917 59.706 76.9166 59.7606 76.9527C59.8151 76.9889 59.8619 77.0356 59.8981 77.0902C59.9359 77.1445 59.9626 77.2058 59.9766 77.2706C59.9906 77.3353 59.9915 77.4022 59.9794 77.4674C59.9674 77.5325 59.9424 77.5946 59.9062 77.65C59.8699 77.7054 59.8229 77.753 59.7681 77.7902C59.4444 78.0277 59.0915 78.2227 58.7181 78.3702L58.5581 78.3902Z" fill="#5FF19D"/>
<path d="M95.3381 67.7509C95.1987 67.7474 95.0661 67.69 94.9681 67.5909C94.8758 67.4958 94.8242 67.3685 94.8242 67.2359C94.8242 67.1034 94.8758 66.9761 94.9681 66.8809L96.9681 65.0209C97.0145 64.9741 97.0698 64.9369 97.1308 64.9115C97.1917 64.8861 97.257 64.873 97.3231 64.873C97.3891 64.873 97.4544 64.8861 97.5153 64.9115C97.5763 64.9369 97.6316 64.9741 97.6781 65.0209C97.7249 65.0674 97.7621 65.1227 97.7875 65.1837C97.8129 65.2446 97.826 65.3099 97.826 65.3759C97.826 65.442 97.8129 65.5073 97.7875 65.5682C97.7621 65.6292 97.7249 65.6845 97.6781 65.7309L95.6781 67.5909C95.6347 67.6387 95.5823 67.6774 95.524 67.7048C95.4657 67.7323 95.4025 67.748 95.3381 67.7509Z" fill="#5FF19D"/>
<path d="M97.3181 74.8297C97.2534 74.8307 97.1891 74.8188 97.1291 74.7947C97.069 74.7707 97.0143 74.735 96.9681 74.6897L95.0581 72.8297C95.0112 72.7832 94.974 72.7279 94.9486 72.667C94.9232 72.6061 94.9102 72.5407 94.9102 72.4747C94.9102 72.4087 94.9232 72.3434 94.9486 72.2824C94.974 72.2215 95.0112 72.1662 95.0581 72.1197C95.1037 72.0732 95.1581 72.0362 95.2182 72.0109C95.2783 71.9857 95.3429 71.9727 95.4081 71.9727C95.4732 71.9727 95.5378 71.9857 95.5979 72.0109C95.658 72.0362 95.7124 72.0732 95.7581 72.1197L97.6681 73.9897C97.7146 74.0353 97.7516 74.0898 97.7769 74.1499C97.8021 74.21 97.8151 74.2745 97.8151 74.3397C97.8151 74.4049 97.8021 74.4694 97.7769 74.5295C97.7516 74.5896 97.7146 74.6441 97.6681 74.6897C97.5736 74.7794 97.4483 74.8295 97.3181 74.8297Z" fill="#5FF19D"/>
<path d="M98.6406 70.5801H95.6406C95.508 70.5801 95.3808 70.5274 95.2871 70.4336C95.1933 70.3399 95.1406 70.2127 95.1406 70.0801C95.1406 69.9475 95.1933 69.8203 95.2871 69.7265C95.3808 69.6328 95.508 69.5801 95.6406 69.5801H98.6406C98.7732 69.5801 98.9004 69.6328 98.9942 69.7265C99.0879 69.8203 99.1406 69.9475 99.1406 70.0801C99.1406 70.2127 99.0879 70.3399 98.9942 70.4336C98.9004 70.5274 98.7732 70.5801 98.6406 70.5801Z" fill="#5FF19D"/>
<path d="M113.159 64.8605C113.133 64.814 113.103 64.7704 113.069 64.7305L103.809 55.3305C103.725 55.2374 103.624 55.1627 103.51 55.1111C103.397 55.0594 103.273 55.032 103.149 55.0305C103.022 55.0324 102.898 55.06 102.783 55.1116C102.668 55.1631 102.564 55.2376 102.479 55.3305L102.089 55.7305L101.259 54.8205C102.659 53.0744 103.415 50.8988 103.399 48.6605C103.415 46.1125 102.419 43.6623 100.631 41.8475C98.842 40.0327 96.4066 39.0016 93.8586 38.9805C91.3247 39.0226 88.9097 40.0629 87.1383 41.8754C85.367 43.6879 84.3825 46.1262 84.3986 48.6605C84.3826 51.2025 85.3723 53.6478 87.1519 55.463C88.9316 57.2783 91.3568 58.3162 93.8986 58.3505C95.141 58.3484 96.3707 58.1008 97.517 57.622C98.6634 57.1432 99.7039 56.4426 100.579 55.5605L101.389 56.4405L100.939 56.9005C100.846 56.9848 100.772 57.0875 100.722 57.202C100.671 57.3165 100.645 57.4403 100.645 57.5655C100.645 57.6906 100.671 57.8144 100.722 57.9289C100.772 58.0434 100.846 58.1461 100.939 58.2305L110.189 67.6205C110.274 67.7133 110.378 67.7878 110.493 67.8394C110.608 67.891 110.732 67.9185 110.859 67.9205C110.983 67.9178 111.106 67.8898 111.219 67.8382C111.333 67.7867 111.435 67.7126 111.519 67.6205L113.069 66.0505C113.103 66.0105 113.133 65.9669 113.159 65.9205C113.242 65.7563 113.286 65.5747 113.286 65.3905C113.286 65.2063 113.242 65.0247 113.159 64.8605ZM93.8986 57.3505C91.622 57.3162 89.4511 56.3837 87.859 54.756C86.2669 53.1283 85.3825 50.9373 85.3986 48.6605C85.3827 46.376 86.2742 44.1786 87.8773 42.5511C89.4805 40.9235 91.6642 39.999 93.9486 39.9805C96.2156 40.0251 98.3737 40.9612 99.9554 42.5859C101.537 44.2106 102.415 46.3931 102.399 48.6605C102.403 50.7906 101.623 52.8478 100.209 54.4405C99.4228 55.3446 98.454 56.0716 97.3662 56.5732C96.2784 57.0749 95.0965 57.3398 93.8986 57.3505ZM112.279 65.4205L110.859 66.8705L101.689 57.5605L103.149 56.0905L112.279 65.3605C112.284 65.3696 112.287 65.3799 112.287 65.3905C112.287 65.401 112.284 65.4113 112.279 65.4205Z" fill="white"/>
<path d="M87.2411 29.73C87.1084 29.73 86.9813 29.6773 86.8875 29.5836C86.7937 29.4898 86.7411 29.3626 86.7411 29.23C86.7518 28.4739 86.4637 27.7441 85.9395 27.1992C85.4152 26.6543 84.697 26.3384 83.9411 26.32C83.8093 26.3123 83.6857 26.2538 83.5962 26.1568C83.5067 26.0598 83.4582 25.9319 83.4611 25.8C83.4662 25.6709 83.5212 25.5488 83.6144 25.4593C83.7076 25.3698 83.8318 25.3199 83.9611 25.32C84.3362 25.3458 84.7125 25.2902 85.0642 25.157C85.4159 25.0239 85.7347 24.8163 85.9987 24.5485C86.2627 24.2807 86.4657 23.959 86.5939 23.6054C86.722 23.2518 86.7722 22.8748 86.7411 22.5C86.7435 22.3699 86.7956 22.2456 86.8867 22.1526C86.9778 22.0597 87.101 22.0051 87.2311 22C87.359 22.0019 87.4818 22.0508 87.5758 22.1376C87.6699 22.2243 87.7288 22.3426 87.7411 22.47C87.8511 24.36 88.7411 25.32 90.5211 25.32C90.6503 25.3199 90.7745 25.3698 90.8677 25.4593C90.9609 25.5488 91.0159 25.6709 91.0211 25.8C91.0237 25.8657 91.0134 25.9312 90.9908 25.9929C90.9681 26.0546 90.9335 26.1112 90.8889 26.1595C90.8443 26.2078 90.7906 26.2469 90.7309 26.2744C90.6713 26.3019 90.6067 26.3174 90.5411 26.32C89.7816 26.3384 89.0604 26.6571 88.5355 27.2063C88.0106 27.7555 87.7249 28.4905 87.7411 29.25C87.7359 29.3791 87.6809 29.5012 87.5877 29.5907C87.4945 29.6802 87.3703 29.7301 87.2411 29.73ZM85.9011 25.88C86.4633 26.2072 86.9264 26.6807 87.2411 27.25C87.5636 26.6962 88.0301 26.2401 88.5911 25.93C88.019 25.6247 87.5521 25.1543 87.2511 24.58C86.9439 25.1407 86.4729 25.5942 85.9011 25.88Z" fill="#04BEFE"/>
<path d="M96.8303 34.4695C96.5984 34.4695 96.3687 34.4236 96.1545 34.3345C95.9403 34.2455 95.7458 34.1149 95.5823 33.9504C95.4187 33.7859 95.2893 33.5907 95.2014 33.376C95.1136 33.1614 95.069 32.9314 95.0703 32.6995C95.0703 32.2327 95.2558 31.785 95.5858 31.4549C95.9159 31.1249 96.3636 30.9395 96.8303 30.9395C97.061 30.9394 97.2894 30.985 97.5024 31.0736C97.7153 31.1622 97.9087 31.292 98.0713 31.4555C98.234 31.6191 98.3627 31.8132 98.45 32.0267C98.5374 32.2402 98.5817 32.4688 98.5803 32.6995C98.5817 32.9306 98.5374 33.1597 98.4502 33.3737C98.363 33.5878 98.2344 33.7825 98.0719 33.9469C97.9094 34.1113 97.7161 34.242 97.5031 34.3317C97.2901 34.4213 97.0615 34.4681 96.8303 34.4695ZM96.8303 31.9395C96.6288 31.9395 96.4355 32.0195 96.2929 32.1621C96.1504 32.3046 96.0703 32.4979 96.0703 32.6995C96.069 32.8001 96.0877 32.9 96.1253 32.9934C96.1629 33.0867 96.2187 33.1717 96.2894 33.2433C96.3601 33.315 96.4443 33.3718 96.5372 33.4107C96.63 33.4495 96.7297 33.4695 96.8303 33.4695C96.9302 33.4681 97.0287 33.4472 97.1204 33.4078C97.2121 33.3684 97.2952 33.3113 97.3648 33.2398C97.4345 33.1683 97.4894 33.0838 97.5263 32.9911C97.5633 32.8984 97.5817 32.7993 97.5803 32.6995C97.5804 32.4996 97.5017 32.3078 97.3613 32.1656C97.2209 32.0233 97.0302 31.9421 96.8303 31.9395Z" fill="#919191"/>
<path d="M27.25 79.2509C27.4164 79.2509 27.581 79.218 27.7345 79.1541C27.8881 79.0901 28.0274 78.9964 28.1445 78.8784C28.2617 78.7603 28.3543 78.6202 28.417 78.4662C28.4797 78.3122 28.5114 78.1472 28.51 77.9809C28.5114 77.8146 28.4797 77.6497 28.417 77.4957C28.3543 77.3417 28.2617 77.2016 28.1445 77.0835C28.0274 76.9654 27.8881 76.8717 27.7345 76.8078C27.581 76.7439 27.4164 76.7109 27.25 76.7109C27.0846 76.7122 26.921 76.7461 26.7686 76.8107C26.6162 76.8752 26.4781 76.9691 26.362 77.087C26.2459 77.205 26.1542 77.3446 26.0921 77.498C26.03 77.6514 25.9987 77.8155 26 77.9809C25.9987 78.1464 26.03 78.3105 26.0921 78.4639C26.1542 78.6173 26.2459 78.7569 26.362 78.8748C26.4781 78.9928 26.6162 79.0867 26.7686 79.1512C26.921 79.2157 27.0846 79.2496 27.25 79.2509Z" fill="#04BEFE"/>
<defs>
<filter id="filter0_f" x="42" y="19" width="70" height="70" filterUnits="userSpaceOnUse" color-interpolation-filters="sRGB">
<feFlood flood-opacity="0" result="BackgroundImageFix"/>
<feBlend mode="normal" in="SourceGraphic" in2="BackgroundImageFix" result="shape"/>
<feGaussianBlur stdDeviation="15" result="effect1_foregroundBlur"/>
</filter>
</defs>
</svg>
