<svg width="138" height="110" viewBox="0 0 138 110" fill="none" xmlns="http://www.w3.org/2000/svg">
<g filter="url(#filter0_f)">
<circle cx="78" cy="59" r="9" fill="#5FF19D"/>
</g>
<path d="M72.1137 67.0517C72.4288 67.0517 72.731 66.9266 72.9538 66.7038C73.1766 66.481 73.3017 66.1788 73.3017 65.8637C73.3017 65.5487 73.1766 65.2465 72.9538 65.0237C72.731 64.8009 72.4288 64.6758 72.1137 64.6758C71.7987 64.6758 71.4965 64.8009 71.2737 65.0237C71.0509 65.2465 70.9258 65.5487 70.9258 65.8637C70.9258 66.1788 71.0509 66.481 71.2737 66.7038C71.4965 66.9266 71.7987 67.0517 72.1137 67.0517Z" fill="#5FF19D"/>
<path d="M72.3797 73.3978C71.3672 73.3927 70.3769 73.1008 69.5236 72.5559C68.6703 72.011 67.9889 71.2354 67.5585 70.3189C67.5298 70.2605 67.5129 70.1969 67.5088 70.1319C67.5047 70.0668 67.5135 70.0016 67.5346 69.94C67.5558 69.8784 67.5889 69.8216 67.6321 69.7728C67.6752 69.724 67.7276 69.6842 67.7862 69.6557C67.9047 69.6003 68.0401 69.5931 68.1638 69.6356C68.2875 69.678 68.39 69.7669 68.4495 69.8834C68.7984 70.6392 69.3571 71.279 70.0591 71.7265C70.7611 72.174 71.5769 72.4105 72.4094 72.4078C73.2663 72.3816 74.0971 72.1064 74.8002 71.616C75.5034 71.1255 76.0486 70.4409 76.3692 69.6458C76.3928 69.5835 76.4288 69.5266 76.4749 69.4785C76.521 69.4304 76.5764 69.3922 76.6376 69.366C76.6989 69.3398 76.7648 69.3263 76.8314 69.3262C76.898 69.3261 76.964 69.3394 77.0253 69.3654C77.0866 69.3914 77.1421 69.4295 77.1883 69.4775C77.2346 69.5254 77.2707 69.5822 77.2945 69.6444C77.3183 69.7067 77.3292 69.773 77.3267 69.8396C77.3243 69.9062 77.3084 69.9716 77.28 70.0319C76.8805 71.0097 76.2037 71.8493 75.333 72.4474C74.4623 73.0455 73.4357 73.3758 72.3797 73.3978Z" fill="#5FF19D"/>
<path d="M72.3386 79.6952C70.4358 79.682 68.5646 79.2076 66.8852 78.3128C65.2059 77.4179 63.7685 76.1293 62.6963 74.5573C62.6217 74.4517 62.5913 74.3212 62.6116 74.1936C62.632 74.0659 62.7015 73.9513 62.8052 73.8742C62.9123 73.799 63.0444 73.7683 63.1737 73.7886C63.303 73.809 63.4193 73.8787 63.4982 73.9831C64.4795 75.4561 65.813 76.6608 67.3778 77.488C68.9425 78.3151 70.6891 78.7386 72.4589 78.7199C74.2287 78.7012 75.9659 78.241 77.5129 77.381C79.0599 76.521 80.3676 75.2884 81.3176 73.795C81.395 73.689 81.5107 73.6173 81.64 73.5952C81.7694 73.573 81.9023 73.602 82.0106 73.6762C82.0638 73.7128 82.1092 73.7596 82.1441 73.814C82.1789 73.8684 82.2026 73.9291 82.2136 73.9928C82.2247 74.0564 82.223 74.1216 82.2085 74.1845C82.194 74.2475 82.1671 74.3069 82.1294 74.3593C81.0586 75.9819 79.606 77.317 77.899 78.2473C76.1919 79.1777 74.2826 79.6748 72.3386 79.6952Z" fill="#5FF19D"/>
<path d="M72.3506 87.0009C69.4217 86.9801 66.5465 86.2129 63.9966 84.7717C61.4468 83.3305 59.3066 81.2629 57.7782 78.7643C57.7438 78.7091 57.7205 78.6476 57.7098 78.5833C57.6992 78.5191 57.7012 78.4534 57.7159 78.39C57.7306 78.3265 57.7577 78.2666 57.7956 78.2137C57.8334 78.1607 57.8814 78.1157 57.9366 78.0812C57.9919 78.0468 58.0534 78.0236 58.1176 78.0129C58.1818 78.0022 58.2475 78.0043 58.311 78.019C58.3744 78.0337 58.4343 78.0607 58.4873 78.0986C58.5402 78.1365 58.5852 78.1844 58.6197 78.2396C60.0521 80.6254 62.0814 82.5968 64.5076 83.9597C66.9337 85.3226 69.6731 86.0299 72.4558 86.0119C75.2385 85.9939 77.9685 85.2512 80.3769 83.8571C82.7853 82.463 84.7889 80.4655 86.1903 78.0614C86.2634 77.9649 86.37 77.8992 86.489 77.8772C86.6081 77.8552 86.7311 77.8786 86.8338 77.9426C86.9452 78.0122 87.0251 78.1225 87.0565 78.25C87.0879 78.3776 87.0684 78.5123 87.0021 78.6257C85.4844 81.1621 83.3391 83.2649 80.773 84.7318C78.2069 86.1986 75.3063 86.9801 72.3506 87.0009Z" fill="#5FF19D"/>
<path d="M102.743 48.074H92.952C92.8207 48.074 92.6948 48.0218 92.602 47.929C92.5092 47.8361 92.457 47.7102 92.457 47.579C92.457 47.4477 92.5092 47.3218 92.602 47.229C92.6948 47.1361 92.8207 47.084 92.952 47.084H102.743C102.874 47.084 103 47.1361 103.093 47.229C103.186 47.3218 103.238 47.4477 103.238 47.579C103.238 47.7102 103.186 47.8361 103.093 47.929C103 48.0218 102.874 48.074 102.743 48.074Z" fill="#04BEFE"/>
<path d="M107.623 48.074H105.643C105.513 48.0714 105.389 48.0185 105.296 47.9262C105.204 47.8339 105.151 47.7095 105.148 47.579C105.148 47.4477 105.201 47.3218 105.293 47.229C105.386 47.1361 105.512 47.084 105.643 47.084H107.623C107.755 47.084 107.881 47.1361 107.973 47.229C108.066 47.3218 108.118 47.4477 108.118 47.579C108.118 47.7102 108.066 47.8361 107.973 47.929C107.881 48.0218 107.755 48.074 107.623 48.074Z" fill="white"/>
<path d="M112.57 48.074H109.6C109.47 48.0714 109.346 48.0185 109.253 47.9262C109.161 47.8339 109.108 47.7095 109.105 47.579C109.105 47.4477 109.158 47.3218 109.25 47.229C109.343 47.1361 109.469 47.084 109.6 47.084H112.57C112.702 47.084 112.828 47.1361 112.92 47.229C113.013 47.3218 113.065 47.4477 113.065 47.579C113.065 47.7102 113.013 47.8361 112.92 47.929C112.828 48.0218 112.702 48.074 112.57 48.074Z" fill="white"/>
<path d="M116.944 50.2234V45.0756C116.914 44.5065 116.659 43.9727 116.236 43.5906C115.813 43.2086 115.257 43.0093 114.687 43.0362H94.1653C93.9494 41.5673 93.3723 40.175 92.4856 38.9841C91.599 37.7932 90.4307 36.8411 89.0853 36.2131C87.74 35.5851 86.2598 35.3008 84.7776 35.3859C83.2954 35.471 81.8574 35.9226 80.5928 36.7004C78.8811 33.8358 76.2834 31.6063 73.1922 30.349C70.1011 29.0917 66.6847 28.875 63.4594 29.7317C60.2342 30.5883 57.3756 32.4717 55.3157 35.0971C53.2558 37.7225 52.1067 40.9472 52.0421 44.2836C52.0314 44.8255 52.0513 45.3675 52.1014 45.9071C48.7682 46.0766 45.6264 47.5161 43.3213 49.9297C41.0163 52.3434 39.723 55.5481 39.707 58.8856C39.7514 62.3813 41.18 65.7167 43.6797 68.1607C46.1794 70.6047 49.5462 71.9579 53.0419 71.9235C53.1732 71.9235 53.2991 71.8714 53.3919 71.7786C53.4848 71.6857 53.5369 71.5598 53.5369 71.4286C53.5369 71.2973 53.4848 71.1714 53.3919 71.0786C53.2991 70.9857 53.1732 70.9336 53.0419 70.9336C49.8079 70.9706 46.6915 69.7226 44.3769 67.4637C42.0623 65.2048 40.7388 62.1196 40.697 58.8856C40.6996 55.6988 41.9626 52.6423 44.2105 50.3833C46.4584 48.1242 49.5086 46.8461 52.6954 46.8278C52.7676 46.8235 52.8381 46.8046 52.9028 46.7723C52.9675 46.74 53.0249 46.6949 53.0716 46.6397C53.1516 46.5316 53.187 46.397 53.1706 46.2635C53.0524 45.6106 53.006 44.9466 53.032 44.2836C53.0903 41.1176 54.1931 38.0596 56.1688 35.5851C58.1446 33.1106 60.8826 31.3583 63.9572 30.6007C67.0317 29.8431 70.2704 30.1226 73.1697 31.3958C76.069 32.669 78.4663 34.8645 79.9889 37.6409C80.022 37.7035 80.0684 37.7581 80.1248 37.8008C80.1813 37.8436 80.2464 37.8735 80.3156 37.8884C80.3835 37.9031 80.4537 37.9037 80.5218 37.8901C80.59 37.8765 80.6546 37.8489 80.7116 37.8092C81.8127 37.0349 83.0918 36.5518 84.4298 36.4048C85.7678 36.2578 87.1213 36.4517 88.3643 36.9684C89.6072 37.4852 90.6992 38.308 91.5387 39.3602C92.3781 40.4125 92.9377 41.66 93.1654 42.9867H91.7794C91.2102 42.9598 90.6533 43.159 90.2305 43.5411C89.8076 43.9232 89.553 44.457 89.5223 45.0261V50.1244C89.5325 50.4096 89.5991 50.69 89.7183 50.9493C89.8376 51.2086 90.0071 51.4416 90.217 51.635C90.4269 51.8283 90.6731 51.9781 90.9413 52.0757C91.2095 52.1732 91.4944 52.2166 91.7794 52.2033H100.937C101.349 52.6822 101.72 53.1955 102.045 53.7378H91.7794C91.2102 53.7108 90.6533 53.9101 90.2305 54.2922C89.8076 54.6742 89.553 55.2081 89.5223 55.7771V60.8755C89.5605 61.4393 89.8184 61.9656 90.2404 62.3413C90.6624 62.7171 91.215 62.9123 91.7794 62.8851H103.154C102.4 65.213 100.925 67.2408 98.9428 68.6752C96.9602 70.1096 94.5729 70.8762 92.1259 70.8643C91.9946 70.8643 91.8687 70.9164 91.7759 71.0093C91.6831 71.1021 91.6309 71.228 91.6309 71.3593C91.6309 71.4905 91.6831 71.6164 91.7759 71.7093C91.8687 71.8021 91.9946 71.8542 92.1259 71.8542C94.8363 71.8682 97.4779 71.001 99.6527 69.3833C101.827 67.7656 103.418 65.4851 104.184 62.8851H114.697C115.256 62.9102 115.803 62.7181 116.224 62.3491C116.645 61.9801 116.906 61.4627 116.954 60.9052V55.7573C116.924 55.1883 116.669 54.6544 116.246 54.2724C115.823 53.8903 115.267 53.691 114.697 53.718H103.184C102.894 53.1815 102.563 52.6684 102.194 52.1835H114.697C115.251 52.2039 115.791 52.0125 116.209 51.6484C116.626 51.2842 116.889 50.7747 116.944 50.2234ZM114.687 54.7476C114.993 54.7276 115.294 54.8252 115.53 55.0203C115.765 55.2154 115.917 55.4933 115.954 55.7969V60.9151C115.906 61.2089 115.749 61.4737 115.514 61.6571C115.279 61.8404 114.984 61.9289 114.687 61.9051H91.7794C91.4731 61.93 91.1691 61.8343 90.9323 61.6382C90.6956 61.4422 90.5448 61.1613 90.5123 60.8557V55.7474C90.5472 55.4428 90.6986 55.1635 90.9348 54.9679C91.171 54.7723 91.4736 54.6756 91.7794 54.6981L114.687 54.7476ZM91.7794 51.2134C91.4721 51.2357 91.1681 51.1376 90.9317 50.94C90.6952 50.7423 90.5449 50.4605 90.5123 50.1541V45.0261C90.5472 44.7214 90.6986 44.4421 90.9348 44.2465C91.171 44.0509 91.4736 43.9543 91.7794 43.9767H114.697C115.003 43.9567 115.304 44.0543 115.539 44.2494C115.775 44.4445 115.927 44.7224 115.964 45.0261V50.1442C115.916 50.438 115.758 50.7028 115.524 50.8862C115.289 51.0695 114.994 51.158 114.697 51.1342L91.7794 51.2134Z" fill="white"/>
<path d="M102.743 58.2029H92.952C92.8207 58.2029 92.6948 58.1507 92.602 58.0579C92.5092 57.9651 92.457 57.8392 92.457 57.7079C92.457 57.5766 92.5092 57.4507 92.602 57.3579C92.6948 57.265 92.8207 57.2129 92.952 57.2129H102.743C102.874 57.2129 103 57.265 103.093 57.3579C103.186 57.4507 103.238 57.5766 103.238 57.7079C103.238 57.8392 103.186 57.9651 103.093 58.0579C103 58.1507 102.874 58.2029 102.743 58.2029Z" fill="#04BEFE"/>
<path d="M107.623 58.2029H105.643C105.512 58.2029 105.386 58.1507 105.293 58.0579C105.201 57.9651 105.148 57.8392 105.148 57.7079C105.148 57.5766 105.201 57.4507 105.293 57.3579C105.386 57.265 105.512 57.2129 105.643 57.2129H107.623C107.755 57.2129 107.881 57.265 107.973 57.3579C108.066 57.4507 108.118 57.5766 108.118 57.7079C108.118 57.8392 108.066 57.9651 107.973 58.0579C107.881 58.1507 107.755 58.2029 107.623 58.2029Z" fill="white"/>
<path d="M112.57 58.2029H109.6C109.469 58.2029 109.343 58.1507 109.25 58.0579C109.158 57.9651 109.105 57.8392 109.105 57.7079C109.105 57.5766 109.158 57.4507 109.25 57.3579C109.343 57.265 109.469 57.2129 109.6 57.2129H112.57C112.702 57.2129 112.828 57.265 112.92 57.3579C113.013 57.4507 113.065 57.5766 113.065 57.7079C113.065 57.8392 113.013 57.9651 112.92 58.0579C112.828 58.1507 112.702 58.2029 112.57 58.2029Z" fill="white"/>
<path d="M41.6533 43.2939C41.5619 43.2918 41.4728 43.2644 41.3959 43.2147L36.0501 39.9577C35.9784 39.9119 35.9192 39.849 35.8777 39.7748C35.8362 39.7005 35.8138 39.6171 35.8125 39.532V32.9982C35.8146 32.9146 35.8374 32.8329 35.8789 32.7604C35.9203 32.6878 35.9792 32.6266 36.0501 32.5824L41.3959 29.3155C41.4745 29.2713 41.5632 29.248 41.6533 29.248C41.7435 29.248 41.8321 29.2713 41.9107 29.3155L47.2566 32.5824C47.3287 32.6252 47.3886 32.6861 47.4302 32.7589C47.4719 32.8318 47.4939 32.9143 47.4941 32.9982V39.5221C47.4946 39.6075 47.473 39.6916 47.4314 39.7662C47.3898 39.8408 47.3295 39.9034 47.2566 39.9478L41.9107 43.2048C41.8349 43.258 41.7458 43.2888 41.6533 43.2939ZM36.8025 39.2548L41.6533 42.2247L46.5042 39.2548V33.315L41.6533 30.3451L36.8025 33.315V39.2548Z" fill="#A3A3A3"/>
<path d="M41.6505 36.7599C41.5605 36.7569 41.4724 36.7332 41.3931 36.6906L37.7302 34.4433C37.669 34.4126 37.6147 34.3696 37.571 34.3168C37.5273 34.2641 37.4949 34.2028 37.4761 34.1369C37.4573 34.0711 37.4523 34.002 37.4616 33.9341C37.4708 33.8662 37.494 33.801 37.5298 33.7425C37.5655 33.6841 37.613 33.6337 37.6693 33.5946C37.7255 33.5554 37.7893 33.5284 37.8565 33.5152C37.9237 33.5019 37.993 33.5028 38.0598 33.5177C38.1267 33.5327 38.1898 33.5613 38.245 33.6019L41.6604 35.6907L45.254 33.592C45.367 33.527 45.5012 33.5093 45.6272 33.5427C45.7532 33.576 45.861 33.6578 45.9272 33.7702C45.9935 33.8835 46.013 34.0183 45.9816 34.1458C45.9501 34.2734 45.8702 34.3836 45.7589 34.4532L41.9574 36.6906C41.8659 36.7479 41.7577 36.7723 41.6505 36.7599Z" fill="#A3A3A3"/>
<path d="M41.6512 41.65C41.52 41.65 41.3942 41.5978 41.3013 41.505C41.2085 41.4121 41.1562 41.2862 41.1562 41.155V36.2645C41.1562 36.1332 41.2085 36.0073 41.3013 35.9145C41.3942 35.8217 41.52 35.7695 41.6512 35.7695C41.7825 35.7695 41.9085 35.8217 42.0013 35.9145C42.0942 36.0073 42.1462 36.1332 42.1462 36.2645V41.155C42.1462 41.22 42.1335 41.2843 42.1086 41.3444C42.0838 41.4044 42.0473 41.459 42.0013 41.505C41.9554 41.5509 41.9007 41.5874 41.8407 41.6123C41.7806 41.6371 41.7162 41.65 41.6512 41.65Z" fill="#A3A3A3"/>
<path d="M26.8412 57.9544C26.7505 57.9563 26.6612 57.9323 26.5838 57.8851L21.2379 54.6182C21.1628 54.5737 21.101 54.5097 21.0592 54.4331C21.0174 54.3564 20.9971 54.2699 21.0003 54.1826V47.6785C20.9998 47.5931 21.0215 47.509 21.0631 47.4344C21.1047 47.3598 21.165 47.2972 21.2379 47.2528L26.5838 43.9958C26.6609 43.9475 26.7501 43.9219 26.8412 43.9219C26.9322 43.9219 27.0214 43.9475 27.0986 43.9958L32.4444 47.2528C32.5174 47.2972 32.5776 47.3598 32.6192 47.4344C32.6609 47.509 32.6825 47.5931 32.682 47.6785V54.1826C32.6817 54.2665 32.6597 54.349 32.6181 54.4218C32.5764 54.4947 32.5166 54.5555 32.4444 54.5984L27.0986 57.8653C27.0233 57.9195 26.9338 57.9504 26.8412 57.9544ZM21.9903 53.9252L26.8412 56.8951L31.692 53.9252V47.9854L26.8412 45.0155L21.9903 47.9854V53.9252Z" fill="#A3A3A3"/>
<path d="M26.8428 51.4313C26.7521 51.4332 26.6628 51.4091 26.5854 51.362L22.9126 49.1147C22.8554 49.0777 22.8061 49.0297 22.7674 48.9736C22.7287 48.9175 22.7015 48.8543 22.6872 48.7876C22.673 48.721 22.672 48.6522 22.6844 48.5852C22.6967 48.5181 22.7221 48.4542 22.7592 48.397C22.7962 48.3398 22.8442 48.2904 22.9003 48.2518C22.9564 48.2131 23.0196 48.1859 23.0863 48.1716C23.1529 48.1574 23.2217 48.1564 23.2887 48.1687C23.3558 48.1811 23.4197 48.2065 23.4769 48.2435L26.8923 50.3324L30.4067 48.2435C30.5201 48.1772 30.6548 48.1577 30.7824 48.1891C30.9099 48.2206 31.0202 48.3004 31.0898 48.4118C31.1552 48.5264 31.1732 48.662 31.1399 48.7897C31.1066 48.9174 31.0246 49.0269 30.9116 49.0949L27.1101 51.3323C27.0342 51.3936 26.9403 51.4284 26.8428 51.4313Z" fill="#A3A3A3"/>
<path d="M26.8309 56.3218C26.6996 56.3218 26.5737 56.2697 26.4809 56.1768C26.3881 56.084 26.3359 55.9581 26.3359 55.8268V50.9364C26.3359 50.8051 26.3881 50.6792 26.4809 50.5864C26.5737 50.4936 26.6996 50.4414 26.8309 50.4414C26.9622 50.4414 27.0881 50.4936 27.1809 50.5864C27.2738 50.6792 27.3259 50.8051 27.3259 50.9364V55.8268C27.3259 55.9581 27.2738 56.084 27.1809 56.1768C27.0881 56.2697 26.9622 56.3218 26.8309 56.3218Z" fill="#A3A3A3"/>
<path d="M26.8309 35.9969V35.502C26.6996 35.502 26.5737 35.5541 26.4809 35.6469C26.3881 35.7398 26.3359 35.8657 26.3359 35.9969H26.8309ZM27.3259 44.3028C27.3259 44.1715 27.2738 44.0456 27.1809 43.9528C27.0881 43.8599 26.9622 43.8078 26.8309 43.8078C26.6996 43.8078 26.5737 43.8599 26.4809 43.9528C26.3881 44.0456 26.3359 44.1715 26.3359 44.3028H27.3259ZM26.3359 41.6101C26.3359 41.7413 26.3881 41.8672 26.4809 41.9601C26.5737 42.0529 26.6996 42.105 26.8309 42.105C26.9622 42.105 27.0881 42.0529 27.1809 41.9601C27.2738 41.8672 27.3259 41.7413 27.3259 41.6101H26.3359ZM27.3259 41.521C27.3259 41.3897 27.2738 41.2638 27.1809 41.171C27.0881 41.0781 26.9622 41.026 26.8309 41.026C26.6996 41.026 26.5737 41.0781 26.4809 41.171C26.3881 41.2638 26.3359 41.3897 26.3359 41.521H27.3259ZM26.3359 38.8184C26.3359 38.9496 26.3881 39.0755 26.4809 39.1684C26.5737 39.2612 26.6996 39.3133 26.8309 39.3133C26.9622 39.3133 27.0881 39.2612 27.1809 39.1684C27.2738 39.0755 27.3259 38.9496 27.3259 38.8184H26.3359ZM27.3259 38.7293C27.3259 38.598 27.2738 38.4721 27.1809 38.3792C27.0881 38.2864 26.9622 38.2343 26.8309 38.2343C26.6996 38.2343 26.5737 38.2864 26.4809 38.3792C26.3881 38.4721 26.3359 38.598 26.3359 38.7293H27.3259ZM26.3359 36.0365C26.3359 36.1678 26.3881 36.2937 26.4809 36.3865C26.5737 36.4794 26.6996 36.5315 26.8309 36.5315C26.9622 36.5315 27.0881 36.4794 27.1809 36.3865C27.2738 36.2937 27.3259 36.1678 27.3259 36.0365H26.3359ZM26.8804 36.4919C27.0117 36.4919 27.1376 36.4398 27.2304 36.3469C27.3233 36.2541 27.3754 36.1282 27.3754 35.9969C27.3754 35.8657 27.3233 35.7398 27.2304 35.6469C27.1376 35.5541 27.0117 35.502 26.8804 35.502V36.4919ZM30.0384 35.502C29.9071 35.502 29.7812 35.5541 29.6884 35.6469C29.5956 35.7398 29.5434 35.8657 29.5434 35.9969C29.5434 36.1282 29.5956 36.2541 29.6884 36.3469C29.7812 36.4398 29.9071 36.4919 30.0384 36.4919V35.502ZM30.1374 36.4919C30.2687 36.4919 30.3946 36.4398 30.4874 36.3469C30.5803 36.2541 30.6324 36.1282 30.6324 35.9969C30.6324 35.8657 30.5803 35.7398 30.4874 35.6469C30.3946 35.5541 30.2687 35.502 30.1374 35.502V36.4919ZM33.2954 35.502C33.1641 35.502 33.0382 35.5541 32.9454 35.6469C32.8526 35.7398 32.8004 35.8657 32.8004 35.9969C32.8004 36.1282 32.8526 36.2541 32.9454 36.3469C33.0382 36.4398 33.1641 36.4919 33.2954 36.4919V35.502ZM33.3944 36.4919C33.5257 36.4919 33.6516 36.4398 33.7444 36.3469C33.8373 36.2541 33.8894 36.1282 33.8894 35.9969C33.8894 35.8657 33.8373 35.7398 33.7444 35.6469C33.6516 35.5541 33.5257 35.502 33.3944 35.502V36.4919ZM36.5524 35.502C36.4211 35.502 36.2952 35.5541 36.2024 35.6469C36.1096 35.7398 36.0574 35.8657 36.0574 35.9969C36.0574 36.1282 36.1096 36.2541 36.2024 36.3469C36.2952 36.4398 36.4211 36.4919 36.5524 36.4919V35.502ZM27.3259 44.3424H26.3359H27.3259ZM27.3259 41.6101V41.521H26.3359V41.6101H27.3259ZM27.3259 38.8184V38.7293H26.3359V38.8184H27.3259ZM27.3259 36.0365H26.3359H27.3259ZM26.8309 36.4919H26.8804V35.502H26.8309V36.4919ZM30.0384 36.4919H30.1374V35.502H30.0384V36.4919ZM33.2954 36.4919H33.3746V35.502H33.2756L33.2954 36.4919ZM36.5524 36.4919V35.502V36.4919Z" fill="#A3A3A3"/>
<path d="M99.1683 34.5501C99.037 34.5501 98.9111 34.4979 98.8183 34.4051C98.7255 34.3123 98.6733 34.1864 98.6733 34.0551C98.6933 33.613 98.6258 33.1713 98.4748 32.7553C98.3239 32.3392 98.0923 31.9571 97.7935 31.6306C97.4946 31.3042 97.1343 31.0399 96.7332 30.8529C96.3321 30.6659 95.8981 30.5598 95.4559 30.5407C95.3246 30.5407 95.1987 30.4886 95.1059 30.3957C95.0131 30.3029 94.9609 30.177 94.9609 30.0457C94.9609 29.9144 95.0131 29.7885 95.1059 29.6957C95.1987 29.6029 95.3246 29.5507 95.4559 29.5507C95.9026 29.5774 96.3498 29.5067 96.7664 29.3435C97.1831 29.1803 97.5594 28.9285 97.8691 28.6056C98.1789 28.2827 98.4148 27.8963 98.5605 27.4732C98.7062 27.05 98.7582 26.6003 98.7129 26.1551C98.7128 26.0272 98.7622 25.9042 98.8508 25.812C98.9394 25.7197 99.0603 25.6653 99.1881 25.6602C99.3159 25.6617 99.4386 25.7099 99.5334 25.7955C99.6282 25.8812 99.6884 25.9985 99.7029 26.1254C99.7821 27.6896 100.406 29.5507 102.891 29.5507C103.022 29.5507 103.148 29.6029 103.241 29.6957C103.333 29.7885 103.386 29.9144 103.386 30.0457C103.386 30.177 103.333 30.3029 103.241 30.3957C103.148 30.4886 103.022 30.5407 102.891 30.5407C102.003 30.5868 101.169 30.9823 100.572 31.6407C99.975 32.2991 99.6625 33.1671 99.7029 34.0551C99.7017 34.1231 99.6867 34.1902 99.6589 34.2523C99.6311 34.3145 99.591 34.3703 99.5411 34.4165C99.4912 34.4628 99.4324 34.4984 99.3683 34.5214C99.3043 34.5443 99.2362 34.5541 99.1683 34.5501ZM97.4755 30.1249C98.1982 30.5093 98.7882 31.1027 99.1683 31.8277C99.5479 31.0998 100.138 30.503 100.861 30.115C100.114 29.7486 99.5185 29.1321 99.1782 28.3727C98.8259 29.1331 98.2254 29.751 97.4755 30.1249Z" fill="#5FF19D"/>
<path d="M84.0922 27.9587C83.698 27.9725 83.3086 27.8682 82.974 27.6592C82.6394 27.4502 82.3749 27.146 82.2143 26.7857C82.0538 26.4253 82.0046 26.0252 82.073 25.6367C82.1413 25.2482 82.3242 24.8889 82.5982 24.6051C82.8721 24.3212 83.2246 24.1256 83.6104 24.0434C83.9963 23.9613 84.3979 23.9962 84.7637 24.1438C85.1296 24.2914 85.443 24.5449 85.6637 24.8719C85.8845 25.1988 86.0026 25.5842 86.0029 25.9787C86.0032 26.4921 85.8041 26.9854 85.4476 27.3548C85.0912 27.7242 84.6052 27.9407 84.0922 27.9587ZM84.0922 24.9888C83.8297 24.9888 83.5779 25.0931 83.3922 25.2787C83.2065 25.4644 83.1022 25.7162 83.1022 25.9787C83.1022 26.2413 83.2065 26.4931 83.3922 26.6787C83.5779 26.8644 83.8297 26.9687 84.0922 26.9687C84.3548 26.9687 84.6066 26.8644 84.7922 26.6787C84.9779 26.4931 85.0822 26.2413 85.0822 25.9787C85.0822 25.7162 84.9779 25.4644 84.7922 25.2787C84.6066 25.0931 84.3548 24.9888 84.0922 24.9888Z" fill="#919191"/>
<path d="M32.1373 72.6458C31.7427 72.6616 31.3524 72.559 31.0165 72.3513C30.6807 72.1436 30.4146 71.8401 30.2526 71.48C30.0905 71.1199 30.0398 70.7196 30.107 70.3304C30.1742 69.9413 30.3563 69.5812 30.6298 69.2963C30.9032 69.0114 31.2557 68.8148 31.6417 68.7318C32.0278 68.6487 32.4299 68.683 32.7963 68.8303C33.1627 68.9775 33.4768 69.231 33.698 69.5581C33.9193 69.8852 34.0377 70.271 34.038 70.6659C34.0384 71.1775 33.8407 71.6695 33.4864 72.0386C33.132 72.4077 32.6485 72.6253 32.1373 72.6458ZM32.1373 69.6759C31.8747 69.6759 31.6229 69.7802 31.4372 69.9658C31.2516 70.1515 31.1473 70.4033 31.1473 70.6659C31.1473 70.9284 31.2516 71.1802 31.4372 71.3659C31.6229 71.5515 31.8747 71.6558 32.1373 71.6558C32.3998 71.6558 32.6516 71.5515 32.8373 71.3659C33.0229 71.1802 33.1272 70.9284 33.1272 70.6659C33.1272 70.4033 33.0229 70.1515 32.8373 69.9658C32.6516 69.7802 32.3998 69.6759 32.1373 69.6759Z" fill="#04BEFE"/>
<path d="M60.749 55.1733C61.4215 55.1733 61.9666 54.6015 61.9666 53.8962C61.9666 53.1909 61.4215 52.6191 60.749 52.6191C60.0765 52.6191 59.5312 53.1909 59.5312 53.8962C59.5312 54.6015 60.0765 55.1733 60.749 55.1733Z" fill="white"/>
<path d="M70.499 55.1733C71.1715 55.1733 71.7167 54.6015 71.7167 53.8962C71.7167 53.1909 71.1715 52.6191 70.499 52.6191C69.8265 52.6191 69.2812 53.1909 69.2812 53.8962C69.2812 54.6015 69.8265 55.1733 70.499 55.1733Z" fill="white"/>
<path d="M80.2567 55.1733C80.9292 55.1733 81.4744 54.6015 81.4744 53.8962C81.4744 53.1909 80.9292 52.6191 80.2567 52.6191C79.5842 52.6191 79.0391 53.1909 79.0391 53.8962C79.0391 54.6015 79.5842 55.1733 80.2567 55.1733Z" fill="white"/>
<defs>
<filter id="filter0_f" x="29" y="10" width="98" height="98" filterUnits="userSpaceOnUse" color-interpolation-filters="sRGB">
<feFlood flood-opacity="0" result="BackgroundImageFix"/>
<feBlend mode="normal" in="SourceGraphic" in2="BackgroundImageFix" result="shape"/>
<feGaussianBlur stdDeviation="20" result="effect1_foregroundBlur"/>
</filter>
</defs>
</svg>
