<svg width="129" height="24" viewBox="0 0 129 24" fill="none" xmlns="http://www.w3.org/2000/svg">
<path d="M65.0602 11.8552C65.5422 11.0841 65.8313 10.2166 65.8313 9.34916C65.8313 8.48169 65.6386 7.71061 65.1566 6.93952C64.6747 6.26482 64.0964 5.68651 63.4217 5.30097C62.6506 4.91543 61.8795 4.72266 61.012 4.72266H53.8795V18.9877H57.0602V13.9757H59.8554L62.747 18.9877H66.6024L63.3253 13.4937C64 13.1082 64.5783 12.6263 65.0602 11.8552ZM62.0723 10.7949C61.7831 11.0841 61.3976 11.2769 60.8193 11.2769H56.9639V7.61422H60.4337C61.1084 7.61422 61.5904 7.80699 61.9759 8.09615C62.3614 8.38531 62.5542 8.86724 62.5542 9.44555C62.5542 10.0239 62.3614 10.4094 62.0723 10.7949Z" fill="white"/>
<path d="M74.6024 4.72266H71.3253V18.9877H74.6024V4.72266Z" fill="white"/>
<path d="M90.8916 7.03591L90.7952 6.93952L90.8916 7.03591V6.93952V4.72266H80V7.80699H86.3614L79.5181 16.7709V18.9877H91.1807V15.9998H84.0482L90.8916 7.03591Z" fill="white"/>
<path d="M108.337 6.55408C107.663 5.87938 106.892 5.39745 106.024 5.01191C105.157 4.62636 104.193 4.43359 103.132 4.43359C102.072 4.43359 101.108 4.62636 100.145 5.01191C99.2771 5.39745 98.506 5.87938 97.8313 6.55408C97.1566 7.22878 96.6747 7.99986 96.2891 8.86733C95.9036 9.7348 95.7108 10.6987 95.7108 11.7589C95.7108 12.8191 95.9036 13.783 96.2891 14.7468C96.6747 15.6143 97.1566 16.3854 97.8313 17.0601C98.506 17.7348 99.2771 18.2167 100.145 18.6023C101.012 18.9878 102.072 19.1806 103.132 19.1806C104.193 19.1806 105.157 18.9878 106.024 18.6023C106.892 18.2167 107.663 17.7348 108.337 17.0601C109.012 16.3854 109.494 15.6143 109.879 14.7468C110.265 13.8794 110.458 12.9155 110.458 11.8553C110.458 10.795 110.265 9.83118 109.879 8.96372C109.494 8.09625 108.916 7.22878 108.337 6.55408ZM106.506 14.0721C106.12 14.7468 105.735 15.2288 105.06 15.6143C104.482 15.9999 103.807 16.1926 103.036 16.1926C102.265 16.1926 101.59 15.9999 100.916 15.6143C100.337 15.2288 99.8554 14.7468 99.4698 14.0721C99.0843 13.3974 98.9879 12.7228 98.9879 11.8553C98.9879 10.9878 99.1807 10.3131 99.4698 9.63841C99.8554 8.96371 100.241 8.48179 100.916 8.09624C101.494 7.7107 102.169 7.51793 103.036 7.51793C103.807 7.51793 104.482 7.7107 105.06 8.09624C105.639 8.48179 106.12 8.96371 106.506 9.63841C106.892 10.3131 106.988 10.9878 106.988 11.8553C106.988 12.6264 106.795 13.3974 106.506 14.0721Z" fill="white"/>
<path d="M124.723 8.86723C124.723 10.0239 124.723 11.0841 124.819 12.048C124.819 12.3371 124.819 12.7227 124.819 13.0118C124.819 13.301 124.819 13.5901 124.819 13.8793L118.072 4.91543V4.81904H115.181V19.0841H118.458V13.7829C118.458 13.3974 118.458 13.1082 118.458 12.7227C118.458 12.5299 118.458 12.4335 118.458 12.2407C118.458 12.048 118.458 11.7588 118.458 11.4696V11.0841C118.458 10.7949 118.458 10.6022 118.458 10.2166L125.205 18.9877V19.0841H128.193V4.72266H124.916V8.86723H124.723Z" fill="white"/>
<path d="M44.241 11.8554C44.241 10.4096 37.8795 8.86747 29.012 8.38554C34.3133 7.90361 37.8795 6.93976 37.8795 5.9759C37.8795 4.81928 32.6747 3.66265 25.7349 3.27711C28.3373 2.98795 30.1687 2.40964 30.1687 1.73494C30.1687 0.963855 26.6024 0 22.0723 0C17.6386 0 13.9759 0.86747 13.9759 1.73494C13.9759 2.50602 15.6145 2.98795 18.1205 3.27711C11.3735 3.56627 6.26506 4.72289 6.26506 5.87952C6.26506 6.84337 9.83133 7.80723 15.0361 8.28916C6.36145 8.86747 0 10.3133 0 11.8554C0 13.494 6.26506 14.8434 14.9398 15.4217C9.83132 15.9036 6.26506 16.8675 6.26506 17.8313C6.26506 19.0843 11.2771 20.1446 18.1205 20.5301C15.7108 20.8193 13.9759 21.3012 13.9759 22.0723C13.9759 22.8434 17.5422 23.8072 22.0723 23.8072C26.506 23.8072 30.1687 22.8434 30.1687 22.0723C30.1687 21.3976 28.3373 20.8193 25.7349 20.5301C32.6747 20.241 37.8795 18.988 37.8795 17.8313C37.8795 16.8675 34.3133 15.9036 29.1084 15.4217C37.8795 14.8434 44.241 13.3976 44.241 11.8554ZM16.1928 7.51807C16.2892 7.51807 16.2892 7.42169 16.2892 7.42169L16.3855 7.3253L21.012 4.62651C21.3012 4.43374 21.6867 4.33735 22.0723 4.33735C22.4578 4.33735 22.8434 4.43374 23.1325 4.62651C23.1325 4.62651 27.6626 7.22892 27.759 7.22892C28.1446 7.42169 28.4337 7.80723 28.5301 8.28916C28.5301 8.38554 28.6265 8.6747 28.5301 8.77108C28.5301 8.77108 28.5301 8.77108 28.4337 8.77108C28.3373 8.77108 28.1446 8.77108 28.0482 8.77108C27.8554 8.77108 27.759 8.77108 27.5663 8.77108C27.2771 8.77108 26.988 8.6747 26.6988 8.6747C26.3133 8.6747 25.9277 8.57831 25.5422 8.57831C24.9639 8.48193 24.3855 8.48193 23.8072 8.38554C23.1325 8.28916 22.4578 8.19277 21.7831 8.19277C21.1084 8.09639 20.4337 8 19.759 8C19.1807 7.90361 18.6024 7.90361 18.0241 7.80723C17.6386 7.80723 17.253 7.71084 16.8675 7.71084C16.7711 7.71084 16.6747 7.71084 16.5783 7.71084C16.5783 7.71084 16.5783 7.71084 16.4819 7.71084C16.3855 7.71084 16.3855 7.71084 16.2892 7.61446C16.1928 7.61446 16.1928 7.61446 16.1928 7.51807ZM28.5301 15.6145C28.5301 15.6145 28.5301 15.7108 28.4337 15.7108V15.8072C28.241 16 28.1446 16.1928 27.8554 16.3855L23.1325 19.0843C22.8434 19.2771 22.4578 19.3735 22.0723 19.3735C21.6867 19.3735 21.3012 19.2771 21.012 19.0843L16.8675 16.6747C16.7711 16.6747 16.7711 16.5783 16.7711 16.5783C16.6747 16.4819 16.6747 16.4819 16.6747 16.3855C16.7711 16.1928 17.0602 16.1928 17.0602 16.1928C17.1566 16.1928 17.253 16.1928 17.3494 16.1928H17.4458C17.6386 16.1928 17.7349 16.1928 17.9277 16.0964C18.1205 16.0964 18.2169 16.0964 18.4096 16C18.988 15.9036 19.5663 15.8072 20.1446 15.8072C20.7229 15.7108 21.3012 15.7108 21.7831 15.6145C22.3614 15.5181 22.9398 15.5181 23.4217 15.5181C24 15.5181 24.4819 15.4217 24.9639 15.4217C25.4458 15.4217 26.0241 15.4217 26.506 15.4217C26.6024 15.4217 26.6024 15.4217 26.6988 15.4217H26.8916C27.2771 15.4217 27.6626 15.4217 28.0482 15.4217C28.1446 15.4217 28.1446 15.4217 28.241 15.4217H28.3373C28.5301 15.4217 28.6265 15.5181 28.6265 15.5181C28.5301 15.5181 28.5301 15.5181 28.5301 15.6145ZM28.8193 13.012C28.8193 13.5904 28.8193 13.5904 27.6627 13.7831L26.8916 13.8795C26.7952 13.8795 26.6988 13.8795 26.6024 13.8795H26.3133C24.3855 14.0723 22.3614 14.2651 20.4337 14.3614C19.5663 14.4578 18.6988 14.4578 17.8313 14.4578C17.4458 14.4578 17.0602 14.4578 16.5783 14.4578C16.3855 14.4578 16.1928 14.4578 16 14.4578C15.8072 14.4578 15.6145 14.5542 15.5181 14.3614C15.4217 14.2651 15.4217 14.0723 15.4217 13.8795V9.92771C15.4217 9.3494 15.6145 9.25301 16.6747 9.15663C16.8675 9.15663 17.0602 9.15663 17.3494 9.15663C20.6265 9.15663 24.1928 9.63855 28.4337 10.6988H28.5301C28.7229 10.7952 28.8193 10.6988 28.8193 11.2771V13.012Z" fill="url(#paint0_linear)"/>
<defs>
<linearGradient id="paint0_linear" x1="36.9435" y1="1.42853" x2="8.96944" y2="21.0642" gradientUnits="userSpaceOnUse">
<stop offset="0.0403439" stop-color="#5FF19D"/>
<stop offset="0.205" stop-color="#59EEA3"/>
<stop offset="0.4266" stop-color="#49E5B4"/>
<stop offset="0.6806" stop-color="#2FD6D0"/>
<stop offset="0.9567" stop-color="#0AC2F7"/>
<stop offset="1" stop-color="#04BEFE"/>
</linearGradient>
</defs>
</svg>
