<svg width="147" height="90" viewBox="0 0 147 90" fill="none" xmlns="http://www.w3.org/2000/svg">
<path d="M58.6856 46.2516V47.4485H42.2715V46.2516H49.2817V44.6273H45.4346C44.7507 44.6273 44.1523 44.1144 44.1523 43.4304V40.6093H54.1546V38.9849H44.1523V37.7881H56.5484V41.8916H46.546V43.003C46.546 43.3449 46.717 43.5159 46.9734 43.5159H56.7193V44.7128H51.6754V46.3371H58.6856V46.2516ZM57.8307 53.2618L57.1468 54.2877C55.7789 54.2022 52.4448 53.0908 50.4785 50.9536C48.5123 53.1763 45.2636 54.2022 43.8103 54.2877L43.1264 53.2618C44.4942 53.0908 48.4268 51.2955 49.1962 48.6453H51.8464C52.5303 51.2955 56.4629 53.0908 57.8307 53.2618Z" fill="#E60012"/>
<path d="M67.1486 47.9602C68.089 47.9602 68.602 47.9602 69.0294 47.6182V43.8566H65.6098V42.6598H69.0294V37.3594H71.4231V54.03H69.0294V48.8151C68.6875 48.986 68.089 49.157 67.1486 49.157H62.2757C61.2498 49.2425 60.6514 48.4731 60.6514 47.6182V38.0433H67.4051V39.3256H62.9596V47.3617C62.9596 47.7037 63.1306 47.9602 63.558 47.9602H67.1486V47.9602ZM73.0475 37.4449H75.4412V54.1155H73.0475V37.4449Z" fill="#E60012"/>
<path d="M94.1661 47.79H77.752V46.5931H84.5912V44.1139H86.9849V46.5931H94.1661V47.79ZM86.9849 37.7021V38.4716C86.9849 41.2927 90.2335 43.3445 92.7982 43.8574L92.1998 44.7978C90.7465 44.7978 86.9849 43.5155 85.6171 41.4637C84.4202 43.3445 81.2571 44.6269 79.2053 44.7123L78.6069 43.8574C81.5135 43.3445 84.3347 41.1218 84.3347 38.4716V37.7021H86.9849ZM82.112 52.2355C82.112 52.5774 82.112 52.8339 82.7104 52.8339H92.3708V54.0308H80.9151C79.7182 54.0308 79.7182 53.0904 79.7182 52.492V48.9869H82.112V52.2355Z" fill="#E60012"/>
<path d="M97.5815 40.8659H95.6152V39.669H98.7784V37.5318H101.172V39.669H104.421V40.8659H102.454C103.395 41.6353 104.079 43.1741 104.079 44.713C104.079 47.1922 102.796 49.7569 99.9752 49.7569C97.1541 49.7569 95.8717 47.1922 95.8717 44.713C95.9572 43.1741 96.5556 41.5498 97.5815 40.8659ZM99.9752 48.56C101.087 48.56 101.856 46.9357 101.856 44.713C101.856 42.4902 101.087 41.0369 99.9752 41.0369C98.8639 41.0369 98.1799 42.4902 98.1799 44.713C98.1799 46.9357 98.9494 48.56 99.9752 48.56ZM105.19 37.4463H107.584V43.2596H108.866V37.4463H111.26V54.1169H108.866V44.4565H107.584V54.1169H105.19V37.4463Z" fill="#E60012"/>
<path d="M117.93 37.8736V40.7802H125.368V37.8736H127.762V46.4226H123.06V49.5857H129.984V50.7826H113.57V49.5857H120.581V46.4226H117.075C116.05 46.4226 115.537 45.8242 115.537 44.8838V37.7881H117.93V37.8736ZM117.93 44.7983C117.93 45.0548 118.016 45.2257 118.358 45.2257H125.368V41.9771H117.93V44.7983Z" fill="#E60012"/>
<path d="M133.148 40.1807H130.925V38.9839H135.028V37.0176H137.422V38.9839H141.526V40.1807H139.303C139.901 40.6937 140.329 41.3776 140.5 42.2325H143.748V37.445H146.142V47.2764H143.748V43.4293H140.585C140.329 45.3956 138.704 46.7635 136.225 46.7635C133.49 46.7635 131.78 45.1391 131.78 42.9164C131.865 41.805 132.293 40.8646 133.148 40.1807ZM135.712 54.2866C134.686 54.2866 134.173 53.6882 134.173 52.7478V48.2168H146.142V54.2011H135.712V54.2866ZM136.311 45.7376C137.593 45.7376 138.362 44.4552 138.362 43.0019C138.362 41.5486 137.593 40.2662 136.311 40.2662C135.028 40.2662 134.259 41.5486 134.259 43.0019C134.259 44.4552 135.028 45.7376 136.311 45.7376ZM136.653 52.6623C136.653 52.9188 136.738 53.0897 137.08 53.0897H143.834V49.4991H136.653V52.6623Z" fill="#E60012"/>
<path d="M24.6639 59.9306C20.7314 63.8631 14.2341 63.8631 10.3016 59.9306L2.94941 52.5784C-0.983137 48.6459 -0.983137 42.1486 2.94941 38.2161L10.2161 30.9494C14.1486 27.0169 20.6459 27.0169 24.5784 30.9494L31.9306 38.3016C35.8631 42.2341 35.8631 48.7314 31.9306 52.6639L24.6639 59.9306Z" fill="#E60012"/>
<path d="M13.1211 56.1675C12.5227 56.1675 12.0953 55.7401 12.0098 55.1416C12.0098 54.8852 12.0953 54.5432 12.2662 54.3722C12.4372 54.2013 12.6937 54.0303 13.0356 54.0303C13.6341 54.0303 14.147 54.4577 14.147 55.0562C14.2325 55.6546 13.7196 56.1675 13.1211 56.1675Z" fill="white"/>
<path d="M17.0549 36.2495C16.4565 36.2495 15.9436 36.4205 15.6016 36.8479C14.7467 37.7028 14.3193 39.4126 14.4048 41.6354C14.4902 44.4565 15.0887 49.9279 17.3114 52.7491C17.6534 53.1765 18.0808 53.604 18.4228 53.8605C18.8502 54.1169 19.2777 54.3734 19.9616 54.3734C20.1326 54.3734 20.3036 54.3734 20.56 54.2879C21.8424 53.946 23.3812 52.5781 24.5781 50.6973C24.7491 50.4409 25.091 50.2699 25.433 50.2699C25.604 50.2699 25.775 50.3554 25.9459 50.4409C26.2024 50.6118 26.2879 50.7828 26.3734 51.0393C26.4589 51.2958 26.3734 51.5522 26.2879 51.8087C24.8346 54.2024 22.8683 55.8267 21.073 56.2542C21.073 56.2542 21.073 56.2542 20.9875 56.2542C20.6455 56.3397 20.3036 56.3397 20.0471 56.3397C18.8502 56.3397 18.0808 55.9122 17.4824 55.4848C16.884 55.1428 16.371 54.6299 15.8581 53.946C12.6095 49.9279 12.4385 42.4903 12.4385 41.6354C12.4385 39.6691 12.6949 36.9334 14.2338 35.3946C15.0032 34.6252 15.9436 34.2832 17.0549 34.2832H17.2259C18.3373 34.2832 19.2777 34.6252 20.0471 35.3946C21.5859 36.9334 21.8424 39.5836 21.8424 41.6354C21.8424 43.6871 21.415 47.7052 19.2777 51.2958C19.1067 51.5522 18.7648 51.7232 18.4228 51.7232C18.2518 51.7232 18.0808 51.6377 17.9099 51.5522C17.4824 51.2958 17.3114 50.6973 17.5679 50.1844C19.1067 47.7052 19.7906 44.884 19.8761 41.4644C19.8761 39.1561 19.4487 37.5318 18.6793 36.6769C18.3373 36.335 17.8244 36.0785 17.2259 36.0785H17.0549V36.2495Z" fill="white"/>
</svg>
