<svg width="145" height="90" viewBox="0 0 145 90" fill="none" xmlns="http://www.w3.org/2000/svg">
<path d="M19.6812 56.9922H0L18.0039 39.0109C18.9233 38.0926 20.4267 38.0926 21.3462 39.0233C21.7811 39.4576 22.0296 40.0533 22.0296 40.6861V54.6468C22.0296 55.9498 20.9734 57.0047 19.6812 56.9922ZM8.20051 53.6045H18.6375V43.1805L8.20051 53.6045Z" fill="#3BD5EE"/>
<path d="M33.2247 56.9923H8.3125L14.6493 50.6634L16.4633 53.6045H32.181V37.8568L22.0297 47.9954V43.2053L31.5597 33.6872C32.4792 32.7689 33.9826 32.7689 34.902 33.6996C35.3369 34.1339 35.5854 34.7296 35.5854 35.3501V54.6344C35.5854 55.9499 34.5293 57.0047 33.2247 56.9923Z" fill="#1C2838"/>
<path d="M14.6363 50.6634L11.791 53.6045H16.4504L14.6363 50.6634Z" fill="#1C2838"/>
<path d="M120.038 56.8682V40.1153H130.947V42.4235H122.759V47.3004H130.947V49.683H122.759V54.4359H130.947V56.8682H120.038Z" fill="#3BD5EE"/>
<path d="M131.568 56.8682L137.011 48.107L132.19 40.1153H135.047L137.458 44.2105C137.582 44.4214 137.831 44.8682 138.178 45.5383L138.352 45.8733C138.477 45.6375 138.613 45.3894 138.762 45.1163C138.912 44.8433 139.085 44.5579 139.272 44.2353L141.831 40.1153H144.627L139.719 48.0574L145 56.8682H142.005L139.197 52.1153L139.148 52.0284C138.837 51.4576 138.564 50.924 138.303 50.4152C138.178 50.6758 138.029 50.9488 137.88 51.2218C137.731 51.4948 137.557 51.7803 137.383 52.0781L134.451 56.8557L131.568 56.8682Z" fill="#3BD5EE"/>
<path d="M50.7063 40.3883H48.2337L41.7852 56.8682H44.5559L46.3824 52.1525H52.4955L54.2723 56.8682H57.1301L50.7312 40.4752L50.7063 40.3883ZM47.3267 49.5962L49.4638 43.9499L51.5636 49.5962H47.3267Z" fill="#1C2838"/>
<path d="M77.433 52.1774C77.1348 52.8599 76.6378 53.4307 76.0166 53.8402C75.4202 54.2249 74.7119 54.4359 73.9913 54.4235C72.9352 54.4483 71.9163 54.014 71.1957 53.2446C70.4502 52.4628 70.0774 51.4576 70.0774 50.2787C70.0774 49.0998 70.4502 48.107 71.1832 47.3252C71.8666 46.5559 72.8358 46.1215 73.867 46.1339C75.3829 46.0595 76.7994 46.9157 77.433 48.3056L77.4703 48.3801H80.1541L80.092 48.2063C79.6198 46.7792 78.8495 45.6624 77.7933 44.8806C76.7372 44.0988 75.4823 43.6893 74.0534 43.6893C73.1588 43.6893 72.2891 43.863 71.469 44.2229C69.0461 45.2901 67.493 47.6851 67.5179 50.3283C67.5179 51.1846 67.6918 52.0284 68.0149 52.8227C68.3255 53.6169 68.7976 54.349 69.3816 54.9695C69.9656 55.59 70.6614 56.0864 71.4442 56.4214C72.2518 56.7565 73.1091 56.9178 73.9789 56.9054C75.445 56.9054 76.7248 56.5083 77.7437 55.7389C78.7625 54.9695 79.5577 53.8154 80.0796 52.3139L80.1417 52.1401H77.4454L77.433 52.1774Z" fill="#1C2838"/>
<path d="M92.4296 46.5683C91.8332 45.6748 91.038 44.9426 90.0937 44.4214C89.1494 43.9126 88.0933 43.652 87.0247 43.652C85.2479 43.6272 83.5333 44.3718 82.3653 45.712C81.7938 46.3201 81.3465 47.0274 81.0359 47.7968C80.7377 48.5786 80.5761 49.4225 80.5886 50.2663C80.5886 51.1226 80.7625 51.9664 81.0856 52.7606C81.3962 53.5548 81.8683 54.2746 82.4523 54.8951C83.0363 55.5155 83.7445 56.0243 84.5397 56.3594C85.3473 56.6944 86.2047 56.8558 87.0744 56.8433C88.3666 56.8682 89.634 56.4835 90.6901 55.7389C91.7214 55.0067 92.529 53.9395 93.1006 52.5621L93.1751 52.3759H90.4168L90.3795 52.438C89.721 53.6541 88.4536 54.3987 87.0744 54.3739C86.1425 54.3863 85.2355 54.0636 84.5273 53.4555C83.8563 52.8723 83.3842 52.0781 83.2102 51.197H93.5106V50.7503C93.523 49.9685 93.436 49.1991 93.2497 48.4421C93.0757 47.7844 92.8024 47.1515 92.4296 46.5683ZM83.2972 48.9881C83.5333 48.1691 84.0054 47.4369 84.664 46.9033C85.3473 46.3573 86.2171 46.0595 87.0993 46.0843C87.9566 46.0595 88.7891 46.3449 89.4476 46.8785C90.0564 47.3749 90.5037 48.0946 90.7771 48.9881H83.2972Z" fill="#1C2838"/>
<path d="M116.112 40.0657V45.3273C114.994 44.2725 113.515 43.6893 111.974 43.7141C111.104 43.7017 110.235 43.863 109.415 44.1856C108.632 44.5207 107.924 45.0171 107.34 45.65C106.768 46.2456 106.308 46.953 106.01 47.7348C105.7 48.529 105.538 49.3852 105.538 50.2291C105.538 52.1029 106.159 53.6913 107.402 54.9323C108.644 56.1732 110.222 56.8185 112.086 56.8185C112.869 56.8185 113.639 56.6696 114.36 56.3594C114.994 56.0864 115.565 55.7017 116.062 55.2301V56.5455H118.56V40.0657H116.112ZM114.994 53.2322C114.198 54.0388 113.266 54.4607 112.223 54.4607C111.117 54.4855 110.061 54.0388 109.303 53.2446C108.508 52.438 108.11 51.4204 108.11 50.2167C108.098 47.9705 109.899 46.1463 112.148 46.1339C112.161 46.1339 112.173 46.1339 112.185 46.1339C113.279 46.1339 114.223 46.5559 115.018 47.3749C115.801 48.1815 116.236 49.2487 116.211 50.378C116.199 51.4328 115.764 52.4752 114.994 53.2322Z" fill="#1C2838"/>
<path d="M62.0505 46.0719C62.1251 46.0719 62.2121 46.0595 62.2866 46.0595C62.5351 46.0595 62.796 46.0967 63.0321 46.1712C63.554 46.3573 63.9764 46.7544 64.1876 47.2632H66.8839C66.7348 46.4318 66.2999 45.6872 65.6538 45.1412C65.3929 44.8806 65.0947 44.6572 64.7716 44.4959C64.3367 44.2725 63.8646 44.1236 63.3676 44.0615C63.0197 43.9871 62.6718 43.9623 62.3115 43.9623C61.5784 43.9623 60.8453 44.0988 60.1619 44.3718C60.0998 44.3966 60.0377 44.4214 59.988 44.4462L59.8886 44.4835C59.5904 44.62 59.317 44.7937 59.0561 44.9923C58.2485 45.6003 57.7763 46.5683 57.8012 47.5858C57.7888 48.3304 58.0621 49.0378 58.5591 49.5838C59.0685 50.1298 59.9631 50.6634 61.2429 51.197C61.4666 51.2963 61.7896 51.4204 62.2121 51.5693C63.4546 52.0285 64.0758 52.5869 64.0758 53.2322C64.1007 53.6789 63.9019 54.1008 63.554 54.3863C63.2061 54.6717 62.7215 54.8082 62.1127 54.8082C61.392 54.8082 60.808 54.6593 60.3607 54.3366C60.3483 54.3242 60.3359 54.3242 60.3235 54.3118C59.8762 53.9892 59.5531 53.5176 59.4289 52.984H56.832C56.8693 53.5176 57.0308 54.0388 57.3042 54.4979C57.6894 55.2177 58.2609 55.8134 58.9691 56.2229C59.7022 56.6324 60.6092 56.8558 61.7026 56.8682C61.7275 56.8682 61.7399 56.8682 61.7648 56.8682H61.8766C63.4049 56.8682 64.5977 56.5331 65.455 55.8506C66.3123 55.1681 66.7596 54.2373 66.7596 53.046C66.7596 52.227 66.5235 51.5321 66.0514 50.9861C65.5792 50.44 64.784 49.9437 63.6906 49.5093C63.4421 49.41 63.1067 49.2735 62.6594 49.1122C61.2429 48.6034 60.5471 48.0326 60.5471 47.4121C60.5471 47.3252 60.5595 47.2384 60.572 47.1515C60.8826 46.5807 61.4293 46.1712 62.0505 46.0719Z" fill="#1C2838"/>
<path d="M99.5985 43.6644C96.6165 43.6644 94.2061 46.0719 94.2061 49.0502V56.5455H96.6911V49.2735C96.6911 47.6727 97.9957 46.3697 99.5985 46.3697C101.201 46.3697 102.506 47.6727 102.506 49.2735V56.5455H104.991V49.0502C104.991 46.0719 102.58 43.6644 99.5985 43.6644Z" fill="#1C2838"/>
</svg>
