<svg width="155" height="90" viewBox="0 0 155 90" fill="none" xmlns="http://www.w3.org/2000/svg">
<path d="M6.06539 36.2168V49.8188H0V54H6.06539H6.81905H11.2119V36.2168H6.06539Z" fill="#009DDA"/>
<path d="M20.9112 36.2168V49.8188H26.9766V54H20.9112H20.1575H15.7646V36.2168H20.9112Z" fill="#009DDA"/>
<path d="M32.3193 45.1517V44.7749C32.3308 43.2125 32.6703 41.67 33.3159 40.2472C33.9614 38.8244 34.8987 37.5531 36.0669 36.5156H38.2608C36.2389 38.7332 35.0907 41.6093 35.0294 44.6097V45.193C35.093 48.2422 36.2383 51.1695 38.2608 53.4523H36.0669C34.8958 52.4083 33.9571 51.1299 33.3115 49.7C32.6659 48.2701 32.3279 46.7206 32.3193 45.1517Z" fill="#00225A"/>
<path d="M46.7733 53.7881V47.8053H40.1143V45.7095H56.163V47.8207H49.3853V53.8035L46.7733 53.7881ZM40.7698 42.54C43.6451 42.2819 46.2777 40.9088 46.5565 38.7924H41.4667V36.7275H54.7847V38.7924H49.6589C49.9583 40.8881 52.6683 42.2406 55.5229 42.5039C55.1822 43.2007 54.8209 43.877 54.4905 44.5687C52.116 44.3106 49.1633 43.1336 48.1102 41.2237C47.0778 43.113 44.1406 44.3519 41.8074 44.5893C41.4667 43.8769 41.1105 43.2369 40.7698 42.54V42.54Z" fill="#00225A"/>
<path d="M61.2684 45.3537V44.7549C61.1849 41.708 60.0213 38.7899 57.9854 36.5215H60.1999C61.3529 37.5689 62.2772 38.8431 62.915 40.2643C63.5528 41.6855 63.8902 43.2231 63.9062 44.7807V45.1937C63.8902 46.7514 63.5528 48.2889 62.915 49.7101C62.2772 51.1313 61.3529 52.4055 60.1999 53.4529H57.9854C60.0272 51.2416 61.1942 48.3626 61.2684 45.3537V45.3537Z" fill="#00225A"/>
<path d="M75.8252 46.9071V49.4881H82.5358V51.5529H66.4922V49.4881H73.2028V46.9071H68.4951V40.8468H77.9055V39.133H68.4848V37.0166H80.5484V42.9581H71.138V44.8164H81.0078V46.9071H75.8252Z" fill="#00225A"/>
<path d="M100.83 51.4761H84.7969V49.4113H100.83V51.4761ZM86.8307 46.0715V37.4199H98.8118V39.5157H89.4427V43.9809H98.9512V46.0766L86.8307 46.0715Z" fill="#00225A"/>
<path d="M112.888 49.7207C111.391 48.8999 109.337 46.9693 108.821 45.2142C108.361 47.0468 106.327 49.318 104.691 50.1388L103.039 48.105C106.11 46.2879 107.385 43.6398 107.385 39.9077V37.4505H110.137V39.8251C110.137 43.5314 111.613 46.0453 114.401 47.5991L112.888 49.7207ZM115.18 53.7677V36H117.864V53.7677H115.18Z" fill="#00225A"/>
<path d="M121.406 51.4958V49.4H137.481V51.4958H121.406ZM135.86 46.2306C133.666 45.7918 130.414 44.078 129.418 41.4866C128.442 44.0677 125.288 45.7711 123.037 46.2306C122.64 45.513 122.222 44.8162 121.845 44.0986C124.756 43.7373 128.039 41.5434 128.039 38.2965V37.2383H130.868V38.2965C130.868 41.5434 134.1 43.7166 137.063 44.0986L135.86 46.2306Z" fill="#00225A"/>
<path d="M143.674 43.9598C144.93 43.9615 146.184 43.8544 147.422 43.6398C147.484 44.316 147.541 44.9561 147.623 45.6324C145.953 45.9388 144.257 46.0857 142.559 46.0711C141.821 46.0711 141.104 46.0298 140.324 45.9885V36.9808H146.963V39.0456H142.833V40.46H146.379V42.4938H142.833V43.9289C143.034 43.9392 143.313 43.9598 143.674 43.9598ZM142.559 53.5457V47.1861H154.881V53.5457H142.559ZM152.207 49.1787H145.187V51.5326H152.187L152.207 49.1787ZM148.857 46.3912V42.0964H147.081V40.1193H148.836V36.3304H151.268V46.4015L148.857 46.3912ZM152.367 46.5512V36H154.881V46.5512H152.367Z" fill="#00225A"/>
</svg>
