<svg width="130" height="90" viewBox="0 0 130 90" fill="none" xmlns="http://www.w3.org/2000/svg">
<path d="M4.40509 43.6523C5.02712 44.1197 5.72197 44.4813 6.46167 44.7226C8.10192 45.2469 9.8648 45.2469 11.505 44.7226C12.243 44.4812 12.936 44.1196 13.556 43.6523C14.1252 43.2079 14.6012 42.6557 14.957 42.0272C15.2932 41.4282 15.4698 40.7528 15.4698 40.0659C15.4698 39.379 15.2932 38.7036 14.957 38.1046C14.6011 37.4778 14.125 36.9274 13.556 36.4851C12.9352 36.0162 12.2426 35.651 11.505 35.4036C10.6959 35.1328 9.84782 34.9965 8.99457 35.0001C8.13392 34.9956 7.27833 35.1319 6.46167 35.4036C5.72391 35.6531 5.03132 36.0202 4.41069 36.4907C3.84092 36.9291 3.36781 37.4805 3.02096 38.1102C2.69383 38.7122 2.52246 39.3864 2.52246 40.0715C2.52246 40.7566 2.69383 41.4308 3.02096 42.0328C3.37067 42.6621 3.84327 43.2148 4.41069 43.6579L4.40509 43.6523ZM5.45299 40.0491C5.45181 39.6228 5.54561 39.2017 5.72758 38.8163C5.91312 38.4269 6.17186 38.0768 6.48969 37.7852C6.81646 37.4784 7.1962 37.2335 7.61044 37.0623C8.05143 36.8898 8.52106 36.8024 8.99457 36.8045C9.91956 36.7972 10.8114 37.1487 11.4826 37.7852C11.7985 38.0799 12.0585 38.4292 12.2503 38.8163C12.4383 39.204 12.5359 39.6294 12.5359 40.0603C12.5359 40.4912 12.4383 40.9165 12.2503 41.3043C12.0585 41.6928 11.7963 42.0424 11.477 42.3354C11.1533 42.642 10.7725 42.8818 10.3563 43.0415C9.47088 43.3723 8.49583 43.3723 7.61044 43.0415C6.78715 42.7191 6.11511 42.099 5.72758 41.3043C5.54361 40.9116 5.44979 40.4827 5.45299 40.0491" fill="#0067AC"/>
<path d="M0 48.528H7.50903V55.0003H10.4454V48.528H17.9544V46.7012H0V48.528Z" fill="#0067AC"/>
<path d="M33.9194 35.3193H31.6331L31.7732 35.4931C31.8289 35.56 31.864 35.6418 31.874 35.7284C31.9545 36.1588 31.9883 36.5965 31.9749 37.0341V46.1458C31.9749 46.7062 31.6387 47.0928 30.955 47.3114C30.6081 47.3973 30.2531 47.4462 29.8959 47.4571H23.6645C23.3339 47.4571 23.2274 47.3842 23.1938 47.3338C23.1161 47.2102 23.0807 47.0646 23.093 46.9191V43.2879H28.5006C28.74 43.3129 28.9797 43.2424 29.1674 43.0917C29.2966 42.9345 29.3626 42.7347 29.3523 42.5314V36.6698C29.3574 36.5677 29.3422 36.4656 29.3076 36.3695C29.273 36.2733 29.2196 36.1849 29.1506 36.1095C28.9595 35.9615 28.7185 35.8932 28.4782 35.9189H20.0725V37.7402H26.3992V41.4779H19.8428L20.0389 41.8757C20.1231 42.1497 20.1629 42.4354 20.1566 42.7219V47.967C20.1542 48.1232 20.1827 48.2784 20.2404 48.4236C20.2981 48.5688 20.3839 48.7012 20.4928 48.8132C20.6948 48.9902 20.9304 49.1247 21.1856 49.2084C21.4407 49.2922 21.7102 49.3236 21.9778 49.3007H29.3243L30.4843 49.2559C31.0026 49.2315 31.5101 49.0998 31.9749 48.8692V54.798H34.9113V36.1095C34.9113 35.762 34.7375 35.3361 33.9194 35.3193" fill="#0067AC"/>
<path d="M44.1916 52.8311C44.1071 52.7102 44.0674 52.5635 44.0795 52.4164V48.7012C44.091 48.5208 44.048 48.3412 43.9562 48.1856C43.8955 48.1149 43.8181 48.0604 43.731 48.0271C43.6439 47.9939 43.5499 47.9828 43.4575 47.9951H40.7061L40.9078 48.18C41.0147 48.2787 41.084 48.4114 41.1039 48.5555C41.1307 48.726 41.1438 48.8984 41.1431 49.071V53.4307C41.1378 53.5825 41.1633 53.7338 41.2183 53.8754C41.2732 54.017 41.3563 54.146 41.4626 54.2545C41.6636 54.4394 41.901 54.5802 42.1596 54.668C42.4182 54.7558 42.6923 54.7887 42.9644 54.7644H53.9813V52.9376H44.6399C44.4765 52.9584 44.3114 52.9141 44.1804 52.8143" fill="#0067AC"/>
<path d="M49.9406 46.051C50.2784 46.0318 50.6112 45.9599 50.9268 45.838V49.1106H53.8688V36.0595C53.8688 35.7177 53.6951 35.3086 52.8713 35.3086H50.6298L50.7363 35.4711C50.779 35.54 50.8094 35.6159 50.826 35.6953C50.9145 36.1246 50.9539 36.5626 50.9436 37.0009V39.8028H48.4892V41.6632H50.9156V43.8263C50.2878 44.2079 49.5479 44.3622 48.8198 44.2634H47.4581V37.7406H48.9487V35.9138H37.7412V37.7406H39.2262V44.2746H37.7412V46.0958H48.5733C49.0552 46.0958 49.5035 46.0958 49.9126 46.0678L49.9406 46.051ZM42.1906 37.7406H44.533V44.2746H42.1906V37.7406Z" fill="#0067AC"/>
<path d="M57.7191 36.9053C57.8308 37.2006 57.8859 37.5142 57.8816 37.8299V44.5544C57.881 44.7429 57.9179 44.9296 57.99 45.1037C58.0621 45.2778 58.1682 45.4359 58.3019 45.5687C58.5197 45.7688 58.7764 45.9218 59.056 46.0182C59.3356 46.1146 59.6321 46.1524 59.927 46.1291H71.5211V44.2966H61.3727C60.9861 44.2966 60.8124 44.1453 60.8124 43.8035V38.2614H71.4147V36.4346H57.4053L57.5342 36.6083C57.6084 36.6958 57.6654 36.7966 57.7023 36.9053" fill="#0067AC"/>
<path d="M73.6273 50.8311H55.6729V52.6579H73.6273V50.8311Z" fill="#0067AC"/>
<path d="M89.8287 35.3193H87.5423L87.6824 35.4931C87.7382 35.56 87.7733 35.6418 87.7833 35.7284C87.8635 36.1588 87.8973 36.5965 87.8842 37.0341V40.5813H84.2529V42.4081H87.901V54.7812H90.8373V36.0927C90.8373 35.7396 90.6636 35.3193 89.8455 35.3193" fill="#0067AC"/>
<path d="M80.616 41.8085C80.8799 41.0804 81.0787 40.3303 81.21 39.567C81.3984 38.605 81.4978 37.6277 81.507 36.6475C81.5236 36.4933 81.4928 36.3378 81.4187 36.2016C81.3446 36.0655 81.2307 35.9551 81.0923 35.8854C80.9655 35.8434 80.8335 35.8189 80.7 35.8125H77.8701L78.1615 36.1151C78.334 36.3413 78.4213 36.6211 78.4081 36.9052C78.407 38.9633 77.9619 40.9969 77.1031 42.8673C76.2443 44.7376 74.9921 46.4007 73.432 47.7429L73.3535 47.8101L74.3678 49.0205L74.4519 48.9645C76.5637 47.5365 78.3276 45.652 79.6129 43.4504C80.8837 45.3394 82.3902 47.0587 84.0959 48.5666L84.18 48.6395L85.9732 46.4933L85.8779 46.426C83.9493 45.1066 82.1831 43.5643 80.616 41.8309" fill="#0067AC"/>
<path d="M108.141 35.3198H105.899L106.09 35.7121C106.184 36.1406 106.226 36.5791 106.213 37.0177V54.7816H109.15V36.0595C109.15 35.7177 108.976 35.3086 108.152 35.3086" fill="#0067AC"/>
<path d="M102.638 35.8965H99.836L100.139 36.0926C100.198 36.1312 100.248 36.1822 100.286 36.2422C100.324 36.3022 100.348 36.3697 100.357 36.44C100.383 36.6012 100.396 36.7643 100.396 36.9276V40.1721H96.4737V36.7146C96.4737 36.0422 96.0927 35.8965 95.7733 35.8965H93.0723L93.3132 36.087C93.416 36.1781 93.4818 36.3037 93.4981 36.44C93.5249 36.6087 93.538 36.7792 93.5374 36.95V47.1824C93.5514 47.4936 93.6721 47.7904 93.8792 48.023C94.0801 48.1997 94.3148 48.3336 94.5692 48.4165C94.8236 48.4993 95.0922 48.5294 95.3586 48.5049H103.327V36.6922C103.327 36.0366 102.94 35.8965 102.621 35.8965H102.638ZM96.4569 46.1457V41.999H100.38V46.7061H97.0173C96.7203 46.7061 96.6082 46.6389 96.569 46.5884C96.49 46.4631 96.4527 46.316 96.4625 46.1682" fill="#0067AC"/>
<path d="M113.241 46.2187C116.424 44.8626 118.715 43.2431 120.049 41.4163L120.245 41.1473C122.023 43.1638 124.154 44.8388 126.533 46.0898L126.622 46.1346L128.247 43.7362L128.13 43.6858C125.672 42.5846 123.342 41.2185 121.181 39.6119C121.725 38.6385 122.029 37.5491 122.067 36.4345C122.09 36.2736 122.063 36.1092 121.989 35.9645C121.914 35.8197 121.797 35.7019 121.652 35.6276C121.566 35.5937 121.475 35.5766 121.383 35.5772H118.021L118.413 35.7789C118.486 35.8115 118.551 35.8593 118.603 35.919C118.744 36.1079 118.815 36.3394 118.805 36.5746C118.441 39.8696 116.267 42.6267 112.344 44.7617L112.243 44.8121L113.157 46.2579L113.241 46.2187Z" fill="#0067AC"/>
<path d="M129.234 50.8311H111.279V52.6579H129.234V50.8311Z" fill="#0067AC"/>
</svg>
