<svg width="128" height="90" viewBox="0 0 128 90" fill="none" xmlns="http://www.w3.org/2000/svg">
<path d="M11.9811 33C5.36206 33 0 38.3705 0 45C0 51.6295 5.36206 57 11.9811 57C18.6001 57 23.9621 51.6295 23.9621 45C23.9621 38.3705 18.6001 33 11.9811 33ZM13.0637 47.0376C13.3761 47.3287 13.5723 47.7435 13.5723 48.2092C13.5723 49.0898 12.8602 49.8029 11.9811 49.8029C11.5161 49.8029 11.1019 49.6064 10.8113 49.2935C10.2664 48.8205 9.55434 48.5367 8.77692 48.5367C7.99949 48.5367 7.28746 48.8205 6.74253 49.2935C6.71347 49.3299 6.67714 49.359 6.64808 49.3881C6.36472 49.6428 5.9869 49.8029 5.58003 49.8029C5.16588 49.8029 4.79534 49.6428 4.51197 49.3881C4.43932 49.3226 4.36666 49.2426 4.30854 49.1625C4.294 49.1407 4.27947 49.1189 4.26494 49.097C4.23588 49.0534 4.20682 49.0097 4.18502 48.966C4.13416 48.8787 4.09783 48.7768 4.0615 48.6822C4.01791 48.5294 3.98885 48.3766 3.98885 48.2092C3.98885 48.0418 4.01064 47.8817 4.0615 47.7362C4.09057 47.6343 4.13416 47.5397 4.18502 47.4524C4.20682 47.4087 4.23588 47.3651 4.26494 47.3214C4.27947 47.2996 4.294 47.2777 4.30854 47.2559C4.3376 47.2122 4.37393 47.1759 4.40299 47.1395C4.44658 47.0885 4.49744 47.0449 4.5483 47.0012C4.99877 46.4627 5.2676 45.7641 5.2676 45.0073C5.2676 44.2505 4.99877 43.5519 4.5483 43.0133C4.20682 42.7223 3.99611 42.2856 3.99611 41.8053C3.99611 40.9248 4.70815 40.2116 5.58729 40.2116C6.46644 40.2116 7.17847 40.9248 7.17847 41.8053C7.17847 42.2711 6.9823 42.6859 6.66988 42.977C6.19761 43.5227 5.91425 44.2359 5.91425 45.0146C5.91425 45.7932 6.19761 46.5064 6.66988 47.0522C6.7062 47.0813 6.73527 47.1176 6.76433 47.1468C6.77159 47.1613 6.78613 47.1686 6.79339 47.1831C7.33105 47.6343 8.02855 47.9036 8.78418 47.9036C9.53981 47.9036 10.2373 47.6343 10.775 47.1831C10.8258 47.1249 10.884 47.0667 10.9493 47.0085C11.3998 46.47 11.6686 45.7714 11.6686 45.0146C11.6686 44.2577 11.3998 43.5591 10.9493 43.0206C10.6079 42.7295 10.3972 42.2929 10.3972 41.8126C10.3972 40.9321 11.1092 40.2189 11.9883 40.2189C12.8675 40.2189 13.5795 40.9321 13.5795 41.8126C13.5795 42.2784 13.3833 42.6931 13.0709 42.9842C12.5987 43.53 12.3153 44.2432 12.3153 45.0218C12.308 45.7787 12.5914 46.4918 13.0637 47.0376ZM15.178 46.5937C14.2988 46.5937 13.5868 45.8805 13.5868 45C13.5868 44.1195 14.2988 43.4063 15.178 43.4063C16.0571 43.4063 16.7691 44.1195 16.7691 45C16.7691 45.8805 16.0571 46.5937 15.178 46.5937ZM19.4574 47.0376C19.4938 47.0667 19.5228 47.1031 19.5519 47.1322C19.5882 47.1686 19.6173 47.2123 19.6463 47.2486C19.6609 47.2705 19.6754 47.2923 19.6899 47.3141C19.719 47.3578 19.7481 47.4015 19.7699 47.4451C19.8207 47.5324 19.857 47.6343 19.8934 47.7289C19.937 47.8817 19.966 48.0346 19.966 48.2019C19.966 48.3693 19.9442 48.5294 19.8934 48.675C19.8643 48.7768 19.8207 48.8714 19.7699 48.9588C19.7481 49.0024 19.719 49.0461 19.6899 49.0898C19.6754 49.1116 19.6609 49.1334 19.6463 49.1552C19.5882 49.2353 19.5156 49.3153 19.4429 49.3808C19.1595 49.6355 18.7817 49.7956 18.3749 49.7956C17.9607 49.7956 17.5902 49.6355 17.3068 49.3808C17.2341 49.3153 17.1615 49.2353 17.1034 49.1552C17.0888 49.1334 17.0743 49.1116 17.0598 49.0898C17.0307 49.0461 17.0016 49.0024 16.9798 48.9588C16.929 48.8714 16.8927 48.7696 16.8563 48.675C16.8127 48.5221 16.7837 48.3693 16.7837 48.2019C16.7837 48.0346 16.8055 47.8745 16.8563 47.7289C16.8854 47.627 16.929 47.5324 16.9798 47.4451C17.0016 47.4015 17.0307 47.3578 17.0598 47.3141C17.0743 47.2923 17.0888 47.2705 17.1034 47.2486C17.1324 47.205 17.1688 47.1686 17.1978 47.1322C17.2414 47.0813 17.2923 47.0376 17.3431 46.9939C17.7936 46.4554 18.0624 45.7568 18.0624 45C18.0624 44.2432 17.7936 43.5446 17.3431 43.0061C17.0016 42.715 16.7909 42.2784 16.7909 41.7981C16.7909 40.9175 17.503 40.2044 18.3821 40.2044C19.2613 40.2044 19.9733 40.9175 19.9733 41.7981C19.9733 42.2638 19.7771 42.6786 19.4647 42.9697C18.9924 43.5155 18.7091 44.2286 18.7091 45.0073C18.7091 45.7787 18.9924 46.4918 19.4574 47.0376Z" fill="#F7D670"/>
<path d="M34.3955 54.0018V35.9982H38.9947V50.3997H47.0886V53.9946H34.3955V54.0018Z" fill="#F7D670"/>
<path d="M127.091 54.0091L118.103 45.0073L127.083 36.0128L120.573 36.02L114.899 41.7035V35.9982H110.3V54.0018H114.899V48.3184L120.588 54.0091H127.091Z" fill="#F7D670"/>
<path d="M74.7709 50.4869L73.6665 54.0018H68.8857L75.1124 36.0054H81.2446L87.5003 54.0018H82.7195L81.6152 50.4869L80.5108 47.1103L78.1785 39.5712L75.8172 47.1103L74.7709 50.4869Z" fill="#F7D670"/>
<path d="M94.9109 42.1619V53.9946H90.5225V35.9982H96.1679L102.881 48.3984V35.9982H107.27V53.9946H101.595L94.9109 42.1619Z" fill="#F7D670"/>
<path d="M65.5145 47.0376C65.282 46.4772 64.9841 46.0115 64.6136 45.6404C64.243 45.2692 63.8216 44.9854 63.3494 44.7744C62.8771 44.5706 62.3976 44.4251 61.918 44.3378C62.383 44.2504 62.819 44.1122 63.2186 43.9084C63.6254 43.7119 63.9742 43.4499 64.2721 43.137C64.57 42.8168 64.8098 42.4384 64.9841 41.9872C65.1585 41.5433 65.2384 41.0121 65.2384 40.4154C65.2384 39.8478 65.1512 39.2947 64.9696 38.7635C64.788 38.2322 64.4828 37.7592 64.0396 37.359C63.6037 36.9515 63.0224 36.624 62.3031 36.3766C61.5838 36.1291 60.6901 36.0054 59.6221 36.0054H54.7178H52.2038H50.1113V54.0018H52.2038H54.7178H60.2905C62.1142 54.0018 63.4947 53.5652 64.4392 52.6992C65.3837 51.8332 65.856 50.6106 65.856 49.0461C65.856 48.2674 65.747 47.5979 65.5145 47.0376ZM54.7178 38.8726H59.5422C59.9708 38.8726 60.3341 38.9308 60.6393 39.04C60.9372 39.1492 61.1842 39.302 61.3731 39.4912C61.562 39.6804 61.7001 39.8914 61.7872 40.1243C61.8744 40.3572 61.918 40.6046 61.918 40.8593C61.918 41.4415 61.7436 41.929 61.3876 42.3147C61.0389 42.7004 60.4213 42.8969 59.5422 42.8969H54.7178V38.8726ZM61.9398 50.2104C61.5911 50.5961 60.9735 50.7926 60.0943 50.7926H54.7178V46.761H60.0943C60.523 46.761 60.8863 46.8193 61.1915 46.9284C61.4893 47.0376 61.7364 47.1904 61.9253 47.3796C62.1142 47.5688 62.2522 47.7798 62.3394 48.0127C62.4266 48.2456 62.4702 48.493 62.4702 48.7477C62.4702 49.3371 62.2886 49.8174 61.9398 50.2104Z" fill="#F7D670"/>
</svg>
