<svg width="110" height="90" viewBox="0 0 110 90" fill="none" xmlns="http://www.w3.org/2000/svg">
<path d="M0 29L14.0372 29.6713L27.8814 32.9303L0 29Z" fill="#00358D"/>
<path d="M1.02946 47.3251L0 29L7.81212 61.11L1.02946 47.3251Z" fill="#064FA2"/>
<path d="M27.8817 32.9307L23.8175 50.4001L7.8125 61.1103L15.3887 38.3114L27.8817 32.9307Z" fill="#0B80CA"/>
<path d="M15.3884 38.3112L7.81216 61.11L0 29L15.3884 38.3112Z" fill="#139DE0"/>
<path d="M15.3884 38.3109L0 29L27.8814 32.9304L15.3884 38.3109Z" fill="#0969B6"/>
<path d="M48.9791 53.797C47.703 54.0839 46.3947 54.2223 45.0811 54.212C43.7084 54.2274 42.3412 54.0019 41.0543 53.551C39.8801 53.1359 38.8024 52.5005 37.8855 51.6806C36.9955 50.8658 36.2877 49.8819 35.8159 48.7904C35.3065 47.6015 35.0491 46.3255 35.0706 45.0393C35.0491 43.7428 35.3065 42.4515 35.8266 41.2524C36.3038 40.1609 37.0223 39.177 37.9231 38.3622C38.8292 37.5576 39.9016 36.9325 41.0651 36.5276C42.309 36.0921 43.628 35.8768 44.9524 35.8871C46.3196 35.8768 47.6762 36.0869 48.9684 36.5174C50.089 36.8761 51.1131 37.4552 51.9763 38.2238L49.1989 41.2524C48.7271 40.7502 48.148 40.3505 47.4992 40.084C46.7432 39.7714 45.9282 39.6177 45.1079 39.6279C44.3733 39.6177 43.6387 39.756 42.9631 40.0327C42.3358 40.2941 41.7621 40.6682 41.2849 41.1396C40.797 41.6367 40.4163 42.2209 40.1696 42.8614C39.8962 43.5583 39.7568 44.2963 39.7675 45.0393C39.7621 45.7926 39.8801 46.5408 40.1268 47.2531C40.3519 47.8987 40.7165 48.4881 41.1991 48.9851C41.687 49.4822 42.2822 49.8665 42.9471 50.1176C43.7031 50.3995 44.5127 50.5378 45.3277 50.5225C45.821 50.5225 46.3089 50.4866 46.7968 50.4148C47.2365 50.3431 47.6708 50.2252 48.0837 50.0561V46.8841H44.5931V43.4866H52.0997V52.7106C51.1077 53.1923 50.0622 53.5561 48.9791 53.797Z" fill="#0C1430"/>
<path d="M72.723 45.0147C72.7712 46.3881 72.471 47.7512 71.849 48.9862C71.2914 50.0521 70.4925 50.9848 69.5113 51.7176C68.5301 52.435 67.4202 52.968 66.2298 53.2908C65.0234 53.629 63.7741 53.8033 62.5195 53.8033H55.71V36.3799H62.2996C63.5811 36.3799 64.8572 36.5285 66.1065 36.8103C67.3076 37.0717 68.4443 37.5483 69.4523 38.2247C70.4657 38.9114 71.2914 39.8236 71.849 40.8843C72.4817 42.1757 72.782 43.5901 72.723 45.0147ZM68.144 45.0147C68.1708 44.1743 67.9992 43.3339 67.64 42.5652C67.3344 41.9554 66.8733 41.4275 66.2995 41.0278C65.7258 40.6384 65.0824 40.3565 64.3961 40.2028C63.6776 40.0388 62.9377 39.9568 62.1978 39.9568H60.0101V50.129H62.0959C62.8626 50.1341 63.624 50.047 64.3693 49.8727C65.0663 49.7139 65.7205 49.4269 66.2995 49.0221C66.8733 48.6121 67.3344 48.0689 67.64 47.4488C67.9992 46.6853 68.1708 45.85 68.144 45.0147Z" fill="#0C1430"/>
<path d="M87.3668 53.7717L85.9513 50.3537H78.9005L77.5601 53.7717H72.7773L80.4179 36.3486H84.7074L92.2729 53.7717H87.3668ZM82.4769 41.0067L80.1606 46.9818H84.7449L82.4769 41.0067Z" fill="#0C1430"/>
<path d="M106.365 53.4629C105.073 54.001 103.679 54.2624 102.268 54.2367C100.939 54.2521 99.6143 54.0215 98.3704 53.5705C96.0273 52.725 94.156 50.9878 93.2123 48.774C92.703 47.5903 92.451 46.3194 92.4671 45.0383C92.4456 43.7418 92.703 42.4504 93.2231 41.2513C93.7003 40.1598 94.4188 39.1759 95.3195 38.3611C96.2257 37.5566 97.298 36.9314 98.4616 36.5265C100.944 35.6656 103.662 35.6656 106.145 36.5265C107.303 36.9109 108.343 37.5668 109.169 38.4328L106.166 41.2974C105.759 40.7594 105.201 40.3443 104.558 40.0932C103.904 39.8318 103.207 39.6986 102.499 39.6986C101.764 39.6883 101.03 39.8267 100.354 40.1034C99.7269 40.3648 99.1586 40.744 98.6921 41.2257C98.2256 41.7176 97.861 42.2865 97.6197 42.9116C97.357 43.5932 97.223 44.3106 97.2337 45.0383C97.223 45.7762 97.357 46.509 97.6197 47.2008C97.8557 47.826 98.2203 48.4 98.6921 48.8868C99.1425 49.3531 99.6894 49.7272 100.301 49.9834C100.96 50.2499 101.668 50.3831 102.386 50.3729C103.18 50.3882 103.968 50.2089 104.676 49.8604C105.298 49.5581 105.834 49.1225 106.247 48.5844L109.308 51.3363C108.499 52.2382 107.496 52.9659 106.365 53.4629Z" fill="#0C1430"/>
</svg>
