<svg width="107" height="90" viewBox="0 0 107 90" fill="none" xmlns="http://www.w3.org/2000/svg">
<path d="M7.85325 33.1304C8.31082 33.1304 8.71456 33.1304 9.0624 33.1139C9.41024 33.0973 9.74978 33.087 10.0769 33.0663C10.404 33.0456 10.7312 33.0269 11.0583 33.0166C11.3855 33.0062 11.7333 33 12.1039 33C15.1806 33 17.427 33.5666 18.8432 34.6998C20.2594 35.8331 20.9682 37.5585 20.9696 39.876C20.9752 40.7355 20.8157 41.5881 20.4996 42.3875C20.1679 43.1923 19.632 43.8967 18.9447 44.431C18.1112 45.0661 17.1617 45.5324 16.1496 45.8037C14.79 46.1699 13.3853 46.3407 11.9776 46.311C11.2806 46.311 10.7084 46.2896 10.2612 46.2468C9.82502 46.2053 9.39295 46.1284 8.96923 46.017V52.3298C8.96923 53.9213 10.1031 54.717 12.371 54.717V56.1891H0.132512V54.717C2.20297 54.717 3.2382 53.9648 3.2382 52.4602V36.4659C3.2382 35.2471 2.1588 34.637 0 34.6357V33.1304H7.85325ZM8.96508 44.2509C9.4114 44.3619 9.86439 44.4442 10.3212 44.4973C10.8714 44.5553 11.4244 44.5822 11.9776 44.578C12.6981 44.578 13.2599 44.44 13.6629 44.1639C14.0607 43.8982 14.3729 43.5227 14.5615 43.0831C14.7692 42.5947 14.8964 42.0759 14.9384 41.5469C14.9922 40.9692 15.0212 40.3646 15.0212 39.7311C15.0328 38.9845 14.9634 38.2389 14.8141 37.5074C14.6956 36.9253 14.4369 36.3809 14.0605 35.9214C13.6673 35.4721 13.1591 35.1386 12.5905 34.9566C11.8229 34.7178 11.0212 34.6072 10.2177 34.6294C9.38953 34.6294 8.97544 35.1526 8.97544 36.1989L8.96508 44.2509Z" fill="#010216"/>
<path d="M24.9112 48.2095C24.6483 48.2095 24.5178 48.3068 24.5178 48.5035C24.51 49.2335 24.5794 49.9622 24.7249 50.6775C24.843 51.2861 25.0703 51.8683 25.3957 52.396C25.6883 52.8636 26.0924 53.2514 26.5718 53.5244C27.1145 53.8134 27.7232 53.9561 28.3378 53.9385C29.1906 53.958 30.0274 53.7056 30.7272 53.218C31.4267 52.7148 32.0352 52.0958 32.5264 51.3877L33.6382 52.1724C32.3545 54.8502 30.2958 56.1891 27.462 56.1891C26.3922 56.2016 25.3269 56.0472 24.3046 55.7315C23.4074 55.4548 22.5814 54.9856 21.8842 54.3567C21.2028 53.7232 20.6722 52.945 20.3314 52.0792C19.94 51.0628 19.7508 49.9797 19.7744 48.8907C19.7541 47.7419 19.9486 46.5994 20.348 45.5221C20.696 44.5916 21.2364 43.7449 21.9339 43.0375C22.6065 42.363 23.4145 41.8387 24.3046 41.4992C25.2301 41.1466 26.2129 40.969 27.2032 40.9754C28.2106 40.955 29.2134 41.1155 30.164 41.4495C30.9474 41.7306 31.6613 42.1769 32.2572 42.758C32.8192 43.3225 33.2497 44.004 33.5181 44.7539C33.8016 45.5569 33.9418 46.4035 33.9322 47.255V47.7147C33.9317 47.8788 33.9206 48.0427 33.8991 48.2054L24.9112 48.2095ZM28.1163 46.7374C28.4244 46.7498 28.7266 46.6506 28.9673 46.4579C29.0811 46.3538 29.1697 46.225 29.2263 46.0816C29.283 45.9381 29.3063 45.7836 29.2944 45.6297C29.2962 45.2383 29.2629 44.8475 29.195 44.462C29.1393 44.1191 29.0229 43.7889 28.8513 43.4868C28.6883 43.2065 28.4512 42.9765 28.166 42.8222C27.8266 42.6498 27.4492 42.5657 27.0687 42.5779C26.6292 42.5604 26.1951 42.6798 25.8264 42.9195C25.4969 43.1496 25.2278 43.4557 25.0417 43.8119C24.8343 44.2076 24.6944 44.6352 24.6276 45.0769C24.5507 45.5604 24.5127 46.0492 24.5137 46.5387C24.5137 46.667 24.6876 46.7333 25.0375 46.7333L28.1163 46.7374Z" fill="#010216"/>
<path d="M39.9806 48.2095C39.7176 48.2095 39.5872 48.3068 39.5872 48.5035C39.5794 49.2334 39.6488 49.9622 39.7942 50.6775C39.9124 51.2861 40.1396 51.8683 40.4651 52.396C40.7582 52.8632 41.1622 53.2508 41.6411 53.5244C42.1845 53.8136 42.7939 53.9563 43.4093 53.9385C44.2613 53.9576 45.0973 53.7053 45.7965 53.218C46.4961 52.7148 47.1046 52.0958 47.5957 51.3877L48.7075 52.1724C47.4239 54.8502 45.3651 56.1891 42.5314 56.1891C41.4615 56.2013 40.3963 56.0469 39.3739 55.7315C38.4767 55.4547 37.6507 54.9856 36.9536 54.3567C36.2722 53.7232 35.7415 52.9449 35.4007 52.0792C35.0093 51.0628 34.8201 49.9796 34.8438 48.8907C34.8234 47.7419 35.0179 46.5994 35.4173 45.5221C35.7653 44.5915 36.3057 43.7449 37.0033 43.0375C37.6759 42.3629 38.4839 41.8386 39.3739 41.4992C40.2994 41.1466 41.2823 40.969 42.2726 40.9753C43.2792 40.9551 44.2813 41.1157 45.2313 41.4495C46.0147 41.7306 46.7286 42.1769 47.3245 42.758C47.8864 43.3225 48.317 44.004 48.5854 44.7539C48.8724 45.5563 49.0161 46.4029 49.0098 47.255V47.7147C49.0093 47.8788 48.9983 48.0427 48.9767 48.2054L39.9806 48.2095ZM43.1856 46.7374C43.4934 46.7504 43.7956 46.6519 44.0366 46.46C44.1504 46.3558 44.239 46.2271 44.2957 46.0836C44.3523 45.9401 44.3756 45.7856 44.3637 45.6318C44.3655 45.2404 44.3322 44.8496 44.2644 44.4641C44.2086 44.1212 44.0922 43.7909 43.9207 43.4889C43.7576 43.2085 43.5205 42.9786 43.2353 42.8243C42.8959 42.6518 42.5185 42.5678 42.138 42.5799C41.6985 42.5625 41.2645 42.6818 40.8957 42.9216C40.5663 43.1517 40.2971 43.4577 40.111 43.8139C39.9036 44.2097 39.7637 44.6372 39.6969 45.079C39.6201 45.5624 39.582 46.0512 39.583 46.5407C39.583 46.6691 39.757 46.7353 40.1069 46.7353L43.1856 46.7374Z" fill="#010216"/>
<path d="M59.859 43.99C59.5779 43.9767 59.2973 44.0254 59.0372 44.1328C58.7771 44.2401 58.5438 44.4034 58.3538 44.6111C57.9714 45.0464 57.6774 45.552 57.4884 46.0998C57.2772 46.6853 57.1381 47.2943 57.0743 47.9135C57.0108 48.547 56.9783 49.0923 56.977 49.5491V53.1476C56.977 54.1939 57.8383 54.717 59.5609 54.717V56.1891H50.2086V54.717C51.6704 54.717 52.4013 54.1504 52.4013 53.0172V45.9527C52.4013 44.4689 51.6379 43.727 50.1113 43.727V42.4516L56.9811 41.3066V44.1804C57.1551 43.8387 57.3632 43.5154 57.6022 43.2156C57.8616 42.8783 58.1574 42.5707 58.4843 42.2984C58.8084 42.0295 59.1661 41.804 59.5485 41.6276C59.923 41.455 60.3307 41.3659 60.7431 41.3667C62.6162 41.3667 63.5534 42.2059 63.5548 43.8844C63.5548 45.3226 62.9551 46.0425 61.7556 46.0438C60.6872 46.0438 60.153 45.5421 60.153 44.5386V44.2612C60.1522 44.1677 60.1633 44.0744 60.1862 43.9837L59.859 43.99Z" fill="#010216"/>
<path d="M71.3171 41.503H73.8016C74.0933 41.4994 74.3839 41.4668 74.6691 41.4057C74.9753 41.3426 75.2759 41.2547 75.5677 41.1427V43.2359H71.3171V51.905C71.3171 52.1451 71.3171 52.3832 71.3336 52.6234C71.3405 52.8507 71.3963 53.0739 71.4972 53.2777C71.5973 53.478 71.7497 53.6475 71.9382 53.7684C72.1957 53.9186 72.4914 53.9905 72.7892 53.9754C73.0899 53.9715 73.3867 53.9072 73.662 53.7863C73.9373 53.6653 74.1854 53.4902 74.3917 53.2714C74.8759 52.7919 75.1863 52.1646 75.2737 51.4888L76.4849 51.8822C76.4941 52.5192 76.3303 53.1468 76.0108 53.698C75.6952 54.2313 75.2722 54.6931 74.7685 55.0541C74.2326 55.4363 73.6353 55.7241 73.0024 55.9051C72.3486 56.0999 71.6701 56.1989 70.9879 56.1991C70.4433 56.2049 69.9005 56.1352 69.375 55.992C68.8908 55.8612 68.4337 55.6453 68.0251 55.3543C67.6272 55.0712 67.3045 54.6953 67.0851 54.2591C66.8434 53.7661 66.7248 53.2219 66.7393 52.6731V43.2525H64.5156L64.6792 41.8467C65.2503 41.742 65.7984 41.5373 66.2983 41.2421C66.867 40.9167 67.3963 40.527 67.876 40.0806C68.3702 39.6216 68.8019 39.0995 69.1597 38.5277C69.5139 37.972 69.765 37.3568 69.9009 36.7119L71.3191 36.5049L71.3171 41.503Z" fill="#010216"/>
<path d="M82.7149 48.2095C82.452 48.2095 82.3215 48.3068 82.3215 48.5035C82.3137 49.2334 82.3831 49.9622 82.5286 50.6775C82.6467 51.2861 82.874 51.8683 83.1994 52.396C83.4926 52.8632 83.8965 53.2508 84.3755 53.5244C84.9189 53.8136 85.5283 53.9563 86.1436 53.9385C86.9957 53.9576 87.8317 53.7053 88.5308 53.218C89.2304 52.7148 89.8389 52.0958 90.3301 51.3877L91.4419 52.1724C90.1582 54.8502 88.0995 56.1891 85.2658 56.1891C84.1959 56.2013 83.1307 56.0469 82.1083 55.7315C81.2111 55.4547 80.3851 54.9856 79.6879 54.3567C79.0065 53.7232 78.4759 52.9449 78.1351 52.0792C77.7437 51.0628 77.5545 49.9796 77.5781 48.8907C77.5578 47.7419 77.7523 46.5994 78.1516 45.5221C78.4997 44.5915 79.0401 43.7449 79.7376 43.0375C80.4102 42.3629 81.2182 41.8386 82.1083 41.4992C83.0338 41.1466 84.0166 40.969 85.007 40.9753C86.0136 40.9551 87.0157 41.1157 87.9656 41.4495C88.7491 41.7306 89.4629 42.1769 90.0588 42.758C90.6208 43.3225 91.0513 44.004 91.3198 44.7539C91.6033 45.5569 91.7434 46.4035 91.7339 47.255V47.7147C91.7334 47.8788 91.7223 48.0427 91.7007 48.2054L82.7149 48.2095ZM85.92 46.7374C86.2278 46.7504 86.53 46.6519 86.771 46.46C86.8848 46.3558 86.9734 46.2271 87.03 46.0836C87.0867 45.9401 87.11 45.7856 87.0981 45.6318C87.0999 45.2404 87.0666 44.8496 86.9987 44.4641C86.943 44.1212 86.8266 43.7909 86.655 43.4889C86.492 43.2085 86.2549 42.9786 85.9697 42.8243C85.6303 42.6518 85.2529 42.5678 84.8724 42.5799C84.4329 42.5625 83.9988 42.6818 83.6301 42.9216C83.3006 43.1517 83.0315 43.4577 82.8454 43.8139C82.638 44.2097 82.4981 44.6372 82.4313 45.079C82.3544 45.5624 82.3163 46.0512 82.3174 46.5407C82.3174 46.6691 82.4913 46.7353 82.8412 46.7353L85.92 46.7374Z" fill="#010216"/>
<path d="M106.009 52.4276C105.764 53.0558 105.403 53.6329 104.947 54.1295C104.511 54.5998 104.003 54.9975 103.442 55.3076C102.897 55.6077 102.314 55.8326 101.709 55.9764C101.135 56.1136 100.547 56.1831 99.9572 56.1834C98.9818 56.192 98.0126 56.0258 97.0958 55.6927C96.2436 55.3871 95.4669 54.902 94.8183 54.2703C94.1612 53.6117 93.6535 52.8195 93.3297 51.9473C92.9547 50.9383 92.7715 49.8682 92.7893 48.7919C92.7893 46.219 93.5146 44.2348 94.9653 42.8393C96.416 41.4438 98.4603 40.7461 101.098 40.7461C101.669 40.7463 102.236 40.8286 102.783 40.9904C103.314 41.1431 103.817 41.3809 104.272 41.6944C104.685 41.9819 105.037 42.3485 105.307 42.7731C105.572 43.1944 105.708 43.6835 105.701 44.181C105.699 44.431 105.643 44.6777 105.536 44.9035C105.428 45.1293 105.273 45.3287 105.08 45.4874C104.698 45.846 104.195 46.0452 103.672 46.0444C102.583 46.0444 102.037 45.4667 102.036 44.3114C102.045 44.1573 102.067 44.0043 102.102 43.8539C102.143 43.6598 102.166 43.4622 102.168 43.2638C102.172 43.0885 102.121 42.9164 102.02 42.7724C101.92 42.6284 101.777 42.5199 101.611 42.4625C101.251 42.3014 100.861 42.2181 100.467 42.2182C99.9288 42.1917 99.4016 42.3734 98.9944 42.7255C98.6095 43.0835 98.3126 43.5257 98.1269 44.0174C97.9091 44.5788 97.7698 45.1675 97.7128 45.767C97.5681 47.1922 97.5848 48.6292 97.7625 50.0507C97.839 50.7309 98.0264 51.394 98.3174 52.0135C98.5687 52.543 98.9514 52.9992 99.4292 53.3386C99.9583 53.6827 100.581 53.8542 101.212 53.8293C102.607 53.8293 103.774 53.1316 104.713 51.7361L106.009 52.4276Z" fill="#010216"/>
</svg>
