<svg width="123" height="90" viewBox="0 0 123 90" fill="none" xmlns="http://www.w3.org/2000/svg">
<path d="M13.1728 59.5779L0 54.4745L19.9773 38.8154L33.1502 43.9188L13.1728 59.5779Z" fill="#FFC600"/>
<path d="M13.1728 59.5761L0 54.4727V31.0059L13.1728 36.0656V59.5761Z" fill="#A4DE10"/>
<path d="M0 54.4743L13.1728 59.5777V44.1367L0 54.4743Z" fill="#8DC63F"/>
<path d="M39.6484 37.2003C39.6484 36.0662 39.7793 35.063 40.041 34.147C40.3027 33.231 40.6517 32.4895 41.1315 31.8352C41.6113 31.2246 42.1783 30.7447 42.8762 30.3958C43.5741 30.0468 44.3593 29.8724 45.2316 29.8724C46.104 29.8724 46.8891 30.0468 47.587 30.3958C48.2849 30.7447 48.852 31.2246 49.3318 31.8352C49.8116 32.4459 50.1605 33.231 50.4222 34.147C50.684 35.063 50.8148 36.0662 50.8148 37.2003C50.8148 38.3344 50.684 39.3376 50.4222 40.2536C50.1605 41.1696 49.8116 41.9111 49.3318 42.5654C48.852 43.1761 48.2849 43.6559 47.587 44.0048C46.8891 44.3538 46.104 44.4846 45.2316 44.4846C44.3593 44.4846 43.5741 44.3102 42.8762 44.0048C42.1783 43.6559 41.6113 43.1761 41.1315 42.5654C40.6517 41.9547 40.3027 41.1696 40.041 40.2536C39.7793 39.3376 39.6484 38.3344 39.6484 37.2003ZM42.2219 37.2003C42.2219 37.9418 42.3092 38.5961 42.44 39.2068C42.5709 39.8174 42.7454 40.3409 43.0071 40.7334C43.2688 41.1696 43.5741 41.4749 43.9667 41.7367C44.3593 41.9984 44.7954 42.0856 45.2752 42.0856C45.7551 42.0856 46.1912 41.9547 46.5402 41.7367C46.8891 41.4749 47.2381 41.1696 47.4998 40.7334C47.7615 40.2972 47.936 39.7738 48.0668 39.2068C48.1977 38.5961 48.2413 37.9418 48.2413 37.2003C48.2413 35.7609 47.9796 34.5832 47.4998 33.6672C46.9764 32.7948 46.2349 32.3586 45.2752 32.3586C44.272 32.3586 43.5305 32.7948 43.0071 33.6672C42.4836 34.5832 42.2219 35.7609 42.2219 37.2003ZM53.3447 47.9741V29L56.0054 30.5267V36.0662H59.4513V38.5089H56.0054V48.0177H53.3447V47.9741Z" fill="#2D2D2D"/>
<path d="M62.1123 37.2003C62.1123 36.0662 62.2432 35.063 62.5049 34.147C62.7666 33.231 63.1155 32.4895 63.5953 31.8352C64.0751 31.2246 64.6422 30.7447 65.3401 30.3958C66.038 30.0468 66.8231 29.8724 67.6955 29.8724C68.5679 29.8724 69.353 30.0468 70.0509 30.3958C70.7488 30.7447 71.3159 31.2246 71.7957 31.8352C72.2755 32.4459 72.6244 33.231 72.8861 34.147C73.1478 35.063 73.2787 36.0662 73.2787 37.2003C73.2787 38.3344 73.1478 39.3376 72.8861 40.2536C72.6244 41.1696 72.2755 41.9111 71.7957 42.5654C71.3159 43.1761 70.7488 43.6559 70.0509 44.0048C69.353 44.3538 68.5679 44.4846 67.6955 44.4846C66.8231 44.4846 66.038 44.3102 65.3401 44.0048C64.6422 43.6559 64.0751 43.1761 63.5953 42.5654C63.1155 41.9547 62.7666 41.1696 62.5049 40.2536C62.2432 39.3812 62.1123 38.3344 62.1123 37.2003ZM64.6858 37.2003C64.6858 37.9418 64.773 38.5961 64.9039 39.2068C65.0348 39.8174 65.2092 40.3409 65.4709 40.7334C65.7327 41.1696 66.038 41.4749 66.4306 41.7367C66.8231 41.9984 67.2593 42.0856 67.7391 42.0856C68.2189 42.0856 68.6551 41.9547 69.0041 41.7367C69.353 41.4749 69.702 41.1696 69.9637 40.7334C70.2254 40.2972 70.3999 39.7738 70.5307 39.2068C70.6616 38.5961 70.7052 37.9418 70.7052 37.2003C70.7052 35.7609 70.4435 34.5832 69.9637 33.6672C69.4402 32.7948 68.6987 32.3586 67.7391 32.3586C66.7359 32.3586 65.9944 32.7948 65.4709 33.6672C64.9475 34.5832 64.6858 35.7609 64.6858 37.2003ZM76.2448 47.9741V29L78.9055 30.5267V47.9741H76.2448Z" fill="#2D2D2D"/>
<path d="M91.2049 48.41V43.0013H83.3535V40.5586H101.717V43.0013H93.822V48.41H91.2049ZM85.4036 38.683V29.3486L87.9771 30.8753V32.053H97.0934V29.3486L99.6669 30.8753V38.7266H85.4036V38.683ZM97.0934 34.452H87.9771V36.3276H97.0934V34.452Z" fill="#2D2D2D"/>
<path d="M110.701 44.8336C111.05 43.874 111.312 42.7835 111.573 41.6494C111.791 40.5153 112.01 39.3376 112.184 38.2035C111.355 38.2908 110.352 38.378 109.044 38.4216C107.779 38.4653 106.47 38.5089 105.074 38.5089V36.1535C105.772 36.1535 106.47 36.1535 107.168 36.1535C107.866 36.1535 108.52 36.1098 109.174 36.1098C109.829 36.0662 110.396 36.0662 110.963 36.0226C111.53 35.979 112.01 35.9354 112.446 35.8917C112.489 35.2375 112.533 34.6268 112.577 34.0161C112.62 33.4491 112.62 32.9257 112.664 32.4459H105.292V30.0032H115.325C115.325 31.0501 115.281 32.2714 115.194 33.58C115.107 34.8885 114.976 36.2407 114.845 37.6365C114.67 39.0323 114.496 40.3845 114.234 41.693C113.972 43.0016 113.711 44.2229 113.362 45.2698L110.701 44.8336ZM119.425 47.9741V29L122.086 30.5267V47.9741H119.425Z" fill="#2D2D2D"/>
<path d="M43.4014 61.4526V53.8193L44.5355 54.5609V61.4526H43.4014Z" fill="#2D2D2D"/>
<path d="M57.4895 58.0946C57.1841 57.7457 56.7479 57.5712 56.2681 57.484V57.4403C56.4426 57.3967 56.6171 57.3095 56.7916 57.2222C56.966 57.135 57.0969 57.0041 57.2277 56.8733C57.3586 56.7424 57.4458 56.568 57.5331 56.3499C57.6203 56.1754 57.6639 55.9137 57.6639 55.652C57.6639 55.3466 57.6203 55.0413 57.4895 54.8232C57.3586 54.6051 57.1841 54.387 57.0096 54.2562C56.7916 54.0817 56.5735 53.9945 56.3118 53.9072C56.05 53.82 55.7447 53.7764 55.4394 53.7764H52.5605V60.6681L53.651 61.4096H55.5266C55.9628 61.4096 56.3554 61.366 56.6607 61.2352C56.966 61.1479 57.2277 60.9734 57.4458 60.799C57.6639 60.6245 57.7948 60.4064 57.882 60.1447C57.9693 59.883 58.0129 59.6213 58.0129 59.3596C57.9693 58.8361 57.7948 58.3999 57.4895 58.0946ZM53.651 54.8668H54.916C55.134 54.8668 55.3085 54.8668 55.5266 54.9105C55.7011 54.9541 55.8756 54.9977 56.0064 55.0413C56.1373 55.1285 56.2681 55.2158 56.3554 55.3466C56.4426 55.4775 56.4862 55.652 56.4862 55.9137C56.4862 56.1318 56.4426 56.3062 56.3554 56.4371C56.2681 56.568 56.1809 56.6988 56.0064 56.7861C55.8756 56.8733 55.7011 56.9169 55.5266 56.9605C55.3521 57.0041 55.134 57.0041 54.9596 57.0041H53.651V54.8668V54.8668ZM56.7043 59.8394C56.6171 60.0138 56.5298 60.1011 56.3554 60.1883C56.2245 60.2755 56.0064 60.3192 55.7883 60.3628C55.5702 60.4064 55.3085 60.4064 55.0032 60.4064H53.651V58.0074H54.6106C54.916 58.0074 55.2213 58.0074 55.5266 58.051C55.7883 58.0946 56.05 58.1382 56.2245 58.2255C56.399 58.3127 56.5735 58.4436 56.7043 58.5744C56.8352 58.7489 56.8788 58.967 56.8788 59.2287C56.7916 59.4468 56.7916 59.6649 56.7043 59.8394Z" fill="#2D2D2D"/>
<path d="M71.3205 57.6148C71.3205 58.1818 71.2332 58.7489 71.1024 59.2287C70.9715 59.7085 70.7534 60.1011 70.4917 60.45C70.23 60.799 69.8811 61.0607 69.4449 61.2352C69.0087 61.4096 68.5289 61.5405 68.0054 61.5405C67.4384 61.5405 67.0022 61.4532 66.566 61.2788C66.1735 61.1043 65.8245 60.8426 65.5192 60.4936C65.2575 60.1447 65.0394 59.7521 64.9085 59.2723C64.7777 58.7925 64.6904 58.2691 64.6904 57.6584C64.6904 57.0478 64.7777 56.5243 64.9085 56.0445C65.0394 55.5647 65.2575 55.1285 65.5192 54.7796C65.7809 54.4306 66.1298 54.1689 66.566 53.9508C66.9586 53.7764 67.482 53.6455 68.0054 53.6455C68.5725 53.6455 69.0523 53.7327 69.4449 53.9508C69.8811 54.1253 70.23 54.4306 70.4917 54.7796C70.7534 55.1285 70.9715 55.5211 71.1024 56.0445C71.2332 56.5243 71.3205 57.0478 71.3205 57.6148ZM65.8245 57.6148C65.8245 58.0074 65.8681 58.3563 65.9554 58.7053C66.0426 59.0542 66.1735 59.3596 66.3479 59.6213C66.5224 59.883 66.7405 60.1011 67.0022 60.2319C67.2639 60.4064 67.6129 60.45 68.0054 60.45C68.398 60.45 68.747 60.3628 69.0087 60.2319C69.2704 60.0574 69.4885 59.883 69.663 59.6213C69.8374 59.3596 69.9683 59.0542 70.0119 58.7053C70.0991 58.3563 70.1428 58.0074 70.1428 57.6148C70.1428 57.2222 70.0991 56.8733 70.0119 56.5243C69.9247 56.1754 69.8374 55.8701 69.663 55.6083C69.4885 55.3466 69.2704 55.1285 69.0087 54.9541C68.747 54.7796 68.398 54.736 68.0054 54.736C67.6129 54.736 67.2639 54.8232 67.0022 54.9541C66.7405 55.1285 66.5224 55.3466 66.3479 55.6083C66.1735 55.8701 66.0426 56.1754 65.9554 56.5243C65.8681 56.8733 65.8245 57.2659 65.8245 57.6148Z" fill="#2D2D2D"/>
<path d="M84.6183 57.6148C84.6183 58.1818 84.5311 58.7489 84.4002 59.2287C84.2694 59.7085 84.0513 60.1011 83.7896 60.45C83.5278 60.799 83.1789 61.0607 82.7427 61.2352C82.3065 61.4096 81.8267 61.5405 81.3033 61.5405C80.7363 61.5405 80.3001 61.4532 79.8639 61.2788C79.4713 61.1043 79.1224 60.8426 78.817 60.4936C78.5553 60.1447 78.3372 59.7521 78.2064 59.2723C78.0755 58.7925 77.9883 58.2691 77.9883 57.6584C77.9883 57.0478 78.0755 56.5243 78.2064 56.0445C78.3372 55.5647 78.5553 55.1285 78.817 54.7796C79.0787 54.4306 79.4277 54.1689 79.8639 53.9508C80.2565 53.7764 80.7799 53.6455 81.3033 53.6455C81.8703 53.6455 82.3501 53.7327 82.7427 53.9508C83.1789 54.1253 83.5278 54.4306 83.7896 54.7796C84.0513 55.1285 84.2694 55.5211 84.4002 56.0445C84.5311 56.5243 84.6183 57.0478 84.6183 57.6148ZM79.1224 57.6148C79.1224 58.0074 79.166 58.3563 79.2532 58.7053C79.3405 59.0542 79.4713 59.3596 79.6458 59.6213C79.8203 59.883 80.0384 60.1011 80.3001 60.2319C80.5618 60.4064 80.9107 60.45 81.3033 60.45C81.6959 60.45 82.0448 60.3628 82.3065 60.2319C82.5682 60.0574 82.7863 59.883 82.9608 59.6213C83.1353 59.3596 83.2661 59.0542 83.3098 58.7053C83.397 58.3563 83.4406 58.0074 83.4406 57.6148C83.4406 57.2222 83.397 56.8733 83.3098 56.5243C83.2225 56.1754 83.1353 55.8701 82.9608 55.6083C82.7863 55.3466 82.5682 55.1285 82.3065 54.9541C82.0448 54.7796 81.6959 54.736 81.3033 54.736C80.9107 54.736 80.5618 54.8232 80.3001 54.9541C80.0384 55.1285 79.8203 55.3466 79.6458 55.6083C79.4713 55.8701 79.3405 56.1754 79.2532 56.5243C79.166 56.8733 79.1224 57.2659 79.1224 57.6148Z" fill="#2D2D2D"/>
<path d="M92.9085 61.4526H91.7744V53.8193H92.9085V57.0471L95.5692 53.8193H96.8778L93.999 57.2652L97.1831 61.4526H95.7001L92.8649 57.5269V61.4526H92.9085Z" fill="#2D2D2D"/>
<path d="M105.297 60.4058V58.0067H109.136V56.9599H105.297V54.8662H109.31V53.8193H104.207V60.7111L105.297 61.4526H109.441V60.4058H105.297Z" fill="#2D2D2D"/>
<path d="M117.946 60.4058V58.0067H121.784V56.9599H117.946V54.8662H121.915V53.8193H116.812V60.7111L117.946 61.4526H122.089V60.4058H117.946Z" fill="#2D2D2D"/>
</svg>
