<svg width="126" height="90" viewBox="0 0 126 90" fill="none" xmlns="http://www.w3.org/2000/svg">
<path d="M18.455 39.8545L15.6806 38.2579C15.2356 37.9962 14.4766 37.9962 14.0054 38.2579L11.2572 39.8545C10.6552 40.1948 10.6552 40.7706 11.2572 41.1109L14.0316 42.7337C14.4766 42.9954 15.2356 42.9954 15.7067 42.7337L18.4812 41.1109C19.057 40.7706 19.057 40.221 18.455 39.8545Z" fill="#4231C8"/>
<path d="M29.2363 37.8653L15.8614 30.1963C15.3903 29.9346 14.6574 29.9346 14.1863 30.1963L0.837567 37.8653C0.366436 38.127 0 38.7814 0 39.3049V54.669C0 55.1925 0.366436 55.8468 0.837567 56.1085L14.2125 63.8037C14.6836 64.0654 15.4165 64.0654 15.8876 63.8037L29.2625 56.1085C29.7336 55.8468 30.1001 55.1925 30.1001 54.669V39.3049C30.0739 38.7814 29.7075 38.127 29.2363 37.8653ZM23.2948 41.4511L15.6782 45.9269C15.2333 46.1886 14.4742 46.1886 14.0031 45.9269L9.18707 43.0739C8.58507 42.7336 8.08776 42.9954 8.08776 43.7021V52.261C8.08776 52.9415 7.59046 53.2294 6.98845 52.9153L6.17706 52.4965C5.70593 52.2348 5.31332 51.6066 5.31332 51.0831V41.7652C5.31332 41.2417 5.67975 40.5874 6.15089 40.3256L14.0031 35.7452C14.448 35.4834 15.2071 35.4834 15.6782 35.7452L23.2948 40.1686C23.8707 40.5089 23.8968 41.0847 23.2948 41.4511Z" fill="#4231C8"/>
<path d="M45.8585 57.8623C45.8585 57.7053 45.937 57.6267 46.094 57.6267H46.539C46.6699 57.6267 46.7746 57.7053 46.7746 57.8623V60.2441C46.7746 60.3227 46.7484 60.4012 46.6175 60.4797L46.5913 60.5059C45.937 61.0032 45.0733 61.2911 44.131 61.2911C41.8539 61.2911 40.0479 59.4589 40.0479 57.2079C40.0479 54.957 41.88 53.0986 44.1572 53.0986C44.6806 53.0986 45.178 53.2033 45.6229 53.3865C45.9893 53.5174 46.7222 53.8577 46.7222 54.1194C46.7222 54.1718 46.7222 54.1979 46.696 54.2503L46.4605 54.6429C46.4081 54.7214 46.3296 54.7738 46.2773 54.7738C46.2249 54.7738 46.1464 54.7476 46.0679 54.6952C45.5444 54.3288 44.8639 54.0671 44.1572 54.0671C42.2988 54.0671 40.9901 55.5852 40.9901 57.2341C40.9901 58.9878 42.4559 60.375 44.1572 60.375C44.89 60.375 45.5182 60.1133 45.8323 59.9039V57.8623H45.8585Z" fill="#4231C8"/>
<path d="M54.1551 60.2441C54.2859 60.2441 54.3906 60.3226 54.3906 60.4796V60.8984C54.3906 61.0293 54.2859 61.134 54.1551 61.134H49.6008C49.4438 61.134 49.3652 61.0555 49.3652 60.8984V53.4127C49.3652 53.2818 49.4438 53.1771 49.6008 53.1771H50.0458C50.1766 53.1771 50.2813 53.2556 50.2813 53.4127V60.2441H54.1551Z" fill="#4231C8"/>
<path d="M63.9444 57.1817C63.9444 59.4327 62.1122 61.2649 59.8351 61.2649C57.558 61.2649 55.752 59.4327 55.752 57.1817C55.752 54.9046 57.5841 53.0724 59.8613 53.0724C62.0861 53.0724 63.9444 54.9046 63.9444 57.1817ZM59.8351 60.3488C61.5626 60.3488 63.0021 58.9354 63.0021 57.1556C63.0021 55.4281 61.5888 53.9885 59.8351 53.9885C58.0814 53.9885 56.668 55.4019 56.668 57.1556C56.668 58.9354 58.0814 60.3488 59.8351 60.3488Z" fill="#4231C8"/>
<path d="M71.1937 56.8938C71.8743 57.2602 72.3454 58.0455 72.3454 58.8568C72.3454 60.087 71.4031 61.1602 70.1206 61.1602H66.5871C66.4563 61.1602 66.3516 61.0816 66.3516 60.9246V53.4388C66.3516 53.2556 66.4301 53.1771 66.5871 53.1771H69.7542C70.9582 53.1771 71.9266 54.067 71.9266 55.271C71.9266 55.8992 71.6649 56.5012 71.1937 56.8938ZM69.7542 54.0932H67.2677V56.5535H69.7542C70.4609 56.5535 70.9844 55.9777 70.9844 55.2448C70.9844 54.5643 70.4871 54.0932 69.7542 54.0932ZM67.2938 57.4696V60.2179H70.1468C70.8535 60.2179 71.4293 59.5635 71.4293 58.8307C71.4293 58.0978 70.8535 57.4435 70.1468 57.4435H67.2938V57.4696Z" fill="#4231C8"/>
<path d="M75.0942 60.9508C75.0419 61.1078 74.9372 61.1602 74.8063 61.1602H74.3352C74.1781 61.1602 74.0996 61.1078 74.0996 60.977C74.0996 60.8984 74.1258 60.8461 74.1258 60.8461C77.2405 53.3865 77.2405 53.3865 77.2405 53.3865C77.2667 53.308 77.319 53.2033 77.5022 53.2033H77.8163C77.9995 53.2033 78.0519 53.3341 78.078 53.3865L81.1666 60.8723C81.1666 60.8723 81.1928 60.9508 81.1928 61.0031C81.1928 61.134 81.0881 61.1863 80.9572 61.1863H80.4861C80.3552 61.1863 80.2505 61.1078 80.1981 60.977L79.57 59.4327H75.67L75.0942 60.9508ZM76.0888 58.4904H79.2297L77.6593 54.5643L76.0888 58.4904Z" fill="#4231C8"/>
<path d="M88.285 60.2441C88.4158 60.2441 88.5205 60.3226 88.5205 60.4796V60.8984C88.5205 61.0293 88.4158 61.134 88.285 61.134H83.7307C83.5736 61.134 83.4951 61.0555 83.4951 60.8984V53.4127C83.4951 53.2818 83.5736 53.1771 83.7307 53.1771H84.1756C84.3065 53.1771 84.4112 53.2556 84.4112 53.4127V60.2441H88.285Z" fill="#4231C8"/>
<path d="M39.9168 33.3896C39.9168 33.1017 40.1 32.9446 40.3356 32.9446H46.722C49.4441 32.9446 51.3025 35.3526 51.3025 37.7607C51.3025 40.1425 49.4965 42.5243 46.7744 42.5243H43.712V47.2356C43.712 47.5236 43.555 47.6806 43.2671 47.6806H40.3094C40.0215 47.6806 39.8906 47.5497 39.8906 47.2356V33.3896H39.9168ZM43.712 36.0855V39.4096H45.8583C46.8267 39.4096 47.3764 38.5982 47.3764 37.7607C47.3764 36.9754 46.8006 36.0855 45.8583 36.0855H43.712Z" fill="#4231C8"/>
<path d="M54.7852 33.3896C54.7852 33.1802 54.916 32.9446 55.2039 32.9446H61.7998C64.6004 32.9446 66.5111 35.405 66.5111 37.8915C66.5111 39.4881 65.5427 41.0324 64.0769 41.9747L66.9037 47.2618C67.0346 47.4712 66.9561 47.7068 66.6681 47.7068H63.0823C62.7944 47.7068 62.7159 47.6282 62.5588 47.288L60.2032 42.8122H58.6327V47.288C58.6327 47.5759 58.4757 47.7329 58.1878 47.7329H55.2039C54.916 47.7329 54.7852 47.6021 54.7852 47.288V33.3896ZM58.6327 36.007V39.5928H60.8313C61.8521 39.5928 62.6112 38.7291 62.6112 37.813C62.6112 36.9493 61.8783 36.007 60.8313 36.007H58.6327Z" fill="#4231C8"/>
<path d="M77.2408 32.7352C81.4287 32.7352 84.8313 36.1378 84.8313 40.3519C84.8313 44.5397 81.4287 47.9161 77.2408 47.9161C73.0268 47.9161 69.6504 44.5397 69.6504 40.3519C69.6504 36.1117 73.0268 32.7352 77.2408 32.7352ZM77.2408 44.2518C79.4133 44.2518 80.9837 42.5243 80.9837 40.3257C80.9837 38.1532 79.4133 36.3996 77.2408 36.3996C75.0684 36.3996 73.498 38.1532 73.498 40.3257C73.4718 42.5243 75.0422 44.2518 77.2408 44.2518Z" fill="#4231C8"/>
<path d="M88.8096 33.3896C88.8096 33.1017 88.9666 32.9446 89.2545 32.9446H95.5363C97.8658 32.9446 99.7765 34.8292 99.7765 37.211C99.7765 38.2056 99.4624 39.0694 98.8866 39.7499C99.8288 40.6136 100.431 41.8961 100.431 43.231C100.431 45.639 98.4416 47.6806 96.1121 47.6806H89.2545C88.9928 47.6806 88.8096 47.5497 88.8096 47.2618V33.3896ZM94.4893 35.85H92.6571V38.7291H94.437C95.3531 38.7291 95.9551 38.1271 95.9551 37.2895C95.9812 36.5305 95.3531 35.85 94.4893 35.85ZM94.9866 41.425H92.6571V44.7491H94.9866C95.8504 44.7491 96.5047 43.9377 96.5047 43.074C96.5047 42.2888 95.8504 41.425 94.9866 41.425Z" fill="#4231C8"/>
<path d="M105.063 33.3896C105.063 33.1017 105.194 32.9446 105.482 32.9446H108.466C108.754 32.9446 108.911 33.0755 108.911 33.3896V47.2618C108.911 47.5497 108.754 47.7068 108.466 47.7068H105.482C105.194 47.7068 105.063 47.5759 105.063 47.2618V33.3896Z" fill="#4231C8"/>
<path d="M113.832 33.3896C113.832 33.1017 113.963 32.9446 114.277 32.9446H125.034C125.322 32.9446 125.479 33.0755 125.479 33.3896V35.9023C125.479 36.1902 125.322 36.3473 125.034 36.3473H121.527V47.2618C121.527 47.5497 121.37 47.7068 121.082 47.7068H118.229C117.941 47.7068 117.784 47.5759 117.784 47.2618V36.3473H114.277C113.989 36.3473 113.832 36.1902 113.832 35.9023V33.3896Z" fill="#4231C8"/>
</svg>
