<svg width="102" height="90" viewBox="0 0 102 90" fill="none" xmlns="http://www.w3.org/2000/svg">
<path d="M58.4454 55.2096H46.5094C46.3627 55.2045 46.2164 55.229 46.0794 55.2816C45.9424 55.3343 45.8173 55.4139 45.7118 55.5159C45.6062 55.6179 45.5222 55.7401 45.4648 55.8752C45.4075 56.0103 45.3779 56.1556 45.3779 56.3024C45.3779 56.4492 45.4075 56.5945 45.4648 56.7296C45.5222 56.8647 45.6062 56.9869 45.7118 57.0889C45.8173 57.1908 45.9424 57.2705 46.0794 57.3231C46.2164 57.3757 46.3627 57.4002 46.5094 57.3951H58.4454C58.7286 57.3853 58.997 57.2658 59.1938 57.062C59.3907 56.8581 59.5008 56.5858 59.5008 56.3024C59.5008 56.019 59.3907 55.7467 59.1938 55.5428C58.997 55.339 58.7286 55.2195 58.4454 55.2096V55.2096Z" fill="#3596D4"/>
<path d="M27.1226 47.3121C27.1227 46.8839 27.0041 46.4641 26.78 46.0993C26.5559 45.7345 26.235 45.439 25.853 45.2456C25.4709 45.0523 25.0428 44.9686 24.6161 45.004C24.1894 45.0394 23.7809 45.1924 23.4359 45.446C23.091 45.6996 22.8231 46.0439 22.6621 46.4407C22.5011 46.8374 22.4533 47.271 22.5239 47.6933C22.5946 48.1156 22.7809 48.51 23.0623 48.8327C23.3436 49.1555 23.709 49.3938 24.1177 49.5214C24.3722 50.1786 24.7506 50.7808 25.2323 51.2952C26.5362 52.6851 28.5218 53.3893 31.1335 53.3893H49.5161C49.6628 53.3944 49.809 53.3699 49.946 53.3173C50.083 53.2647 50.2081 53.185 50.3137 53.0831C50.4192 52.9811 50.5032 52.8589 50.5606 52.7238C50.6179 52.5886 50.6475 52.4434 50.6475 52.2966C50.6475 52.1498 50.6179 52.0045 50.5606 51.8694C50.5032 51.7343 50.4192 51.6121 50.3137 51.5101C50.2081 51.4081 50.083 51.3284 49.946 51.2758C49.809 51.2232 49.6628 51.1987 49.5161 51.2038H31.1335C29.1651 51.2038 27.7236 50.7379 26.8472 49.8219C26.6335 49.598 26.4522 49.3454 26.3085 49.0713C26.5637 48.8547 26.7688 48.5852 26.9094 48.2814C27.0499 47.9776 27.1227 47.6468 27.1226 47.3121V47.3121ZM24.8087 46.5324C24.964 46.5324 25.1158 46.5785 25.2449 46.6648C25.3741 46.7511 25.4747 46.8738 25.534 47.0173C25.5934 47.1608 25.6089 47.3187 25.5785 47.471C25.5481 47.6233 25.4732 47.7632 25.3633 47.8729C25.2534 47.9826 25.1134 48.0573 24.961 48.0874C24.8087 48.1176 24.6508 48.1018 24.5074 48.0422C24.364 47.9826 24.2415 47.8818 24.1554 47.7525C24.0693 47.6233 24.0235 47.4714 24.0237 47.3161C24.0241 47.1081 24.107 46.9088 24.2541 46.7619C24.4013 46.6149 24.6007 46.5324 24.8087 46.5324V46.5324Z" fill="#3596D4"/>
<path d="M73.6921 46.4253C73.2029 46.4248 72.7261 46.5791 72.33 46.8663C71.9339 47.1534 71.6389 47.5585 71.4872 48.0236C71.3355 48.4887 71.335 48.9899 71.4856 49.4553C71.6363 49.9207 71.9305 50.3265 72.3259 50.6145C72.7214 50.9025 73.1979 51.0578 73.6871 51.0584C74.1763 51.0589 74.6531 50.9045 75.0492 50.6174C75.4453 50.3303 75.7403 49.9252 75.8919 49.4601C76.0436 48.995 76.0441 48.4938 75.8935 48.0284V48.0284C78.4615 45.1162 79.6317 41.5421 79.1287 38.0342C78.619 34.4747 76.4812 31.4553 73.4141 29.9595C73.2851 29.8965 73.1448 29.8595 73.0015 29.8507C72.8581 29.8419 72.7144 29.8614 72.5786 29.9081C72.4428 29.9548 72.3175 30.0278 72.2099 30.1229C72.1023 30.2181 72.0144 30.3335 71.9514 30.4625C71.8884 30.5916 71.8514 30.7318 71.8426 30.8752C71.8338 31.0185 71.8533 31.1622 71.9 31.2981C71.9467 31.4339 72.0197 31.5592 72.1148 31.6668C72.21 31.7744 72.3254 31.8622 72.4544 31.9252C74.8715 33.1047 76.558 35.4993 76.9657 38.3466C77.3787 41.2324 76.4441 44.085 74.3182 46.5167C74.1148 46.4573 73.904 46.4265 73.6921 46.4253V46.4253ZM73.6021 49.5189C73.4148 49.4614 73.2465 49.3544 73.115 49.2091C73.04 49.1275 72.9784 49.0346 72.9323 48.9338V48.9338C72.9151 48.8713 72.9067 48.8067 72.9071 48.7419C72.9069 48.5866 72.9527 48.4347 73.0388 48.3054C73.1249 48.1761 73.2474 48.0753 73.3908 48.0157C73.5342 47.9561 73.6921 47.9403 73.8444 47.9705C73.9968 48.0006 74.1368 48.0753 74.2467 48.185C74.3566 48.2947 74.4315 48.4346 74.4619 48.5869C74.4923 48.7392 74.4768 48.8971 74.4175 49.0406C74.3581 49.1841 74.2575 49.3068 74.1284 49.3931C73.9992 49.4794 73.8474 49.5255 73.6921 49.5255C73.6626 49.5275 73.633 49.5275 73.6034 49.5255L73.6021 49.5189Z" fill="#3596D4"/>
<path d="M78.6885 27.5332C74.9397 24.3166 70.8415 24.0664 69.6753 24.0664C63.9899 24.0664 59.8797 26.2228 57.4427 30.4825C56.9282 30.5117 56.4381 30.7118 56.0502 31.0511C55.6623 31.3904 55.3987 31.8496 55.3014 32.3557C55.2041 32.8618 55.2785 33.3859 55.5128 33.8449C55.7472 34.3039 56.1281 34.6715 56.5951 34.8895C57.0622 35.1074 57.5886 35.1632 58.0909 35.048C58.5932 34.9328 59.0427 34.6531 59.3681 34.2535C59.6935 33.8538 59.8761 33.3569 59.887 32.8416C59.8979 32.3264 59.7365 31.8222 59.4283 31.4091C61.488 27.9423 64.8556 26.2466 69.67 26.2466C71.682 26.2466 74.7332 27.0196 77.2602 29.1879C80.1896 31.703 81.7384 35.5497 81.7384 40.3151C81.7386 44.2219 80.1979 47.9711 77.4506 50.7489C74.7034 53.5266 70.9714 55.1086 67.0649 55.1515H62.1922C61.9022 55.1515 61.6241 55.2667 61.4191 55.4717C61.214 55.6768 61.0989 55.9549 61.0989 56.2449C61.0989 56.5348 61.214 56.813 61.4191 57.018C61.6241 57.2231 61.9022 57.3383 62.1922 57.3383H67.0768H67.1575C71.6275 57.2705 75.8914 55.4474 79.0286 52.2626C82.1659 49.0778 83.9246 44.7869 83.9252 40.3165C83.9305 33.4688 81.0805 29.589 78.6885 27.5332ZM57.5791 32.0088C57.7586 32.0089 57.9327 32.0706 58.0721 32.1837C58.2116 32.2968 58.308 32.4544 58.3452 32.63C58.3824 32.8057 58.3582 32.9888 58.2765 33.1487C58.1949 33.3086 58.0608 33.4356 57.8968 33.5085V33.5085C57.6785 33.5524 57.452 33.5279 57.2481 33.4384C57.1291 33.3871 57.0206 33.3144 56.9278 33.2239V33.2239C56.8415 33.0971 56.7953 32.9472 56.7954 32.7937C56.7958 32.5859 56.8784 32.3866 57.0252 32.2395C57.1721 32.0924 57.3712 32.0095 57.5791 32.0088V32.0088Z" fill="#3596D4"/>
<path d="M41.2845 55.158H27.3854C27.3549 55.158 27.3258 55.158 27.294 55.1514C26.3417 55.1132 25.4066 54.8844 24.5442 54.4786C23.6818 54.0727 22.9096 53.498 22.2731 52.7885C20.9105 51.2864 20.1621 49.3271 20.1764 47.299C20.1764 42.9982 23.4234 39.546 27.5694 39.4401C29.4226 39.3924 30.2261 39.5724 31.011 39.8028C31.2898 39.883 31.589 39.8492 31.8428 39.7088C32.0967 39.5684 32.2843 39.333 32.3646 39.0542C32.4448 38.7754 32.411 38.4762 32.2706 38.2224C32.1302 37.9686 31.8947 37.7809 31.616 37.7007C30.5014 37.3803 29.4729 37.2043 27.5124 37.2546C22.1712 37.387 17.9816 41.8029 17.9816 47.299C17.9672 49.874 18.9206 52.3605 20.6529 54.2658C22.3015 56.0972 24.6096 57.1993 27.0703 57.3302C27.1285 57.3398 27.1874 57.3446 27.2464 57.3448H41.2779C41.5678 57.3448 41.8459 57.2296 42.051 57.0245C42.2561 56.8195 42.3713 56.5414 42.3713 56.2514C42.3713 55.9614 42.2561 55.6833 42.051 55.4782C41.8459 55.2732 41.5678 55.158 41.2779 55.158H41.2845Z" fill="#3596D4"/>
<path d="M51.5501 29.2011C51.6734 29.1276 51.781 29.0306 51.8668 28.9155C51.9526 28.8004 52.0149 28.6695 52.05 28.5303C52.0852 28.3912 52.0926 28.2464 52.0718 28.1044C52.0509 27.9624 52.0023 27.8258 51.9287 27.7026C49.4268 23.517 45.3021 21.3487 40.3169 21.6135C34.0266 21.9378 29.5352 27.0805 29.8701 33.5733C29.8843 33.8531 30.0054 34.1168 30.2084 34.3099C30.4114 34.503 30.6807 34.6108 30.9608 34.6111H31.0191C31.3086 34.5957 31.5802 34.4661 31.7743 34.2507C31.9683 34.0353 32.069 33.7517 32.0542 33.4621C31.9219 30.9259 32.6923 28.5498 34.2199 26.7694C35.7474 24.989 37.9594 23.9247 40.4295 23.7976C44.6283 23.5805 47.9562 25.3199 50.0516 28.8278C50.2008 29.076 50.4425 29.2547 50.7235 29.3247C51.0046 29.3947 51.3019 29.3502 51.5501 29.2011V29.2011Z" fill="#3596D4"/>
<path d="M25.472 34.3821H25.5303C25.8197 34.3671 26.0913 34.2377 26.2854 34.0226C26.4795 33.8074 26.5802 33.5239 26.5654 33.2345C26.3629 29.303 27.5582 25.6138 29.933 22.8459C32.325 20.0581 35.7574 18.4127 39.5962 18.2128C46.0824 17.8779 51.2331 20.5704 54.4749 25.9977C54.6264 26.2407 54.8672 26.4147 55.1455 26.4821C55.4239 26.5495 55.7176 26.5049 55.9635 26.3581C56.2094 26.2112 56.3878 25.9737 56.4605 25.6966C56.5331 25.4196 56.4941 25.1251 56.3519 24.8765C52.7209 18.7979 46.7271 15.6554 39.4837 16.03C30.3857 16.4999 23.8915 23.9432 24.376 33.3457C24.3906 33.6261 24.5126 33.8902 24.7167 34.0832C24.9207 34.2762 25.1912 34.3832 25.472 34.3821V34.3821Z" fill="#3596D4"/>
<path d="M41.2689 28.9801C43.0281 28.8861 44.7027 29.8591 45.6372 31.5243C45.7853 31.7625 46.0194 31.9347 46.2908 32.0052C46.5623 32.0757 46.8505 32.0392 47.0959 31.9032C47.3412 31.7672 47.5249 31.5421 47.6089 31.2745C47.6929 31.0068 47.6709 30.7172 47.5474 30.4653C46.2091 28.0654 43.7628 26.6623 41.1564 26.8026C37.6551 26.9919 35.2592 29.822 35.4644 33.5311C35.4796 33.8102 35.6011 34.0728 35.804 34.2651C36.0068 34.4574 36.2756 34.5647 36.5551 34.5649H36.616C36.9054 34.5492 37.1768 34.4192 37.3704 34.2035C37.564 33.9878 37.664 33.704 37.6485 33.4146C37.4963 30.885 38.959 29.1045 41.2689 28.9801Z" fill="#3596D4"/>
<path d="M4.44017 73.694C3.83259 73.7 3.23053 73.5782 2.673 73.3366C2.13818 73.1044 1.65552 72.767 1.2537 72.3444C0.851879 71.9219 0.539106 71.4229 0.333974 70.8772C0.107272 70.2859 -0.00590072 69.6572 0.00039244 69.0239C-0.00756983 68.3962 0.105697 67.7728 0.333974 67.1879C0.540737 66.6568 0.856372 66.1747 1.26058 65.7729C1.6649 65.38 2.1438 65.0722 2.66903 64.8674C3.23257 64.65 3.8322 64.5413 4.4362 64.5471H9.39091V66.1435H4.4362C4.04572 66.1398 3.65851 66.215 3.2978 66.3646C2.95997 66.5044 2.65416 66.7116 2.39898 66.9735C2.14297 67.2406 1.94193 67.5555 1.80728 67.9001C1.66227 68.2804 1.58998 68.6845 1.59416 69.0914C1.59109 69.4983 1.66335 69.9022 1.80728 70.2828C1.93999 70.6355 2.14107 70.9585 2.39898 71.2332C2.65352 71.4992 2.95927 71.7108 3.2978 71.8554C3.65757 72.0086 4.04517 72.0857 4.4362 72.0817H9.39091V73.6782L4.44017 73.694Z" fill="#040000"/>
<path d="M18.8632 64.5527H20.4199V69.6583C20.4326 70.2838 20.339 70.9068 20.1433 71.501C19.9734 72.0033 19.6744 72.452 19.2762 72.8022C18.8325 73.1714 18.3098 73.4336 17.7486 73.5686C16.2582 73.904 14.7119 73.904 13.2215 73.5686C12.6598 73.4339 12.1366 73.1717 11.6926 72.8022C11.2948 72.4517 10.9959 72.003 10.8255 71.501C10.6303 70.9067 10.5368 70.2837 10.5489 69.6583V64.5527H12.1956V69.6583C12.1866 70.0591 12.2443 70.4586 12.3664 70.8404C12.4706 71.1558 12.6625 71.435 12.9197 71.6453C13.221 71.8757 13.5717 72.0329 13.9442 72.1046C14.9918 72.297 16.0657 72.297 17.1132 72.1046C17.4857 72.0329 17.8365 71.8757 18.1378 71.6453C18.3946 71.4346 18.5864 71.1556 18.6911 70.8404C18.8127 70.4585 18.87 70.059 18.8606 69.6583L18.8632 64.5527Z" fill="#040000"/>
<path d="M21.876 73.6944V64.5527H23.4644V72.098H29.6145V73.6944H21.876Z" fill="#040000"/>
<path d="M32.2823 73.6944V66.1491H28.8115V64.5527H37.3496V66.1491H33.8787V73.6944H32.2823Z" fill="#040000"/>
<path d="M46.5794 64.5527H48.1388V69.6583C48.1509 70.2837 48.0573 70.9067 47.8621 71.501C47.6918 72.0034 47.3923 72.4521 46.9937 72.8022C46.5504 73.1719 46.0276 73.4342 45.4662 73.5686C43.9757 73.904 42.4294 73.904 40.939 73.5686C40.3777 73.4339 39.855 73.1716 39.4114 72.8022C39.0133 72.452 38.7143 72.0033 38.5444 71.501C38.3486 70.9068 38.2551 70.2838 38.2677 69.6583V64.5527H39.9145V69.6583C39.9057 70.059 39.9629 70.4584 40.0839 70.8404C40.1891 71.1554 40.3808 71.4343 40.6372 71.6453C40.939 71.8757 41.2902 72.0329 41.6631 72.1046C42.7107 72.297 43.7845 72.297 44.8321 72.1046C45.2045 72.0327 45.5552 71.8754 45.8567 71.6453C46.113 71.4343 46.3048 71.1554 46.41 70.8404C46.5309 70.4584 46.5882 70.059 46.5794 69.6583V64.5527Z" fill="#040000"/>
<path d="M58.074 73.6939L55.7641 71.1536H52.3436V69.7452H56.1546C56.7318 69.7452 57.1686 69.589 57.4611 69.2739C57.7537 68.9589 57.9019 68.5049 57.9019 67.9092C57.9019 67.3135 57.7484 66.8727 57.4426 66.5855C57.1368 66.2982 56.7079 66.1513 56.1546 66.1513H51.1734V73.6965H49.585V64.5522H56.1493C56.6247 64.5449 57.0974 64.6239 57.5445 64.7852C57.9383 64.9265 58.2953 65.1545 58.589 65.4524C58.8828 65.7502 59.1058 66.1103 59.2415 66.506C59.3989 66.9482 59.4764 67.4148 59.4706 67.884C59.4706 68.6474 59.3046 69.2867 58.9728 69.8021C58.6445 70.3154 58.1566 70.7065 57.5842 70.9154L60.3376 73.6952L58.074 73.6939Z" fill="#040000"/>
<path d="M61.167 73.6944V64.5527H69.3278V66.1491H62.7515V72.098H69.341V73.6944H61.167ZM63.9203 69.7232V68.3743H68.9889V69.7192L63.9203 69.7232Z" fill="#040000"/>
<path d="M70.7109 73.6944V64.5527H72.31V72.098H78.4587V73.6944H70.7109Z" fill="#040000"/>
<path d="M89.1346 73.6947L87.7632 71.3941H83.4373L84.1918 70.0981H87.0034L84.9662 66.6776L80.8163 73.6934H78.9922L84.2487 64.9409C84.3307 64.7941 84.442 64.6656 84.5757 64.5636C84.7084 64.4719 84.8672 64.4255 85.0284 64.4313C85.1876 64.4247 85.3446 64.4713 85.4745 64.5636C85.6055 64.667 85.7148 64.7952 85.7961 64.9409L91.0646 73.6934L89.1346 73.6947Z" fill="#040000"/>
<path d="M92.0342 73.6946V64.553H98.7243C99.1334 64.5486 99.5413 64.5993 99.9368 64.7039C100.275 64.7912 100.593 64.9426 100.874 65.15C101.132 65.3454 101.339 65.6002 101.478 65.8926C101.626 66.2136 101.699 66.5638 101.692 66.9172C101.696 67.1762 101.662 67.4345 101.591 67.6836C101.532 67.8848 101.439 68.0743 101.315 68.2435C101.2 68.3974 101.061 68.5311 100.903 68.6393C100.754 68.7408 100.591 68.8189 100.419 68.871C100.83 69.0002 101.191 69.2553 101.45 69.6004C101.727 69.988 101.867 70.4572 101.847 70.9334C101.853 71.3228 101.782 71.7095 101.639 72.0718C101.508 72.4022 101.306 72.7003 101.049 72.9454C100.783 73.1953 100.467 73.3861 100.122 73.5054C99.7317 73.6393 99.3211 73.7051 98.9083 73.6999L92.0342 73.6946ZM94.7875 69.7235V68.3746H98.7362C99.1889 68.3746 99.5243 68.2908 99.7422 68.1231C99.9602 67.9554 100.069 67.6704 100.069 67.268C100.08 67.0644 100.034 66.8618 99.9368 66.6829C99.8408 66.5332 99.7026 66.4153 99.5397 66.344C99.3447 66.2575 99.1367 66.2043 98.9242 66.1865C98.6603 66.16 98.3952 66.1472 98.1299 66.1481H93.6227V72.1049H98.2557C98.5217 72.1069 98.7875 72.0861 99.0499 72.0426C99.2695 72.0082 99.4819 71.938 99.6787 71.8348C99.8441 71.7483 99.9846 71.6207 100.086 71.4642C100.189 71.2933 100.239 71.0966 100.232 70.8976C100.242 70.735 100.215 70.5723 100.154 70.4212C100.093 70.2701 99.9996 70.1344 99.8799 70.024C99.6443 69.8188 99.3014 69.7155 98.8487 69.7155L94.7875 69.7235Z" fill="#040000"/>
</svg>
