<svg width="135" height="90" viewBox="0 0 135 90" fill="none" xmlns="http://www.w3.org/2000/svg">
<path d="M46.2309 44.3002C46.1951 43.3199 46.3589 42.3426 46.7125 41.4268C47.0662 40.511 47.6024 39.6758 48.2888 38.9713C48.9752 38.2667 49.7977 37.7073 50.707 37.3269C51.6164 36.9463 52.5937 36.7525 53.5802 36.7569C57.2974 36.7569 59.4975 38.9256 60.1613 41.4715L57.8285 42.254C57.6232 41.3049 57.0806 40.4611 56.3004 39.8774C55.52 39.2938 54.5543 39.0094 53.5802 39.0764C51.1715 39.0764 48.7629 40.8208 48.7629 44.3473C48.7629 47.8738 51.1146 49.5521 53.6086 49.5521C54.588 49.5804 55.5487 49.2807 56.3364 48.701C57.124 48.1213 57.6929 47.2954 57.9518 46.3557L60.2182 47.0912C59.8302 48.5259 58.9601 49.7853 57.7525 50.6601C56.5449 51.5349 55.0725 51.9724 53.5802 51.8999C52.5847 51.9185 51.5962 51.7324 50.6766 51.3531C49.7569 50.9739 48.926 50.4099 48.236 49.6963C47.546 48.9827 47.0117 48.135 46.6666 47.2064C46.3216 46.2779 46.1732 45.2885 46.2309 44.3002Z" fill="#375BD2"/>
<path d="M64.709 51.5517H62.3193V36.7197H64.709V42.5375C65.0571 42.1282 65.4938 41.8028 65.9866 41.5856C66.4794 41.3684 67.0152 41.2651 67.5539 41.2834C70.0289 41.2834 71.2237 43.0466 71.2237 45.2437V51.5517H68.9005V45.6491C68.9441 45.362 68.922 45.0687 68.8359 44.7912C68.7498 44.5138 68.602 44.2591 68.4034 44.0462C68.2048 43.8334 67.9605 43.6677 67.6886 43.5615C67.4168 43.4555 67.1244 43.4115 66.8331 43.4333C66.5442 43.4335 66.2584 43.4934 65.9938 43.6092C65.7294 43.7251 65.492 43.8943 65.2967 44.1062C65.1015 44.3181 64.9527 44.5679 64.8596 44.8401C64.7666 45.1122 64.7315 45.4005 64.7564 45.6868L64.709 51.5517Z" fill="#375BD2"/>
<path d="M76.5648 45.8378L79.1347 45.4418C79.7132 45.3663 79.8743 45.074 79.8743 44.7251C79.8743 43.8859 79.3053 43.207 77.9777 43.207C77.7218 43.1852 77.4639 43.2153 77.22 43.2954C76.976 43.3757 76.7509 43.5043 76.5585 43.6736C76.366 43.8429 76.2103 44.0493 76.1005 44.2803C75.9908 44.5113 75.9293 44.7621 75.92 45.0174L73.7389 44.5271C73.919 42.8016 75.4932 41.2646 77.9587 41.2646C81.0502 41.2646 82.2261 43.009 82.2261 45.0363V49.9866C82.2207 50.5235 82.2618 51.0598 82.3493 51.5895H80.1209C80.0444 51.1697 80.0126 50.743 80.0261 50.3166C79.6932 50.8239 79.2329 51.236 78.6907 51.5122C78.1485 51.7884 77.5432 51.919 76.9346 51.8912C76.5104 51.9259 76.0834 51.8747 75.6796 51.7407C75.2759 51.6067 74.9036 51.3925 74.5854 51.1114C74.2671 50.8302 74.0095 50.4878 73.8282 50.1049C73.6468 49.7219 73.5455 49.3063 73.5303 48.8834C73.5303 47.0635 74.8484 46.083 76.5648 45.8378ZM79.8743 47.4407V46.9881L77.2571 47.3747C76.9013 47.3868 76.564 47.5346 76.3151 47.7874C76.0661 48.0402 75.9246 48.3786 75.92 48.7325C75.923 48.9152 75.964 49.0952 76.0406 49.2612C76.1172 49.4273 76.2277 49.5757 76.3649 49.6971C76.5022 49.8185 76.6634 49.9103 76.8381 49.9666C77.0129 50.0229 77.1975 50.0425 77.3804 50.0242C77.7256 50.0593 78.0745 50.0156 78.4003 49.8965C78.7262 49.7775 79.0205 49.5861 79.2609 49.3371C79.5013 49.0881 79.6815 48.7879 79.7878 48.4593C79.8941 48.1307 79.9236 47.7824 79.8743 47.4407Z" fill="#375BD2"/>
<path d="M86.2855 36.5118C86.4926 36.5093 86.6981 36.5477 86.8901 36.6249C87.0822 36.7019 87.2569 36.816 87.4041 36.9608C87.5515 37.1055 87.6685 37.2778 87.7483 37.4679C87.8281 37.6579 87.8691 37.8617 87.8691 38.0677C87.8691 38.4777 87.7054 38.8711 87.4136 39.1611C87.122 39.4511 86.7264 39.614 86.314 39.614C85.9015 39.614 85.5059 39.4511 85.2143 39.1611C84.9226 38.8711 84.7588 38.4777 84.7588 38.0677C84.7587 37.6615 84.9183 37.2713 85.2036 36.9806C85.4888 36.69 85.8771 36.5217 86.2855 36.5118ZM85.1192 51.5983V41.5753H87.4804V51.5512L85.1192 51.5983Z" fill="#375BD2"/>
<path d="M92.962 51.5504H90.5723V41.5745H92.905V42.9039C93.2078 42.3935 93.6432 41.9736 94.1654 41.6882C94.6877 41.4028 95.2777 41.2625 95.8732 41.2821C98.3198 41.2821 99.4956 43.0453 99.4956 45.2423V51.5504H97.106V45.6477C97.106 44.422 96.5465 43.432 95.0482 43.432C94.7499 43.4337 94.4555 43.4983 94.1841 43.6212C93.9128 43.7442 93.6706 43.9229 93.4736 44.1454C93.2766 44.368 93.1291 44.6296 93.0409 44.913C92.9527 45.1962 92.9259 45.4949 92.962 45.7892V51.5504Z" fill="#375BD2"/>
<path d="M102.404 51.5517V36.7197H104.794V51.5517H102.404Z" fill="#375BD2"/>
<path d="M109.059 36.5117C109.474 36.5117 109.872 36.6756 110.166 36.9675C110.46 37.2592 110.624 37.6549 110.624 38.0676C110.622 38.3725 110.529 38.6702 110.358 38.9231C110.186 39.1759 109.943 39.3726 109.66 39.4885C109.376 39.6044 109.064 39.6342 108.763 39.5743C108.462 39.5142 108.186 39.3672 107.969 39.1514C107.752 38.9358 107.604 38.6612 107.544 38.362C107.484 38.0629 107.514 37.7529 107.63 37.4707C107.747 37.1885 107.945 36.9469 108.199 36.7763C108.453 36.6056 108.753 36.5136 109.059 36.5117ZM107.884 51.5982V41.5752H110.254V51.5511L107.884 51.5982Z" fill="#375BD2"/>
<path d="M115.741 51.552H113.352V41.5761H115.675V42.9055C115.978 42.3965 116.414 41.9777 116.937 41.6925C117.459 41.4073 118.048 41.2662 118.643 41.2837C121.099 41.2837 122.274 43.0469 122.274 45.2439V51.552H119.885V45.6493C119.929 45.3622 119.907 45.069 119.821 44.7915C119.735 44.514 119.587 44.2594 119.388 44.0465C119.189 43.8337 118.945 43.668 118.673 43.5618C118.401 43.4557 118.109 43.4118 117.817 43.4336C117.52 43.4352 117.226 43.4997 116.955 43.6227C116.684 43.7458 116.442 43.9246 116.246 44.1475C116.049 44.3702 115.903 44.6319 115.816 44.9152C115.729 45.1986 115.704 45.4969 115.741 45.7908V51.552Z" fill="#375BD2"/>
<path d="M130.446 45.7906L134.657 51.5517H131.727L128.778 47.4406L127.545 48.7324V51.5611H125.174V36.7197H127.545V45.6113L131.396 41.5758H134.572L130.446 45.7906Z" fill="#375BD2"/>
<path d="M17.9132 32.7124L28.2496 38.615V50.4673L17.9417 56.4077L7.6053 50.5145V38.6621L17.9132 32.7124ZM17.9132 24L14.1201 26.1875L3.79317 32.1373L0 34.3248V38.681V50.5239V54.8801L3.79317 57.0488L14.1295 62.9514L17.9227 65.12L21.716 62.9325L32.0239 56.9828L35.817 54.8047V50.4485V38.5961V34.2399L32.0239 32.0713L21.6875 26.1687L17.8943 24H17.9132Z" fill="#375BD2"/>
</svg>
