<svg width="147" height="90" viewBox="0 0 147 90" fill="none" xmlns="http://www.w3.org/2000/svg">
<path d="M6.70892 37.1791L0 53.0718H4.59189L5.72495 50.2391H11.8375L12.9706 53.0718H17.6519L10.9132 37.1791H6.70892ZM6.97728 46.84L8.76633 42.3673L10.5256 46.84H6.97728Z" fill="#231916"/>
<path d="M31.9944 45.6473L25.4942 37.2984H21.4092V53.0718H25.7625V44.4247L32.5311 53.0718H36.3179V37.2984H31.9944V45.6473Z" fill="#231916"/>
<path d="M69.266 47.2872L65.6879 37.2984H60.7979L67.1788 53.1911H71.234L77.6447 37.2984H72.8739L69.266 47.2872Z" fill="#231916"/>
<path d="M85.7552 46.8698H93.3288V43.411H85.7552V40.9957H94.1339V37.2984H81.4316V53.0718H94.2531V49.3744H85.7552V46.8698Z" fill="#231916"/>
<path d="M112.77 42.6953V42.6655C112.77 41.115 112.292 39.9223 111.368 38.998C110.295 37.9245 108.625 37.2984 106.24 37.2984H98.7852V53.0718H103.168V48.301H105.106L108.297 53.0718H113.336L109.579 47.5556C111.487 46.7505 112.77 45.1404 112.77 42.6953ZM108.386 42.9935C108.386 44.1564 107.522 44.872 106.031 44.872H103.109V41.0554H106.001C107.432 41.0554 108.357 41.6815 108.357 42.9637V42.9935H108.386Z" fill="#231916"/>
<path d="M123.951 43.2619C121.744 42.755 121.208 42.4568 121.208 41.7412V41.6815C121.208 41.0852 121.715 40.6678 122.788 40.6678C124.19 40.6678 125.77 41.1746 127.201 42.2183L129.378 39.1172C127.678 37.7456 125.561 37.03 122.878 37.03C119.091 37.03 116.765 39.1471 116.765 42.0692V42.1288C116.765 45.3491 119.359 46.3032 122.728 47.0785C124.905 47.5854 125.412 47.9432 125.412 48.5992V48.6588C125.412 49.3446 124.786 49.7323 123.593 49.7323C121.774 49.7323 120.045 49.0763 118.465 47.8239L116.02 50.746C117.987 52.4755 120.611 53.37 123.414 53.37C127.261 53.37 129.795 51.4617 129.795 48.2414V48.1817C129.795 45.2 127.559 44.0371 123.951 43.2619Z" fill="#231916"/>
<path d="M138.502 49.3744V46.8698H146.076V43.411H138.502V40.9957H146.881V37.2984H134.179V53.0718H147V49.3744H138.502Z" fill="#231916"/>
<path d="M41.5059 53.2209L56.9215 58.3793V32.0207L41.5059 37.1791V53.2209ZM46.9326 47.6152V42.7848V35.3901L51.3158 37.358V42.8146V47.645V53.1016L46.9326 55.0696V47.6152Z" fill="url(#paint0_radial_1205_361)"/>
<defs>
<radialGradient id="paint0_radial_1205_361" cx="0" cy="0" r="1" gradientUnits="userSpaceOnUse" gradientTransform="translate(49.2017 45.2122) scale(10.8043)">
<stop stop-color="#00BBB4"/>
<stop offset="0.5403" stop-color="#046EB6"/>
<stop offset="1" stop-color="#181D61"/>
</radialGradient>
</defs>
</svg>
