<svg width="156" height="90" viewBox="0 0 156 90" fill="none" xmlns="http://www.w3.org/2000/svg">
<path d="M10.7046 42.6953C10.7052 43.1227 10.579 43.5406 10.342 43.8962C10.105 44.2518 9.76773 44.5291 9.37302 44.6929C8.97831 44.8568 8.54385 44.8998 8.12467 44.8166C7.70548 44.7334 7.32042 44.5276 7.01822 44.2254C6.71603 43.9232 6.5103 43.5382 6.42708 43.119C6.34386 42.6998 6.3869 42.2654 6.55073 41.8706C6.71457 41.4759 6.99184 41.1387 7.34745 40.9017C7.70305 40.6646 8.121 40.5384 8.54836 40.5391C9.12023 40.5391 9.66868 40.7662 10.073 41.1706C10.4774 41.575 10.7046 42.1234 10.7046 42.6953V42.6953Z" fill="#231815"/>
<path d="M21.5303 42.6953C21.5303 43.1218 21.6567 43.5386 21.8937 43.8932C22.1306 44.2478 22.4673 44.5242 22.8613 44.6874C23.2553 44.8506 23.6889 44.8933 24.1072 44.8101C24.5254 44.7269 24.9096 44.5215 25.2112 44.22C25.5127 43.9184 25.7181 43.5342 25.8013 43.1159C25.8845 42.6977 25.8418 42.2641 25.6786 41.8701C25.5154 41.4761 25.239 41.1394 24.8844 40.9025C24.5298 40.6655 24.113 40.5391 23.6865 40.5391C23.1146 40.5391 22.5662 40.7662 22.1618 41.1706C21.7574 41.575 21.5303 42.1234 21.5303 42.6953V42.6953Z" fill="#231815"/>
<path d="M16.2031 60.3187C24.1306 56.9212 27.2082 51.8665 28.3918 46.2744C27.7444 46.9588 26.9621 47.5015 26.0943 47.8682C25.2264 48.2349 24.292 48.4177 23.35 48.405C22.2162 48.4098 21.0976 48.1444 20.0869 47.6308C19.7997 47.4145 19.4947 47.2229 19.1751 47.0582C18.2353 46.5786 17.2002 46.3151 16.1455 46.2872V60.2899L16.2031 60.3187Z" fill="#0066B5"/>
<path d="M12.6623 47.0592C12.3427 47.2239 12.0377 47.4154 11.7506 47.6318C10.7408 48.1451 9.62334 48.4105 8.49063 48.406C6.8094 48.4238 5.17941 47.8278 3.90625 46.7297C5.38745 52.069 8.70497 56.9829 16.1558 60.294V46.2882H15.9254C14.7919 46.2824 13.6734 46.5467 12.6623 47.0592V47.0592Z" fill="#E60012"/>
<path d="M2.94629 33.4184C2.94629 35.5106 2.94629 37.6924 3.07745 39.8807C4.18756 38.1435 6.29899 36.9694 8.72075 36.9694C9.85375 36.9657 10.9713 37.2322 11.9807 37.7468C12.2692 37.9628 12.5753 38.1544 12.8956 38.3195C13.9049 38.8345 15.0225 39.101 16.1556 39.0969V29.8193C12.2274 32.349 7.61474 33.6058 2.94629 33.4184Z" fill="#E60012"/>
<path d="M29.3518 33.4181C21.5682 33.1206 19.8919 31.8409 16.3472 29.6719L16.1553 29.8062V39.0838C17.2823 39.0911 18.3951 38.8313 19.4024 38.3256C19.7224 38.1597 20.0284 37.9682 20.3174 37.7529C21.3266 37.2379 22.4443 36.9714 23.5773 36.9755C26.0598 36.9755 28.2193 38.2136 29.3038 40.0275C29.3933 37.8233 29.3518 35.6031 29.3518 33.4181Z" fill="#0066B5"/>
<path d="M72.963 43.1269H66.36C66.1138 43.1192 65.8687 43.1628 65.6402 43.2548C65.4545 43.3344 65.2868 43.4508 65.1475 43.5971C64.8988 43.8547 64.7599 44.1988 64.7604 44.5569C64.7631 44.7304 64.8011 44.9016 64.8721 45.06C64.943 45.2184 65.0454 45.3607 65.1731 45.4782C65.3078 45.612 65.4683 45.717 65.6449 45.7868C65.8214 45.8567 66.0103 45.8899 66.2 45.8845H69.9014C70.5984 45.8705 71.2925 45.9788 71.9521 46.2044C72.4976 46.3946 72.9969 46.6976 73.4173 47.0938C73.805 47.4691 74.1044 47.9258 74.2939 48.431C74.4918 48.9576 74.5916 49.516 74.5882 50.0786V50.165C74.5927 50.7186 74.4701 51.2658 74.2299 51.7646C73.9934 52.2436 73.6575 52.6668 73.2445 53.0058C72.7993 53.3618 72.2931 53.6339 71.7506 53.8088C71.1538 54.004 70.5293 54.1012 69.9014 54.0967H61.8588V51.4446H68.7817C69.2736 51.4504 69.759 51.3315 70.1926 51.0991C70.3921 51.0039 70.562 50.8563 70.6843 50.672C70.8065 50.4878 70.8765 50.2739 70.8868 50.053V50.0722C70.8903 49.8452 70.8257 49.6223 70.7012 49.4324C70.5751 49.253 70.4114 49.1035 70.2214 48.9941C70.0138 48.8756 69.7894 48.7893 69.5559 48.7382C69.302 48.6801 69.0422 48.6512 68.7817 48.6518H65.7905C64.9618 48.6785 64.1353 48.5516 63.3528 48.2775C62.7903 48.0732 62.2808 47.7453 61.862 47.3177C61.5059 46.9412 61.2496 46.4815 61.1166 45.9805C60.9828 45.485 60.9151 44.9741 60.915 44.4609C60.918 43.9235 61.0267 43.3919 61.235 42.8965C61.4351 42.4026 61.7346 41.9551 62.1147 41.5817C62.5255 41.185 63.0148 40.8788 63.5511 40.6827C64.1883 40.4556 64.8616 40.3472 65.5378 40.3628H72.9662L72.963 43.1269Z" fill="#0066B5"/>
<path d="M99.1418 42.1856C99.683 41.8579 100.259 41.5917 100.86 41.3922C101.515 41.1725 102.188 41.0109 102.872 40.9092C103.577 40.8034 104.289 40.75 105.003 40.7492H105.46V44.0667H105.009C104.173 44.0735 103.342 44.2073 102.546 44.4634C101.741 44.7114 100.968 45.0528 100.242 45.4807C99.6027 45.8483 99.0304 46.3222 98.5499 46.882C98.1597 47.3071 97.933 47.8569 97.9101 48.4336V54.1056H93.7832V40.3877H97.9101V43.2669C98.2511 42.8342 98.6685 42.4677 99.1418 42.1856V42.1856Z" fill="#0066B5"/>
<path d="M115.016 40.493C115.903 40.4812 116.787 40.5997 117.639 40.8449C118.353 41.051 119.021 41.3896 119.61 41.843C120.141 42.2572 120.566 42.7925 120.848 43.4042C121.139 44.0493 121.284 44.7505 121.273 45.4581V49.1179C121.285 49.8255 121.139 50.5269 120.848 51.1717C120.563 51.7857 120.139 52.3246 119.61 52.7457C119.023 53.2047 118.354 53.5468 117.639 53.7535C116.787 53.9986 115.903 54.1172 115.016 54.1054H113.656C112.779 54.1158 111.905 53.9972 111.062 53.7535C110.346 53.5468 109.677 53.2047 109.091 52.7457C108.56 52.3264 108.135 51.787 107.853 51.1717C107.561 50.5269 107.416 49.8255 107.427 49.1179V45.4581C107.417 44.7505 107.562 44.0493 107.853 43.4042C108.133 42.7912 108.558 42.2554 109.091 41.843C109.679 41.3896 110.348 41.051 111.062 40.8449C111.905 40.6012 112.779 40.4826 113.656 40.493H115.016ZM113.656 43.5546C113.028 43.5339 112.412 43.7305 111.913 44.1112C111.689 44.2766 111.509 44.493 111.387 44.7424C111.264 44.9917 111.203 45.2667 111.209 45.5444V49.0315C111.203 49.3097 111.264 49.5852 111.387 49.835C111.509 50.0849 111.689 50.3019 111.913 50.4679C112.412 50.8487 113.028 51.0453 113.656 51.0246H115.016C115.649 51.0493 116.271 50.8524 116.775 50.4679C116.995 50.2996 117.172 50.0819 117.292 49.8323C117.412 49.5827 117.472 49.3084 117.466 49.0315V45.5444C117.472 45.268 117.412 44.9941 117.292 44.7451C117.172 44.4961 116.995 44.2789 116.775 44.1112C116.271 43.7267 115.649 43.5299 115.016 43.5546H113.656Z" fill="#0066B5"/>
<path d="M147.026 40.493C147.913 40.481 148.797 40.5995 149.65 40.8449C150.364 41.051 151.032 41.3896 151.62 41.8431C152.154 42.2563 152.579 42.7917 152.862 43.4043C153.151 44.0499 153.296 44.7507 153.287 45.4581V49.1179C153.297 49.8254 153.152 50.5264 152.862 51.1718C152.577 51.7865 152.152 52.3257 151.62 52.7458C151.034 53.2047 150.365 53.5468 149.65 53.7535C148.797 53.9989 147.913 54.1175 147.026 54.1054H145.67C144.792 54.1161 143.916 53.9975 143.072 53.7535C142.357 53.5462 141.688 53.2041 141.102 52.7458C140.572 52.3247 140.148 51.7857 139.864 51.1718C139.572 50.5269 139.427 49.8255 139.438 49.1179V45.4581C139.428 44.7506 139.573 44.0494 139.864 43.4043C140.146 42.7926 140.57 42.2573 141.102 41.8431C141.691 41.3903 142.359 41.0517 143.072 40.8449C143.916 40.6009 144.792 40.4823 145.67 40.493H147.026ZM145.67 43.5546C145.042 43.5334 144.426 43.7301 143.927 44.1113C143.703 44.2761 143.521 44.4923 143.398 44.7417C143.275 44.9911 143.214 45.2664 143.22 45.5445V49.0315C143.214 49.31 143.275 49.5858 143.398 49.8357C143.521 50.0856 143.703 50.3024 143.927 50.468C144.426 50.8492 145.042 51.0458 145.67 51.0246H147.026C147.66 51.0498 148.282 50.853 148.786 50.468C149.006 50.2997 149.183 50.0819 149.303 49.8323C149.423 49.5828 149.483 49.3084 149.477 49.0315V45.5445C149.483 45.2681 149.423 44.9942 149.303 44.7451C149.183 44.4961 149.006 44.2789 148.786 44.1113C148.282 43.7263 147.66 43.5294 147.026 43.5546H145.67Z" fill="#0066B5"/>
<path d="M51.7302 43.5333H51.2695C50.7932 43.519 50.3175 43.5773 49.8587 43.7061C49.5485 43.7912 49.2647 43.9529 49.0333 44.1763C48.8394 44.374 48.7053 44.6224 48.6462 44.8929C48.5834 45.1852 48.5523 45.4834 48.5534 45.7823V54.1001H44.6377V45.1425C44.6418 44.5569 44.7739 43.9793 45.0248 43.4501C45.2968 42.8759 45.6871 42.3657 46.1701 41.9529C46.7263 41.4816 47.3683 41.122 48.0608 40.894C48.8981 40.6161 49.7764 40.482 50.6585 40.4973H52.8019C53.684 40.4817 54.5624 40.6159 55.3996 40.894C56.0921 41.122 56.7341 41.4816 57.2903 41.9529C57.774 42.3651 58.1644 42.8755 58.4356 43.4501C58.6865 43.9793 58.8186 44.5569 58.8227 45.1425V54.1001H54.9134V45.7823C54.9145 45.4834 54.8834 45.1852 54.8206 44.8929C54.7615 44.6224 54.6274 44.374 54.4335 44.1763C54.2021 43.9529 53.9183 43.7912 53.6081 43.7061C53.1493 43.5773 52.6736 43.519 52.1973 43.5333H51.7302Z" fill="#0066B5"/>
<path d="M84.3044 51.0675H83.8437C83.3677 51.081 82.8922 51.0239 82.4329 50.8979C82.1232 50.8099 81.8399 50.6473 81.6075 50.4245C81.4137 50.2268 81.2795 49.9784 81.2204 49.7079C81.1577 49.4167 81.1266 49.1196 81.1277 48.8217V40.5039H77.2119V49.4615C77.2144 50.0473 77.3466 50.6253 77.599 51.1539C77.8702 51.7285 78.2606 52.2389 78.7443 52.6511C79.3005 53.1224 79.9425 53.4819 80.635 53.71C81.4722 53.9881 82.3506 54.1223 83.2327 54.1067H85.3761C86.2582 54.122 87.1365 53.9879 87.9738 53.71C88.6663 53.4819 89.3083 53.1224 89.8645 52.6511C90.3476 52.2383 90.7378 51.7281 91.0098 51.1539C91.2607 50.6247 91.3929 50.0471 91.3969 49.4615V40.5039H87.4812V48.8217C87.4822 49.1196 87.4511 49.4167 87.3884 49.7079C87.3294 49.9784 87.1952 50.2268 87.0013 50.4245C86.769 50.6473 86.4856 50.8099 86.1759 50.8979C85.7166 51.0239 85.2412 51.081 84.7651 51.0675H84.3044Z" fill="#0066B5"/>
<path d="M41.3231 35.8936H37.1162V39.0095H41.3231V35.8936Z" fill="#E60012"/>
<path d="M41.3231 39.9688H37.1162V54.1058H41.3231V39.9688Z" fill="#0066B5"/>
<path d="M123.459 39.9688V49.1183C123.447 49.8259 123.593 50.5273 123.884 51.1722C124.169 51.7861 124.593 52.3251 125.122 52.7461C125.709 53.2038 126.378 53.5458 127.093 53.7539C127.937 53.9979 128.812 54.1165 129.691 54.1058H131.053C131.931 54.1162 132.805 53.9976 133.648 53.7539C134.363 53.5472 135.032 53.2051 135.619 52.7461C136.151 52.324 136.58 51.7856 136.873 51.1722C137.171 50.5292 137.321 49.8272 137.311 49.1183V45.4585C137.32 44.7497 137.171 44.0478 136.873 43.4046C136.582 42.7934 136.153 42.2588 135.619 41.8435C135.03 41.39 134.362 41.0514 133.648 40.8453C132.805 40.6016 131.931 40.483 131.053 40.4934H129.988C129.106 40.4883 128.228 40.6034 127.378 40.8357V39.9688H123.459ZM128.027 44.0893C128.498 43.7152 129.09 43.5253 129.691 43.555H131.053C131.678 43.5272 132.293 43.7247 132.784 44.1116C132.997 44.2836 133.168 44.5023 133.284 44.7508C133.399 44.9993 133.456 45.271 133.45 45.5449V49.0319C133.456 49.3063 133.399 49.5785 133.284 49.8275C133.168 50.0765 132.997 50.2957 132.784 50.4684C132.291 50.8507 131.677 51.0437 131.053 51.0122H129.694C129.08 51.0446 128.476 50.846 128.001 50.4556C127.798 50.2768 127.637 50.0553 127.529 49.8071C127.421 49.5588 127.369 49.2897 127.378 49.0191V45.4585C127.379 45.1967 127.438 44.9384 127.55 44.7018C127.663 44.4653 127.825 44.2562 128.027 44.0893Z" fill="#0066B5"/>
<path d="M127.375 35.8936H123.459V39.0095H127.375V35.8936Z" fill="#E60012"/>
</svg>
