<svg width="119" height="90" viewBox="0 0 119 90" fill="none" xmlns="http://www.w3.org/2000/svg">
<path d="M41.3279 55.6154C35.0689 55.6154 31.1455 51.1858 31.1455 45.2374C31.1455 39.3465 35.1034 34.8594 41.3625 34.8594C46.4134 34.8594 49.3588 37.4711 50.5899 41.3715H47.2188C46.1488 38.9554 44.4114 37.7243 41.351 37.7243C37.0824 37.7243 34.5281 41.0609 34.5281 45.2489C34.5281 49.4369 37.0824 52.7736 41.351 52.7736C44.63 52.7736 46.4019 51.3123 47.2188 49.1263H50.5899C49.658 52.8426 46.3559 55.6154 41.3279 55.6154Z" fill="#050505"/>
<path d="M64.8465 55.2585H61.5329C61.4294 54.6141 61.3833 53.9698 61.3948 53.3255V52.8998H61.3718C60.8656 54.223 59.554 55.6266 56.7696 55.6266C53.5135 55.6266 51.6611 53.6017 51.6611 51.3005C51.6611 47.0895 56.597 46.9744 58.6795 46.6408C60.5895 46.3301 61.3718 46.054 61.3718 44.8459C61.3718 43.6378 60.3363 42.8554 58.5645 42.8554C56.9882 42.8554 55.8722 43.7299 55.7916 45.1796H52.6161C52.7542 42.7979 54.6411 40.3242 58.5069 40.3242C63.3278 40.3242 64.5704 43.2121 64.5704 46.3301V51.9103C64.5704 53.0149 64.6164 54.4991 64.8465 55.2585ZM61.4524 47.055C61.1187 47.9294 60.3018 48.5967 57.9202 49.0224C55.9297 49.3906 54.8942 49.9429 54.8942 51.243C54.8942 52.3936 55.9067 53.2335 57.5865 53.2335C59.577 53.2335 61.4639 51.8068 61.4639 48.5737L61.4524 47.055Z" fill="#050505"/>
<path d="M71.9701 42.8221C70.7045 42.8221 69.6114 43.5815 69.6114 44.617C69.6114 46.0207 71.2912 46.4119 73.7304 46.9756C76.2847 47.5394 78.1371 48.7475 78.1371 51.0716C78.1371 53.9595 75.3527 55.6508 72.1542 55.6508C69.1742 55.6508 66.3784 54.3047 66.0332 50.8185H69.2548C69.5309 52.4178 70.5204 53.1426 72.2002 53.1426C73.5809 53.1426 74.8695 52.5788 74.8695 51.2327C74.8695 49.806 73.4428 49.5759 71.1072 49.0121C68.783 48.4829 66.4474 47.3898 66.4474 44.7435C66.4474 42.0973 69.0246 40.3369 72.0046 40.3369C75.1456 40.3369 77.5043 41.9362 77.8379 45.0772H74.7659C74.5588 43.5009 73.2932 42.8221 71.9701 42.8221Z" fill="#050505"/>
<path d="M94.4489 47.954C94.4489 52.4757 91.6991 55.6743 87.8562 55.6743C85.3595 55.6743 83.7257 54.3511 83.1389 52.6138H83.1159V60.8403H79.7793V40.7515H83.1504V43.3863C83.6797 41.8101 85.371 40.3604 87.8677 40.3604C91.6991 40.3604 94.4489 43.4669 94.4489 47.954ZM91.1698 47.954C91.1698 45.2042 89.5935 43.0181 87.0508 43.0181C84.5541 43.0181 83.0124 44.9511 82.8973 47.6434V47.954C82.8973 50.8189 84.2204 52.982 87.0508 52.982C89.6511 52.982 91.1698 50.7614 91.1698 47.954Z" fill="#050505"/>
<path d="M109.716 48.886H98.5441C98.7742 51.5208 100.454 53.0395 102.721 53.0395C104.377 53.0395 105.747 52.4182 106.287 50.9685H109.509C108.635 53.9139 106.138 55.6513 102.721 55.6513C98.3715 55.6513 95.3916 52.5332 95.3916 47.9655C95.3916 43.5589 98.4751 40.3604 102.721 40.3604C107.657 40.3604 109.682 44.1802 109.705 48.2762L109.716 48.886ZM106.494 46.5273C106.264 44.2492 104.953 42.8801 102.709 42.8801C100.466 42.8801 98.9468 44.3068 98.6132 46.5273H106.494Z" fill="#050505"/>
<path d="M114.713 48.3797V55.26H111.457V40.7515H114.656V43.835H114.713C115.277 41.8675 116.681 40.5789 118.982 40.4639V43.7199C116.232 43.7545 114.713 45.5148 114.713 48.3797Z" fill="#050505"/>
<path d="M26.1296 53.6023C25.3703 53.6023 24.726 54.1316 24.5649 54.868L18.5245 54.5803C18.5475 54.4653 18.559 54.3502 18.559 54.2351C18.559 54.028 18.5245 53.8209 18.4669 53.6138L20.6645 52.3482C21.2053 53.0156 22.1832 53.1536 22.8851 52.6474C23.5869 52.1411 23.771 51.1747 23.2993 50.4498C22.8275 49.725 21.8726 49.4949 21.1247 49.9206C20.3769 50.3463 20.0892 51.2897 20.4804 52.0606L18.3519 53.2917C17.8456 52.2217 16.5915 51.7384 15.4985 52.1872C14.4055 52.6359 13.8532 53.867 14.2444 54.983L10.2865 55.938C10.2635 55.3972 10.0333 54.891 9.65367 54.4998L10.367 53.5103C11.1724 53.7864 12.0583 53.3837 12.3805 52.5899C12.7026 51.796 12.346 50.887 11.5751 50.5304C10.8042 50.1622 9.87227 50.4728 9.46958 51.2207C9.06688 51.9686 9.32 52.912 10.0449 53.3607L9.38904 54.2697C8.92881 53.9245 8.34203 53.7749 7.76675 53.844L7.08792 49.9666C7.93933 49.7825 8.59515 49.1152 8.77924 48.2753C8.96333 47.4238 8.64117 46.5494 7.95084 46.0317C7.26051 45.5024 6.32855 45.4334 5.56919 45.8361L3.85486 42.488C4.22303 42.3039 4.52218 42.0162 4.74079 41.6711L6.16748 42.0507C6.15597 42.1313 6.14447 42.2003 6.14447 42.2809C6.14447 43.1093 6.77727 43.8111 7.60567 43.8916C8.43407 43.9722 9.19344 43.4084 9.34301 42.58C9.49259 41.7516 8.99785 40.9577 8.19246 40.7391C7.38707 40.509 6.54716 40.9347 6.24802 41.7171L4.90186 41.3604C5.08595 40.9232 5.12047 40.44 5.00541 39.9797L8.97484 38.1504C9.71119 39.0708 11.0458 39.2664 12.0123 38.5761C12.9788 37.8857 13.2319 36.5626 12.5876 35.5731L15.1188 33.0994C15.4295 33.295 15.7861 33.4216 16.1428 33.4446V34.5376C15.3029 34.6297 14.6701 35.366 14.7161 36.2174C14.7621 37.0688 15.464 37.7362 16.3154 37.7362C17.1668 37.7362 17.8686 37.0688 17.9147 36.2174C17.9607 35.366 17.3394 34.6297 16.488 34.5376V33.4446C16.8101 33.4216 17.1093 33.3295 17.3854 33.18L20.1583 36.344C19.5139 37.1954 19.56 38.3805 20.2618 39.1744C20.9751 39.9682 22.1487 40.1523 23.0692 39.6001C23.9896 39.0478 24.3808 37.9318 24.0241 36.9308L24.887 36.4475C25.4393 37.0918 26.3943 37.2069 27.0731 36.6892C27.7519 36.1829 27.913 35.2279 27.4413 34.5261C26.9696 33.8243 26.0261 33.6057 25.3012 34.0429C24.5764 34.4801 24.3118 35.4005 24.703 36.1599L23.8861 36.6201C23.5524 36.0103 22.9541 35.5961 22.2753 35.4926C21.5965 35.389 20.8946 35.6076 20.3999 36.0909L17.6846 32.9959C17.9492 32.7888 18.1678 32.5126 18.3174 32.2135L20.699 32.6047C20.8831 33.4331 21.6885 33.9738 22.5169 33.8243C23.3568 33.6862 23.9321 32.9153 23.84 32.0754C23.748 31.2355 23.0116 30.6027 22.1717 30.6487C21.3203 30.6947 20.6645 31.3851 20.653 32.2365L18.4439 31.8683C18.7546 30.8098 18.2483 29.6823 17.2473 29.2105C16.2464 28.7388 15.0613 29.084 14.4515 30.0044C13.8417 30.9249 14.0028 32.156 14.8312 32.8923L12.369 35.297C11.9893 34.8598 11.4485 34.5836 10.8733 34.5376V32.8578C11.7132 32.7658 12.346 32.0294 12.2999 31.178C12.2539 30.3266 11.5636 29.6708 10.7122 29.6708C9.86077 29.6708 9.15893 30.3381 9.1129 31.1895C9.06688 32.0409 9.68818 32.7773 10.5396 32.8693V34.5376C9.78023 34.5951 9.1014 35.0439 8.74472 35.7112C8.38805 36.39 8.39956 37.1954 8.77924 37.8627L4.91337 39.6346C4.7753 39.3009 4.5567 39.0133 4.28056 38.7832L5.78779 36.0678C5.92586 36.1024 6.05242 36.1254 6.19049 36.1254C7.00738 36.1254 7.68621 35.5156 7.78976 34.7102C7.89331 33.9048 7.36406 33.1569 6.58168 32.9613C5.78779 32.7658 4.9824 33.1915 4.69476 33.9508C4.40712 34.7102 4.74079 35.5616 5.45413 35.9413L3.99292 38.5876C3.10699 38.0583 1.99095 38.2079 1.2661 38.9442C0.552757 39.6806 0.426196 40.7966 0.966958 41.6711C1.50772 42.5455 2.56623 42.9367 3.54421 42.626L5.28155 46.0202C4.84434 46.3423 4.53369 46.8256 4.43014 47.3548L3.16452 46.9866C3.19904 46.8601 3.21054 46.722 3.21054 46.5954C3.21054 45.7786 2.60075 45.0997 1.79536 45.0077C0.989969 44.9156 0.242107 45.4334 0.046512 46.2273C-0.149083 47.0212 0.288129 47.8265 1.059 48.1027C1.81837 48.3788 2.66978 48.0452 3.03796 47.3203L4.38411 47.7115C4.38411 47.746 4.38411 47.7805 4.38411 47.815C4.38411 48.5744 4.7638 49.2762 5.40811 49.6789L4.54519 50.8065C3.91238 50.2427 2.94592 50.2772 2.34763 50.887C1.74934 51.4968 1.72633 52.4518 2.3016 53.0846C2.87688 53.7174 3.83185 53.7864 4.49917 53.2457C5.16649 52.7049 5.28155 51.7499 4.78681 51.0596L5.71876 49.84C5.99489 49.9666 6.30554 50.0241 6.61619 50.0241C6.66222 50.0241 6.70824 50.0241 6.75426 50.0126L7.44459 53.913C6.52415 54.1891 5.87984 55.029 5.84532 55.984C5.82231 56.9505 6.4206 57.8134 7.32954 58.1355C8.23848 58.4577 9.25097 58.1585 9.83775 57.3877L13.0593 58.8259C13.0363 58.9409 13.0133 59.0675 13.0133 59.1825C13.0133 59.9994 13.6231 60.6898 14.44 60.7818C15.2569 60.8739 16.0047 60.3446 16.1888 59.5507C16.3729 58.7568 15.9242 57.9514 15.1533 57.6753C14.3825 57.3992 13.531 57.7559 13.1744 58.4922L10.0333 57.0885C10.1714 56.8354 10.2635 56.5593 10.2865 56.2716L14.3825 55.2706C14.6931 55.8459 15.2454 56.2486 15.8897 56.3867C16.534 56.5133 17.2013 56.3522 17.7076 55.9495L19.2378 57.2726C18.8811 58.055 19.1918 58.9754 19.9512 59.3666C20.7105 59.7693 21.6425 59.5047 22.0797 58.7683C22.5169 58.032 22.3098 57.0885 21.608 56.6053C20.8946 56.1221 19.9396 56.2831 19.4219 56.962L17.9607 55.7079C18.1793 55.4777 18.3404 55.1901 18.4439 54.891L24.5304 55.1901C24.5419 56.076 25.2552 56.7779 26.1412 56.7779C27.0271 56.7779 27.7404 56.053 27.7289 55.1786C27.7289 54.3157 27.0156 53.6023 26.1296 53.6023Z" fill="#FF473E"/>
</svg>
