<svg width="124" height="90" viewBox="0 0 124 90" fill="none" xmlns="http://www.w3.org/2000/svg">
<path d="M6.73993 38.3094H2.16016L3.22287 33.3096H19.7657L18.703 38.3094H14.1131L11.2185 51.9323H3.85037L6.73993 38.3094Z" fill="#00448D"/>
<path d="M8.61808 36.0159H0L1.81673 28H10.4399L8.61808 36.0159Z" fill="#E10012"/>
<path d="M22.7377 41.1263H22.7883C23.3401 40.3611 24.0733 39.745 24.9222 39.3333C25.7711 38.9217 26.7089 38.7275 27.6515 38.7681C29.1696 38.7681 30.6878 39.5626 30.9003 41.0707C31.4978 40.3419 32.2469 39.7521 33.0955 39.3422C33.9441 38.9323 34.8718 38.7122 35.8141 38.6973C38.4911 38.6973 40.1054 40.433 39.5184 43.1758L37.7523 51.5055H33.0308L34.5844 44.193C34.7919 42.9835 34.7767 41.6627 33.3142 41.6627C30.9863 41.6627 30.7384 44.193 30.708 44.36L29.1899 51.5004H24.4836L26.0422 44.1879C26.2497 42.9785 26.2295 41.6577 24.767 41.6577C22.4391 41.6577 22.1962 44.1879 22.1658 44.3549L20.6477 51.4953H15.9414L17.9049 42.2498C18.1374 41.1953 18.3147 40.1295 18.4362 39.0566H23.0919L22.7377 41.1263Z" fill="#00448D"/>
<path d="M44.3597 47.5134C44.5368 46.648 45.1795 46.1976 45.9487 45.8535C46.7179 45.5094 47.5883 45.5803 48.5802 45.5803C48.2259 47.2401 47.649 49.1479 45.6198 49.1479C45.4182 49.1548 45.2179 49.1136 45.0354 49.0277C44.8529 48.9418 44.6935 48.8137 44.5703 48.654C44.4472 48.4942 44.3638 48.3075 44.3272 48.1091C44.2906 47.9108 44.3017 47.7066 44.3597 47.5134V47.5134ZM52.0011 51.5061C52.1478 49.988 52.163 49.4819 52.2744 48.9506L53.6306 42.5591C54.2733 39.7607 51.4546 38.6979 48.9294 38.6979C47.4141 38.6555 45.905 38.9081 44.4862 39.4418C43.758 39.7002 43.1102 40.1451 42.6076 40.732C42.105 41.319 41.7651 42.0275 41.622 42.7868H46.055C46.1865 42.0429 46.7938 40.9246 47.9476 40.874C49.8453 40.8031 49.2583 42.3921 49.0255 43.4751H47.5428C43.4943 43.4751 40.458 44.7149 39.7496 47.736C39.1575 50.2663 40.3568 51.8705 43.2919 51.8705C44.1334 51.888 44.9676 51.7118 45.7301 51.3555C46.4926 50.9993 47.163 50.4725 47.6895 49.8159H47.7401C47.5862 50.3668 47.4995 50.9344 47.482 51.5061H52.0011Z" fill="#00448D"/>
<path d="M114.09 47.5993C114.267 46.7492 114.894 46.314 115.653 45.9699C116.412 45.6257 117.263 45.7067 118.234 45.7067C117.89 47.3362 117.323 49.2086 115.324 49.2086C115.126 49.2146 114.93 49.1734 114.751 49.0885C114.572 49.0035 114.416 48.8773 114.295 48.7201C114.174 48.5629 114.093 48.3793 114.057 48.1845C114.021 47.9896 114.033 47.7891 114.09 47.5993ZM121.589 51.5213C121.731 50.0588 121.746 49.5223 121.858 48.991L123.188 42.7159C123.821 39.9681 121.053 38.9256 118.573 38.9256C117.086 38.883 115.604 39.1305 114.211 39.6543C113.497 39.9095 112.862 40.3467 112.368 40.9227C111.875 41.4988 111.54 42.1936 111.397 42.9386H115.755C115.881 42.2099 116.478 41.1168 117.607 41.0662C119.474 40.9903 118.897 42.5489 118.669 43.5965H117.212C113.224 43.5965 110.239 44.816 109.56 47.7815C108.978 50.2865 110.158 51.8299 113.052 51.8299C113.88 51.8462 114.7 51.6722 115.449 51.3212C116.198 50.9702 116.857 50.4517 117.374 49.8057H117.419C117.269 50.3469 117.184 50.9042 117.166 51.4656L121.589 51.5213Z" fill="#00448D"/>
<path d="M89.7389 47.5994C89.916 46.7493 90.5435 46.314 91.2975 45.9699C92.0515 45.6258 92.9118 45.7068 93.8834 45.7068C93.5393 47.3363 92.9675 49.2087 90.9736 49.2087C90.7756 49.2146 90.579 49.1735 90.4 49.0885C90.2211 49.0036 90.0648 48.8774 89.9442 48.7202C89.8236 48.563 89.7421 48.3794 89.7064 48.1846C89.6707 47.9897 89.6818 47.7891 89.7389 47.5994V47.5994ZM97.2386 51.5213C97.3853 50.0588 97.4005 49.5224 97.5118 48.9911L98.8377 42.716C99.4753 39.9682 96.7072 38.9257 94.2276 38.9257C92.7399 38.8827 91.2582 39.1302 89.8654 39.6544C89.1506 39.9087 88.5148 40.3456 88.0211 40.9218C87.5275 41.498 87.1933 42.1933 87.0517 42.9387H91.4038C91.5354 42.21 92.1325 41.1169 93.261 41.0663C95.1233 40.9904 94.5464 42.549 94.3237 43.5965H92.8663C88.8735 43.5965 85.8929 44.8161 85.2148 47.7816C84.6328 50.2866 85.8119 51.83 88.7065 51.83C89.5332 51.8471 90.3527 51.6733 91.1013 51.3223C91.85 50.9712 92.5076 50.4523 93.0231 49.8058H93.0738C92.9207 50.3464 92.8357 50.904 92.8207 51.4657L97.2386 51.5213Z" fill="#00448D"/>
<path d="M57.7098 51.5062H52.9023L58.4689 45.0135L56.0399 39.0674H61.4648L62.2441 42.883L64.7136 39.0674H69.4655L64.4049 45.0135L67.2388 51.5062H61.7229L60.7411 46.896L57.7098 51.5062Z" fill="#00448D"/>
<path d="M102.971 39.3099L103.366 37.4629L108.356 35.7119L107.592 39.3099H110.264L109.646 42.2299H106.974L105.962 47.0677C105.896 47.3866 105.365 48.9604 106.438 48.9604C107.034 48.9734 107.631 48.9497 108.224 48.8895L107.642 51.6374C106.808 51.7956 105.961 51.8769 105.112 51.8803C101.974 51.8803 100.173 51.4451 101.205 47.7003L102.359 42.2299H99.9756L100.598 39.3099H102.971Z" fill="#00448D"/>
<path d="M72.6189 34.1797H80.2401C86.3127 34.1797 85.7611 38.4963 84.7945 43.2431C83.828 47.9899 82.6792 52.3065 76.6116 52.3065H69.0107L72.6189 34.1797ZM74.9366 48.9058H75.9841C78.0084 48.9058 78.4233 48.1417 79.3949 43.2431C80.3666 38.3445 80.2704 37.5804 78.2361 37.5804H77.1936L74.9366 48.9058Z" fill="#00448D"/>
<path d="M87.9323 60.0289H96.4644V59.0826H87.9323V60.0289ZM75.4632 60.8436H76.7536V53.5565H75.4632V60.8436ZM85.2047 55.1303H84.5266V53.6577H83.2817V57.8174H84.5266V56.193H85.2047V57.8174H86.4546V53.5362H85.2047V55.1303ZM73.0088 58.4196C72.5483 58.4449 72.103 58.4551 71.6678 58.4601H70.9846V57.2405H73.8843V56.279H70.9846V55.191H74.0209V54.2346H69.7195V59.4166H70.9846C71.7977 59.4166 72.4724 59.4014 73.0088 59.371C73.3125 59.371 73.611 59.3305 73.8995 59.2951L74.7142 59.2141V58.2779L73.9045 58.3538C73.6363 58.3792 73.3327 58.4045 73.0088 58.4196ZM79.8203 59.1332H85.1541V60.8639H86.4496V58.1818H79.8709L79.8203 59.1332ZM82.5176 54.0018H78.8993V57.5442H82.5176V54.0018ZM81.2474 56.6029H80.1796V54.9684H81.2474V56.6029ZM90.8118 57.4075C91.342 57.128 91.8075 56.74 92.1781 56.2689C92.5778 56.7478 93.0679 57.1433 93.6204 57.4328C94.1284 57.7367 94.6747 57.9716 95.2448 58.1312L96.0494 57.3215C95.2564 57.0935 94.5072 56.7343 93.8329 56.2588C93.5512 56.0842 93.3178 55.8417 93.1542 55.5534C92.9906 55.2652 92.9021 54.9404 92.8967 54.6091V53.9006H91.4797V54.6091C91.4701 54.9477 91.3757 55.2785 91.205 55.5711C91.0344 55.8638 90.793 56.1089 90.5031 56.2841C89.8287 56.751 89.0763 57.0937 88.2815 57.2962L89.1266 58.0958C89.724 57.9459 90.2979 57.7144 90.832 57.4075H90.8118ZM66.167 53.4502H65.2662C65.7022 54.0584 66.0514 54.7243 66.3036 55.4289C66.7151 56.5877 66.7151 57.8529 66.3036 59.0117C66.0506 59.7191 65.7016 60.3883 65.2662 61.0005H66.167C66.535 60.5033 66.873 59.9845 67.1791 59.4469C67.5412 58.7615 67.7304 57.998 67.7304 57.2228C67.7304 56.4476 67.5412 55.6842 67.1791 54.9987C66.8755 54.4613 66.5374 53.944 66.167 53.4502V53.4502ZM58.1562 55.6971C57.5585 55.9685 56.9242 56.1509 56.2737 56.2386L57.0277 57.0381C57.6486 56.9455 58.2556 56.7755 58.8343 56.5321C59.2921 56.3682 59.7011 56.0914 60.0235 55.7274C60.4431 56.101 60.9288 56.3928 61.4556 56.5877C61.9626 56.7836 62.4859 56.9343 63.0193 57.0381L63.7784 56.2487C63.1665 56.1519 62.5685 55.982 61.9971 55.7426C61.4806 55.5882 61.0426 55.2425 60.7725 54.7761H63.3331V53.8297H56.6987V54.7761H59.2796C59.1733 55.1151 58.7989 55.4238 58.1562 55.7072V55.6971ZM54.6593 53.4502H53.7788C53.3996 53.9443 53.0515 54.4615 52.7363 54.9987C52.3709 55.6831 52.1797 56.447 52.1797 57.2228C52.1797 57.9987 52.3709 58.7626 52.7363 59.4469C53.054 59.9842 53.402 60.5029 53.7788 61.0005H54.6745C54.2496 60.3859 53.9092 59.717 53.6624 59.0117C53.251 57.8529 53.251 56.5877 53.6624 55.4289C53.9037 54.7272 54.239 54.0616 54.6593 53.4502V53.4502ZM55.7474 58.5107H59.3454V60.8588H60.6561V58.5107H64.2592V57.5543H55.7474V58.5107ZM103.372 60.8386H104.718V53.5818H103.372V60.8386ZM117.896 58.3387C117.506 58.3387 117.132 58.3741 116.767 58.3791H116.064V57.2962H118.726V56.2436H116.064V55.2872H118.817V54.2346H114.672V59.4368H115.917C116.696 59.4368 117.344 59.4115 117.865 59.3862C118.139 59.3862 118.417 59.3457 118.695 59.3103C118.974 59.2749 119.252 59.2496 119.52 59.2293V58.2172L118.731 58.2982C118.452 58.3032 118.174 58.3286 117.896 58.3437V58.3387ZM111.975 60.8436H113.367V53.5818H111.975V60.8436ZM99.4349 58.3134H98.9845V55.4289H100.715V54.3763H97.5929V59.366H98.605C99.0638 59.366 99.5395 59.3457 100.032 59.3052C100.405 59.2799 100.777 59.2343 101.145 59.1686V58.1565C100.891 58.2072 100.634 58.241 100.376 58.2577C99.9713 58.283 99.6626 58.3032 99.4248 58.3032L99.4349 58.3134ZM119.566 56.3398V57.4986H120.684V60.8588H122.076V53.5818H120.684V56.3398H119.566ZM108.493 54.0473C108.162 54.0344 107.832 54.0953 107.528 54.2258C107.223 54.3562 106.951 54.5528 106.732 54.8014C106.3 55.3877 106.067 56.0971 106.067 56.8256C106.067 57.5541 106.3 58.2634 106.732 58.8498C106.958 59.0938 107.232 59.2886 107.537 59.4217C107.842 59.5549 108.171 59.6236 108.503 59.6236C108.836 59.6236 109.165 59.5549 109.47 59.4217C109.775 59.2886 110.049 59.0938 110.275 58.8498C110.699 58.2667 110.927 57.5643 110.927 56.8433C110.927 56.1223 110.699 55.4198 110.275 54.8368C110.056 54.5745 109.78 54.3667 109.467 54.2297C109.154 54.0926 108.814 54.0302 108.473 54.0473H108.493ZM109.273 57.9844C109.208 58.1345 109.1 58.2623 108.963 58.3522C108.827 58.4421 108.667 58.4902 108.503 58.4905C108.34 58.4874 108.18 58.4383 108.043 58.3488C107.906 58.2593 107.798 58.133 107.729 57.9844C107.531 57.6288 107.43 57.2275 107.436 56.8205C107.431 56.4168 107.532 56.0189 107.729 55.6667C107.797 55.5174 107.905 55.3904 108.042 55.3008C108.18 55.2111 108.34 55.1625 108.503 55.1607C108.667 55.161 108.827 55.209 108.963 55.2989C109.1 55.3888 109.208 55.5166 109.273 55.6667C109.457 56.0232 109.55 56.4194 109.546 56.8205C109.548 57.2335 109.447 57.6404 109.252 58.0047L109.273 57.9844ZM101.525 56.1778H100.219V57.2709H101.525V60.5349H102.866V53.7437H101.52L101.525 56.1778Z" fill="#231815"/>
</svg>
