<svg width="124" height="90" viewBox="0 0 124 90" fill="none" xmlns="http://www.w3.org/2000/svg">
<path d="M14.6889 46.4605L14.3665 46.1306C14.1191 45.8831 13.6992 46.0556 13.6992 46.408V51.0794C13.6992 51.2968 13.8791 51.4693 14.0891 51.4693H18.7604C19.1053 51.4693 19.2853 51.0494 19.0379 50.8019C18.8879 50.652 18.8879 50.4045 19.0379 50.2471L24.0016 45.2683C24.1516 45.1183 24.1516 44.8709 24.0016 44.7134L23.5518 44.2635C23.3043 44.0161 23.4843 43.5962 23.8292 43.5962H28.4931C28.7105 43.5962 28.883 43.7687 28.883 43.9861V48.6575C28.883 49.0024 28.4631 49.1823 28.2156 48.9349L27.9007 48.62C27.7432 48.4625 27.5033 48.4625 27.3458 48.62L18.9704 56.9879C18.8204 57.1379 18.573 57.1379 18.4155 56.9879L8.17301 46.7379C8.02304 46.588 8.01554 46.3405 8.17301 46.1831L22.352 32.004C22.502 31.8541 22.502 31.5991 22.352 31.4492L19.0154 28.1125C18.8654 27.9625 18.618 27.9625 18.4605 28.1125L0.112473 46.4755C-0.0374909 46.6255 -0.0374909 46.8804 0.112473 47.0304L18.468 65.3859C18.618 65.5358 18.8729 65.5358 19.0229 65.3859L37.3784 47.0304C37.5283 46.8804 37.5283 46.633 37.3784 46.4755L26.581 35.6781C26.4311 35.5282 26.1836 35.5282 26.0262 35.6781L15.2438 46.4605C15.0938 46.6105 14.8464 46.6105 14.6889 46.4605ZM99.4183 51.1019C98.9459 51.1019 98.5335 51.2743 98.196 51.6117C97.8586 51.9567 97.6862 52.3541 97.6862 52.8189C97.6862 53.5313 98.0461 54.0861 98.7659 54.476C99.5532 54.6935 100.183 54.551 100.655 54.0636C101 53.7187 101.165 53.3063 101.165 52.8264C101.165 52.3391 100.993 51.9342 100.655 51.6042C100.311 51.2743 99.9056 51.1019 99.4183 51.1019ZM71.5251 37.9051H70.2279C69.6655 37.9051 69.2156 38.355 69.2156 38.9173V39.6372C67.836 38.205 66.2838 37.4927 64.5368 37.4927C62.5273 37.4927 60.8477 38.2425 59.513 39.7346C58.1708 41.2268 57.5035 43.0938 57.5035 45.3283C57.5035 47.6077 58.1708 49.5048 59.5055 51.0344C60.8552 52.5265 62.5647 53.2763 64.6267 53.2763C66.2613 53.2763 67.791 52.609 69.2081 51.2818V52.7065C69.2081 53.3963 69.7705 53.9662 70.4603 53.9662H72.6723V39.0673C72.6798 38.43 72.1624 37.9051 71.5251 37.9051ZM68.2559 48.8674C67.4685 49.7447 66.4338 50.1871 65.1591 50.1871C63.9594 50.1871 62.9696 49.7297 62.1823 48.8224C61.4175 47.9226 61.0276 46.7529 61.0276 45.3283C61.0276 43.9936 61.425 42.8614 62.2123 41.9541C63.0071 41.0543 64.0044 40.6044 65.1891 40.6044C66.4488 40.6044 67.4685 41.0468 68.2559 41.9391C69.0432 42.8464 69.4406 44.0011 69.4406 45.4033C69.4331 46.8054 69.0357 47.9601 68.2559 48.8674ZM57.5035 40.4245V38.9473C57.5035 38.37 57.0386 37.9051 56.4612 37.9051H55.0966C54.5192 37.9051 54.0543 38.37 54.0543 38.9473V39.5922C52.8096 38.19 51.2425 37.4852 49.3605 37.4852C47.216 37.4852 45.4839 38.295 44.1792 39.9071C42.9645 41.4292 42.3572 43.2813 42.3572 45.4557C42.3572 47.6977 43.0095 49.5647 44.3217 51.0494C45.6189 52.5265 47.2835 53.2538 49.323 53.2538C51.1075 53.2538 52.6896 52.5565 54.0618 51.1543V53.2388C54.0618 56.3356 52.8021 57.8877 50.2752 57.8877C48.9031 57.8877 47.8608 57.4228 47.1485 56.493C46.9685 56.2606 46.8111 55.9607 46.6911 55.6083C46.5187 55.1134 46.0538 54.791 45.5364 54.791H44.2317C43.5719 54.791 43.0845 55.4208 43.2495 56.0582C43.6094 57.4153 44.2992 58.5176 45.3264 59.3723C46.6161 60.4446 48.2582 60.9845 50.2452 60.9845C52.6072 60.9845 54.4592 60.2046 55.8089 58.6525C56.5212 57.8427 57.0011 56.8755 57.2485 55.7507C57.331 55.3458 57.3985 54.8659 57.4435 54.3336C57.4885 53.8012 57.511 53.1789 57.511 52.474V50.3071C56.5437 48.9124 56.0563 47.2553 56.0563 45.3133C56.0488 43.4237 56.5362 41.7966 57.5035 40.4245ZM53.132 48.7474C52.3672 49.7072 51.325 50.1871 50.0053 50.1871C48.6856 50.1871 47.6509 49.7147 46.9086 48.7624C46.2262 47.8926 45.8813 46.7829 45.8813 45.4183C45.8813 44.0386 46.2262 42.9139 46.9086 42.0441C47.6659 41.0768 48.7006 40.5894 50.0053 40.5894C51.235 40.5894 52.2398 41.0318 53.0271 41.9241C53.8069 42.7939 54.1968 43.9561 54.1968 45.4033C54.1893 46.7604 53.8369 47.8777 53.132 48.7474ZM86.184 37.9201V37.9051H79.0307V33.5262C79.0307 32.9638 78.5733 32.5064 78.011 32.5064H76.6163C76.0465 32.5064 75.5816 32.9713 75.5816 33.5411V37.9051H74.1119V41.1218H75.5816V53.9512H77.5461C78.3634 53.9512 79.0232 53.2913 79.0307 52.474V52.4665V41.1293H82.5699C82.8473 40.5969 83.1922 40.102 83.5896 39.6522C84.3169 38.8499 85.1867 38.2725 86.184 37.9201ZM103.79 32.5064C103.175 32.5064 102.65 32.7238 102.215 33.1662C101.78 33.6086 101.555 34.126 101.555 34.7334C101.555 35.3707 101.773 35.9031 102.215 36.3455C102.657 36.7879 103.19 37.0053 103.812 37.0053C104.435 37.0053 104.959 36.7879 105.387 36.3455C105.829 35.9031 106.047 35.3782 106.047 34.7484C106.047 34.126 105.829 33.6011 105.387 33.1737C104.944 32.7238 104.412 32.5064 103.79 32.5064ZM104.487 39.5997H103.235C102.59 39.5997 102.073 40.117 102.073 40.7619V51.7167C102.335 52.0241 102.463 52.3915 102.463 52.8114C102.463 53.2313 102.335 53.6063 102.073 53.9137V54.5285H104.292C104.974 54.5285 105.522 53.9737 105.522 53.2988V40.6269C105.522 40.0571 105.057 39.5997 104.487 39.5997ZM120.706 41.7142C119.153 40.192 117.256 39.4272 115.029 39.4272C112.81 39.4272 110.928 40.1845 109.383 41.6992C107.839 43.2138 107.066 45.0433 107.066 47.2028C107.066 49.4898 107.824 51.3943 109.338 52.9089C110.853 54.4385 112.728 55.2109 114.962 55.2109C117.219 55.2109 119.131 54.461 120.683 52.9539C122.22 51.4393 123 49.5647 123 47.3228C123 45.1033 122.235 43.2363 120.706 41.7142ZM118.261 50.8244C117.459 51.6942 116.379 52.1216 115.029 52.1216C113.687 52.1216 112.608 51.6867 111.79 50.8019C110.995 49.9321 110.591 48.7474 110.591 47.2628C110.591 45.8756 111.003 44.7359 111.82 43.8586C112.638 42.9813 113.702 42.539 115.022 42.539C116.357 42.539 117.436 42.9813 118.254 43.8586C119.063 44.7284 119.468 45.8906 119.468 47.3378C119.476 48.7924 119.071 49.9471 118.261 50.8244Z" fill="#DE5959"/>
<path d="M87.4658 50.2171C86.7535 49.4973 86.3561 48.515 86.2661 47.2928H96.1562C96.6061 47.2928 96.981 46.9329 96.9885 46.483C96.9885 44.0161 96.3512 42.0891 95.0915 40.7019C93.8093 39.2997 92.0697 38.6024 89.8727 38.6024C87.6983 38.6024 85.9512 39.3222 84.6315 40.7619C83.3193 42.224 82.667 44.1361 82.667 46.498C82.667 48.8824 83.3418 50.7944 84.6915 52.2341C85.6363 53.2388 86.791 53.8837 88.1556 54.1836C88.733 54.3186 89.3254 54.3861 89.9252 54.3786C92.3846 54.4311 94.5216 54.4835 96.9735 54.5285V54.1686C96.6736 53.8387 96.5236 53.4488 96.5236 52.9914C96.5236 52.5415 96.6811 52.1591 96.9885 51.8292V51.3943C95.0465 51.3493 90.3526 51.2968 90.1652 51.2968C89.0779 51.2968 88.1706 50.9369 87.4658 50.2171ZM86.9859 43.3188C87.2034 42.9814 87.4583 42.6964 87.7583 42.4565C88.0582 42.2165 88.3956 42.0291 88.763 41.9016C89.1304 41.7741 89.5278 41.7067 89.9477 41.7067C91.7848 41.7067 92.947 42.6289 93.4269 44.466H86.4911C86.611 44.0386 86.776 43.6562 86.9859 43.3188Z" fill="#DE5959"/>
</svg>
