<svg width="104" height="90" viewBox="0 0 104 90" fill="none" xmlns="http://www.w3.org/2000/svg">
<path d="M5.13266 53.1859V37.7515H25.4813V32.6188H5.13266H0V37.7515V53.1859V58.3549H5.13266H20.3122H25.4813V53.1859V48.1988V43.0298H20.3122H10.1561V48.1988H20.3122V53.1859H5.13266Z" fill="#FA4C13"/>
<path d="M31.8874 42.4473V32.2912H28.7568V42.4473V45.5779V54.9331V58.0637H31.8874H41.2427H44.3732V54.9331V45.5779V42.4473H41.2427H31.8874ZM41.2063 54.9331H31.8874V45.5779H41.2427V54.9331H41.2063Z" fill="#37393D"/>
<path d="M69.9997 42.4473H66.8691V58.0273H69.9997V42.4473Z" fill="#37393D"/>
<path d="M69.9997 32H66.8691V35.1306H69.9997V32Z" fill="#37393D"/>
<path d="M100.869 49.0725V45.9419H97.7745V48.9996H95.0444V32.2912H91.9502V58.0273H95.0444V52.1302H97.7745V49.0725H100.869Z" fill="#37393D"/>
<path d="M104 42.8477H100.869V45.9783H104V42.8477Z" fill="#37393D"/>
<path d="M100.905 52.1302H97.7744V55.2608H100.905V52.1302Z" fill="#37393D"/>
<path d="M104 55.2244H100.869V58.3549H104V55.2244Z" fill="#37393D"/>
<path d="M47.1396 42.4473V45.5779V58.0273H50.2702V45.5779H62.7196V42.4473H50.2702H47.1396Z" fill="#37393D"/>
<path d="M73.458 42.4473V45.5779V54.9331V58.0273H76.5886H89.038V54.9331H76.5886V45.5779H89.038V42.4473H76.5886H73.458Z" fill="#37393D"/>
</svg>
