<svg width="186" height="90" viewBox="0 0 186 90" fill="none" xmlns="http://www.w3.org/2000/svg">
<path d="M29.4443 50.9367C28.9669 50.9367 28.3152 50.4593 27.8984 50.0577C27.4968 49.6712 27.1104 49.0726 27.1104 48.671V37.5014H29.6261V48.3148C29.6261 48.6255 29.755 48.7164 30.0657 48.7164H35.5898C36.0823 48.7164 36.1581 49.1332 36.1581 49.8304C36.1581 50.5427 36.0823 50.9443 35.5898 50.9443H29.4443V50.9367Z" fill="#333644"/>
<path d="M36.5215 46.0339C36.5215 42.8588 38.4538 40.8356 41.1893 40.8356C44.2507 40.8356 45.8951 43.4651 45.8951 46.14C45.8951 46.8144 45.5314 47.072 45.0161 47.072H38.9842C39.2419 48.4057 40.5377 49.0574 41.8865 49.0574C42.5988 49.0574 43.5081 48.8225 44.1295 48.6179C44.5463 48.4512 44.7888 48.6331 45.0616 49.2923C45.3722 50.0577 45.3571 50.2623 44.9176 50.5123C44.281 50.8761 43.0383 51.1716 41.985 51.1716C38.8933 51.1716 36.5215 49.3529 36.5215 46.0339ZM43.4702 44.973C43.3263 43.8212 42.4094 42.9119 41.2121 42.927C39.8633 42.9422 39.1509 43.9273 38.9691 44.973H43.4702Z" fill="#333644"/>
<path d="M48.8812 43.2453C48.3886 43.2453 48.2068 42.9346 48.2068 42.1541C48.2068 41.4039 48.3886 41.0933 48.8812 41.0933H52.0184C54.5341 41.0933 55.5723 42.0784 55.5723 44.5942V50.4669C55.5723 50.9443 55.0949 51.1034 54.4053 51.1034C53.8067 51.1034 53.4202 50.9746 53.2535 50.7397C52.4124 51.0882 51.3364 51.2853 50.518 51.2853C48.6235 51.2853 47.0322 50.2471 47.0322 47.9283C47.0322 45.6475 48.6917 44.4653 50.9347 44.4653C51.738 44.4653 52.5412 44.6093 53.1777 44.7912V44.5184C53.1777 43.6394 52.7913 43.2453 51.9047 43.2453H48.8812ZM49.4344 47.9132C49.4344 48.6028 49.8739 49.1862 50.768 49.1862C51.647 49.1862 52.5033 48.9665 53.1929 48.7088V46.8826C52.5564 46.7159 51.8289 46.5568 51.0408 46.5568C49.9951 46.5644 49.4344 47.0721 49.4344 47.9132Z" fill="#333644"/>
<path d="M62.12 53.3616C63.9235 53.3616 64.5297 52.0127 64.5979 50.3381C63.9235 50.8837 62.8626 51.1792 61.9684 51.1792C58.9601 51.1792 57.2627 48.7695 57.2627 46.0188C57.2627 43.0104 59.195 40.8432 61.7335 40.8432C62.9384 40.8432 63.8856 41.26 64.5979 42.0102V41.1008H66.9849V50.4745C66.9849 53.1721 65.6209 55.4909 62.3549 55.4909H59.5436C59.1268 55.4909 58.9449 55.2711 58.9449 54.43C58.9449 53.5889 59.1268 53.3691 59.5436 53.3691H62.12V53.3616ZM62.12 42.9725C60.6045 42.9725 59.68 44.3365 59.68 46.0188C59.68 47.6783 60.6499 49.065 62.12 49.065C63.5446 49.065 64.6206 48.0041 64.6206 45.9278C64.6206 44.1395 63.5295 42.9725 62.12 42.9725Z" fill="#333644"/>
<path d="M75.1755 50.1865C74.5011 50.77 73.5918 51.1716 72.5688 51.1716C70.4319 51.1716 69.0527 49.7849 69.0527 47.7086V41.0933H71.4246V47.8374C71.4246 48.8377 72.3036 49.0802 73.2129 49.0802C74.3041 49.0802 75.1073 48.7316 75.1073 48.1708V41.0933H77.4791V50.5578C77.4791 50.9215 77.2215 51.1034 76.297 51.1034C75.3877 51.1034 75.1831 50.9215 75.1831 50.5578V50.1865H75.1755Z" fill="#333644"/>
<path d="M79.1543 46.0339C79.1543 42.8588 81.0866 40.8356 83.8222 40.8356C86.8835 40.8356 88.5279 43.4651 88.5279 46.14C88.5279 46.8144 88.1642 47.072 87.6489 47.072H81.617C81.8747 48.4057 83.1629 49.0574 84.5193 49.0574C85.2316 49.0574 86.1409 48.8225 86.7623 48.6179C87.1791 48.4512 87.4216 48.6331 87.6944 49.2923C88.0051 50.0577 87.9899 50.2623 87.5504 50.5123C86.9139 50.8761 85.6711 51.1716 84.6178 51.1716C81.5261 51.1716 79.1543 49.3529 79.1543 46.0339ZM86.1031 44.973C85.9591 43.8212 85.0422 42.9119 83.8449 42.927C82.4961 42.9422 81.7838 43.9273 81.6019 44.973H86.1031Z" fill="#333644"/>
<path d="M95.416 46.0339C95.416 43.2453 97.2953 40.8356 100.357 40.8356C103.441 40.8356 105.35 43.2453 105.35 46.0339C105.35 48.8452 103.433 51.1792 100.357 51.1792C97.2953 51.1716 95.416 48.8377 95.416 46.0339ZM102.971 46.0339C102.971 44.4274 101.971 42.9725 100.364 42.9725C98.7957 42.9725 97.8106 44.435 97.8106 46.0339C97.8106 47.6555 98.7957 49.0801 100.364 49.0801C101.963 49.0801 102.971 47.6555 102.971 46.0339Z" fill="#333644"/>
<path d="M110.647 43.4045V50.5502C110.647 50.914 110.39 51.0958 109.465 51.0958C108.556 51.0958 108.283 50.914 108.283 50.5502V43.4045H106.518V41.2675H108.283V39.5247C108.283 38.047 109.102 37.115 110.511 37.115H112.299C112.701 37.115 112.868 37.3499 112.868 38.1758C112.868 38.9942 112.701 39.2367 112.299 39.2367H111.095C110.769 39.2367 110.655 39.3807 110.655 40.0172V41.2751H112.458C112.86 41.2751 113.027 41.51 113.027 42.336C113.027 43.1544 112.86 43.412 112.458 43.412H110.647V43.4045Z" fill="#333644"/>
<path d="M119.854 37.5014H129.371C129.864 37.5014 129.939 37.9182 129.939 38.6154C129.939 39.3277 129.864 39.7293 129.371 39.7293H126.037V50.5805C126.037 51.0201 125.56 51.111 124.779 51.111C124.014 51.111 123.521 51.0201 123.521 50.6033V39.7217H119.854V37.5014Z" fill="#333644"/>
<path d="M132.979 50.5578C132.979 50.9215 132.721 51.1034 131.796 51.1034C130.887 51.1034 130.614 50.9215 130.614 50.5578V41.0933H132.986V42.1844C133.426 41.4949 134.282 41.0933 135.032 41.0933H136.873C137.275 41.0933 137.419 41.3282 137.419 42.1541C137.419 42.9725 137.275 43.2302 136.873 43.2302H134.805C133.926 43.2302 132.979 43.9046 132.979 44.8745V50.5578Z" fill="#333644"/>
<path d="M139.601 43.2453C139.108 43.2453 138.926 42.9346 138.926 42.1541C138.926 41.4039 139.108 41.0933 139.601 41.0933H142.738C145.254 41.0933 146.292 42.0784 146.292 44.5942V50.4669C146.292 50.9443 145.815 51.1034 145.125 51.1034C144.526 51.1034 144.14 50.9746 143.973 50.7397C143.132 51.0882 142.056 51.2853 141.238 51.2853C139.343 51.2853 137.752 50.2471 137.752 47.9283C137.752 45.6475 139.411 44.4653 141.654 44.4653C142.458 44.4653 143.261 44.6093 143.897 44.7912V44.5184C143.897 43.6394 143.511 43.2453 142.624 43.2453H139.601ZM140.147 47.9132C140.147 48.6028 140.586 49.1862 141.48 49.1862C142.359 49.1862 143.215 48.9665 143.905 48.7088V46.8826C143.269 46.7159 142.541 46.5568 141.753 46.5568C140.715 46.5644 140.147 47.0721 140.147 47.9132Z" fill="#333644"/>
<path d="M155.34 50.5578V50.0274C154.612 50.7548 153.665 51.1792 152.369 51.1792C149.831 51.1792 147.989 48.8831 147.989 46.0188C147.989 43.2832 149.687 40.8432 152.695 40.8432C153.665 40.8432 154.756 41.3357 155.324 41.9041V36.9331H157.711V50.5578C157.711 50.9215 157.514 51.1034 156.529 51.1034C155.537 51.1034 155.34 50.9215 155.34 50.5578ZM152.839 42.9725C151.376 42.9725 150.399 44.2304 150.399 46.0188C150.399 47.8601 151.46 49.0423 152.839 49.0423C153.733 49.0423 155.317 48.4436 155.34 46.1097C155.355 43.6773 153.862 42.9725 152.839 42.9725Z" fill="#333644"/>
<path d="M159.402 46.0339C159.402 42.8588 161.335 40.8356 164.07 40.8356C167.132 40.8356 168.776 43.4651 168.776 46.14C168.776 46.8144 168.412 47.072 167.897 47.072H161.865C162.123 48.4057 163.411 49.0574 164.767 49.0574C165.48 49.0574 166.389 48.8225 167.01 48.6179C167.427 48.4512 167.67 48.6331 167.942 49.2923C168.253 50.0577 168.238 50.2623 167.798 50.5123C167.162 50.8761 165.919 51.1716 164.866 51.1716C161.774 51.1716 159.402 49.3529 159.402 46.0339ZM166.351 44.973C166.207 43.8212 165.29 42.9119 164.093 42.927C162.744 42.9422 162.032 43.9273 161.85 44.973H166.351Z" fill="#333644"/>
<path d="M172.807 50.5578C172.807 50.9215 172.549 51.1034 171.624 51.1034C170.715 51.1034 170.442 50.9215 170.442 50.5578V41.0933H172.814V42.1844C173.254 41.4949 174.11 41.0933 174.86 41.0933H176.702C177.103 41.0933 177.247 41.3282 177.247 42.1541C177.247 42.9725 177.103 43.2302 176.702 43.2302H174.64C173.761 43.2302 172.814 43.9046 172.814 44.8745V50.5578H172.807Z" fill="#333644"/>
<path d="M178.316 50.5351C177.929 50.2774 177.823 50.0956 178.134 49.3529C178.459 48.5497 178.641 48.5118 179.028 48.6634C179.869 48.9741 180.96 49.2468 181.672 49.2468C182.711 49.2468 183.605 48.8983 183.605 48.2466C183.605 47.7692 182.915 47.3676 181.597 46.8978C180.354 46.4431 178.293 45.602 178.293 43.7227C178.293 41.7752 180.058 40.6613 182.12 40.6613C183.362 40.6613 184.688 41.116 185.295 41.5024C185.552 41.6691 185.696 41.798 185.37 42.5936C185.045 43.3969 184.863 43.4726 184.491 43.3211C183.703 43.0104 182.999 42.7906 182.12 42.7906C181.354 42.7906 180.695 43.1013 180.695 43.7227C180.695 44.3213 181.604 44.6927 182.771 45.1246C184.484 45.7838 185.999 46.4734 185.999 48.2239C185.999 50.0122 184.249 51.3762 181.68 51.3762C180.445 51.3762 178.914 50.9367 178.316 50.5351Z" fill="#333644"/>
<path d="M8.26538 43.897C7.66675 44.4956 7.66675 45.4732 8.26538 46.0642L10.4478 48.2466L12.6301 46.0642C13.2288 45.4656 13.2288 44.4881 12.6301 43.897L10.4553 41.7146L8.26538 43.897Z" fill="#14B97E"/>
<path d="M14.7822 36.3344L10.4478 32L1.77886 40.6689C-0.592955 43.0407 -0.592955 46.9205 1.77886 49.2923L1.8016 49.315L14.7822 36.3344Z" fill="#14B97E"/>
<path d="M7.56058 46.4203C6.77249 45.6323 6.77249 44.3365 7.56058 43.5484L1.79395 49.315L5.59037 53.1115L9.92482 48.777C9.90966 48.7619 7.56058 46.4203 7.56058 46.4203Z" fill="url(#paint0_linear_1205_374)"/>
<path d="M15.3044 36.8573L10.9775 41.1842C10.9927 41.1993 13.3342 43.5408 13.3342 43.5408C14.1223 44.3289 14.1223 45.6247 13.3342 46.4128L19.1008 40.6461L15.3044 36.8573Z" fill="url(#paint1_linear_1205_374)"/>
<path d="M19.1017 40.6537L6.12109 53.6343L10.448 57.9612L19.1168 49.2923C21.4887 46.9205 21.4887 43.0407 19.1168 40.6689L19.1017 40.6537Z" fill="#14B97E"/>
<defs>
<linearGradient id="paint0_linear_1205_374" x1="8.41376" y1="50.1621" x2="4.855" y2="46.6033" gradientUnits="userSpaceOnUse">
<stop stop-color="#12B97E"/>
<stop offset="1" stop-color="#008B51"/>
</linearGradient>
<linearGradient id="paint1_linear_1205_374" x1="12.3199" y1="39.6365" x2="16.2334" y2="43.55" gradientUnits="userSpaceOnUse">
<stop stop-color="#12B97E"/>
<stop offset="1" stop-color="#008B51"/>
</linearGradient>
</defs>
</svg>
