<svg width="139" height="90" viewBox="0 0 139 90" fill="none" xmlns="http://www.w3.org/2000/svg">
<path d="M20.8781 39.3884L18.6025 45.5225H21.3728L20.8781 39.3884ZM135.25 36.915V43.0491C135.25 44.83 135.448 46.7098 135.745 48.6885L131.094 36.915H126.543V52.1514H129.808V46.6109C129.808 45.4236 129.808 44.3353 129.709 43.4449C129.61 42.5544 129.511 41.565 129.413 40.3778L133.865 52.1514H138.515V36.915H135.25V36.915ZM117.144 45.6215H121.893V43.148H117.144V39.4874H122.586L122.982 36.915H113.484V52.1514H122.982V49.579H117.144V45.6215ZM105.668 43.7417L110.614 36.915H106.756L101.809 44.0385L106.756 52.1514H111.01L105.668 43.7417ZM98.0493 36.915V52.1514H101.71V36.915H98.0493ZM92.7067 38.6959C91.5195 37.3107 89.7386 36.6182 87.562 36.6182C86.0779 36.6182 84.8907 36.915 83.8023 37.6075C82.714 38.2012 81.9225 39.1905 81.3289 40.3778C80.7353 41.565 80.5374 42.9502 80.5374 44.6321C80.5374 46.314 80.8342 47.6992 81.3289 48.9854C81.9225 50.1726 82.714 51.063 83.8023 51.7556C84.8907 52.3492 86.0779 52.745 87.562 52.745C89.046 52.745 90.2333 52.4482 91.3216 51.7556C92.4099 51.063 93.2014 50.1726 93.6961 48.9854C94.2897 47.7981 94.5865 46.314 94.5865 44.731C94.5865 41.9608 93.9929 40.081 92.7067 38.6959ZM89.9365 48.5896C89.4418 49.3811 88.6503 49.8758 87.562 49.8758C86.4737 49.8758 85.6822 49.48 85.1875 48.5896C84.6928 47.6992 84.396 46.413 84.396 44.5332C84.396 42.6534 84.6928 41.2682 85.1875 40.4767C85.6822 39.5863 86.4737 39.1905 87.562 39.1905C88.6503 39.1905 89.4418 39.5863 89.9365 40.4767C90.4312 41.2682 90.728 42.6534 90.728 44.5332C90.728 46.413 90.4312 47.7981 89.9365 48.5896ZM67.4777 36.915V39.6852H71.5341V52.1514H75.1948V39.6852H79.0533L79.3502 36.915H67.4777ZM62.7287 36.915H58.2765L53.6264 52.0524H57.386L58.1775 48.7875H62.7287L63.5202 52.0524H67.3787L62.7287 36.915ZM58.8701 46.314L60.4531 39.5863L62.135 46.314H58.8701ZM46.305 49.2822V36.915H42.5454V52.0524H51.9445L52.3402 49.1832H46.305V49.2822Z" fill="black"/>
<path d="M20.8758 39.3884L18.6002 45.5226H21.3705L20.8758 39.3884ZM16.2257 29C7.22244 29 0 36.1235 0 44.83C0 53.5365 7.22244 60.66 16.2257 60.66C25.1301 60.66 32.4515 53.5365 32.4515 44.83C32.4515 36.1235 25.1301 29 16.2257 29ZM21.7662 51.162L21.5684 48.2928H17.7098L16.6215 51.162H4.84794L11.2789 36.915H15.2364L10.1906 48.1939H13.8512L18.996 36.915H23.745L26.0206 51.162H21.7662ZM18.6002 45.5226H21.3705L20.8758 39.3884L18.6002 45.5226Z" fill="black"/>
</svg>
