<svg width="169" height="90" viewBox="0 0 169 90" fill="none" xmlns="http://www.w3.org/2000/svg">
<path d="M32.5654 49.3567L25.4081 36.9416C23.839 34.354 20.0126 34.3264 18.4986 37.0517L10.9835 49.9623C9.57957 52.3297 11.3138 55.3027 14.1217 55.3027H29.1794C32.0148 55.3027 34.1344 52.2471 32.5654 49.3567Z" fill="#00B897"/>
<path d="M22.2427 50.3201L21.8023 49.5493C21.3894 48.8336 20.481 47.2921 20.481 47.2921L14.4248 36.7764C12.8557 34.4365 9.13946 34.2438 7.57037 37.1893L0.523236 49.3842C-0.935742 51.9443 0.798515 55.2752 3.96422 55.3027H18.9394H25.3259H29.1247C25.2433 55.3302 24.0045 53.3207 22.2427 50.3201Z" fill="#76FCB2"/>
<path d="M22.2426 50.3201L21.8021 49.5494C21.3892 48.8336 20.4808 47.2921 20.4808 47.2921L16.5718 40.4101L10.9561 49.9898C9.55223 52.3572 11.2865 55.3302 14.0943 55.3302H18.9117H25.2982H29.1246C25.2156 55.3027 24.0044 53.3207 22.2426 50.3201Z" fill="url(#paint0_linear_1201_262)"/>
<path d="M167.618 54.3392C166.6 54.3392 165.802 54.119 165.196 53.7336C164.563 53.3207 164.232 52.7151 164.232 51.8892V39.8871H165.829C166.407 39.8871 166.903 40.355 166.903 40.9606V51.5314C166.903 51.5589 166.903 52.0544 167.316 52.4673C167.563 52.715 167.866 52.8527 168.279 52.8527H168.582C168.692 52.8527 168.802 52.9628 168.802 53.0729V54.3667L167.618 54.3392Z" fill="#00B897"/>
<path d="M133.208 54.3392C131.557 54.3392 130.208 53.8987 129.189 53.0179C128.666 52.5774 128.308 52.0819 128.088 51.5314C127.868 50.9808 127.758 50.1825 127.758 49.1089C127.758 48.0628 127.868 47.237 128.088 46.6864C128.281 46.1634 128.639 45.6954 129.162 45.255C130.18 44.3741 131.529 43.9337 133.181 43.9337C134.832 43.9337 136.181 44.3741 137.2 45.255C137.723 45.6954 138.081 46.1909 138.273 46.6864C138.494 47.2645 138.604 48.0628 138.604 49.1089C138.604 50.1825 138.494 50.9808 138.273 51.5314C138.053 52.0819 137.695 52.5774 137.172 53.0179C136.209 53.8987 134.86 54.3392 133.208 54.3392ZM133.208 45.4477C131.391 45.4477 130.483 46.6864 130.483 49.1364C130.483 51.6139 131.391 52.8527 133.208 52.8527C135.025 52.8527 135.934 51.6139 135.934 49.164C135.934 46.6864 134.998 45.4477 133.208 45.4477Z" fill="#00B897"/>
<path d="M144.605 54.3392C143.174 54.3392 141.852 53.9538 140.724 53.2106C140.613 53.1004 140.393 52.9628 140.118 52.7976C140.063 52.7701 140.008 52.6875 140.008 52.6049V39.8871H141.632C142.21 39.8871 142.706 40.3826 142.706 40.9606V44.6769L143.201 44.4016C143.779 44.0988 144.55 43.9612 145.541 43.9612C147.275 43.9612 148.597 44.4842 149.477 45.5027C150.248 46.4112 150.634 47.6224 150.634 49.1089C150.634 50.5954 150.193 51.8066 149.312 52.6875C148.294 53.7886 146.697 54.3392 144.605 54.3392ZM144.88 45.4477C144.275 45.4477 143.586 45.6679 142.816 46.1359L142.706 46.1909V52.1645L142.816 52.2471C143.421 52.6325 144.137 52.8252 144.88 52.8252C145.871 52.8252 146.642 52.4122 147.165 51.5864C147.606 50.9257 147.853 50.0724 147.853 49.1089C147.853 46.6864 146.835 45.4477 144.88 45.4477Z" fill="#00B897"/>
<path d="M156.993 54.3117C153.965 54.3117 152.065 52.3297 152.065 49.1089C152.065 45.9157 153.937 43.9337 156.938 43.9337C158.094 43.9337 159.085 44.2365 159.883 44.8145L160.049 44.9247V44.1264H162.168C162.306 44.1264 162.388 44.2365 162.388 44.3466V54.119H160.021V53.2381L159.856 53.3757C159.195 53.9813 158.149 54.3117 156.993 54.3117ZM157.543 45.6954C155.644 45.6954 154.515 47.1544 154.515 49.1089C154.515 51.0634 155.644 52.5774 157.543 52.5774C158.149 52.5774 159.195 52.5224 160.021 51.6965L160.049 51.669V46.6589L160.021 46.6314C159.443 45.9707 158.59 45.6954 157.543 45.6954Z" fill="#00B897"/>
<path d="M59.1855 54.2016V39.8595H71.1051V40.7679C71.1051 41.4837 70.527 42.0618 69.8113 42.0618H62.1586V45.9157H69.8113V48.1179H62.1586V51.9718H69.8113C70.527 51.9718 71.1051 52.5499 71.1051 53.2656V54.174L59.1855 54.2016Z" fill="black"/>
<path d="M88.2275 39.8595H85.4196C84.8966 39.8595 84.4286 40.0798 84.0983 40.4927L80.7124 44.7595L77.3264 40.5202C76.9961 40.1073 76.5281 39.8871 76.0051 39.8871H73.1973L78.8955 47.0443L73.1973 54.2016H76.0051C76.5281 54.2016 76.9961 53.9813 77.3264 53.5684L80.7124 49.3291L84.1258 53.5959C84.4562 53.9813 84.9241 54.2291 85.4472 54.2291H88.255L82.5567 47.0718L88.2275 39.8595Z" fill="black"/>
<path d="M49.854 52.6875L53.7629 45.8606V54.174H56.7359V39.832H54.8916C54.3135 39.832 53.7629 40.1348 53.4877 40.6578L48.8079 49.1915L44.1282 40.6578C43.8529 40.1348 43.3023 39.832 42.7243 39.832H40.8799V54.174H43.8529V45.8606L47.7619 52.6875H49.854Z" fill="black"/>
<path d="M95.9907 54.3667C91.8615 54.4218 88.5031 51.1735 88.4756 47.0443C88.4756 44.787 89.1638 42.9151 90.4576 41.6213C91.7514 40.355 93.6233 39.6668 95.8531 39.6668C98.4682 39.6668 100.533 40.5753 102.019 42.337L101.083 43.1354C100.505 43.6309 99.6519 43.6584 99.0188 43.1904C98.1929 42.5573 97.1469 42.2545 95.9632 42.2545C93.0452 42.2545 91.311 44.0162 91.311 46.9893C91.311 49.9898 93.1003 51.8342 95.9632 51.8342C97.1744 51.8342 98.1929 51.5038 99.0188 50.8982C99.6244 50.4302 100.478 50.4578 101.083 50.9533L102.019 51.7516C100.533 53.4858 98.5508 54.3667 95.9907 54.3667Z" fill="black"/>
<path d="M114.297 54.3667C109.672 54.3667 106.81 51.5589 106.81 47.0443C106.81 42.5297 109.672 39.7219 114.242 39.7219C116.444 39.7219 118.289 40.355 119.72 41.6488L119.032 42.4196C118.729 42.75 118.289 42.9427 117.848 42.9427C117.601 42.9427 117.353 42.8876 117.133 42.7775C116.279 42.337 115.288 42.1168 114.242 42.1168C111.269 42.1168 109.425 44.0162 109.425 47.0718C109.425 50.155 111.352 52.0544 114.435 52.0544C115.921 52.0544 117.077 51.7791 117.931 51.1735L117.986 51.146V48.2005H114.71V47.237C114.71 46.5213 115.288 45.9432 116.004 45.9432H120.05C120.161 45.9432 120.271 46.0533 120.271 46.1634V52.5224C118.867 53.7336 116.857 54.3667 114.297 54.3667Z" fill="#00B897"/>
<path d="M125.583 54.3392C124.565 54.3392 123.766 54.119 123.161 53.7336C122.528 53.3207 122.197 52.7151 122.197 51.8892V39.8871H123.794C124.372 39.8871 124.867 40.355 124.867 40.9606V51.5314C124.867 51.5589 124.867 52.0544 125.28 52.4673C125.528 52.715 125.831 52.8527 126.244 52.8527H126.547C126.657 52.8527 126.767 52.9628 126.767 53.0729V54.3667L125.583 54.3392Z" fill="#00B897"/>
<defs>
<linearGradient id="paint0_linear_1201_262" x1="8.94493" y1="45.6221" x2="26.342" y2="52.0509" gradientUnits="userSpaceOnUse">
<stop stop-color="#53E57A" stop-opacity="0"/>
<stop offset="1" stop-color="#00A977"/>
</linearGradient>
</defs>
</svg>
