<svg width="137" height="90" viewBox="0 0 137 90" fill="none" xmlns="http://www.w3.org/2000/svg">
<path fill-rule="evenodd" clip-rule="evenodd" d="M28.0576 33.9887L28.2289 35.0242C28.3639 35.9874 28.4264 36.9595 28.416 37.9321C28.4149 40.0815 28.1556 42.223 27.6437 44.3106C26.9514 47.1467 25.7455 49.832 24.0858 52.2337C22.168 54.992 19.395 57.7048 15.3529 59.8847L14.8584 60.1512L14.3639 59.8847C10.3218 57.7048 7.54996 54.992 5.63098 52.2337C3.97133 49.832 2.7655 47.1466 2.07316 44.3106C1.56135 42.2234 1.30204 40.0823 1.30081 37.9332C1.29036 36.9606 1.35291 35.9886 1.48794 35.0253L1.6592 33.9898C1.67382 33.9054 1.67158 33.8189 1.65261 33.7353C1.63365 33.6517 1.59833 33.5727 1.5487 33.5028C1.49906 33.433 1.43609 33.3736 1.36341 33.3282C1.29074 33.2828 1.20979 33.2522 1.12524 33.2382C1.04068 33.2242 0.954197 33.2271 0.870763 33.2467C0.787328 33.2663 0.708594 33.3022 0.639098 33.3523C0.569602 33.4025 0.510718 33.4659 0.465839 33.5389C0.42096 33.6119 0.390975 33.6931 0.37761 33.7777L0.206353 34.8132C0.0590496 35.8465 -0.00957462 36.8895 0.00107276 37.9332C0.00188945 40.1881 0.273767 42.4347 0.810854 44.6247C1.54196 47.6154 2.81468 50.4468 4.56602 52.9788C6.59047 55.8925 9.52678 58.7573 13.7526 61.0313L14.5556 61.4634C14.6502 61.5145 14.756 61.5413 14.8635 61.5413C14.971 61.5413 15.0768 61.5145 15.1714 61.4634L15.9733 61.0313C20.1946 58.7562 23.132 55.8925 25.1599 52.9788C26.9103 50.447 28.1823 47.616 28.9128 44.6259C29.4499 42.4359 29.7217 40.1893 29.7225 37.9344C29.7332 36.8907 29.6645 35.8477 29.5173 34.8143L29.346 33.7789C29.3326 33.6942 29.3027 33.613 29.2578 33.54C29.2129 33.467 29.154 33.4036 29.0845 33.3535C29.015 33.3033 28.9363 33.2674 28.8529 33.2478C28.7694 33.2282 28.6829 33.2253 28.5984 33.2393C28.5138 33.2533 28.4329 33.2839 28.3602 33.3293C28.2875 33.3748 28.2246 33.4341 28.1749 33.504C28.1253 33.5738 28.09 33.6528 28.071 33.7364C28.052 33.82 28.0498 33.9065 28.0644 33.9909L28.0576 33.9887V33.9887Z" fill="black"/>
<path fill-rule="evenodd" clip-rule="evenodd" d="M5.20839 33.2826L14.86 30.3338L24.7271 33.3461C24.8923 33.3955 25.0703 33.3774 25.2222 33.2958C25.3741 33.2143 25.4875 33.0759 25.5376 32.9109C25.5877 32.7459 25.5704 32.5678 25.4895 32.4156C25.4086 32.2633 25.2706 32.1493 25.1059 32.0985L15.0494 29.0284C14.926 28.9905 14.794 28.9905 14.6706 29.0284L4.82845 32.0327C4.74621 32.0573 4.66963 32.0979 4.60311 32.1522C4.53659 32.2064 4.48144 32.2733 4.44083 32.3489C4.40023 32.4246 4.37495 32.5075 4.36647 32.5929C4.35799 32.6783 4.36646 32.7646 4.3914 32.8467C4.41634 32.9289 4.45726 33.0053 4.51181 33.0716C4.56636 33.1378 4.63346 33.1927 4.70926 33.233C4.78507 33.2733 4.86808 33.2982 4.95354 33.3063C5.039 33.3144 5.12523 33.3056 5.20726 33.2803L5.20839 33.2826V33.2826Z" fill="black"/>
<path fill-rule="evenodd" clip-rule="evenodd" d="M0.442108 34.178L14.2787 61.1843C14.3326 61.2899 14.4145 61.3786 14.5153 61.4409C14.6161 61.5033 14.7321 61.5368 14.8506 61.5378C14.9692 61.5389 15.0857 61.5074 15.1876 61.4469C15.2895 61.3864 15.3729 61.2991 15.4287 61.1945L23.8668 45.4128L23.8793 45.3879L29.2801 34.1598C29.3533 34.0049 29.3624 33.8273 29.3054 33.6657C29.2483 33.5041 29.1298 33.3715 28.9756 33.2968C28.8214 33.2221 28.6439 33.2112 28.4818 33.2667C28.3196 33.3221 28.1859 33.4393 28.1096 33.5928L22.7179 44.8118L14.8764 59.4876L1.5978 33.5837C1.55953 33.5068 1.50638 33.4382 1.44143 33.382C1.37648 33.3258 1.30101 33.283 1.21941 33.2562C1.1378 33.2293 1.05168 33.2189 0.966032 33.2256C0.880385 33.2323 0.796913 33.2559 0.720454 33.295C0.643995 33.3342 0.576069 33.3882 0.52061 33.4538C0.465152 33.5194 0.423264 33.5953 0.397375 33.6773C0.371485 33.7592 0.362108 33.8454 0.369786 33.931C0.377465 34.0165 0.402047 34.0997 0.442108 34.1757V34.178Z" fill="black"/>
<path fill-rule="evenodd" clip-rule="evenodd" d="M7.06336 46.2072H22.4503C22.6225 46.2072 22.7877 46.1388 22.9095 46.017C23.0312 45.8952 23.0996 45.7301 23.0996 45.5579C23.0996 45.3857 23.0312 45.2205 22.9095 45.0988C22.7877 44.977 22.6225 44.9086 22.4503 44.9086H7.06336C6.89116 44.9086 6.72601 44.977 6.60424 45.0988C6.48247 45.2205 6.41406 45.3857 6.41406 45.5579C6.41406 45.7301 6.48247 45.8952 6.60424 46.017C6.72601 46.1388 6.89116 46.2072 7.06336 46.2072V46.2072ZM49.9818 40.6045H39.9718C39.7988 40.6054 39.6332 40.6745 39.5108 40.7968C39.3885 40.9191 39.3194 41.0848 39.3185 41.2578V49.2921C39.3197 49.4649 39.3889 49.6304 39.5112 49.7527C39.6334 49.8749 39.7989 49.9441 39.9718 49.9453H49.9818V51.3063H39.9718C39.7077 51.3075 39.446 51.2564 39.2017 51.1559C38.9575 51.0553 38.7356 50.9074 38.5488 50.7207C38.3621 50.5339 38.2142 50.312 38.1137 50.0678C38.0131 49.8236 37.962 49.5618 37.9632 49.2977V41.2634C37.962 40.9993 38.0131 40.7376 38.1137 40.4934C38.2142 40.2491 38.3621 40.0272 38.5488 39.8405C38.7356 39.6537 38.9575 39.5058 39.2017 39.4053C39.446 39.3048 39.7077 39.2537 39.9718 39.2549H49.9818V40.6045V40.6045ZM68.778 39.248V40.609H59.1377V44.5865H66.8862V45.9588H59.1366V49.9431H68.7769V51.304H57.7756V39.248H68.778Z" fill="black"/>
<path d="M88.63 41.2723V44.804C88.6311 45.0681 88.5798 45.3297 88.4793 45.5739C88.3787 45.8181 88.2308 46.0399 88.0441 46.2266C87.8573 46.4133 87.6355 46.5612 87.3913 46.6618C87.1472 46.7624 86.8855 46.8136 86.6214 46.8126H84.7807L88.5631 51.2981H86.7723L83.0058 46.8126H78.5826C78.3638 46.8014 78.1458 46.7791 77.9293 46.7457V51.2981H76.5684V39.2637H86.6112C86.8753 39.2626 87.137 39.3139 87.3811 39.4144C87.6253 39.515 87.8471 39.6629 88.0339 39.8496C88.2206 40.0364 88.3685 40.2582 88.4691 40.5024C88.5696 40.7465 88.6209 41.0082 88.6198 41.2723H88.63V41.2723ZM78.5871 45.4403H86.6214C86.7053 45.4413 86.7885 45.4256 86.8662 45.394C86.9439 45.3624 87.0144 45.3156 87.0737 45.2563C87.133 45.197 87.1798 45.1264 87.2114 45.0487C87.243 44.9711 87.2588 44.8878 87.2577 44.804V41.2723C87.259 41.1872 87.2434 41.1027 87.2119 41.0236C87.1804 40.9446 87.1335 40.8726 87.074 40.8118C87.0162 40.7495 86.9459 40.7002 86.8677 40.667C86.7895 40.6337 86.7052 40.6174 86.6203 40.619H78.586C78.413 40.6199 78.2474 40.689 78.1251 40.8113C78.0027 40.9336 77.9336 41.0993 77.9327 41.2723V44.804C77.931 44.8889 77.9473 44.9733 77.9805 45.0515C78.0137 45.1297 78.0632 45.2 78.1255 45.2577C78.1865 45.3173 78.2587 45.3641 78.3379 45.3955C78.4172 45.4268 78.5019 45.442 78.5871 45.4403V45.4403Z" fill="black"/>
<path fill-rule="evenodd" clip-rule="evenodd" d="M95.8281 39.248H107.875V40.609H102.545V51.3052H101.184V40.609H95.8281V39.248ZM115.177 51.2995V39.248H116.538V51.2995H115.177ZM134.626 39.248H136.367L131.329 45.2738L136.384 51.2995H134.626L130.141 45.9599H126.257V51.2995H124.887V39.248H126.26V44.5865H130.143L134.626 39.248Z" fill="black"/>
</svg>
