<svg width="26" height="22" viewBox="0 0 26 22" fill="none" xmlns="http://www.w3.org/2000/svg">
<path d="M25.1866 2.61246C24.25 3.04052 23.252 3.32426 22.2115 3.46202C23.2819 2.79615 24.0989 1.74978 24.483 0.488558C23.4849 1.10851 22.383 1.54641 21.2087 1.79078C20.2611 0.739491 18.9104 0.0883789 17.437 0.0883789C14.5783 0.0883789 12.2769 2.50586 12.2769 5.46948C12.2769 5.8959 12.3115 6.30592 12.3965 6.69626C8.1038 6.47813 4.30534 4.33454 1.75362 1.06915C1.30813 1.87443 1.04682 2.79615 1.04682 3.7884C1.04682 5.65153 1.9677 7.30309 3.34038 8.25925C2.51079 8.24285 1.69695 7.99192 1.00746 7.59666C1.00746 7.61306 1.00746 7.63438 1.00746 7.65571C1.00746 10.27 2.79729 12.4415 5.14437 12.9417C4.72407 13.0614 4.26598 13.1188 3.79059 13.1188C3.46001 13.1188 3.12629 13.0991 2.81303 13.027C3.48205 15.1574 5.38049 16.7237 7.63784 16.7745C5.88108 18.2063 3.65049 19.069 1.23572 19.069C0.812269 19.069 0.406134 19.0493 0 18.9952C2.28726 20.532 4.99797 21.4094 7.92119 21.4094C17.4228 21.4094 22.6176 13.209 22.6176 6.10091C22.6176 5.8631 22.6097 5.63349 22.5987 5.40552C23.6235 4.6478 24.4845 3.70147 25.1866 2.61246Z" fill="#717376"/>
</svg>
