<svg width="24" height="24" viewBox="0 0 24 24" fill="none" xmlns="http://www.w3.org/2000/svg">
<path d="M12.0439 6.08025C12.9368 5.8685 13.9811 5.85338 14.5259 6.33737C14.7832 6.56425 14.9497 6.74575 15.0556 6.91212C14.5259 5.8685 13.179 5.7475 12.0439 6.08025ZM15.0556 6.92725C15.0859 7.00287 15.1161 7.06337 15.1464 7.139C15.1313 7.0785 15.101 7.00287 15.0556 6.92725ZM12.0439 6.08025C12.9368 5.8685 13.9811 5.85338 14.5259 6.33737C14.7832 6.56425 14.9497 6.74575 15.0556 6.91212C14.5259 5.8685 13.179 5.7475 12.0439 6.08025ZM15.0556 6.92725C15.0859 7.00287 15.1161 7.06337 15.1464 7.139C15.1313 7.0785 15.101 7.00287 15.0556 6.92725ZM12.0439 6.08025C12.9368 5.8685 13.9811 5.85338 14.5259 6.33737C14.7832 6.56425 14.9497 6.74575 15.0556 6.91212C14.5259 5.8685 13.179 5.7475 12.0439 6.08025ZM15.0556 6.92725C15.0859 7.00287 15.1161 7.06337 15.1464 7.139C15.1313 7.0785 15.101 7.00287 15.0556 6.92725ZM12.0439 6.08025C12.9368 5.8685 13.9811 5.85338 14.5259 6.33737C14.7832 6.56425 14.9497 6.74575 15.0556 6.91212C14.5259 5.8685 13.179 5.7475 12.0439 6.08025ZM15.0556 6.92725C15.0859 7.00287 15.1161 7.06337 15.1464 7.139C15.1313 7.0785 15.101 7.00287 15.0556 6.92725ZM20.2465 12.4327C20.2163 12.463 20.186 12.4781 20.1557 12.5084C20.186 12.4781 20.2314 12.463 20.2617 12.4327H20.2465ZM20.2465 12.4327C20.2163 12.463 20.186 12.4781 20.1557 12.5084C20.186 12.4781 20.2314 12.463 20.2617 12.4327H20.2465ZM12.0439 6.08025C12.9368 5.8685 13.9811 5.85338 14.5259 6.33737C14.7832 6.56425 14.9497 6.74575 15.0556 6.91212C14.5259 5.8685 13.179 5.7475 12.0439 6.08025ZM15.0556 6.92725C15.0859 7.00287 15.1161 7.06337 15.1464 7.139C15.1313 7.0785 15.101 7.00287 15.0556 6.92725ZM20.2465 12.4327C20.2163 12.463 20.186 12.4781 20.1557 12.5084C20.186 12.4781 20.2314 12.463 20.2617 12.4327H20.2465ZM12.0439 6.08025C12.9368 5.8685 13.9811 5.85338 14.5259 6.33737C14.7832 6.56425 14.9497 6.74575 15.0556 6.91212C14.5259 5.8685 13.179 5.7475 12.0439 6.08025ZM15.0556 6.92725C15.0859 7.00287 15.1161 7.06337 15.1464 7.139C15.1313 7.0785 15.101 7.00287 15.0556 6.92725ZM12.0439 6.08025C12.9368 5.8685 13.9811 5.85338 14.5259 6.33737C14.7832 6.56425 14.9497 6.74575 15.0556 6.91212C14.5259 5.8685 13.179 5.7475 12.0439 6.08025ZM15.0556 6.92725C15.0859 7.00287 15.1161 7.06337 15.1464 7.139C15.1313 7.0785 15.101 7.00287 15.0556 6.92725ZM20.2465 12.4327C20.2163 12.463 20.186 12.4781 20.1557 12.5084C20.186 12.4781 20.2314 12.463 20.2617 12.4327H20.2465ZM20.2465 12.4327C20.2163 12.463 20.186 12.4781 20.1557 12.5084C20.186 12.4781 20.2314 12.463 20.2617 12.4327H20.2465ZM12.0439 6.08025C12.9368 5.8685 13.9811 5.85338 14.5259 6.33737C14.7832 6.56425 14.9497 6.74575 15.0556 6.91212C14.5259 5.8685 13.179 5.7475 12.0439 6.08025ZM15.0556 6.92725C15.0859 7.00287 15.1161 7.06337 15.1464 7.139C15.1313 7.0785 15.101 7.00287 15.0556 6.92725ZM12.0439 6.08025C12.9368 5.8685 13.9811 5.85338 14.5259 6.33737C14.7832 6.56425 14.9497 6.74575 15.0556 6.91212C14.5259 5.8685 13.179 5.7475 12.0439 6.08025ZM15.0556 6.92725C15.0859 7.00287 15.1161 7.06337 15.1464 7.139C15.1313 7.0785 15.101 7.00287 15.0556 6.92725Z" fill="white"/>
<path d="M12.0439 6.08025C12.9368 5.8685 13.9811 5.85338 14.5259 6.33737C14.7832 6.56425 14.9497 6.74575 15.0556 6.91212C14.5259 5.8685 13.179 5.7475 12.0439 6.08025ZM15.0556 6.92725C15.0859 7.00287 15.1161 7.06337 15.1464 7.139C15.1313 7.0785 15.101 7.00287 15.0556 6.92725ZM20.2465 12.4327C20.2163 12.463 20.186 12.4781 20.1557 12.5084C20.186 12.4781 20.2314 12.463 20.2617 12.4327H20.2465Z" fill="white"/>
<path d="M15.0559 6.92725C15.0862 7.00287 15.1164 7.06337 15.1467 7.139C15.1316 7.0785 15.1013 7.00287 15.0559 6.92725ZM20.2469 12.4327C20.2166 12.463 20.1863 12.4781 20.156 12.5084C20.1863 12.4781 20.2317 12.463 20.262 12.4327H20.2469Z" fill="white"/>
<path d="M15.0556 6.91212C14.9648 6.74575 14.7832 6.56425 14.5259 6.33737C13.9811 5.85338 12.9368 5.8685 12.0439 6.08025C13.179 5.7475 14.5259 5.8685 15.0556 6.91212Z" fill="white"/>
<path d="M11.9382 9.28678C11.9382 9.89177 11.575 10.4514 10.9999 10.6783C10.44 10.9051 9.78921 10.7841 9.35033 10.3455C8.91145 9.9069 8.79037 9.27165 9.01738 8.6969C9.24439 8.13728 9.80435 7.75916 10.4097 7.75916C11.2572 7.77428 11.9382 8.4549 11.9382 9.28678Z" fill="white"/>
<path d="M11.9382 3.20559e-05C7.09533 0.030282 2.72162 2.96452 0.890412 7.45663C-0.940795 11.9487 0.103447 17.1064 3.55399 20.5246C7.00452 23.9428 12.1652 24.9411 16.6448 23.0656C21.1245 21.1901 24.0151 16.8039 23.9999 11.9487C23.9697 5.32402 18.582 -0.0150929 11.9382 3.20559e-05ZM11.242 11.253C10.4399 11.5857 9.51676 11.4042 8.89627 10.7841C8.27578 10.164 8.09417 9.24138 8.42711 8.43976C8.76006 7.63813 9.54703 7.10876 10.4097 7.10876C10.9848 7.10876 11.5296 7.33563 11.9231 7.72888C12.3468 8.15238 12.5738 8.69688 12.5738 9.27163C12.5738 10.1338 12.0441 10.9202 11.242 11.253ZM12.1803 13.7184C12.7857 14.1116 13.497 14.2477 14.1931 14.278C14.9044 14.2931 15.6157 14.2477 16.3119 14.1116C17.0081 13.9604 17.7042 13.7486 18.3701 13.4764C18.5366 13.4159 18.6879 13.3402 18.8544 13.2646C19.3084 13.0529 19.7473 12.8109 20.1559 12.5084C19.6262 12.9621 19.036 13.31 18.4155 13.5974C17.7496 13.915 17.0686 14.157 16.3573 14.3536C15.646 14.5351 14.9044 14.6712 14.1629 14.6107C13.4062 14.5502 12.6495 14.2931 12.1501 13.7335L12.1803 13.7184ZM18.1128 10.9354C18.3701 10.9505 18.582 11.1471 18.582 11.4042C18.582 11.8126 18.0826 12.0244 17.795 11.737C17.5075 11.4496 17.7042 10.9505 18.1128 10.9354ZM16.2968 22.2337C15.5401 22.5513 14.7531 22.7782 13.9661 22.9295V22.9143C13.5121 19.6625 16.3422 16.5014 17.9312 14.8981C18.2944 14.52 18.8544 14.0209 19.3841 13.4764L19.3992 13.4612C21.4726 11.5252 21.8812 9.196 17.6286 8.04651C16.8265 7.81963 15.9941 7.48688 15.1466 7.15413C15.1163 7.07851 15.086 7.00289 15.0558 6.94239C14.965 6.77601 14.7834 6.59451 14.5261 6.36764C13.9813 5.88364 12.937 5.89876 12.0441 6.11051C11.0604 5.88364 10.0767 5.79289 9.13841 6.01976C4.88577 7.19951 4.32582 9.28675 4.18961 11.8126C4.17448 11.9639 4.15934 12.1302 4.14421 12.2815C3.94747 14.4897 3.67506 16.3652 2.84269 18.3012C0.754206 15.246 0.285054 11.3135 1.72278 7.81963C3.41778 3.66027 7.45854 0.952904 11.9382 0.922654C18.0826 0.892404 23.0768 5.82314 23.107 11.9487C23.1222 16.4409 20.4435 20.4943 16.2968 22.2337ZM20.1559 12.5084C20.1862 12.4781 20.2165 12.463 20.2467 12.4327H20.2619C20.2316 12.463 20.1862 12.4932 20.1559 12.5084Z" fill="white"/>
<path d="M22.4261 12.7504H22.3504C22.1234 11.3589 21.8056 10.043 21.3062 8.78764C21.0792 8.15239 20.7916 7.53227 20.489 6.94239C20.156 6.35252 19.8079 5.76265 19.4145 5.21815C19.021 4.65853 18.5215 4.1594 17.9616 3.75103C17.4016 3.34265 16.7509 3.08553 16.1304 2.84353C15.5099 2.60153 14.8743 2.34441 14.2235 2.14778C13.5727 1.96628 12.9069 1.81503 12.2107 1.67891V1.63354C12.922 1.51254 13.6333 1.51254 14.3446 1.63354C15.0559 1.73941 15.752 1.98141 16.3877 2.31416C17.0233 2.66203 17.5681 3.13091 18.1129 3.56953C18.6578 4.00815 19.2026 4.4619 19.7171 4.96102C20.2468 5.44502 20.7008 6.00465 21.0792 6.60964C21.4727 7.21464 21.7905 7.86502 22.0326 8.53051C22.5018 9.89176 22.6531 11.3589 22.4261 12.7504Z" fill="white"/>
<path d="M7.21641 22.0068C6.11164 21.4774 5.08253 20.7666 4.18963 19.8893C4.05342 19.7532 3.91721 19.6171 3.79614 19.4658C4.50744 20.2372 5.68789 21.2506 7.21641 22.0068Z" fill="white"/>
<path d="M20.2619 12.4327C20.2316 12.463 20.2014 12.4781 20.156 12.5084C20.1863 12.4781 20.2165 12.463 20.2468 12.4327H20.2619Z" fill="white"/>
<path d="M20.2619 12.4327C20.2316 12.463 20.2014 12.4781 20.156 12.5084C20.1863 12.4781 20.2165 12.463 20.2468 12.4327H20.2619Z" fill="white"/>
</svg>
