<svg width="27" height="20" viewBox="0 0 27 20" fill="none" xmlns="http://www.w3.org/2000/svg">
<path d="M14.2443 19.3433L8.76724 19.2387C6.99389 19.2023 5.21613 19.275 3.47755 18.8975C0.832778 18.3334 0.645413 15.5674 0.449355 13.2473C0.179207 9.98554 0.283789 6.66457 0.793593 3.43002C1.08139 1.6151 2.21401 0.532129 3.96556 0.414281C9.87832 -0.0134078 15.8304 0.0372778 21.7301 0.23681C22.3531 0.255102 22.9805 0.355077 23.5949 0.468876C26.6276 1.02391 26.7016 4.15834 26.8982 6.79694C27.0942 9.46276 27.0115 12.1423 26.6367 14.79C26.3361 16.9822 25.7609 18.8205 23.3334 18.998C20.292 19.2301 17.3204 19.4169 14.2704 19.3574C14.2705 19.3433 14.253 19.3433 14.2443 19.3433ZM11.0243 13.7933C13.3163 12.4193 15.5645 11.0682 17.8434 9.70349C15.5472 8.32952 13.3032 6.97846 11.0243 5.61371V13.7933Z" fill="#717376"/>
</svg>
