<svg width="26" height="25" viewBox="0 0 26 25" fill="none" xmlns="http://www.w3.org/2000/svg">
<path d="M25.9379 12.5V12.4516C25.9133 5.59593 20.3048 0 13.4416 0C6.55389 0 0.945312 5.59593 0.945312 12.5C0.945312 19.3798 6.55389 25 13.4416 25C16.6149 25 19.616 23.813 21.9283 21.657C22.3957 21.2209 22.4203 20.5184 21.9775 20.0581C21.5593 19.5979 20.8459 19.5736 20.3785 19.9855C20.3785 19.9855 20.3786 19.9855 20.354 20.0097C18.4844 21.7539 15.9753 22.7471 13.3924 22.7471C10.3667 22.7471 7.66085 21.439 5.79132 19.3556L11.1293 10.9254V14.8256C11.1293 16.6909 11.8673 17.2965 12.4823 17.4661C13.0972 17.6357 14.032 17.5145 15.0406 15.9399L17.9678 11.2645C18.0662 11.1192 18.14 10.9738 18.2384 10.8769V13.251C18.2384 14.9952 18.9518 16.4002 20.1818 17.0785C21.2887 17.7083 22.6909 17.6357 23.847 16.9331C25.2738 16.0126 26.0363 14.4138 25.9379 12.5ZM22.6909 14.9467C22.2481 15.2132 21.7315 15.2616 21.3379 15.0436C20.8459 14.7529 20.5507 14.0988 20.5507 13.2025V10.4651C20.5507 9.15698 20.0342 8.21221 19.1486 7.96996C17.6481 7.53392 16.5165 9.35078 16.0983 10.0291L13.4416 14.22V9.06008C13.417 7.87306 13.0234 7.17054 12.2855 6.95252C11.7935 6.80717 11.0555 6.87985 10.3421 7.94574L4.41378 17.2965C3.62661 15.8188 3.20842 14.1715 3.20842 12.5C3.20842 6.85562 7.80844 2.27713 13.4416 2.27713C19.0748 2.27713 23.6748 6.85562 23.6748 12.5V12.5485C23.724 13.6386 23.3796 14.5107 22.6909 14.9467Z" fill="white"/>
</svg>
