<svg width="27" height="27" viewBox="0 0 27 27" fill="none" xmlns="http://www.w3.org/2000/svg">
<path d="M13.5168 0.864258C6.5545 0.864258 0.910156 6.50813 0.910156 13.4709C0.910156 20.4331 6.5545 26.0775 13.5168 26.0775C20.4795 26.0775 26.1234 20.4331 26.1234 13.4709C26.1234 6.50813 20.4795 0.864258 13.5168 0.864258ZM17.3996 19.4685C17.3996 19.4685 17.0846 20.256 16.2187 19.8781L13.0146 17.4218L12.9915 17.4038L11.0269 15.8974L11.0226 15.8941L11.0132 15.8894L11.0165 15.8606L11.0297 15.871L11.0382 15.7996C11.0382 15.7996 16.8011 10.6196 17.0373 10.399C17.2735 10.1784 17.1946 10.1312 17.1946 10.1312C17.2107 9.86384 16.7695 10.1312 16.7695 10.1312L9.13316 14.981L5.95223 13.9102C5.95223 13.9102 5.46427 13.7373 5.41703 13.3594C5.3698 12.9815 5.96829 12.7765 5.96829 12.7765L18.6117 7.81659C18.6117 7.81659 19.6509 7.36028 19.6509 8.11607L17.3996 19.4685Z" fill="#717376"/>
</svg>
