<svg width="25" height="20" viewBox="0 0 25 20" fill="none" xmlns="http://www.w3.org/2000/svg">
<path d="M3.03949 4.12171C3.06939 3.8161 2.9555 3.51338 2.73056 3.3077L0.445645 0.506481V0.0878906H7.54384L13.0305 12.3298L17.8537 0.0878906H24.6202V0.506481L22.6656 2.41259C22.4976 2.54294 22.4136 2.75876 22.4478 2.97023V16.9792C22.4122 17.1922 22.4962 17.4065 22.6656 17.5369L24.5747 19.443V19.8616H14.9737V19.443L16.9512 17.4905C17.1448 17.2935 17.1448 17.2342 17.1448 16.9329V5.61068L11.6467 19.8181H10.9036L4.50298 5.61068V15.1325C4.4503 15.5323 4.57985 15.9364 4.85746 16.2261L7.42995 19.3995V19.8181H0.136719V19.3995L2.70921 16.2261C2.98397 15.9364 3.10782 15.5308 3.04091 15.1325V4.12171H3.03949Z" fill="#717376"/>
</svg>
