<svg width="24" height="24" viewBox="0 0 24 24" fill="none" xmlns="http://www.w3.org/2000/svg">
<path d="M23.4377 1.93322V22.7838C23.4377 23.3734 22.9584 23.8528 22.3688 23.8528H16.309V14.916H19.3044L19.732 11.4735H16.309V9.16081C16.309 7.48495 18.1412 7.64127 18.1412 7.64127H19.9274V4.41943C19.2101 4.39874 18.2688 4.3746 17.0354 4.34702C12.5803 4.24931 12.7435 8.83552 12.7435 8.83552V11.4735H9.68025V14.916H12.7435V23.8528H1.51818C0.92738 23.8528 0.449219 23.3734 0.449219 22.7838V1.93322C0.449219 1.34242 0.92738 0.864258 1.51818 0.864258H22.3688C22.9584 0.864258 23.4377 1.34242 23.4377 1.93322Z" fill="#717376"/>
</svg>
