<svg width="25" height="25" viewBox="0 0 25 25" fill="none" xmlns="http://www.w3.org/2000/svg">
<path d="M24.0659 12.7931C24.0659 6.06173 18.7533 0.60498 12.2005 0.60498C5.6477 0.60498 0.335693 6.06173 0.335693 12.7931C0.335693 18.1358 3.68242 22.6751 8.34002 24.3207C8.62389 24.1102 8.95083 23.8505 8.95083 23.4134C8.95083 22.7433 8.93682 21.0188 8.93682 21.0188C8.93682 21.0188 8.42202 21.1088 7.68666 21.1088C5.83452 21.1088 5.24914 19.9014 4.97046 19.226C4.60771 18.3458 4.13754 17.9327 3.63779 17.6022C3.33109 17.399 3.26051 17.1602 3.61548 17.0914C5.25485 16.7759 5.67364 18.9909 6.76863 19.3438C7.55018 19.5954 8.55487 19.4866 9.05462 19.1561C9.12053 18.4796 9.59796 17.8948 9.99548 17.5867C7.21078 17.3132 5.55999 16.3254 4.70372 14.7373L4.61187 14.5593L4.3965 14.0549L4.33319 13.8742C4.06489 13.0682 3.94657 12.1449 3.94657 11.1139C3.94657 9.28322 4.50496 8.59233 5.25485 7.61623C4.6814 5.52917 5.46087 4.10261 5.46087 4.10261C5.46087 4.10261 6.6664 3.84726 8.9446 5.51424C10.1792 4.97369 13.4719 4.92837 15.0298 5.3943C15.9852 4.74872 17.7346 3.83233 18.4399 4.08928C18.6309 4.40328 19.0424 5.31966 18.69 7.33156C18.9293 7.77296 20.1747 8.71281 20.1794 11.3708C20.1592 12.3512 20.0595 13.1785 19.8743 13.8785L19.7715 14.2367C19.7715 14.2367 19.7129 14.4057 19.6485 14.5667L19.5733 14.7448C18.7471 16.5983 17.0527 17.2903 14.3147 17.5782C15.2021 18.1486 15.4564 18.8645 15.4564 20.8018C15.4564 22.739 15.431 22.9992 15.4372 23.4449C15.4424 23.8388 15.7491 24.1219 16.0247 24.3362C20.7004 22.7007 24.0659 18.1507 24.0659 12.7931Z" fill="#717376"/>
</svg>
