<svg width="23" height="23" viewBox="0 0 23 23" fill="none" xmlns="http://www.w3.org/2000/svg">
<path d="M21.3571 0H1.63772C0.734152 0 0 0.74442 0 1.65826V21.3417C0 22.2556 0.734152 23 1.63772 23H21.3571C22.2607 23 23 22.2556 23 21.3417V1.65826C23 0.74442 22.2607 0 21.3571 0ZM6.95134 19.7143H3.54241V8.73795H6.95647V19.7143H6.95134ZM5.24688 7.23884C4.15335 7.23884 3.27031 6.35067 3.27031 5.26228C3.27031 4.17388 4.15335 3.28571 5.24688 3.28571C6.33527 3.28571 7.22344 4.17388 7.22344 5.26228C7.22344 6.3558 6.3404 7.23884 5.24688 7.23884V7.23884ZM19.7297 19.7143H16.3208V14.375C16.3208 13.1018 16.2951 11.4641 14.5496 11.4641C12.7732 11.4641 12.5011 12.8502 12.5011 14.2826V19.7143H9.09219V8.73795H12.3625V10.2371H12.4087C12.8656 9.37455 13.9797 8.46585 15.6379 8.46585C19.0879 8.46585 19.7297 10.7402 19.7297 13.6973V19.7143V19.7143Z" fill="white"/>
</svg>
