<svg width="24" height="27" viewBox="0 0 24 27" fill="none" xmlns="http://www.w3.org/2000/svg">
<path d="M20.936 0.864258H3.43871C1.9632 0.864258 0.761719 2.04697 0.761719 3.51173V20.8904C0.761719 22.356 1.9632 23.5378 3.43871 23.5378H18.2465L17.5547 21.1601L19.2257 22.6899L20.8057 24.1292L23.613 26.5719V3.51173C23.613 2.04697 22.4115 0.864258 20.936 0.864258ZM15.8962 17.6515C15.8962 17.6515 15.4258 17.0988 15.0348 16.6103C16.7451 16.1349 17.3985 15.0805 17.3985 15.0805C16.8629 15.4276 16.3541 15.6718 15.8971 15.8388C15.2446 16.1086 14.6171 16.2887 14.0039 16.3915C12.7506 16.6226 11.6009 16.5584 10.6217 16.3783C9.87723 16.2368 9.23722 16.0312 8.70253 15.8256C8.40261 15.7096 8.07591 15.5682 7.74921 15.3889C7.70993 15.3634 7.67066 15.3503 7.63138 15.3248C7.60549 15.3116 7.59211 15.2993 7.57872 15.2861C7.34396 15.1578 7.21274 15.0673 7.21274 15.0673C7.21274 15.0673 7.83936 16.0954 9.49787 16.5839C9.106 17.0725 8.62309 17.6506 8.62309 17.6506C5.73723 17.561 4.64019 15.6965 4.64019 15.6965C4.64019 11.5578 6.52095 8.20303 6.52095 8.20303C8.40172 6.81471 10.1905 6.85337 10.1905 6.85337L10.3209 7.00802C7.97058 7.6767 6.88693 8.69158 6.88693 8.69158C6.88693 8.69158 7.17436 8.53693 7.65727 8.31902C9.05423 7.71448 10.1647 7.54753 10.6217 7.50887C10.7002 7.49569 10.7654 7.48339 10.8439 7.48339C11.6402 7.38058 12.5417 7.3551 13.4817 7.45791C14.7224 7.59937 16.0542 7.95964 17.4119 8.69158C17.4119 8.69158 16.38 7.72766 14.1601 7.05898L14.343 6.85337C14.343 6.85337 16.1319 6.81471 18.0126 8.20303C18.0126 8.20303 19.8934 11.5578 19.8934 15.6965C19.8916 15.6973 18.7812 17.5619 15.8962 17.6515ZM9.82368 11.6484C9.07922 11.6484 8.49187 12.2907 8.49187 13.0753C8.49187 13.8591 9.09261 14.5023 9.82368 14.5023C10.5681 14.5023 11.1555 13.86 11.1555 13.0753C11.1689 12.2915 10.5681 11.6484 9.82368 11.6484ZM14.5903 11.6484C13.8459 11.6484 13.2585 12.2907 13.2585 13.0753C13.2585 13.8591 13.8592 14.5023 14.5903 14.5023C15.3348 14.5023 15.9221 13.86 15.9221 13.0753C15.9221 12.2915 15.3339 11.6484 14.5903 11.6484Z" fill="#717376"/>
</svg>
